# https://github.com/mikedh/trimesh

o left_hand_thumb_0_link.STL
v -0.03330711 0.00900000 0.00789289
v -0.03330711 -0.00900000 0.00789289
v -0.03139289 0.00900000 0.00980711
v -0.03139289 -0.00900000 0.00980711
v -0.03068579 0.00900000 0.01010000
v -0.03068579 -0.00900000 0.01010000
v -0.02430000 0.00900000 0.01010000
v -0.02430000 -0.00900000 0.01010000
v -0.03360000 0.00900000 -0.00250000
v -0.03360000 -0.00900000 -0.00250000
v -0.03360000 0.00900000 0.00718579
v -0.03360000 -0.00900000 0.00718579
v -0.03097968 -0.00950000 0.00950451
v -0.03103934 -0.00950000 0.00945355
v -0.02430000 -0.00950000 -0.01100000
v -0.03291425 -0.00950000 -0.00426725
v -0.03268398 -0.00950000 -0.00512664
v -0.02460000 -0.00950000 -0.01100000
v -0.02430000 -0.00950000 0.00960000
v -0.03068579 -0.00950000 0.00960000
v -0.03076400 -0.00950000 0.00959384
v -0.03295355 -0.00950000 0.00753934
v -0.03310000 -0.00950000 0.00718579
v -0.03300451 -0.00950000 0.00747968
v -0.03310000 -0.00950000 -0.00250000
v -0.03305344 -0.00950000 -0.00338849
v -0.03084029 -0.00950000 0.00957553
v -0.03091278 -0.00950000 0.00954550
v -0.03028761 -0.00950000 -0.00881673
v -0.02959617 -0.00950000 -0.00937665
v -0.02885000 -0.00950000 -0.00986122
v -0.03304550 -0.00950000 0.00741278
v -0.03307553 -0.00950000 0.00734029
v -0.03309384 -0.00950000 0.00726400
v -0.03236514 -0.00950000 -0.00595726
v -0.03196122 -0.00950000 -0.00675000
v -0.03147665 -0.00950000 -0.00749617
v -0.02805726 -0.00950000 -0.01026514
v -0.02722664 -0.00950000 -0.01058398
v -0.02636725 -0.00950000 -0.01081426
v -0.03091673 -0.00950000 -0.00818761
v -0.02548849 -0.00950000 -0.01095344
v -0.03068579 0.00950000 0.00960000
v -0.03310000 0.00950000 -0.00250000
v -0.03310000 0.00950000 0.00718579
v -0.03291425 0.00950000 -0.00426725
v -0.03305344 0.00950000 -0.00338849
v -0.02460000 0.00950000 -0.01100000
v -0.02430000 0.00950000 -0.01100000
v -0.02430000 0.00950000 0.00960000
v -0.02636725 0.00950000 -0.01081426
v -0.02722664 0.00950000 -0.01058398
v -0.03028761 0.00950000 -0.00881673
v -0.03147665 0.00950000 -0.00749617
v -0.03196122 0.00950000 -0.00675000
v -0.02548849 0.00950000 -0.01095344
v -0.03236514 0.00950000 -0.00595726
v -0.03268398 0.00950000 -0.00512664
v -0.02805726 0.00950000 -0.01026514
v -0.02885000 0.00950000 -0.00986122
v -0.02959617 0.00950000 -0.00937665
v -0.03091673 0.00950000 -0.00818761
v -0.03097968 0.00950000 0.00950451
v -0.03091278 0.00950000 0.00954550
v -0.03084029 0.00950000 0.00957553
v -0.03076400 0.00950000 0.00959384
v -0.03307553 0.00950000 0.00734029
v -0.03304550 0.00950000 0.00741278
v -0.03309384 0.00950000 0.00726400
v -0.03300451 0.00950000 0.00747968
v -0.03295355 0.00950000 0.00753934
v -0.03103934 0.00950000 0.00945355
v -0.03355070 -0.00900000 -0.00344076
v -0.03355070 0.00900000 -0.00344076
v -0.03348920 -0.00900000 -0.00390791
v -0.03348920 0.00900000 -0.00390791
v -0.03340333 -0.00900000 -0.00437121
v -0.03340333 0.00900000 -0.00437121
v -0.03315951 -0.00900000 -0.00528115
v -0.03315951 0.00900000 -0.00528115
v -0.03282191 -0.00900000 -0.00616063
v -0.03282191 0.00900000 -0.00616063
v -0.03261906 -0.00900000 -0.00658591
v -0.03261906 0.00900000 -0.00658591
v -0.03239423 -0.00900000 -0.00700000
v -0.03239423 0.00900000 -0.00700000
v -0.03188115 -0.00900000 -0.00779007
v -0.03188115 0.00900000 -0.00779007
v -0.03128830 -0.00900000 -0.00852218
v -0.03128830 0.00900000 -0.00852218
v -0.03096396 -0.00900000 -0.00886396
v -0.03096396 0.00900000 -0.00886396
v -0.03062217 -0.00900000 -0.00918830
v -0.03062217 0.00900000 -0.00918830
v -0.02989007 -0.00900000 -0.00978115
v -0.02989007 0.00900000 -0.00978115
v -0.02910000 -0.00900000 -0.01029423
v -0.02910000 0.00900000 -0.01029423
v -0.02868591 -0.00900000 -0.01051906
v -0.02868591 0.00900000 -0.01051906
v -0.02826063 -0.00900000 -0.01072191
v -0.02826063 0.00900000 -0.01072191
v -0.02738115 -0.00900000 -0.01105951
v -0.02738115 0.00900000 -0.01105951
v -0.02647121 -0.00900000 -0.01130333
v -0.02647121 0.00900000 -0.01130333
v -0.02600791 -0.00900000 -0.01138920
v -0.02600791 0.00900000 -0.01138920
v -0.02554076 -0.00900000 -0.01145070
v -0.02554076 0.00900000 -0.01145070
v -0.02460000 -0.00900000 -0.01150000
v -0.02460000 0.00900000 -0.01150000
v -0.02430000 -0.00900000 -0.01150000
v -0.02430000 0.00900000 -0.01150000
v -0.03358769 -0.00900000 0.00734222
v -0.03358769 0.00900000 0.00734222
v -0.03355106 -0.00900000 0.00749480
v -0.03355106 0.00900000 0.00749480
v -0.03349101 -0.00900000 0.00763978
v -0.03349101 0.00900000 0.00763978
v -0.03340902 -0.00900000 0.00777357
v -0.03340902 0.00900000 0.00777357
v -0.03127357 -0.00900000 0.00990902
v -0.03127357 0.00900000 0.00990902
v -0.03113978 -0.00900000 0.00999101
v -0.03113978 0.00900000 0.00999101
v -0.03099480 -0.00900000 0.01005106
v -0.03099480 0.00900000 0.01005106
v -0.03084222 -0.00900000 0.01008769
v -0.03084222 0.00900000 0.01008769
v -0.03318682 0.00949240 -0.00250000
v -0.03318682 0.00949240 0.00718579
v -0.03327101 0.00946985 -0.00250000
v -0.03327101 0.00946985 0.00718579
v -0.03335000 0.00943301 -0.00250000
v -0.03335000 0.00943301 0.00718579
v -0.03342139 0.00938302 -0.00250000
v -0.03342139 0.00938302 0.00718579
v -0.03348302 0.00932139 -0.00250000
v -0.03348302 0.00932139 0.00718579
v -0.03353301 0.00925000 -0.00250000
v -0.03353301 0.00925000 0.00718579
v -0.03356985 0.00917101 -0.00250000
v -0.03356985 0.00917101 0.00718579
v -0.03359240 0.00908682 -0.00250000
v -0.03359240 0.00908682 0.00718579
v -0.03358019 0.00908682 0.00734103
v -0.03355791 0.00917101 0.00733750
v -0.03352153 0.00925000 0.00733174
v -0.03347215 0.00932139 0.00732392
v -0.03341128 0.00938302 0.00731428
v -0.03334077 0.00943301 0.00730311
v -0.03326275 0.00946985 0.00729076
v -0.03317960 0.00949240 0.00727759
v -0.03354383 0.00908682 0.00749246
v -0.03352238 0.00917101 0.00748549
v -0.03348735 0.00925000 0.00747410
v -0.03343980 0.00932139 0.00745866
v -0.03338119 0.00938302 0.00743961
v -0.03331329 0.00943301 0.00741755
v -0.03323817 0.00946985 0.00739314
v -0.03315810 0.00949240 0.00736713
v -0.03348424 0.00908682 0.00763633
v -0.03346414 0.00917101 0.00762609
v -0.03343132 0.00925000 0.00760937
v -0.03338678 0.00932139 0.00758667
v -0.03333187 0.00938302 0.00755869
v -0.03326825 0.00943301 0.00752628
v -0.03319788 0.00946985 0.00749042
v -0.03312286 0.00949240 0.00745220
v -0.03340287 0.00908682 0.00776911
v -0.03338462 0.00917101 0.00775585
v -0.03335482 0.00925000 0.00773420
v -0.03331438 0.00932139 0.00770481
v -0.03326452 0.00938302 0.00766859
v -0.03320676 0.00943301 0.00762663
v -0.03314286 0.00946985 0.00758020
v -0.03307475 0.00949240 0.00753071
v -0.03330174 0.00908682 0.00788752
v -0.03328579 0.00917101 0.00787157
v -0.03325974 0.00925000 0.00784553
v -0.03322439 0.00932139 0.00781018
v -0.03318081 0.00938302 0.00776660
v -0.03313033 0.00943301 0.00771612
v -0.03307448 0.00946985 0.00766026
v -0.03301495 0.00949240 0.00760073
v -0.02460000 0.00949240 -0.01108682
v -0.02549757 0.00949240 -0.01103979
v -0.02460000 0.00946985 -0.01117101
v -0.02550637 0.00946985 -0.01112351
v -0.02460000 0.00943301 -0.01125000
v -0.02551462 0.00943301 -0.01120207
v -0.02460000 0.00938302 -0.01132139
v -0.02552209 0.00938302 -0.01127307
v -0.02460000 0.00932139 -0.01138302
v -0.02552853 0.00932139 -0.01133436
v -0.02460000 0.00925000 -0.01143301
v -0.02553375 0.00925000 -0.01138408
v -0.02460000 0.00917101 -0.01146985
v -0.02553760 0.00917101 -0.01142071
v -0.02460000 0.00908682 -0.01149240
v -0.02553996 0.00908682 -0.01144314
v -0.02646963 0.00908682 -0.01129590
v -0.02737880 0.00908682 -0.01105228
v -0.02825754 0.00908682 -0.01071497
v -0.02909620 0.00908682 -0.01028765
v -0.02988560 0.00908682 -0.00977501
v -0.03061709 0.00908682 -0.00918266
v -0.03128266 0.00908682 -0.00851709
v -0.03187501 0.00908682 -0.00778560
v -0.03238765 0.00908682 -0.00699620
v -0.03281497 0.00908682 -0.00615754
v -0.03315229 0.00908682 -0.00527881
v -0.03339590 0.00908682 -0.00436963
v -0.03354314 0.00908682 -0.00343996
v -0.02646494 0.00917101 -0.01127383
v -0.02737183 0.00917101 -0.01103083
v -0.02824836 0.00917101 -0.01069436
v -0.02908492 0.00917101 -0.01026811
v -0.02987234 0.00917101 -0.00975676
v -0.03060200 0.00917101 -0.00916590
v -0.03126590 0.00917101 -0.00850200
v -0.03185676 0.00917101 -0.00777234
v -0.03236812 0.00917101 -0.00698492
v -0.03279436 0.00917101 -0.00614837
v -0.03313083 0.00917101 -0.00527183
v -0.03337383 0.00917101 -0.00436494
v -0.03352071 0.00917101 -0.00343760
v -0.02645728 0.00925000 -0.01123781
v -0.02736045 0.00925000 -0.01099580
v -0.02823338 0.00925000 -0.01066071
v -0.02906651 0.00925000 -0.01023622
v -0.02985069 0.00925000 -0.00972696
v -0.03057735 0.00925000 -0.00913852
v -0.03123852 0.00925000 -0.00847735
v -0.03182696 0.00925000 -0.00775069
v -0.03233622 0.00925000 -0.00696651
v -0.03276071 0.00925000 -0.00613338
v -0.03309580 0.00925000 -0.00526045
v -0.03333781 0.00925000 -0.00435728
v -0.03348408 0.00925000 -0.00343375
v -0.02644688 0.00932139 -0.01118891
v -0.02734501 0.00932139 -0.01094826
v -0.02821305 0.00932139 -0.01061505
v -0.02904151 0.00932139 -0.01019292
v -0.02982131 0.00932139 -0.00968652
v -0.03054390 0.00932139 -0.00910137
v -0.03120137 0.00932139 -0.00844390
v -0.03178652 0.00932139 -0.00772131
v -0.03229292 0.00932139 -0.00694151
v -0.03271504 0.00932139 -0.00611305
v -0.03304826 0.00932139 -0.00524500
v -0.03328891 0.00932139 -0.00434688
v -0.03343436 0.00932139 -0.00342853
v -0.02643407 0.00938302 -0.01112863
v -0.02732596 0.00938302 -0.01088964
v -0.02818798 0.00938302 -0.01055874
v -0.02901070 0.00938302 -0.01013955
v -0.02978509 0.00938302 -0.00963666
v -0.03050266 0.00938302 -0.00905557
v -0.03115557 0.00938302 -0.00840267
v -0.03173666 0.00938302 -0.00768509
v -0.03223955 0.00938302 -0.00691070
v -0.03265874 0.00938302 -0.00608798
v -0.03298964 0.00938302 -0.00522596
v -0.03322862 0.00938302 -0.00433407
v -0.03337307 0.00938302 -0.00342209
v -0.02641923 0.00943301 -0.01105879
v -0.02730390 0.00943301 -0.01082174
v -0.02815895 0.00943301 -0.01049352
v -0.02897500 0.00943301 -0.01007772
v -0.02974312 0.00943301 -0.00957890
v -0.03045489 0.00943301 -0.00900252
v -0.03110252 0.00943301 -0.00835489
v -0.03167890 0.00943301 -0.00764312
v -0.03217772 0.00943301 -0.00687500
v -0.03259352 0.00943301 -0.00605895
v -0.03292175 0.00943301 -0.00520390
v -0.03315879 0.00943301 -0.00431923
v -0.03330207 0.00943301 -0.00341462
v -0.02640281 0.00946985 -0.01098153
v -0.02727949 0.00946985 -0.01074662
v -0.02812682 0.00946985 -0.01042136
v -0.02893551 0.00946985 -0.01000931
v -0.02969669 0.00946985 -0.00951499
v -0.03040204 0.00946985 -0.00894382
v -0.03104382 0.00946985 -0.00830204
v -0.03161500 0.00946985 -0.00759669
v -0.03210932 0.00946985 -0.00683550
v -0.03252136 0.00946985 -0.00602682
v -0.03284662 0.00946985 -0.00517949
v -0.03308153 0.00946985 -0.00430280
v -0.03322351 0.00946985 -0.00340637
v -0.02638530 0.00949240 -0.01089918
v -0.02725348 0.00949240 -0.01066656
v -0.02809258 0.00949240 -0.01034445
v -0.02889341 0.00949240 -0.00993641
v -0.02964721 0.00949240 -0.00944689
v -0.03034571 0.00949240 -0.00888125
v -0.03098125 0.00949240 -0.00824571
v -0.03154689 0.00949240 -0.00754721
v -0.03203641 0.00949240 -0.00679341
v -0.03244445 0.00949240 -0.00599258
v -0.03276655 0.00949240 -0.00515347
v -0.03299918 0.00949240 -0.00428530
v -0.03313978 0.00949240 -0.00339757
v -0.03138752 0.00908682 0.00980174
v -0.03137157 0.00917101 0.00978578
v -0.03134553 0.00925000 0.00975974
v -0.03131018 0.00932139 0.00972439
v -0.03126660 0.00938302 0.00968081
v -0.03121612 0.00943301 0.00963033
v -0.03116026 0.00946985 0.00957448
v -0.03110073 0.00949240 0.00951495
v -0.02430000 0.00949240 -0.01108682
v -0.02430000 0.00946985 -0.01117101
v -0.02430000 0.00943301 -0.01125000
v -0.02430000 0.00938302 -0.01132139
v -0.02430000 0.00932139 -0.01138302
v -0.02430000 0.00925000 -0.01143301
v -0.02430000 0.00917101 -0.01146985
v -0.02430000 0.00908682 -0.01149240
v -0.03126911 0.00908682 0.00990287
v -0.03125585 0.00917101 0.00988462
v -0.03123420 0.00925000 0.00985482
v -0.03120481 0.00932139 0.00981438
v -0.03116859 0.00938302 0.00976452
v -0.03112663 0.00943301 0.00970676
v -0.03108020 0.00946985 0.00964286
v -0.03103071 0.00949240 0.00957475
v -0.03113633 0.00908682 0.00998424
v -0.03112609 0.00917101 0.00996414
v -0.03110936 0.00925000 0.00993132
v -0.03108667 0.00932139 0.00988678
v -0.03105869 0.00938302 0.00983187
v -0.03102628 0.00943301 0.00976825
v -0.03099042 0.00946985 0.00969787
v -0.03095220 0.00949240 0.00962286
v -0.03099246 0.00908682 0.01004383
v -0.03098549 0.00917101 0.01002238
v -0.03097410 0.00925000 0.00998735
v -0.03095865 0.00932139 0.00993980
v -0.03093961 0.00938302 0.00988119
v -0.03091755 0.00943301 0.00981329
v -0.03089314 0.00946985 0.00973817
v -0.03086712 0.00949240 0.00965810
v -0.03084103 0.00908682 0.01008019
v -0.03083750 0.00917101 0.01005791
v -0.03083174 0.00925000 0.01002153
v -0.03082392 0.00932139 0.00997215
v -0.03081428 0.00938302 0.00991128
v -0.03080311 0.00943301 0.00984077
v -0.03079076 0.00946985 0.00976275
v -0.03077759 0.00949240 0.00967960
v -0.03068579 0.00908682 0.01009240
v -0.03068579 0.00917101 0.01006985
v -0.03068579 0.00925000 0.01003301
v -0.03068579 0.00932139 0.00998302
v -0.03068579 0.00938302 0.00992139
v -0.03068579 0.00943301 0.00985000
v -0.03068579 0.00946985 0.00977101
v -0.03068579 0.00949240 0.00968682
v -0.02430000 0.00949240 0.00968682
v -0.02430000 0.00946985 0.00977101
v -0.02430000 0.00943301 0.00985000
v -0.02430000 0.00938302 0.00992139
v -0.02430000 0.00932139 0.00998302
v -0.02430000 0.00925000 0.01003301
v -0.02430000 0.00917101 0.01006985
v -0.02430000 0.00908682 0.01009240
v -0.02430000 -0.00949240 0.00968682
v -0.03068579 -0.00949240 0.00968682
v -0.02430000 -0.00946985 0.00977101
v -0.03068579 -0.00946985 0.00977101
v -0.02430000 -0.00943301 0.00985000
v -0.03068579 -0.00943301 0.00985000
v -0.02430000 -0.00938302 0.00992139
v -0.03068579 -0.00938302 0.00992139
v -0.02430000 -0.00932139 0.00998302
v -0.03068579 -0.00932139 0.00998302
v -0.02430000 -0.00925000 0.01003301
v -0.03068579 -0.00925000 0.01003301
v -0.02430000 -0.00917101 0.01006985
v -0.03068579 -0.00917101 0.01006985
v -0.02430000 -0.00908682 0.01009240
v -0.03068579 -0.00908682 0.01009240
v -0.03110073 -0.00949240 0.00951495
v -0.03103071 -0.00949240 0.00957475
v -0.03116026 -0.00946985 0.00957448
v -0.03108020 -0.00946985 0.00964286
v -0.03121612 -0.00943301 0.00963033
v -0.03112663 -0.00943301 0.00970676
v -0.03126660 -0.00938302 0.00968081
v -0.03116859 -0.00938302 0.00976452
v -0.03131018 -0.00932139 0.00972439
v -0.03120481 -0.00932139 0.00981438
v -0.03134553 -0.00925000 0.00975974
v -0.03123420 -0.00925000 0.00985482
v -0.03137157 -0.00917101 0.00978578
v -0.03125585 -0.00917101 0.00988462
v -0.03138752 -0.00908682 0.00980174
v -0.03126911 -0.00908682 0.00990287
v -0.03095220 -0.00949240 0.00962286
v -0.03099042 -0.00946985 0.00969787
v -0.03102628 -0.00943301 0.00976825
v -0.03105869 -0.00938302 0.00983187
v -0.03108667 -0.00932139 0.00988678
v -0.03110936 -0.00925000 0.00993132
v -0.03112609 -0.00917101 0.00996414
v -0.03113633 -0.00908682 0.00998424
v -0.03086712 -0.00949240 0.00965810
v -0.03089314 -0.00946985 0.00973817
v -0.03091755 -0.00943301 0.00981329
v -0.03093961 -0.00938302 0.00988119
v -0.03095865 -0.00932139 0.00993980
v -0.03097410 -0.00925000 0.00998735
v -0.03098549 -0.00917101 0.01002238
v -0.03099246 -0.00908682 0.01004383
v -0.03077759 -0.00949240 0.00967960
v -0.03079076 -0.00946985 0.00976275
v -0.03080311 -0.00943301 0.00984077
v -0.03081428 -0.00938302 0.00991128
v -0.03082392 -0.00932139 0.00997215
v -0.03083174 -0.00925000 0.01002153
v -0.03083750 -0.00917101 0.01005791
v -0.03084103 -0.00908682 0.01008019
v -0.03330174 -0.00908682 0.00788752
v -0.03328579 -0.00917101 0.00787157
v -0.03325974 -0.00925000 0.00784553
v -0.03322439 -0.00932139 0.00781018
v -0.03318081 -0.00938302 0.00776660
v -0.03313033 -0.00943301 0.00771612
v -0.03307448 -0.00946985 0.00766026
v -0.03301495 -0.00949240 0.00760073
v -0.03318682 -0.00949240 0.00718579
v -0.03317960 -0.00949240 0.00727759
v -0.03327101 -0.00946985 0.00718579
v -0.03326275 -0.00946985 0.00729076
v -0.03335000 -0.00943301 0.00718579
v -0.03334077 -0.00943301 0.00730311
v -0.03342139 -0.00938302 0.00718579
v -0.03341128 -0.00938302 0.00731428
v -0.03348302 -0.00932139 0.00718579
v -0.03347215 -0.00932139 0.00732392
v -0.03353301 -0.00925000 0.00718579
v -0.03352153 -0.00925000 0.00733174
v -0.03356985 -0.00917101 0.00718579
v -0.03355791 -0.00917101 0.00733750
v -0.03359240 -0.00908682 0.00718579
v -0.03358019 -0.00908682 0.00734103
v -0.03315810 -0.00949240 0.00736713
v -0.03323817 -0.00946985 0.00739314
v -0.03331329 -0.00943301 0.00741755
v -0.03338119 -0.00938302 0.00743961
v -0.03343980 -0.00932139 0.00745866
v -0.03348735 -0.00925000 0.00747410
v -0.03352238 -0.00917101 0.00748549
v -0.03354383 -0.00908682 0.00749246
v -0.03312286 -0.00949240 0.00745220
v -0.03319788 -0.00946985 0.00749042
v -0.03326825 -0.00943301 0.00752628
v -0.03333187 -0.00938302 0.00755869
v -0.03338678 -0.00932139 0.00758667
v -0.03343132 -0.00925000 0.00760937
v -0.03346414 -0.00917101 0.00762609
v -0.03348424 -0.00908682 0.00763633
v -0.03307475 -0.00949240 0.00753071
v -0.03314286 -0.00946985 0.00758020
v -0.03320676 -0.00943301 0.00762663
v -0.03326452 -0.00938302 0.00766859
v -0.03331438 -0.00932139 0.00770481
v -0.03335482 -0.00925000 0.00773420
v -0.03338462 -0.00917101 0.00775585
v -0.03340287 -0.00908682 0.00776911
v -0.02460000 -0.00949240 -0.01108682
v -0.02430000 -0.00949240 -0.01108682
v -0.02460000 -0.00946985 -0.01117101
v -0.02430000 -0.00946985 -0.01117101
v -0.02460000 -0.00943301 -0.01125000
v -0.02430000 -0.00943301 -0.01125000
v -0.02460000 -0.00938302 -0.01132139
v -0.02430000 -0.00938302 -0.01132139
v -0.02460000 -0.00932139 -0.01138302
v -0.02430000 -0.00932139 -0.01138302
v -0.02460000 -0.00925000 -0.01143301
v -0.02430000 -0.00925000 -0.01143301
v -0.02460000 -0.00917101 -0.01146985
v -0.02430000 -0.00917101 -0.01146985
v -0.02460000 -0.00908682 -0.01149240
v -0.02430000 -0.00908682 -0.01149240
v -0.03318682 -0.00949240 -0.00250000
v -0.03327101 -0.00946985 -0.00250000
v -0.03335000 -0.00943301 -0.00250000
v -0.03342139 -0.00938302 -0.00250000
v -0.03348302 -0.00932139 -0.00250000
v -0.03353301 -0.00925000 -0.00250000
v -0.03356985 -0.00917101 -0.00250000
v -0.03359240 -0.00908682 -0.00250000
v -0.03339590 -0.00908682 -0.00436963
v -0.03238765 -0.00908682 -0.00699620
v -0.03061709 -0.00908682 -0.00918266
v -0.02825754 -0.00908682 -0.01071497
v -0.02553996 -0.00908682 -0.01144314
v -0.02549757 -0.00949240 -0.01103979
v -0.02550637 -0.00946985 -0.01112351
v -0.02551462 -0.00943301 -0.01120207
v -0.02552209 -0.00938302 -0.01127307
v -0.02552853 -0.00932139 -0.01133436
v -0.02553375 -0.00925000 -0.01138408
v -0.02553760 -0.00917101 -0.01142071
v -0.02638530 -0.00949240 -0.01089918
v -0.02640281 -0.00946985 -0.01098153
v -0.02641923 -0.00943301 -0.01105879
v -0.02643407 -0.00938302 -0.01112863
v -0.02644688 -0.00932139 -0.01118891
v -0.02645728 -0.00925000 -0.01123781
v -0.02646494 -0.00917101 -0.01127383
v -0.02646963 -0.00908682 -0.01129590
v -0.02725348 -0.00949240 -0.01066656
v -0.02727949 -0.00946985 -0.01074662
v -0.02730390 -0.00943301 -0.01082174
v -0.02732596 -0.00938302 -0.01088964
v -0.02734501 -0.00932139 -0.01094826
v -0.02736045 -0.00925000 -0.01099580
v -0.02737183 -0.00917101 -0.01103083
v -0.02737880 -0.00908682 -0.01105228
v -0.02809258 -0.00949240 -0.01034445
v -0.02812682 -0.00946985 -0.01042136
v -0.02815895 -0.00943301 -0.01049352
v -0.02818798 -0.00938302 -0.01055874
v -0.02821305 -0.00932139 -0.01061505
v -0.02823338 -0.00925000 -0.01066071
v -0.02824836 -0.00917101 -0.01069436
v -0.02889341 -0.00949240 -0.00993641
v -0.02893551 -0.00946985 -0.01000931
v -0.02897500 -0.00943301 -0.01007772
v -0.02901070 -0.00938302 -0.01013955
v -0.02904151 -0.00932139 -0.01019292
v -0.02906651 -0.00925000 -0.01023622
v -0.02908492 -0.00917101 -0.01026811
v -0.02909620 -0.00908682 -0.01028765
v -0.02964721 -0.00949240 -0.00944689
v -0.02969669 -0.00946985 -0.00951499
v -0.02974312 -0.00943301 -0.00957890
v -0.02978509 -0.00938302 -0.00963666
v -0.02982131 -0.00932139 -0.00968652
v -0.02985069 -0.00925000 -0.00972696
v -0.02987234 -0.00917101 -0.00975676
v -0.02988560 -0.00908682 -0.00977501
v -0.03034571 -0.00949240 -0.00888125
v -0.03040204 -0.00946985 -0.00894382
v -0.03045489 -0.00943301 -0.00900252
v -0.03050266 -0.00938302 -0.00905557
v -0.03054390 -0.00932139 -0.00910137
v -0.03057735 -0.00925000 -0.00913852
v -0.03060200 -0.00917101 -0.00916590
v -0.03098125 -0.00949240 -0.00824571
v -0.03104382 -0.00946985 -0.00830204
v -0.03110252 -0.00943301 -0.00835489
v -0.03115557 -0.00938302 -0.00840267
v -0.03120137 -0.00932139 -0.00844390
v -0.03123852 -0.00925000 -0.00847735
v -0.03126590 -0.00917101 -0.00850200
v -0.03128266 -0.00908682 -0.00851709
v -0.03154689 -0.00949240 -0.00754721
v -0.03161500 -0.00946985 -0.00759669
v -0.03167890 -0.00943301 -0.00764312
v -0.03173666 -0.00938302 -0.00768509
v -0.03178652 -0.00932139 -0.00772131
v -0.03182696 -0.00925000 -0.00775069
v -0.03185676 -0.00917101 -0.00777234
v -0.03187501 -0.00908682 -0.00778560
v -0.03203641 -0.00949240 -0.00679341
v -0.03210932 -0.00946985 -0.00683550
v -0.03217772 -0.00943301 -0.00687500
v -0.03223955 -0.00938302 -0.00691070
v -0.03229292 -0.00932139 -0.00694151
v -0.03233622 -0.00925000 -0.00696651
v -0.03236812 -0.00917101 -0.00698492
v -0.03244445 -0.00949240 -0.00599258
v -0.03252136 -0.00946985 -0.00602682
v -0.03259352 -0.00943301 -0.00605895
v -0.03265874 -0.00938302 -0.00608798
v -0.03271504 -0.00932139 -0.00611305
v -0.03276071 -0.00925000 -0.00613338
v -0.03279436 -0.00917101 -0.00614837
v -0.03281497 -0.00908682 -0.00615754
v -0.03276655 -0.00949240 -0.00515347
v -0.03284662 -0.00946985 -0.00517949
v -0.03292175 -0.00943301 -0.00520390
v -0.03298964 -0.00938302 -0.00522596
v -0.03304826 -0.00932139 -0.00524500
v -0.03309580 -0.00925000 -0.00526045
v -0.03313083 -0.00917101 -0.00527183
v -0.03315229 -0.00908682 -0.00527881
v -0.03299918 -0.00949240 -0.00428530
v -0.03308153 -0.00946985 -0.00430280
v -0.03315879 -0.00943301 -0.00431923
v -0.03322862 -0.00938302 -0.00433407
v -0.03328891 -0.00932139 -0.00434688
v -0.03333781 -0.00925000 -0.00435728
v -0.03337383 -0.00917101 -0.00436494
v -0.03313978 -0.00949240 -0.00339757
v -0.03322351 -0.00946985 -0.00340637
v -0.03330207 -0.00943301 -0.00341462
v -0.03337307 -0.00938302 -0.00342209
v -0.03343436 -0.00932139 -0.00342853
v -0.03348408 -0.00925000 -0.00343375
v -0.03352071 -0.00917101 -0.00343760
v -0.03354314 -0.00908682 -0.00343996
v -0.02430000 -0.01500000 -0.00000000
v 0.00120000 -0.01489063 0.00180805
v -0.02430000 -0.01489063 0.00180805
v 0.00120000 -0.01456413 0.00358973
v -0.02430000 -0.01456413 0.00358973
v 0.00120000 -0.01402524 0.00531907
v -0.02430000 -0.01402524 0.00531907
v 0.00120000 -0.01328184 0.00697085
v -0.02430000 -0.01328184 0.00697085
v 0.00120000 -0.01234476 0.00852097
v -0.02430000 -0.01234476 0.00852097
v 0.00120000 -0.01122766 0.00994684
v -0.02430000 -0.01122766 0.00994684
v 0.00120000 -0.00994684 0.01122766
v -0.02430000 -0.00994684 0.01122766
v 0.00120000 -0.00852097 0.01234476
v -0.02430000 -0.00852097 0.01234476
v 0.00120000 -0.00697085 0.01328184
v -0.02430000 -0.00697085 0.01328184
v 0.00120000 -0.00531907 0.01402524
v -0.02430000 -0.00531907 0.01402524
v 0.00120000 -0.00358973 0.01456413
v -0.02430000 -0.00358973 0.01456413
v 0.00120000 -0.00180805 0.01489063
v -0.02430000 -0.00180805 0.01489063
v 0.00120000 0.00000000 0.01500000
v -0.02430000 0.00000000 0.01500000
v 0.00120000 0.00180805 0.01489063
v -0.02430000 0.00180805 0.01489063
v 0.00120000 0.00358974 0.01456413
v -0.02430000 0.00358974 0.01456413
v 0.00120000 0.00531907 0.01402524
v -0.02430000 0.00531907 0.01402524
v 0.00120000 0.00697085 0.01328184
v -0.02430000 0.00697085 0.01328184
v 0.00120000 0.00852097 0.01234476
v -0.02430000 0.00852097 0.01234476
v 0.00120000 0.00994684 0.01122766
v -0.02430000 0.00994684 0.01122766
v 0.00120000 0.01122766 0.00994684
v -0.02430000 0.01122766 0.00994684
v 0.00120000 0.01234476 0.00852097
v -0.02430000 0.01234476 0.00852097
v 0.00120000 0.01328184 0.00697085
v -0.02430000 0.01328184 0.00697085
v 0.00120000 0.01402524 0.00531907
v -0.02430000 0.01402524 0.00531907
v 0.00120000 0.01456413 0.00358973
v -0.02430000 0.01456413 0.00358973
v 0.00120000 0.01489063 0.00180805
v -0.02430000 0.01489063 0.00180805
v 0.00120000 0.01500000 -0.00000000
v -0.02430000 0.01500000 -0.00000000
v 0.00120000 0.01489063 -0.00180805
v -0.02430000 0.01489063 -0.00180805
v 0.00120000 0.01456413 -0.00358973
v -0.02430000 0.01456413 -0.00358973
v 0.00120000 0.01402524 -0.00531907
v -0.02430000 0.01402524 -0.00531907
v 0.00120000 0.01328184 -0.00697085
v -0.02430000 0.01328184 -0.00697085
v 0.00120000 0.01234476 -0.00852097
v -0.02430000 0.01234476 -0.00852097
v 0.00120000 0.01122766 -0.00994684
v -0.02430000 0.01122766 -0.00994684
v 0.00120000 0.00994684 -0.01122766
v -0.02430000 0.00994684 -0.01122766
v 0.00120000 0.00852097 -0.01234476
v -0.02430000 0.00852097 -0.01234476
v 0.00120000 0.00697085 -0.01328184
v -0.02430000 0.00697085 -0.01328184
v 0.00120000 0.00531907 -0.01402524
v -0.02430000 0.00531907 -0.01402524
v 0.00120000 0.00358974 -0.01456413
v -0.02430000 0.00358974 -0.01456413
v 0.00120000 0.00180805 -0.01489063
v -0.02430000 0.00180805 -0.01489063
v 0.00120000 0.00000000 -0.01500000
v -0.02430000 0.00000000 -0.01500000
v 0.00120000 -0.00180805 -0.01489063
v -0.02430000 -0.00180805 -0.01489063
v 0.00120000 -0.00358973 -0.01456413
v -0.02430000 -0.00358973 -0.01456413
v 0.00120000 -0.00531907 -0.01402524
v -0.02430000 -0.00531907 -0.01402524
v 0.00120000 -0.00697085 -0.01328184
v -0.02430000 -0.00697085 -0.01328184
v 0.00120000 -0.00852097 -0.01234476
v -0.02430000 -0.00852097 -0.01234476
v 0.00120000 -0.00994684 -0.01122766
v -0.02430000 -0.00994684 -0.01122766
v 0.00120000 -0.01122766 -0.00994684
v -0.02430000 -0.01122766 -0.00994684
v 0.00120000 -0.01234476 -0.00852097
v -0.02430000 -0.01234476 -0.00852097
v 0.00120000 -0.01328184 -0.00697085
v -0.02430000 -0.01328184 -0.00697085
v 0.00120000 -0.01402524 -0.00531907
v -0.02430000 -0.01402524 -0.00531907
v 0.00120000 -0.01456413 -0.00358973
v -0.02430000 -0.01456413 -0.00358973
v 0.00120000 -0.01489063 -0.00180805
v -0.02430000 -0.01489063 -0.00180805
v 0.00120000 -0.01500000 -0.00000000
v 0.00120000 0.00000000 -0.00000000
vn -0.73359881 0.04354098 0.67818653
vn -0.73359790 -0.04353979 0.67818759
vn -0.67819015 0.04353950 0.73359555
vn -0.67818910 -0.04354069 0.73359645
vn -0.03918100 0.04353662 0.99828323
vn -0.03918157 -0.04353711 0.99828319
vn -0.71705737 0.03040220 0.69635080
vn -0.71705737 -0.03040220 0.69635080
vn -0.99870756 0.04359204 -0.02613307
vn -0.99870752 -0.04359255 -0.02613383
vn -0.99828227 0.04355832 0.03918151
vn -0.99828254 -0.04355526 0.03917796
vn -0.02691709 -0.99895090 0.03704807
vn -0.03033798 -0.99899854 0.03288667
vn -0.71705747 -0.69635068 -0.03040252
vn -0.04408470 -0.99898385 -0.00937045
vn -0.04286292 -0.99898389 -0.01392700
vn -0.00118096 -0.99901564 -0.04434368
vn -0.71705737 -0.69635080 0.03040220
vn -0.00180201 -0.99899857 0.04470587
vn -0.00716376 -0.99895090 0.04523033
vn -0.03288557 -0.99899860 0.03033712
vn -0.04470761 -0.99899849 0.00180264
vn -0.03704778 -0.99895092 0.02691678
vn -0.04434462 -0.99901560 -0.00118097
vn -0.04482196 -0.99898388 -0.00471105
vn -0.01415121 -0.99895089 0.04355302
vn -0.02079023 -0.99895088 0.04080318
vn -0.03015716 -0.99898387 -0.03349288
vn -0.02649091 -0.99898387 -0.03646165
vn -0.02253456 -0.99898387 -0.03903095
vn -0.04080311 -0.99895086 0.02079124
vn -0.04355325 -0.99895088 0.01415099
vn -0.04522972 -0.99895093 0.00716307
vn -0.04117204 -0.99898390 -0.01833097
vn -0.03903117 -0.99898386 -0.02253461
vn -0.03646208 -0.99898385 -0.02649124
vn -0.01833100 -0.99898390 -0.04117216
vn -0.01392696 -0.99898389 -0.04286282
vn -0.00937036 -0.99898388 -0.04408413
vn -0.03349255 -0.99898389 -0.03015693
vn -0.00471100 -0.99898388 -0.04482203
vn -0.00180198 0.99899857 0.04470584
vn -0.04434466 0.99901559 -0.00118103
vn -0.04470712 0.99899851 0.00180209
vn -0.04408469 0.99898385 -0.00937051
vn -0.04482198 0.99898388 -0.00471095
vn -0.00118094 0.99901564 -0.04434367
vn -0.71705747 0.69635068 -0.03040252
vn -0.71705737 0.69635080 0.03040220
vn -0.00937034 0.99898388 -0.04408413
vn -0.01392697 0.99898389 -0.04286281
vn -0.03015714 0.99898387 -0.03349288
vn -0.03646206 0.99898385 -0.02649129
vn -0.03903113 0.99898387 -0.02253461
vn -0.00471101 0.99898388 -0.04482202
vn -0.04117205 0.99898390 -0.01833091
vn -0.04286296 0.99898389 -0.01392699
vn -0.01833103 0.99898390 -0.04117216
vn -0.02253454 0.99898387 -0.03903098
vn -0.02649091 0.99898387 -0.03646165
vn -0.03349260 0.99898389 -0.03015690
vn -0.02691678 0.99895091 0.03704821
vn -0.02079042 0.99895088 0.04080315
vn -0.01415115 0.99895089 0.04355296
vn -0.00716376 0.99895090 0.04523029
vn -0.04355356 0.99895087 0.01415114
vn -0.04080323 0.99895087 0.02079059
vn -0.04522927 0.99895095 0.00716372
vn -0.03704722 0.99895094 0.02691680
vn -0.03288548 0.99899860 0.03033710
vn -0.03033797 0.99899854 0.03288640
vn -0.99485808 -0.04357073 -0.09142749
vn -0.99485804 0.04357022 -0.09142826
vn -0.98229535 -0.10435697 -0.15558105
vn -0.98229535 0.10435697 -0.15558105
vn -0.97441854 -0.04357849 -0.22047544
vn -0.97441871 0.04357803 -0.22047477
vn -0.95015408 -0.04355117 -0.30872401
vn -0.95015404 0.04355041 -0.30872425
vn -0.91791400 -0.04355325 -0.39438179
vn -0.91791384 0.04355295 -0.39438221
vn -0.88614353 -0.10433859 -0.45151201
vn -0.88614353 0.10433859 -0.45151201
vn -0.85859790 -0.04356982 -0.51079480
vn -0.85859780 0.04356994 -0.51079496
vn -0.80824858 -0.04356162 -0.58722791
vn -0.80824903 0.04356137 -0.58722731
vn -0.75111716 -0.04356117 -0.65873016
vn -0.75111681 0.04356080 -0.65873060
vn -0.70324647 -0.10434373 -0.70324732
vn -0.70324647 0.10434373 -0.70324732
vn -0.65873033 -0.04356828 -0.75111660
vn -0.65873021 0.04356839 -0.75111671
vn -0.58722736 -0.04355929 -0.80824910
vn -0.58722754 0.04355937 -0.80824897
vn -0.51079583 -0.04356986 -0.85859728
vn -0.51079579 0.04356982 -0.85859731
vn -0.45151297 -0.10434844 -0.88614188
vn -0.45151297 0.10434844 -0.88614188
vn -0.39438166 -0.04356862 -0.91791333
vn -0.39438172 0.04356857 -0.91791331
vn -0.30872362 -0.04355498 -0.95015403
vn -0.30872351 0.04355496 -0.95015407
vn -0.22047464 -0.04356811 -0.97441919
vn -0.22047468 0.04356814 -0.97441918
vn -0.15558044 -0.10434693 -0.98229652
vn -0.15558044 0.10434693 -0.98229652
vn -0.09142826 -0.04356997 -0.99485805
vn -0.09142841 0.04356987 -0.99485804
vn -0.02613301 -0.04357143 -0.99870846
vn -0.02613286 0.04357132 -0.99870847
vn -0.71705737 -0.03040220 -0.69635080
vn -0.71705737 0.03040220 -0.69635080
vn -0.98675103 -0.04352428 0.15629470
vn -0.98675121 0.04352845 0.15629242
vn -0.95015443 -0.04352006 0.30872734
vn -0.95015541 0.04351958 0.30872438
vn -0.89016424 -0.04352908 0.45355577
vn -0.89016396 0.04352662 0.45355657
vn -0.80825079 -0.04353221 0.58722705
vn -0.80824937 0.04353254 0.58722898
vn -0.58722723 -0.04353048 0.80825075
vn -0.58722445 0.04353103 0.80825274
vn -0.45355410 -0.04352143 0.89016547
vn -0.45355621 0.04352286 0.89016433
vn -0.30872415 -0.04352294 0.95015533
vn -0.30872319 0.04352317 0.95015563
vn -0.15628694 -0.04352066 0.98675242
vn -0.15628813 0.04352071 0.98675223
vn -0.17505043 0.98454862 -0.00462264
vn -0.17575092 0.98440981 0.00699571
vn -0.34328171 0.93918914 -0.00902367
vn -0.34390138 0.93890731 0.01359775
vn -0.50104810 0.86531958 -0.01314607
vn -0.50153124 0.86491361 0.01977026
vn -0.64354204 0.76522495 -0.01686496
vn -0.64385029 0.76473201 0.02533296
vn -0.76648122 0.64195305 -0.02007030
vn -0.76658257 0.64143852 0.03012952
vn -0.86616919 0.49923658 -0.02266638
vn -0.86606809 0.49876851 0.03400066
vn -0.93958230 0.34143977 -0.02457623
vn -0.93931072 0.34108364 0.03684196
vn -0.98452226 0.17335840 -0.02574469
vn -0.98413733 0.17316198 0.03858302
vn -0.97281127 0.17291190 0.15407694
vn -0.92861921 0.34063646 0.14708216
vn -0.85642823 0.49812675 0.13564814
vn -0.75837963 0.64064993 0.12011662
vn -0.63739162 0.76389865 0.10094933
vn -0.49705230 0.86414166 0.07872868
vn -0.34159655 0.93828806 0.05410458
vn -0.17567891 0.98405428 0.02782259
vn -0.93673167 0.17290685 0.30436326
vn -0.89418482 0.34062276 0.29053337
vn -0.82466821 0.49812393 0.26794568
vn -0.73024950 0.64065331 0.23727413
vn -0.61374678 0.76390183 0.19942134
vn -0.47861861 0.86414067 0.15551568
vn -0.32893292 0.93828616 0.10687473
vn -0.16916353 0.98405421 0.05496375
vn -0.87758596 0.17290887 0.44715255
vn -0.83772163 0.34062692 0.42684397
vn -0.77258928 0.49813288 0.39366158
vn -0.68414128 0.64065273 0.34858971
vn -0.57499027 0.76390522 0.29297612
vn -0.44840515 0.86413725 0.22847237
vn -0.30816531 0.93828597 0.15701461
vn -0.15847676 0.98405519 0.08074958
vn -0.79682958 0.17291578 0.57893243
vn -0.76063356 0.34063025 0.55263696
vn -0.70150622 0.49812083 0.50967114
vn -0.62119288 0.64065046 0.45131630
vn -0.52208501 0.76390337 0.37931371
vn -0.40714708 0.86413523 0.29580661
vn -0.27980326 0.93828723 0.20329093
vn -0.14389671 0.98405477 0.10454635
vn -0.72317970 0.17315571 0.66860169
vn -0.69024671 0.34109421 0.63813339
vn -0.63644536 0.49877095 0.58835775
vn -0.56336009 0.64143484 0.52075595
vn -0.47318237 0.76473496 0.43735442
vn -0.36860883 0.86491690 0.34065566
vn -0.25279164 0.93890501 0.23356749
vn -0.12922429 0.98440928 0.11932919
vn -0.00462262 0.98454828 -0.17505232
vn -0.01844515 0.98430761 -0.17549445
vn -0.00902370 0.93918743 -0.34328639
vn -0.03601874 0.93875634 -0.34269401
vn -0.01314592 0.86532156 -0.50104469
vn -0.05249127 0.86476568 -0.49942465
vn -0.01686498 0.76522149 -0.64354614
vn -0.06736717 0.76461595 -0.64095563
vn -0.02006986 0.64194802 -0.76648544
vn -0.08019750 0.64136435 -0.76303350
vn -0.02266586 0.49924852 -0.86616232
vn -0.09059971 0.49874795 -0.86199894
vn -0.02457647 0.34145353 -0.93957729
vn -0.09825981 0.34108802 -0.93488180
vn -0.02574539 0.17334245 -0.98452505
vn -0.09707761 0.17718908 -0.97937734
vn -0.21031831 0.17719024 -0.96144154
vn -0.30434912 0.17314892 -0.93669155
vn -0.39497067 0.17719011 -0.90144431
vn -0.49712626 0.17718927 -0.84939358
vn -0.57890574 0.17315768 -0.79679643
vn -0.65420061 0.17718646 -0.73527309
vn -0.73527311 0.17718301 -0.65420152
vn -0.79679708 0.17314712 -0.57890802
vn -0.84939362 0.17718943 -0.49712613
vn -0.90144642 0.17717875 -0.39497094
vn -0.93669127 0.17315138 -0.30434858
vn -0.96143992 0.17720019 -0.21031730
vn -0.97937712 0.17719033 -0.09707752
vn -0.19544345 0.34108828 -0.91948934
vn -0.29048580 0.34108665 -0.89402343
vn -0.38234499 0.34109206 -0.85875987
vn -0.47001597 0.34108642 -0.81409155
vn -0.55253661 0.34108721 -0.76050168
vn -0.62900361 0.34108703 -0.69858006
vn -0.69857812 0.34109317 -0.62900244
vn -0.76050105 0.34109023 -0.55253562
vn -0.81408902 0.34109399 -0.47001485
vn -0.85875733 0.34110052 -0.38234315
vn -0.89401908 0.34110052 -0.29048291
vn -0.91949042 0.34108478 -0.19544446
vn -0.93488347 0.34108324 -0.09826046
vn -0.18020717 0.49874495 -0.84780826
vn -0.26783968 0.49874747 -0.82432570
vn -0.35253827 0.49874723 -0.79181309
vn -0.43337435 0.49874623 -0.75062565
vn -0.50946090 0.49874881 -0.70121268
vn -0.57996576 0.49875075 -0.64411754
vn -0.64411696 0.49875160 -0.57996567
vn -0.70120987 0.49875448 -0.50945921
vn -0.75062553 0.49874618 -0.43337463
vn -0.79181053 0.49875271 -0.35253627
vn -0.82432505 0.49874872 -0.26783936
vn -0.84781005 0.49874141 -0.18020855
vn -0.86199953 0.49874690 -0.09059991
vn -0.15951762 0.64136258 -0.75047197
vn -0.23709012 0.64136248 -0.72968654
vn -0.31206471 0.64135981 -0.70090884
vn -0.38361847 0.64136389 -0.66444656
vn -0.45097015 0.64136406 -0.62070771
vn -0.51338101 0.64136460 -0.57016786
vn -0.57016903 0.64136228 -0.51338260
vn -0.62071005 0.64136015 -0.45097249
vn -0.66445000 0.64135915 -0.38362042
vn -0.70090778 0.64136147 -0.31206369
vn -0.72968777 0.64136115 -0.23708993
vn -0.75046923 0.64136580 -0.15951753
vn -0.76302856 0.64137019 -0.08019788
vn -0.13399592 0.76461697 -0.63040145
vn -0.19915670 0.76461661 -0.61294212
vn -0.26213691 0.76461486 -0.58876850
vn -0.32224411 0.76461474 -0.55814249
vn -0.37882050 0.76461478 -0.52140125
vn -0.43124580 0.76461522 -0.47894742
vn -0.47894717 0.76461508 -0.43124632
vn -0.52140095 0.76461489 -0.37882068
vn -0.55814120 0.76461618 -0.32224292
vn -0.58876621 0.76461727 -0.26213505
vn -0.61294327 0.76461548 -0.19915753
vn -0.63040680 0.76461230 -0.13399740
vn -0.64095710 0.76461467 -0.06736764
vn -0.10440777 0.86476725 -0.49119917
vn -0.15517987 0.86476756 -0.47759425
vn -0.20425243 0.86476690 -0.45875828
vn -0.25108778 0.86476603 -0.43489612
vn -0.29517029 0.86476676 -0.40626709
vn -0.33602038 0.86476617 -0.37318865
vn -0.37318777 0.86476679 -0.33601977
vn -0.40627078 0.86476395 -0.29517343
vn -0.43489578 0.86476649 -0.25108679
vn -0.45876005 0.86476580 -0.20425310
vn -0.47760149 0.86476310 -0.15518246
vn -0.49120428 0.86476425 -0.10440858
vn -0.49942624 0.86476474 -0.05249172
vn -0.07164265 0.93875634 -0.33705174
vn -0.10648138 0.93875641 -0.32771651
vn -0.14015337 0.93875685 -0.31478979
vn -0.17229027 0.93875689 -0.29841509
vn -0.20254072 0.93875586 -0.27877356
vn -0.23057028 0.93875623 -0.25607437
vn -0.25607300 0.93875681 -0.23056944
vn -0.27877161 0.93875669 -0.20253954
vn -0.29841543 0.93875684 -0.17228995
vn -0.31479332 0.93875540 -0.14015517
vn -0.32771336 0.93875762 -0.10648043
vn -0.33704435 0.93875913 -0.07164077
vn -0.34268822 0.93875848 -0.03601807
vn -0.03668842 0.98430760 -0.17260507
vn -0.05453000 0.98430730 -0.16782616
vn -0.07177304 0.98430776 -0.16120440
vn -0.08823068 0.98430753 -0.15282024
vn -0.10372124 0.98430762 -0.14275998
vn -0.11807543 0.98430764 -0.13113608
vn -0.13113577 0.98430770 -0.11807524
vn -0.14275940 0.98430773 -0.10372096
vn -0.15281991 0.98430759 -0.08823066
vn -0.16120412 0.98430784 -0.07177262
vn -0.16782214 0.98430806 -0.05452857
vn -0.17260417 0.98430777 -0.03668816
vn -0.17549318 0.98430784 -0.01844512
vn -0.66860436 0.17315708 0.72317690
vn -0.63813686 0.34109241 0.69024438
vn -0.58835909 0.49877480 0.63644110
vn -0.52075704 0.64143350 0.56336061
vn -0.43735536 0.76473270 0.47318516
vn -0.34065353 0.86491606 0.36861279
vn -0.23356350 0.93890619 0.25279095
vn -0.11932856 0.98440964 0.12922210
vn -0.72726063 0.67593417 -0.11918463
vn -0.72726048 0.64496876 -0.23474984
vn -0.72726073 0.59440539 -0.34318226
vn -0.72725984 0.52578303 -0.44118627
vn -0.72725984 0.44118627 -0.52578303
vn -0.72726073 0.34318226 -0.59440539
vn -0.72726048 0.23474984 -0.64496876
vn -0.72726074 0.11918429 -0.67593411
vn -0.57892950 0.17291227 0.79683247
vn -0.55263457 0.34062910 0.76063582
vn -0.50966842 0.49812720 0.70150367
vn -0.45131931 0.64065095 0.62119018
vn -0.37931492 0.76390355 0.52208386
vn -0.29580525 0.86413843 0.40714130
vn -0.20328858 0.93828768 0.27980347
vn -0.10454796 0.98405449 0.14389748
vn -0.44715157 0.17290406 0.87758741
vn -0.42684031 0.34062906 0.83772262
vn -0.39365790 0.49812562 0.77259584
vn -0.34858790 0.64065207 0.68414282
vn -0.29297358 0.76390330 0.57499412
vn -0.22847172 0.86413901 0.44840211
vn -0.15701567 0.93828719 0.30816105
vn -0.08074941 0.98405464 0.15848026
vn -0.30436300 0.17290342 0.93673239
vn -0.29053866 0.34062565 0.89418200
vn -0.26794959 0.49812681 0.82466521
vn -0.23727223 0.64065258 0.73025075
vn -0.19941846 0.76390329 0.61374590
vn -0.15551470 0.86413871 0.47862247
vn -0.10687534 0.93828741 0.32892917
vn -0.05496430 0.98405443 0.16916204
vn -0.15407940 0.17290389 0.97281231
vn -0.14707922 0.34062957 0.92862220
vn -0.13564409 0.49812577 0.85642944
vn -0.12011600 0.64065108 0.75837876
vn -0.10095124 0.76390372 0.63738524
vn -0.07872648 0.86413872 0.49705775
vn -0.05410473 0.93828728 0.34159868
vn -0.02782476 0.98405458 0.17567691
vn -0.03858833 0.17314904 0.98413940
vn -0.03684661 0.34109569 0.93930616
vn -0.03399767 0.49877867 0.86606235
vn -0.03012249 0.64143305 0.76658742
vn -0.02533361 0.76473100 0.64385146
vn -0.01977104 0.86491461 0.50152949
vn -0.01359658 0.93890561 0.34390608
vn -0.00699633 0.98440964 0.17575187
vn -0.72726074 0.67593411 0.11918429
vn -0.72726048 0.64496876 0.23474984
vn -0.72726073 0.59440539 0.34318226
vn -0.72725984 0.52578303 0.44118627
vn -0.72725984 0.44118627 0.52578303
vn -0.72726073 0.34318226 0.59440539
vn -0.72726048 0.23474984 0.64496876
vn -0.72726074 0.11918429 0.67593411
vn -0.72726074 -0.67593411 0.11918429
vn -0.00699639 -0.98440963 0.17575188
vn -0.72726048 -0.64496876 0.23474984
vn -0.01359645 -0.93890567 0.34390593
vn -0.72726073 -0.59440539 0.34318226
vn -0.01977033 -0.86491481 0.50152917
vn -0.72725984 -0.52578303 0.44118627
vn -0.02533342 -0.76473057 0.64385198
vn -0.72725984 -0.44118627 0.52578303
vn -0.03012292 -0.64143307 0.76658739
vn -0.72726073 -0.34318226 0.59440539
vn -0.03399784 -0.49877882 0.86606226
vn -0.72726048 -0.23474984 0.64496876
vn -0.03684648 -0.34109579 0.93930613
vn -0.72726074 -0.11918429 0.67593411
vn -0.03858880 -0.17314845 0.98413948
vn -0.11932833 -0.98440973 0.12922163
vn -0.10454759 -0.98405451 0.14389760
vn -0.23356376 -0.93890600 0.25279140
vn -0.20328884 -0.93828772 0.27980314
vn -0.34065337 -0.86491643 0.36861206
vn -0.29580477 -0.86413831 0.40714190
vn -0.43735600 -0.76473231 0.47318519
vn -0.37931444 -0.76390381 0.52208384
vn -0.52075719 -0.64143417 0.56335970
vn -0.45131857 -0.64065081 0.62119086
vn -0.58835878 -0.49877246 0.63644322
vn -0.50967039 -0.49812594 0.70150313
vn -0.63813567 -0.34109543 0.69024400
vn -0.55263480 -0.34063117 0.76063473
vn -0.66860469 -0.17315464 0.72317718
vn -0.57893085 -0.17291194 0.79683156
vn -0.08074982 -0.98405464 0.15848008
vn -0.15701516 -0.93828720 0.30816128
vn -0.22847220 -0.86413885 0.44840217
vn -0.29297362 -0.76390373 0.57499352
vn -0.34858815 -0.64065109 0.68414361
vn -0.39365717 -0.49812699 0.77259533
vn -0.42684086 -0.34062855 0.83772255
vn -0.44715022 -0.17290532 0.87758785
vn -0.05496384 -0.98405447 0.16916197
vn -0.10687566 -0.93828725 0.32892952
vn -0.15551450 -0.86413902 0.47862198
vn -0.19941817 -0.76390302 0.61374634
vn -0.23727307 -0.64065287 0.73025022
vn -0.26795005 -0.49812641 0.82466529
vn -0.29053697 -0.34062586 0.89418247
vn -0.30436279 -0.17290364 0.93673242
vn -0.02782487 -0.98405455 0.17567700
vn -0.05410484 -0.93828739 0.34159836
vn -0.07872711 -0.86413888 0.49705738
vn -0.10095166 -0.76390324 0.63738576
vn -0.12011495 -0.64065159 0.75837849
vn -0.13564378 -0.49812521 0.85642982
vn -0.14708033 -0.34062942 0.92862208
vn -0.15407888 -0.17290438 0.97281230
vn -0.72317904 -0.17315760 0.66860191
vn -0.69024695 -0.34109259 0.63813399
vn -0.63644436 -0.49877233 0.58835766
vn -0.56336090 -0.64143463 0.52075533
vn -0.47318302 -0.76473569 0.43735243
vn -0.36861129 -0.86491609 0.34065508
vn -0.25279195 -0.93890466 0.23356857
vn -0.12922280 -0.98440948 0.11932918
vn -0.17574948 -0.98441007 0.00699489
vn -0.17567724 -0.98405458 0.02782265
vn -0.34390242 -0.93890694 0.01359710
vn -0.34159736 -0.93828778 0.05410440
vn -0.50153308 -0.86491247 0.01977323
vn -0.49705523 -0.86414024 0.07872579
vn -0.64384577 -0.76473590 0.02533050
vn -0.63738674 -0.76390245 0.10095145
vn -0.76658541 -0.64143525 0.03012670
vn -0.75838252 -0.64064547 0.12012219
vn -0.86606882 -0.49876698 0.03400441
vn -0.85642779 -0.49812901 0.13564264
vn -0.93931038 -0.34108405 0.03684678
vn -0.92862106 -0.34063496 0.14707394
vn -0.98413655 -0.17316678 0.03858141
vn -0.97281038 -0.17291730 0.15407649
vn -0.16916419 -0.98405397 0.05496599
vn -0.32893025 -0.93828713 0.10687442
vn -0.47862029 -0.86413983 0.15551516
vn -0.61374751 -0.76390098 0.19942239
vn -0.73024997 -0.64065350 0.23727216
vn -0.82466647 -0.49812477 0.26794947
vn -0.89418274 -0.34062449 0.29053775
vn -0.93673135 -0.17290455 0.30436556
vn -0.15847824 -0.98405503 0.08074871
vn -0.30816356 -0.93828648 0.15701499
vn -0.44840405 -0.86413797 0.22847181
vn -0.57499353 -0.76390296 0.29297559
vn -0.68413971 -0.64065568 0.34858738
vn -0.77259336 -0.49812972 0.39365757
vn -0.83772159 -0.34062857 0.42684272
vn -0.87758552 -0.17290619 0.44715446
vn -0.14389602 -0.98405507 0.10454455
vn -0.27980562 -0.93828652 0.20329100
vn -0.40714437 -0.86413570 0.29580899
vn -0.52208405 -0.76390269 0.37931640
vn -0.62119064 -0.64065187 0.45131737
vn -0.70150438 -0.49812197 0.50967256
vn -0.76063488 -0.34062656 0.55263743
vn -0.79683099 -0.17291788 0.57892986
vn -0.00462265 -0.98454828 -0.17505233
vn -0.72726063 -0.67593417 -0.11918463
vn -0.00902367 -0.93918744 -0.34328635
vn -0.72726048 -0.64496876 -0.23474984
vn -0.01314587 -0.86532155 -0.50104471
vn -0.72726073 -0.59440539 -0.34318226
vn -0.01686506 -0.76522146 -0.64354618
vn -0.72725984 -0.52578303 -0.44118627
vn -0.02006996 -0.64194805 -0.76648542
vn -0.72725984 -0.44118627 -0.52578303
vn -0.02266581 -0.49924858 -0.86616229
vn -0.72726073 -0.34318226 -0.59440539
vn -0.02457632 -0.34145353 -0.93957729
vn -0.72726048 -0.23474984 -0.64496876
vn -0.02574547 -0.17334231 -0.98452507
vn -0.72726074 -0.11918429 -0.67593411
vn -0.17505050 -0.98454860 -0.00462264
vn -0.34328164 -0.93918917 -0.00902365
vn -0.50104814 -0.86531956 -0.01314602
vn -0.64354216 -0.76522484 -0.01686523
vn -0.76648095 -0.64195338 -0.02007013
vn -0.86616929 -0.49923644 -0.02266585
vn -0.93958230 -0.34143978 -0.02457593
vn -0.98452235 -0.17335778 -0.02574532
vn -0.96143987 -0.17719960 -0.21031806
vn -0.84939343 -0.17719007 -0.49712623
vn -0.65420093 -0.17718659 -0.73527277
vn -0.39497033 -0.17719013 -0.90144445
vn -0.09707766 -0.17718902 -0.97937734
vn -0.01844511 -0.98430761 -0.17549446
vn -0.03601877 -0.93875635 -0.34269397
vn -0.05249148 -0.86476562 -0.49942473
vn -0.06736716 -0.76461600 -0.64095557
vn -0.08019730 -0.64136438 -0.76303350
vn -0.09059960 -0.49874804 -0.86199890
vn -0.09825998 -0.34108787 -0.93488183
vn -0.03668833 -0.98430761 -0.17260501
vn -0.07164269 -0.93875629 -0.33705185
vn -0.10440765 -0.86476725 -0.49119919
vn -0.13399581 -0.76461702 -0.63040141
vn -0.15951772 -0.64136259 -0.75047193
vn -0.18020749 -0.49874488 -0.84780824
vn -0.19544334 -0.34108838 -0.91948933
vn -0.21031792 -0.17719020 -0.96144163
vn -0.05453020 -0.98430730 -0.16782610
vn -0.10648142 -0.93875641 -0.32771651
vn -0.15517976 -0.86476760 -0.47759422
vn -0.19915660 -0.76461663 -0.61294214
vn -0.23708998 -0.64136246 -0.72968660
vn -0.26783957 -0.49874731 -0.82432584
vn -0.29048611 -0.34108680 -0.89402328
vn -0.30434964 -0.17314889 -0.93669139
vn -0.07177289 -0.98430775 -0.16120454
vn -0.14015329 -0.93875687 -0.31478976
vn -0.20425238 -0.86476693 -0.45875823
vn -0.26213707 -0.76461481 -0.58876850
vn -0.31206508 -0.64135978 -0.70090871
vn -0.35253819 -0.49874734 -0.79181305
vn -0.38234453 -0.34109192 -0.85876013
vn -0.08823075 -0.98430753 -0.15282020
vn -0.17229011 -0.93875691 -0.29841511
vn -0.25108799 -0.86476596 -0.43489615
vn -0.32224407 -0.76461480 -0.55814242
vn -0.38361834 -0.64136371 -0.66444681
vn -0.43337441 -0.49874652 -0.75062542
vn -0.47001629 -0.34108627 -0.81409142
vn -0.49712649 -0.17718925 -0.84939344
vn -0.10372124 -0.98430762 -0.14276000
vn -0.20254083 -0.93875589 -0.27877338
vn -0.29517026 -0.86476668 -0.40626727
vn -0.37882047 -0.76461486 -0.52140116
vn -0.45097021 -0.64136399 -0.62070775
vn -0.50946087 -0.49874880 -0.70121270
vn -0.55253654 -0.34108728 -0.76050170
vn -0.57890536 -0.17315775 -0.79679670
vn -0.11807543 -0.98430764 -0.13113607
vn -0.23057034 -0.93875621 -0.25607440
vn -0.33602040 -0.86476624 -0.37318848
vn -0.43124583 -0.76461513 -0.47894753
vn -0.51338078 -0.64136477 -0.57016788
vn -0.57996583 -0.49875045 -0.64411770
vn -0.62900379 -0.34108719 -0.69857982
vn -0.13113580 -0.98430769 -0.11807527
vn -0.25607293 -0.93875682 -0.23056950
vn -0.37318746 -0.86476686 -0.33601993
vn -0.47894731 -0.76461492 -0.43124644
vn -0.57016885 -0.64136259 -0.51338242
vn -0.64411729 -0.49875102 -0.57996580
vn -0.69857762 -0.34109379 -0.62900265
vn -0.73527310 -0.17718237 -0.65420171
vn -0.14275937 -0.98430773 -0.10372101
vn -0.27877165 -0.93875668 -0.20253951
vn -0.40627106 -0.86476397 -0.29517301
vn -0.52140107 -0.76461483 -0.37882065
vn -0.62070996 -0.64136036 -0.45097233
vn -0.70120959 -0.49875432 -0.50945975
vn -0.76050126 -0.34109022 -0.55253534
vn -0.79679733 -0.17314688 -0.57890774
vn -0.15281991 -0.98430760 -0.08823054
vn -0.29841525 -0.93875687 -0.17229011
vn -0.43489586 -0.86476634 -0.25108718
vn -0.55814097 -0.76461638 -0.32224284
vn -0.66445025 -0.64135897 -0.38362031
vn -0.75062576 -0.49874649 -0.43337386
vn -0.81408931 -0.34109331 -0.47001484
vn -0.16120416 -0.98430783 -0.07177264
vn -0.31479348 -0.93875542 -0.14015469
vn -0.45875982 -0.86476590 -0.20425321
vn -0.58876637 -0.76461706 -0.26213530
vn -0.70090760 -0.64136160 -0.31206382
vn -0.79181038 -0.49875257 -0.35253679
vn -0.85875718 -0.34110057 -0.38234345
vn -0.90144653 -0.17717853 -0.39497080
vn -0.16782214 -0.98430806 -0.05452871
vn -0.32771359 -0.93875752 -0.10648061
vn -0.47760105 -0.86476343 -0.15518196
vn -0.61294359 -0.76461517 -0.19915773
vn -0.72968782 -0.64136121 -0.23708963
vn -0.82432477 -0.49874912 -0.26783948
vn -0.89401895 -0.34110023 -0.29048364
vn -0.93669150 -0.17315052 -0.30434838
vn -0.17260416 -0.98430777 -0.03668806
vn -0.33704442 -0.93875908 -0.07164108
vn -0.49120418 -0.86476430 -0.10440861
vn -0.63040686 -0.76461231 -0.13399703
vn -0.75046948 -0.64136550 -0.15951758
vn -0.84780981 -0.49874209 -0.18020781
vn -0.91949066 -0.34108452 -0.19544378
vn -0.17549322 -0.98430783 -0.01844515
vn -0.34268812 -0.93875852 -0.03601799
vn -0.49942638 -0.86476465 -0.05249183
vn -0.64095721 -0.76461458 -0.06736755
vn -0.76302830 -0.64137045 -0.08019830
vn -0.86199949 -0.49874682 -0.09060072
vn -0.93488339 -0.34108338 -0.09826070
vn -0.97937732 -0.17718964 -0.09707679
vn -0.69376619 -0.72020030 0.00000000
vn 0.69376606 -0.71494937 0.08681042
vn -0.69376606 -0.71494937 0.08681042
vn 0.69376610 -0.69927267 0.17235525
vn -0.69376610 -0.69927267 0.17235525
vn 0.69376607 -0.67339903 0.25538674
vn -0.69376607 -0.67339903 0.25538674
vn 0.69376618 -0.63770568 0.33469383
vn -0.69376618 -0.63770568 0.33469383
vn 0.69376607 -0.59271334 0.40912044
vn -0.69376607 -0.59271334 0.40912044
vn 0.69376612 -0.53907768 0.47758122
vn -0.69376612 -0.53907768 0.47758122
vn 0.69376612 -0.47758122 0.53907768
vn -0.69376612 -0.47758122 0.53907768
vn 0.69376607 -0.40912044 0.59271334
vn -0.69376607 -0.40912044 0.59271334
vn 0.69376618 -0.33469383 0.63770568
vn -0.69376618 -0.33469383 0.63770568
vn 0.69376607 -0.25538674 0.67339903
vn -0.69376607 -0.25538674 0.67339903
vn 0.69376605 -0.17235509 0.69927276
vn -0.69376605 -0.17235509 0.69927276
vn 0.69376617 -0.08681041 0.71494926
vn -0.69376617 -0.08681041 0.71494926
vn 0.69376608 0.00000000 0.72020040
vn -0.69376608 0.00000000 0.72020040
vn 0.69376618 0.08681040 0.71494926
vn -0.69376618 0.08681040 0.71494926
vn 0.69376603 0.17235513 0.69927277
vn -0.69376603 0.17235513 0.69927277
vn 0.69376610 0.25538671 0.67339900
vn -0.69376610 0.25538671 0.67339900
vn 0.69376614 0.33469383 0.63770572
vn -0.69376614 0.33469383 0.63770572
vn 0.69376605 0.40912059 0.59271327
vn -0.69376605 0.40912059 0.59271327
vn 0.69376619 0.47758116 0.53907764
vn -0.69376619 0.47758116 0.53907764
vn 0.69376608 0.53907762 0.47758134
vn -0.69376608 0.53907762 0.47758134
vn 0.69376607 0.59271334 0.40912044
vn -0.69376607 0.59271334 0.40912044
vn 0.69376618 0.63770568 0.33469383
vn -0.69376618 0.63770568 0.33469383
vn 0.69376607 0.67339903 0.25538674
vn -0.69376607 0.67339903 0.25538674
vn 0.69376605 0.69927276 0.17235509
vn -0.69376605 0.69927276 0.17235509
vn 0.69376617 0.71494926 0.08681041
vn -0.69376617 0.71494926 0.08681041
vn 0.69376608 0.72020040 0.00000000
vn -0.69376608 0.72020040 0.00000000
vn 0.69376617 0.71494927 -0.08681042
vn -0.69376617 0.71494927 -0.08681042
vn 0.69376605 0.69927276 -0.17235509
vn -0.69376605 0.69927276 -0.17235509
vn 0.69376607 0.67339903 -0.25538674
vn -0.69376607 0.67339903 -0.25538674
vn 0.69376618 0.63770568 -0.33469383
vn -0.69376618 0.63770568 -0.33469383
vn 0.69376607 0.59271334 -0.40912044
vn -0.69376607 0.59271334 -0.40912044
vn 0.69376612 0.53907768 -0.47758122
vn -0.69376612 0.53907768 -0.47758122
vn 0.69376611 0.47758120 -0.53907771
vn -0.69376611 0.47758120 -0.53907771
vn 0.69376614 0.40912055 -0.59271319
vn -0.69376614 0.40912055 -0.59271319
vn 0.69376604 0.33469386 -0.63770581
vn -0.69376604 0.33469386 -0.63770581
vn 0.69376616 0.25538654 -0.67339902
vn -0.69376616 0.25538654 -0.67339902
vn 0.69376608 0.17235529 -0.69927268
vn -0.69376608 0.17235529 -0.69927268
vn 0.69376612 0.08681058 -0.71494929
vn -0.69376612 0.08681058 -0.71494929
vn 0.69376608 0.00000000 -0.72020040
vn -0.69376608 0.00000000 -0.72020040
vn 0.69376612 -0.08681060 -0.71494930
vn -0.69376612 -0.08681060 -0.71494930
vn 0.69376610 -0.17235525 -0.69927267
vn -0.69376610 -0.17235525 -0.69927267
vn 0.69376612 -0.25538657 -0.67339905
vn -0.69376612 -0.25538657 -0.67339905
vn 0.69376608 -0.33469387 -0.63770577
vn -0.69376608 -0.33469387 -0.63770577
vn 0.69376616 -0.40912040 -0.59271327
vn -0.69376616 -0.40912040 -0.59271327
vn 0.69376604 -0.47758126 -0.53907775
vn -0.69376604 -0.47758126 -0.53907775
vn 0.69376616 -0.53907774 -0.47758110
vn -0.69376616 -0.53907774 -0.47758110
vn 0.69376607 -0.59271334 -0.40912044
vn -0.69376607 -0.59271334 -0.40912044
vn 0.69376618 -0.63770568 -0.33469383
vn -0.69376618 -0.63770568 -0.33469383
vn 0.69376607 -0.67339903 -0.25538674
vn -0.69376607 -0.67339903 -0.25538674
vn 0.69376610 -0.69927267 -0.17235525
vn -0.69376610 -0.69927267 -0.17235525
vn 0.69376606 -0.71494937 -0.08681043
vn -0.69376606 -0.71494937 -0.08681043
vn 0.69376619 -0.72020030 0.00000000
vn 1.00000000 0.00000000 0.00000000
f 1//1 2//2 3//3
f 3//3 2//2 4//4
f 5//5 6//6 7//7
f 7//7 6//6 8//8
f 9//9 10//10 11//11
f 11//11 10//10 12//12
f 13//13 14//14 15//15
f 16//16 17//17 18//18
f 19//19 20//20 15//15
f 15//15 20//20 21//21
f 14//14 22//22 23//23
f 23//23 22//22 24//24
f 14//14 23//23 15//15
f 15//15 23//23 25//25
f 15//15 25//25 18//18
f 18//18 25//25 26//26
f 18//18 26//26 16//16
f 21//21 27//27 15//15
f 15//15 27//27 28//28
f 15//15 28//28 13//13
f 29//29 30//30 31//31
f 32//32 33//33 24//24
f 24//24 33//33 34//34
f 24//24 34//34 23//23
f 17//17 35//35 18//18
f 18//18 35//35 36//36
f 18//18 36//36 37//37
f 31//31 38//38 29//29
f 29//29 38//38 39//39
f 29//29 39//39 40//40
f 37//37 41//41 18//18
f 18//18 41//41 29//29
f 18//18 29//29 42//42
f 42//42 29//29 40//40
f 43//43 44//44 45//45
f 46//46 47//47 48//48
f 48//48 47//47 44//44
f 48//48 44//44 49//49
f 49//49 44//44 43//43
f 49//49 43//43 50//50
f 51//51 52//52 53//53
f 54//54 55//55 48//48
f 51//51 53//53 56//56
f 55//55 57//57 48//48
f 48//48 57//57 58//58
f 48//48 58//58 46//46
f 52//52 59//59 53//53
f 53//53 59//59 60//60
f 53//53 60//60 61//61
f 56//56 53//53 48//48
f 48//48 53//53 62//62
f 48//48 62//62 54//54
f 63//63 64//64 43//43
f 43//43 64//64 65//65
f 43//43 65//65 66//66
f 67//67 68//68 69//69
f 69//69 68//68 70//70
f 69//69 70//70 45//45
f 45//45 70//70 71//71
f 45//45 71//71 43//43
f 43//43 71//71 72//72
f 43//43 72//72 63//63
f 10//10 9//9 73//73
f 73//73 9//9 74//74
f 73//73 74//74 75//75
f 75//75 74//74 76//76
f 75//75 76//76 77//77
f 77//77 76//76 78//78
f 77//77 78//78 79//79
f 79//79 78//78 80//80
f 79//79 80//80 81//81
f 81//81 80//80 82//82
f 81//81 82//82 83//83
f 83//83 82//82 84//84
f 83//83 84//84 85//85
f 85//85 84//84 86//86
f 85//85 86//86 87//87
f 87//87 86//86 88//88
f 87//87 88//88 89//89
f 89//89 88//88 90//90
f 89//89 90//90 91//91
f 91//91 90//90 92//92
f 91//91 92//92 93//93
f 93//93 92//92 94//94
f 93//93 94//94 95//95
f 95//95 94//94 96//96
f 95//95 96//96 97//97
f 97//97 96//96 98//98
f 97//97 98//98 99//99
f 99//99 98//98 100//100
f 99//99 100//100 101//101
f 101//101 100//100 102//102
f 101//101 102//102 103//103
f 103//103 102//102 104//104
f 103//103 104//104 105//105
f 105//105 104//104 106//106
f 105//105 106//106 107//107
f 107//107 106//106 108//108
f 107//107 108//108 109//109
f 109//109 108//108 110//110
f 109//109 110//110 111//111
f 111//111 110//110 112//112
f 111//111 112//112 113//113
f 113//113 112//112 114//114
f 11//11 12//12 115//115
f 11//11 115//115 116//116
f 116//116 115//115 117//117
f 116//116 117//117 118//118
f 118//118 117//117 119//119
f 118//118 119//119 120//120
f 120//120 119//119 121//121
f 120//120 121//121 122//122
f 122//122 121//121 2//2
f 122//122 2//2 1//1
f 3//3 4//4 123//123
f 3//3 123//123 124//124
f 124//124 123//123 125//125
f 124//124 125//125 126//126
f 126//126 125//125 127//127
f 126//126 127//127 128//128
f 128//128 127//127 129//129
f 128//128 129//129 130//130
f 130//130 129//129 6//6
f 130//130 6//6 5//5
f 45//45 44//44 131//131
f 45//45 131//131 132//132
f 132//132 131//131 133//133
f 132//132 133//133 134//134
f 134//134 133//133 135//135
f 134//134 135//135 136//136
f 136//136 135//135 137//137
f 136//136 137//137 138//138
f 138//138 137//137 139//139
f 138//138 139//139 140//140
f 140//140 139//139 141//141
f 140//140 141//141 142//142
f 142//142 141//141 143//143
f 142//142 143//143 144//144
f 144//144 143//143 145//145
f 144//144 145//145 146//146
f 146//146 145//145 9//9
f 146//146 9//9 11//11
f 11//11 116//116 146//146
f 146//146 116//116 147//147
f 146//146 147//147 144//144
f 144//144 147//147 148//148
f 144//144 148//148 142//142
f 142//142 148//148 149//149
f 142//142 149//149 140//140
f 140//140 149//149 150//150
f 140//140 150//150 138//138
f 138//138 150//150 151//151
f 138//138 151//151 136//136
f 136//136 151//151 152//152
f 136//136 152//152 134//134
f 134//134 152//152 153//153
f 134//134 153//153 132//132
f 132//132 153//153 154//154
f 132//132 154//154 45//45
f 45//45 154//154 69//69
f 116//116 118//118 147//147
f 147//147 118//118 155//155
f 147//147 155//155 148//148
f 148//148 155//155 156//156
f 148//148 156//156 149//149
f 149//149 156//156 157//157
f 149//149 157//157 150//150
f 150//150 157//157 158//158
f 150//150 158//158 151//151
f 151//151 158//158 159//159
f 151//151 159//159 152//152
f 152//152 159//159 160//160
f 152//152 160//160 153//153
f 153//153 160//160 161//161
f 153//153 161//161 154//154
f 154//154 161//161 162//162
f 154//154 162//162 69//69
f 69//69 162//162 67//67
f 118//118 120//120 155//155
f 155//155 120//120 163//163
f 155//155 163//163 156//156
f 156//156 163//163 164//164
f 156//156 164//164 157//157
f 157//157 164//164 165//165
f 157//157 165//165 158//158
f 158//158 165//165 166//166
f 158//158 166//166 159//159
f 159//159 166//166 167//167
f 159//159 167//167 160//160
f 160//160 167//167 168//168
f 160//160 168//168 161//161
f 161//161 168//168 169//169
f 161//161 169//169 162//162
f 162//162 169//169 170//170
f 162//162 170//170 67//67
f 67//67 170//170 68//68
f 120//120 122//122 163//163
f 163//163 122//122 171//171
f 163//163 171//171 164//164
f 164//164 171//171 172//172
f 164//164 172//172 165//165
f 165//165 172//172 173//173
f 165//165 173//173 166//166
f 166//166 173//173 174//174
f 166//166 174//174 167//167
f 167//167 174//174 175//175
f 167//167 175//175 168//168
f 168//168 175//175 176//176
f 168//168 176//176 169//169
f 169//169 176//176 177//177
f 169//169 177//177 170//170
f 170//170 177//177 178//178
f 170//170 178//178 68//68
f 68//68 178//178 70//70
f 122//122 1//1 171//171
f 171//171 1//1 179//179
f 171//171 179//179 172//172
f 172//172 179//179 180//180
f 172//172 180//180 173//173
f 173//173 180//180 181//181
f 173//173 181//181 174//174
f 174//174 181//181 182//182
f 174//174 182//182 175//175
f 175//175 182//182 183//183
f 175//175 183//183 176//176
f 176//176 183//183 184//184
f 176//176 184//184 177//177
f 177//177 184//184 185//185
f 177//177 185//185 178//178
f 178//178 185//185 186//186
f 178//178 186//186 70//70
f 70//70 186//186 71//71
f 48//48 187//187 188//188
f 187//187 189//189 190//190
f 189//189 191//191 192//192
f 191//191 193//193 194//194
f 193//193 195//195 196//196
f 195//195 197//197 198//198
f 197//197 199//199 200//200
f 199//199 201//201 202//202
f 201//201 112//112 110//110
f 201//201 110//110 202//202
f 202//202 110//110 108//108
f 202//202 108//108 203//203
f 108//108 106//106 203//203
f 203//203 106//106 104//104
f 203//203 104//104 204//204
f 204//204 104//104 102//102
f 204//204 102//102 205//205
f 205//205 102//102 100//100
f 205//205 100//100 206//206
f 100//100 98//98 206//206
f 206//206 98//98 96//96
f 206//206 96//96 207//207
f 207//207 96//96 94//94
f 207//207 94//94 208//208
f 208//208 94//94 92//92
f 208//208 92//92 209//209
f 92//92 90//90 209//209
f 209//209 90//90 88//88
f 209//209 88//88 210//210
f 210//210 88//88 86//86
f 210//210 86//86 211//211
f 211//211 86//86 84//84
f 211//211 84//84 212//212
f 84//84 82//82 212//212
f 212//212 82//82 80//80
f 212//212 80//80 213//213
f 213//213 80//80 78//78
f 213//213 78//78 214//214
f 214//214 78//78 76//76
f 214//214 76//76 215//215
f 76//76 74//74 215//215
f 215//215 74//74 9//9
f 215//215 9//9 145//145
f 199//199 202//202 200//200
f 200//200 202//202 203//203
f 200//200 203//203 216//216
f 216//216 203//203 204//204
f 216//216 204//204 217//217
f 217//217 204//204 205//205
f 217//217 205//205 218//218
f 218//218 205//205 206//206
f 218//218 206//206 219//219
f 219//219 206//206 207//207
f 219//219 207//207 220//220
f 220//220 207//207 208//208
f 220//220 208//208 221//221
f 221//221 208//208 209//209
f 221//221 209//209 222//222
f 222//222 209//209 210//210
f 222//222 210//210 223//223
f 223//223 210//210 211//211
f 223//223 211//211 224//224
f 224//224 211//211 212//212
f 224//224 212//212 225//225
f 225//225 212//212 213//213
f 225//225 213//213 226//226
f 226//226 213//213 214//214
f 226//226 214//214 227//227
f 227//227 214//214 215//215
f 227//227 215//215 228//228
f 228//228 215//215 145//145
f 228//228 145//145 143//143
f 197//197 200//200 198//198
f 198//198 200//200 216//216
f 198//198 216//216 229//229
f 229//229 216//216 217//217
f 229//229 217//217 230//230
f 230//230 217//217 218//218
f 230//230 218//218 231//231
f 231//231 218//218 219//219
f 231//231 219//219 232//232
f 232//232 219//219 220//220
f 232//232 220//220 233//233
f 233//233 220//220 221//221
f 233//233 221//221 234//234
f 234//234 221//221 222//222
f 234//234 222//222 235//235
f 235//235 222//222 223//223
f 235//235 223//223 236//236
f 236//236 223//223 224//224
f 236//236 224//224 237//237
f 237//237 224//224 225//225
f 237//237 225//225 238//238
f 238//238 225//225 226//226
f 238//238 226//226 239//239
f 239//239 226//226 227//227
f 239//239 227//227 240//240
f 240//240 227//227 228//228
f 240//240 228//228 241//241
f 241//241 228//228 143//143
f 241//241 143//143 141//141
f 195//195 198//198 196//196
f 196//196 198//198 229//229
f 196//196 229//229 242//242
f 242//242 229//229 230//230
f 242//242 230//230 243//243
f 243//243 230//230 231//231
f 243//243 231//231 244//244
f 244//244 231//231 232//232
f 244//244 232//232 245//245
f 245//245 232//232 233//233
f 245//245 233//233 246//246
f 246//246 233//233 234//234
f 246//246 234//234 247//247
f 247//247 234//234 235//235
f 247//247 235//235 248//248
f 248//248 235//235 236//236
f 248//248 236//236 249//249
f 249//249 236//236 237//237
f 249//249 237//237 250//250
f 250//250 237//237 238//238
f 250//250 238//238 251//251
f 251//251 238//238 239//239
f 251//251 239//239 252//252
f 252//252 239//239 240//240
f 252//252 240//240 253//253
f 253//253 240//240 241//241
f 253//253 241//241 254//254
f 254//254 241//241 141//141
f 254//254 141//141 139//139
f 193//193 196//196 194//194
f 194//194 196//196 242//242
f 194//194 242//242 255//255
f 255//255 242//242 243//243
f 255//255 243//243 256//256
f 256//256 243//243 244//244
f 256//256 244//244 257//257
f 257//257 244//244 245//245
f 257//257 245//245 258//258
f 258//258 245//245 246//246
f 258//258 246//246 259//259
f 259//259 246//246 247//247
f 259//259 247//247 260//260
f 260//260 247//247 248//248
f 260//260 248//248 261//261
f 261//261 248//248 249//249
f 261//261 249//249 262//262
f 262//262 249//249 250//250
f 262//262 250//250 263//263
f 263//263 250//250 251//251
f 263//263 251//251 264//264
f 264//264 251//251 252//252
f 264//264 252//252 265//265
f 265//265 252//252 253//253
f 265//265 253//253 266//266
f 266//266 253//253 254//254
f 266//266 254//254 267//267
f 267//267 254//254 139//139
f 267//267 139//139 137//137
f 191//191 194//194 192//192
f 192//192 194//194 255//255
f 192//192 255//255 268//268
f 268//268 255//255 256//256
f 268//268 256//256 269//269
f 269//269 256//256 257//257
f 269//269 257//257 270//270
f 270//270 257//257 258//258
f 270//270 258//258 271//271
f 271//271 258//258 259//259
f 271//271 259//259 272//272
f 272//272 259//259 260//260
f 272//272 260//260 273//273
f 273//273 260//260 261//261
f 273//273 261//261 274//274
f 274//274 261//261 262//262
f 274//274 262//262 275//275
f 275//275 262//262 263//263
f 275//275 263//263 276//276
f 276//276 263//263 264//264
f 276//276 264//264 277//277
f 277//277 264//264 265//265
f 277//277 265//265 278//278
f 278//278 265//265 266//266
f 278//278 266//266 279//279
f 279//279 266//266 267//267
f 279//279 267//267 280//280
f 280//280 267//267 137//137
f 280//280 137//137 135//135
f 189//189 192//192 190//190
f 190//190 192//192 268//268
f 190//190 268//268 281//281
f 281//281 268//268 269//269
f 281//281 269//269 282//282
f 282//282 269//269 270//270
f 282//282 270//270 283//283
f 283//283 270//270 271//271
f 283//283 271//271 284//284
f 284//284 271//271 272//272
f 284//284 272//272 285//285
f 285//285 272//272 273//273
f 285//285 273//273 286//286
f 286//286 273//273 274//274
f 286//286 274//274 287//287
f 287//287 274//274 275//275
f 287//287 275//275 288//288
f 288//288 275//275 276//276
f 288//288 276//276 289//289
f 289//289 276//276 277//277
f 289//289 277//277 290//290
f 290//290 277//277 278//278
f 290//290 278//278 291//291
f 291//291 278//278 279//279
f 291//291 279//279 292//292
f 292//292 279//279 280//280
f 292//292 280//280 293//293
f 293//293 280//280 135//135
f 293//293 135//135 133//133
f 187//187 190//190 188//188
f 188//188 190//190 281//281
f 188//188 281//281 294//294
f 294//294 281//281 282//282
f 294//294 282//282 295//295
f 295//295 282//282 283//283
f 295//295 283//283 296//296
f 296//296 283//283 284//284
f 296//296 284//284 297//297
f 297//297 284//284 285//285
f 297//297 285//285 298//298
f 298//298 285//285 286//286
f 298//298 286//286 299//299
f 299//299 286//286 287//287
f 299//299 287//287 300//300
f 300//300 287//287 288//288
f 300//300 288//288 301//301
f 301//301 288//288 289//289
f 301//301 289//289 302//302
f 302//302 289//289 290//290
f 302//302 290//290 303//303
f 303//303 290//290 291//291
f 303//303 291//291 304//304
f 304//304 291//291 292//292
f 304//304 292//292 305//305
f 305//305 292//292 293//293
f 305//305 293//293 306//306
f 306//306 293//293 133//133
f 306//306 133//133 131//131
f 48//48 188//188 56//56
f 56//56 188//188 294//294
f 56//56 294//294 51//51
f 51//51 294//294 295//295
f 51//51 295//295 52//52
f 52//52 295//295 296//296
f 52//52 296//296 59//59
f 59//59 296//296 297//297
f 59//59 297//297 60//60
f 60//60 297//297 298//298
f 60//60 298//298 61//61
f 61//61 298//298 299//299
f 61//61 299//299 53//53
f 53//53 299//299 300//300
f 53//53 300//300 62//62
f 62//62 300//300 301//301
f 62//62 301//301 54//54
f 54//54 301//301 302//302
f 54//54 302//302 55//55
f 55//55 302//302 303//303
f 55//55 303//303 57//57
f 57//57 303//303 304//304
f 57//57 304//304 58//58
f 58//58 304//304 305//305
f 58//58 305//305 46//46
f 46//46 305//305 306//306
f 46//46 306//306 47//47
f 47//47 306//306 131//131
f 47//47 131//131 44//44
f 1//1 3//3 307//307
f 1//1 307//307 179//179
f 179//179 307//307 308//308
f 179//179 308//308 180//180
f 180//180 308//308 309//309
f 180//180 309//309 181//181
f 181//181 309//309 310//310
f 181//181 310//310 182//182
f 182//182 310//310 311//311
f 182//182 311//311 183//183
f 183//183 311//311 312//312
f 183//183 312//312 184//184
f 184//184 312//312 313//313
f 184//184 313//313 185//185
f 185//185 313//313 314//314
f 185//185 314//314 186//186
f 186//186 314//314 72//72
f 186//186 72//72 71//71
f 48//48 49//49 315//315
f 48//48 315//315 187//187
f 187//187 315//315 316//316
f 187//187 316//316 189//189
f 189//189 316//316 317//317
f 189//189 317//317 191//191
f 191//191 317//317 318//318
f 191//191 318//318 193//193
f 193//193 318//318 319//319
f 193//193 319//319 195//195
f 195//195 319//319 320//320
f 195//195 320//320 197//197
f 197//197 320//320 321//321
f 197//197 321//321 199//199
f 199//199 321//321 322//322
f 199//199 322//322 201//201
f 201//201 322//322 114//114
f 201//201 114//114 112//112
f 3//3 124//124 307//307
f 307//307 124//124 323//323
f 307//307 323//323 308//308
f 308//308 323//323 324//324
f 308//308 324//324 309//309
f 309//309 324//324 325//325
f 309//309 325//325 310//310
f 310//310 325//325 326//326
f 310//310 326//326 311//311
f 311//311 326//326 327//327
f 311//311 327//327 312//312
f 312//312 327//327 328//328
f 312//312 328//328 313//313
f 313//313 328//328 329//329
f 313//313 329//329 314//314
f 314//314 329//329 330//330
f 314//314 330//330 72//72
f 72//72 330//330 63//63
f 124//124 126//126 323//323
f 323//323 126//126 331//331
f 323//323 331//331 324//324
f 324//324 331//331 332//332
f 324//324 332//332 325//325
f 325//325 332//332 333//333
f 325//325 333//333 326//326
f 326//326 333//333 334//334
f 326//326 334//334 327//327
f 327//327 334//334 335//335
f 327//327 335//335 328//328
f 328//328 335//335 336//336
f 328//328 336//336 329//329
f 329//329 336//336 337//337
f 329//329 337//337 330//330
f 330//330 337//337 338//338
f 330//330 338//338 63//63
f 63//63 338//338 64//64
f 126//126 128//128 331//331
f 331//331 128//128 339//339
f 331//331 339//339 332//332
f 332//332 339//339 340//340
f 332//332 340//340 333//333
f 333//333 340//340 341//341
f 333//333 341//341 334//334
f 334//334 341//341 342//342
f 334//334 342//342 335//335
f 335//335 342//342 343//343
f 335//335 343//343 336//336
f 336//336 343//343 344//344
f 336//336 344//344 337//337
f 337//337 344//344 345//345
f 337//337 345//345 338//338
f 338//338 345//345 346//346
f 338//338 346//346 64//64
f 64//64 346//346 65//65
f 128//128 130//130 339//339
f 339//339 130//130 347//347
f 339//339 347//347 340//340
f 340//340 347//347 348//348
f 340//340 348//348 341//341
f 341//341 348//348 349//349
f 341//341 349//349 342//342
f 342//342 349//349 350//350
f 342//342 350//350 343//343
f 343//343 350//350 351//351
f 343//343 351//351 344//344
f 344//344 351//351 352//352
f 344//344 352//352 345//345
f 345//345 352//352 353//353
f 345//345 353//353 346//346
f 346//346 353//353 354//354
f 346//346 354//354 65//65
f 65//65 354//354 66//66
f 130//130 5//5 347//347
f 347//347 5//5 355//355
f 347//347 355//355 348//348
f 348//348 355//355 356//356
f 348//348 356//356 349//349
f 349//349 356//356 357//357
f 349//349 357//357 350//350
f 350//350 357//357 358//358
f 350//350 358//358 351//351
f 351//351 358//358 359//359
f 351//351 359//359 352//352
f 352//352 359//359 360//360
f 352//352 360//360 353//353
f 353//353 360//360 361//361
f 353//353 361//361 354//354
f 354//354 361//361 362//362
f 354//354 362//362 66//66
f 66//66 362//362 43//43
f 50//50 43//43 362//362
f 50//50 362//362 363//363
f 363//363 362//362 361//361
f 363//363 361//361 364//364
f 364//364 361//361 360//360
f 364//364 360//360 365//365
f 365//365 360//360 359//359
f 365//365 359//359 366//366
f 366//366 359//359 358//358
f 366//366 358//358 367//367
f 367//367 358//358 357//357
f 367//367 357//357 368//368
f 368//368 357//357 356//356
f 368//368 356//356 369//369
f 369//369 356//356 355//355
f 369//369 355//355 370//370
f 370//370 355//355 5//5
f 370//370 5//5 7//7
f 20//20 19//19 371//371
f 20//20 371//371 372//372
f 372//372 371//371 373//373
f 372//372 373//373 374//374
f 374//374 373//373 375//375
f 374//374 375//375 376//376
f 376//376 375//375 377//377
f 376//376 377//377 378//378
f 378//378 377//377 379//379
f 378//378 379//379 380//380
f 380//380 379//379 381//381
f 380//380 381//381 382//382
f 382//382 381//381 383//383
f 382//382 383//383 384//384
f 384//384 383//383 385//385
f 384//384 385//385 386//386
f 386//386 385//385 8//8
f 386//386 8//8 6//6
f 14//14 13//13 387//387
f 387//387 13//13 388//388
f 387//387 388//388 389//389
f 389//389 388//388 390//390
f 389//389 390//390 391//391
f 391//391 390//390 392//392
f 391//391 392//392 393//393
f 393//393 392//392 394//394
f 393//393 394//394 395//395
f 395//395 394//394 396//396
f 395//395 396//396 397//397
f 397//397 396//396 398//398
f 397//397 398//398 399//399
f 399//399 398//398 400//400
f 399//399 400//400 401//401
f 401//401 400//400 402//402
f 401//401 402//402 4//4
f 4//4 402//402 123//123
f 13//13 28//28 388//388
f 388//388 28//28 403//403
f 388//388 403//403 390//390
f 390//390 403//403 404//404
f 390//390 404//404 392//392
f 392//392 404//404 405//405
f 392//392 405//405 394//394
f 394//394 405//405 406//406
f 394//394 406//406 396//396
f 396//396 406//406 407//407
f 396//396 407//407 398//398
f 398//398 407//407 408//408
f 398//398 408//408 400//400
f 400//400 408//408 409//409
f 400//400 409//409 402//402
f 402//402 409//409 410//410
f 402//402 410//410 123//123
f 123//123 410//410 125//125
f 28//28 27//27 403//403
f 403//403 27//27 411//411
f 403//403 411//411 404//404
f 404//404 411//411 412//412
f 404//404 412//412 405//405
f 405//405 412//412 413//413
f 405//405 413//413 406//406
f 406//406 413//413 414//414
f 406//406 414//414 407//407
f 407//407 414//414 415//415
f 407//407 415//415 408//408
f 408//408 415//415 416//416
f 408//408 416//416 409//409
f 409//409 416//416 417//417
f 409//409 417//417 410//410
f 410//410 417//417 418//418
f 410//410 418//418 125//125
f 125//125 418//418 127//127
f 27//27 21//21 411//411
f 411//411 21//21 419//419
f 411//411 419//419 412//412
f 412//412 419//419 420//420
f 412//412 420//420 413//413
f 413//413 420//420 421//421
f 413//413 421//421 414//414
f 414//414 421//421 422//422
f 414//414 422//422 415//415
f 415//415 422//422 423//423
f 415//415 423//423 416//416
f 416//416 423//423 424//424
f 416//416 424//424 417//417
f 417//417 424//424 425//425
f 417//417 425//425 418//418
f 418//418 425//425 426//426
f 418//418 426//426 127//127
f 127//127 426//426 129//129
f 21//21 20//20 419//419
f 419//419 20//20 372//372
f 419//419 372//372 420//420
f 420//420 372//372 374//374
f 420//420 374//374 421//421
f 421//421 374//374 376//376
f 421//421 376//376 422//422
f 422//422 376//376 378//378
f 422//422 378//378 423//423
f 423//423 378//378 380//380
f 423//423 380//380 424//424
f 424//424 380//380 382//382
f 424//424 382//382 425//425
f 425//425 382//382 384//384
f 425//425 384//384 426//426
f 426//426 384//384 386//386
f 426//426 386//386 129//129
f 129//129 386//386 6//6
f 4//4 2//2 427//427
f 4//4 427//427 401//401
f 401//401 427//427 428//428
f 401//401 428//428 399//399
f 399//399 428//428 429//429
f 399//399 429//429 397//397
f 397//397 429//429 430//430
f 397//397 430//430 395//395
f 395//395 430//430 431//431
f 395//395 431//431 393//393
f 393//393 431//431 432//432
f 393//393 432//432 391//391
f 391//391 432//432 433//433
f 391//391 433//433 389//389
f 389//389 433//433 434//434
f 389//389 434//434 387//387
f 387//387 434//434 22//22
f 387//387 22//22 14//14
f 23//23 34//34 435//435
f 435//435 34//34 436//436
f 435//435 436//436 437//437
f 437//437 436//436 438//438
f 437//437 438//438 439//439
f 439//439 438//438 440//440
f 439//439 440//440 441//441
f 441//441 440//440 442//442
f 441//441 442//442 443//443
f 443//443 442//442 444//444
f 443//443 444//444 445//445
f 445//445 444//444 446//446
f 445//445 446//446 447//447
f 447//447 446//446 448//448
f 447//447 448//448 449//449
f 449//449 448//448 450//450
f 449//449 450//450 12//12
f 12//12 450//450 115//115
f 34//34 33//33 436//436
f 436//436 33//33 451//451
f 436//436 451//451 438//438
f 438//438 451//451 452//452
f 438//438 452//452 440//440
f 440//440 452//452 453//453
f 440//440 453//453 442//442
f 442//442 453//453 454//454
f 442//442 454//454 444//444
f 444//444 454//454 455//455
f 444//444 455//455 446//446
f 446//446 455//455 456//456
f 446//446 456//456 448//448
f 448//448 456//456 457//457
f 448//448 457//457 450//450
f 450//450 457//457 458//458
f 450//450 458//458 115//115
f 115//115 458//458 117//117
f 33//33 32//32 451//451
f 451//451 32//32 459//459
f 451//451 459//459 452//452
f 452//452 459//459 460//460
f 452//452 460//460 453//453
f 453//453 460//460 461//461
f 453//453 461//461 454//454
f 454//454 461//461 462//462
f 454//454 462//462 455//455
f 455//455 462//462 463//463
f 455//455 463//463 456//456
f 456//456 463//463 464//464
f 456//456 464//464 457//457
f 457//457 464//464 465//465
f 457//457 465//465 458//458
f 458//458 465//465 466//466
f 458//458 466//466 117//117
f 117//117 466//466 119//119
f 32//32 24//24 459//459
f 459//459 24//24 467//467
f 459//459 467//467 460//460
f 460//460 467//467 468//468
f 460//460 468//468 461//461
f 461//461 468//468 469//469
f 461//461 469//469 462//462
f 462//462 469//469 470//470
f 462//462 470//470 463//463
f 463//463 470//470 471//471
f 463//463 471//471 464//464
f 464//464 471//471 472//472
f 464//464 472//472 465//465
f 465//465 472//472 473//473
f 465//465 473//473 466//466
f 466//466 473//473 474//474
f 466//466 474//474 119//119
f 119//119 474//474 121//121
f 24//24 22//22 467//467
f 467//467 22//22 434//434
f 467//467 434//434 468//468
f 468//468 434//434 433//433
f 468//468 433//433 469//469
f 469//469 433//433 432//432
f 469//469 432//432 470//470
f 470//470 432//432 431//431
f 470//470 431//431 471//471
f 471//471 431//431 430//430
f 471//471 430//430 472//472
f 472//472 430//430 429//429
f 472//472 429//429 473//473
f 473//473 429//429 428//428
f 473//473 428//428 474//474
f 474//474 428//428 427//427
f 474//474 427//427 121//121
f 121//121 427//427 2//2
f 15//15 18//18 475//475
f 15//15 475//475 476//476
f 476//476 475//475 477//477
f 476//476 477//477 478//478
f 478//478 477//477 479//479
f 478//478 479//479 480//480
f 480//480 479//479 481//481
f 480//480 481//481 482//482
f 482//482 481//481 483//483
f 482//482 483//483 484//484
f 484//484 483//483 485//485
f 484//484 485//485 486//486
f 486//486 485//485 487//487
f 486//486 487//487 488//488
f 488//488 487//487 489//489
f 488//488 489//489 490//490
f 490//490 489//489 111//111
f 490//490 111//111 113//113
f 25//25 23//23 435//435
f 25//25 435//435 491//491
f 491//491 435//435 437//437
f 491//491 437//437 492//492
f 492//492 437//437 439//439
f 492//492 439//439 493//493
f 493//493 439//439 441//441
f 493//493 441//441 494//494
f 494//494 441//441 443//443
f 494//494 443//443 495//495
f 495//495 443//443 445//445
f 495//495 445//445 496//496
f 496//496 445//445 447//447
f 496//496 447//447 497//497
f 497//497 447//447 449//449
f 497//497 449//449 498//498
f 498//498 449//449 12//12
f 498//498 12//12 10//10
f 75//75 77//77 499//499
f 83//83 85//85 500//500
f 91//91 93//93 501//501
f 99//99 101//101 502//502
f 107//107 109//109 503//503
f 18//18 42//42 475//475
f 475//475 42//42 504//504
f 475//475 504//504 477//477
f 477//477 504//504 505//505
f 477//477 505//505 479//479
f 479//479 505//505 506//506
f 479//479 506//506 481//481
f 481//481 506//506 507//507
f 481//481 507//507 483//483
f 483//483 507//507 508//508
f 483//483 508//508 485//485
f 485//485 508//508 509//509
f 485//485 509//509 487//487
f 487//487 509//509 510//510
f 487//487 510//510 489//489
f 489//489 510//510 503//503
f 489//489 503//503 111//111
f 111//111 503//503 109//109
f 42//42 40//40 504//504
f 504//504 40//40 511//511
f 504//504 511//511 505//505
f 505//505 511//511 512//512
f 505//505 512//512 506//506
f 506//506 512//512 513//513
f 506//506 513//513 507//507
f 507//507 513//513 514//514
f 507//507 514//514 508//508
f 508//508 514//514 515//515
f 508//508 515//515 509//509
f 509//509 515//515 516//516
f 509//509 516//516 510//510
f 510//510 516//516 517//517
f 510//510 517//517 503//503
f 503//503 517//517 518//518
f 503//503 518//518 107//107
f 107//107 518//518 105//105
f 40//40 39//39 511//511
f 511//511 39//39 519//519
f 511//511 519//519 512//512
f 512//512 519//519 520//520
f 512//512 520//520 513//513
f 513//513 520//520 521//521
f 513//513 521//521 514//514
f 514//514 521//521 522//522
f 514//514 522//522 515//515
f 515//515 522//522 523//523
f 515//515 523//523 516//516
f 516//516 523//523 524//524
f 516//516 524//524 517//517
f 517//517 524//524 525//525
f 517//517 525//525 518//518
f 518//518 525//525 526//526
f 518//518 526//526 105//105
f 105//105 526//526 103//103
f 39//39 38//38 519//519
f 519//519 38//38 527//527
f 519//519 527//527 520//520
f 520//520 527//527 528//528
f 520//520 528//528 521//521
f 521//521 528//528 529//529
f 521//521 529//529 522//522
f 522//522 529//529 530//530
f 522//522 530//530 523//523
f 523//523 530//530 531//531
f 523//523 531//531 524//524
f 524//524 531//531 532//532
f 524//524 532//532 525//525
f 525//525 532//532 533//533
f 525//525 533//533 526//526
f 526//526 533//533 502//502
f 526//526 502//502 103//103
f 103//103 502//502 101//101
f 38//38 31//31 527//527
f 527//527 31//31 534//534
f 527//527 534//534 528//528
f 528//528 534//534 535//535
f 528//528 535//535 529//529
f 529//529 535//535 536//536
f 529//529 536//536 530//530
f 530//530 536//536 537//537
f 530//530 537//537 531//531
f 531//531 537//537 538//538
f 531//531 538//538 532//532
f 532//532 538//538 539//539
f 532//532 539//539 533//533
f 533//533 539//539 540//540
f 533//533 540//540 502//502
f 502//502 540//540 541//541
f 502//502 541//541 99//99
f 99//99 541//541 97//97
f 31//31 30//30 534//534
f 534//534 30//30 542//542
f 534//534 542//542 535//535
f 535//535 542//542 543//543
f 535//535 543//543 536//536
f 536//536 543//543 544//544
f 536//536 544//544 537//537
f 537//537 544//544 545//545
f 537//537 545//545 538//538
f 538//538 545//545 546//546
f 538//538 546//546 539//539
f 539//539 546//546 547//547
f 539//539 547//547 540//540
f 540//540 547//547 548//548
f 540//540 548//548 541//541
f 541//541 548//548 549//549
f 541//541 549//549 97//97
f 97//97 549//549 95//95
f 30//30 29//29 542//542
f 542//542 29//29 550//550
f 542//542 550//550 543//543
f 543//543 550//550 551//551
f 543//543 551//551 544//544
f 544//544 551//551 552//552
f 544//544 552//552 545//545
f 545//545 552//552 553//553
f 545//545 553//553 546//546
f 546//546 553//553 554//554
f 546//546 554//554 547//547
f 547//547 554//554 555//555
f 547//547 555//555 548//548
f 548//548 555//555 556//556
f 548//548 556//556 549//549
f 549//549 556//556 501//501
f 549//549 501//501 95//95
f 95//95 501//501 93//93
f 29//29 41//41 550//550
f 550//550 41//41 557//557
f 550//550 557//557 551//551
f 551//551 557//557 558//558
f 551//551 558//558 552//552
f 552//552 558//558 559//559
f 552//552 559//559 553//553
f 553//553 559//559 560//560
f 553//553 560//560 554//554
f 554//554 560//560 561//561
f 554//554 561//561 555//555
f 555//555 561//561 562//562
f 555//555 562//562 556//556
f 556//556 562//562 563//563
f 556//556 563//563 501//501
f 501//501 563//563 564//564
f 501//501 564//564 91//91
f 91//91 564//564 89//89
f 41//41 37//37 557//557
f 557//557 37//37 565//565
f 557//557 565//565 558//558
f 558//558 565//565 566//566
f 558//558 566//566 559//559
f 559//559 566//566 567//567
f 559//559 567//567 560//560
f 560//560 567//567 568//568
f 560//560 568//568 561//561
f 561//561 568//568 569//569
f 561//561 569//569 562//562
f 562//562 569//569 570//570
f 562//562 570//570 563//563
f 563//563 570//570 571//571
f 563//563 571//571 564//564
f 564//564 571//571 572//572
f 564//564 572//572 89//89
f 89//89 572//572 87//87
f 37//37 36//36 565//565
f 565//565 36//36 573//573
f 565//565 573//573 566//566
f 566//566 573//573 574//574
f 566//566 574//574 567//567
f 567//567 574//574 575//575
f 567//567 575//575 568//568
f 568//568 575//575 576//576
f 568//568 576//576 569//569
f 569//569 576//576 577//577
f 569//569 577//577 570//570
f 570//570 577//577 578//578
f 570//570 578//578 571//571
f 571//571 578//578 579//579
f 571//571 579//579 572//572
f 572//572 579//579 500//500
f 572//572 500//500 87//87
f 87//87 500//500 85//85
f 36//36 35//35 573//573
f 573//573 35//35 580//580
f 573//573 580//580 574//574
f 574//574 580//580 581//581
f 574//574 581//581 575//575
f 575//575 581//581 582//582
f 575//575 582//582 576//576
f 576//576 582//582 583//583
f 576//576 583//583 577//577
f 577//577 583//583 584//584
f 577//577 584//584 578//578
f 578//578 584//584 585//585
f 578//578 585//585 579//579
f 579//579 585//585 586//586
f 579//579 586//586 500//500
f 500//500 586//586 587//587
f 500//500 587//587 83//83
f 83//83 587//587 81//81
f 35//35 17//17 580//580
f 580//580 17//17 588//588
f 580//580 588//588 581//581
f 581//581 588//588 589//589
f 581//581 589//589 582//582
f 582//582 589//589 590//590
f 582//582 590//590 583//583
f 583//583 590//590 591//591
f 583//583 591//591 584//584
f 584//584 591//591 592//592
f 584//584 592//592 585//585
f 585//585 592//592 593//593
f 585//585 593//593 586//586
f 586//586 593//593 594//594
f 586//586 594//594 587//587
f 587//587 594//594 595//595
f 587//587 595//595 81//81
f 81//81 595//595 79//79
f 17//17 16//16 588//588
f 588//588 16//16 596//596
f 588//588 596//596 589//589
f 589//589 596//596 597//597
f 589//589 597//597 590//590
f 590//590 597//597 598//598
f 590//590 598//598 591//591
f 591//591 598//598 599//599
f 591//591 599//599 592//592
f 592//592 599//599 600//600
f 592//592 600//600 593//593
f 593//593 600//600 601//601
f 593//593 601//601 594//594
f 594//594 601//601 602//602
f 594//594 602//602 595//595
f 595//595 602//602 499//499
f 595//595 499//499 79//79
f 79//79 499//499 77//77
f 16//16 26//26 596//596
f 596//596 26//26 603//603
f 596//596 603//603 597//597
f 597//597 603//603 604//604
f 597//597 604//604 598//598
f 598//598 604//604 605//605
f 598//598 605//605 599//599
f 599//599 605//605 606//606
f 599//599 606//606 600//600
f 600//600 606//606 607//607
f 600//600 607//607 601//601
f 601//601 607//607 608//608
f 601//601 608//608 602//602
f 602//602 608//608 609//609
f 602//602 609//609 499//499
f 499//499 609//609 610//610
f 499//499 610//610 75//75
f 75//75 610//610 73//73
f 26//26 25//25 603//603
f 603//603 25//25 491//491
f 603//603 491//491 604//604
f 604//604 491//491 492//492
f 604//604 492//492 605//605
f 605//605 492//492 493//493
f 605//605 493//493 606//606
f 606//606 493//493 494//494
f 606//606 494//494 607//607
f 607//607 494//494 495//495
f 607//607 495//495 608//608
f 608//608 495//495 496//496
f 608//608 496//496 609//609
f 609//609 496//496 497//497
f 609//609 497//497 610//610
f 610//610 497//497 498//498
f 610//610 498//498 73//73
f 73//73 498//498 10//10
f 611//611 612//612 613//613
f 613//613 612//612 614//614
f 613//613 614//614 615//615
f 615//615 614//614 616//616
f 615//615 616//616 617//617
f 617//617 616//616 618//618
f 617//617 618//618 619//619
f 619//619 618//618 620//620
f 619//619 620//620 621//621
f 621//621 620//620 622//622
f 621//621 622//622 623//623
f 623//623 622//622 624//624
f 623//623 624//624 625//625
f 625//625 624//624 626//626
f 625//625 626//626 627//627
f 627//627 626//626 628//628
f 627//627 628//628 629//629
f 629//629 628//628 630//630
f 629//629 630//630 631//631
f 631//631 630//630 632//632
f 631//631 632//632 633//633
f 633//633 632//632 634//634
f 633//633 634//634 635//635
f 635//635 634//634 636//636
f 635//635 636//636 637//637
f 637//637 636//636 638//638
f 637//637 638//638 639//639
f 639//639 638//638 640//640
f 639//639 640//640 641//641
f 641//641 640//640 642//642
f 641//641 642//642 643//643
f 643//643 642//642 644//644
f 643//643 644//644 645//645
f 645//645 644//644 646//646
f 645//645 646//646 647//647
f 647//647 646//646 648//648
f 647//647 648//648 649//649
f 649//649 648//648 650//650
f 649//649 650//650 651//651
f 651//651 650//650 652//652
f 651//651 652//652 653//653
f 653//653 652//652 654//654
f 653//653 654//654 655//655
f 655//655 654//654 656//656
f 655//655 656//656 657//657
f 657//657 656//656 658//658
f 657//657 658//658 659//659
f 659//659 658//658 660//660
f 659//659 660//660 661//661
f 661//661 660//660 662//662
f 661//661 662//662 663//663
f 663//663 662//662 664//664
f 663//663 664//664 665//665
f 665//665 664//664 666//666
f 665//665 666//666 667//667
f 667//667 666//666 668//668
f 667//667 668//668 669//669
f 669//669 668//668 670//670
f 669//669 670//670 671//671
f 671//671 670//670 672//672
f 671//671 672//672 673//673
f 673//673 672//672 674//674
f 673//673 674//674 675//675
f 675//675 674//674 676//676
f 675//675 676//676 677//677
f 677//677 676//676 678//678
f 677//677 678//678 679//679
f 679//679 678//678 680//680
f 679//679 680//680 681//681
f 681//681 680//680 682//682
f 681//681 682//682 683//683
f 683//683 682//682 684//684
f 683//683 684//684 685//685
f 685//685 684//684 686//686
f 685//685 686//686 687//687
f 687//687 686//686 688//688
f 687//687 688//688 689//689
f 689//689 688//688 690//690
f 689//689 690//690 691//691
f 691//691 690//690 692//692
f 691//691 692//692 693//693
f 693//693 692//692 694//694
f 693//693 694//694 695//695
f 695//695 694//694 696//696
f 695//695 696//696 697//697
f 697//697 696//696 698//698
f 697//697 698//698 699//699
f 699//699 698//698 700//700
f 699//699 700//700 701//701
f 701//701 700//700 702//702
f 701//701 702//702 703//703
f 703//703 702//702 704//704
f 703//703 704//704 705//705
f 705//705 704//704 706//706
f 705//705 706//706 707//707
f 707//707 706//706 708//708
f 707//707 708//708 709//709
f 709//709 708//708 710//710
f 709//709 710//710 711//711
f 711//711 710//710 712//712
f 711//711 712//712 713//713
f 713//713 712//712 714//714
f 713//713 714//714 611//611
f 611//611 714//714 612//612
f 114//114 322//322 679//679
f 703//703 19//19 701//701
f 701//701 19//19 15//15
f 701//701 15//15 476//476
f 476//476 478//478 701//701
f 701//701 478//478 480//480
f 701//701 480//480 482//482
f 482//482 484//484 701//701
f 701//701 484//484 486//486
f 701//701 486//486 699//699
f 699//699 486//486 488//488
f 319//319 677//677 320//320
f 320//320 677//677 679//679
f 320//320 679//679 321//321
f 321//321 679//679 322//322
f 50//50 363//363 651//651
f 381//381 379//379 625//625
f 625//625 379//379 377//377
f 625//625 377//377 623//623
f 623//623 377//377 375//375
f 623//623 375//375 373//373
f 707//707 709//709 613//613
f 373//373 371//371 623//623
f 623//623 371//371 19//19
f 623//623 19//19 621//621
f 621//621 19//19 703//703
f 615//615 617//617 703//703
f 703//703 617//617 619//619
f 703//703 619//619 621//621
f 319//319 318//318 677//677
f 677//677 318//318 317//317
f 677//677 317//317 316//316
f 8//8 385//385 627//627
f 615//615 703//703 613//613
f 613//613 703//703 705//705
f 613//613 705//705 707//707
f 709//709 711//711 613//613
f 613//613 711//711 713//713
f 613//613 713//713 611//611
f 114//114 691//691 693//693
f 627//627 385//385 625//625
f 625//625 385//385 383//383
f 625//625 383//383 381//381
f 114//114 679//679 691//691
f 691//691 679//679 681//681
f 691//691 681//681 683//683
f 683//683 685//685 691//691
f 691//691 685//685 687//687
f 691//691 687//687 689//689
f 488//488 490//490 699//699
f 699//699 490//490 113//113
f 699//699 113//113 697//697
f 697//697 113//113 114//114
f 697//697 114//114 695//695
f 695//695 114//114 693//693
f 50//50 651//651 49//49
f 49//49 651//651 653//653
f 49//49 653//653 655//655
f 363//363 364//364 651//651
f 651//651 364//364 365//365
f 651//651 365//365 649//649
f 649//649 365//365 366//366
f 649//649 366//366 367//367
f 367//367 368//368 649//649
f 649//649 368//368 369//369
f 649//649 369//369 647//647
f 647//647 369//369 370//370
f 647//647 370//370 7//7
f 633//633 635//635 7//7
f 633//633 7//7 631//631
f 8//8 627//627 7//7
f 7//7 627//627 629//629
f 7//7 629//629 631//631
f 635//635 637//637 7//7
f 7//7 637//637 639//639
f 7//7 639//639 641//641
f 316//316 315//315 677//677
f 677//677 315//315 49//49
f 677//677 49//49 675//675
f 675//675 49//49 655//655
f 675//675 655//655 673//673
f 673//673 655//655 657//657
f 673//673 657//657 659//659
f 659//659 661//661 673//673
f 673//673 661//661 663//663
f 673//673 663//663 665//665
f 641//641 643//643 7//7
f 7//7 643//643 645//645
f 7//7 645//645 647//647
f 665//665 667//667 673//673
f 673//673 667//667 669//669
f 673//673 669//669 671//671
f 662//662 660//660 715//715
f 668//668 666//666 715//715
f 715//715 666//666 664//664
f 715//715 664//664 662//662
f 674//674 672//672 715//715
f 715//715 672//672 670//670
f 715//715 670//670 668//668
f 680//680 678//678 715//715
f 715//715 678//678 676//676
f 715//715 676//676 674//674
f 686//686 684//684 715//715
f 715//715 684//684 682//682
f 715//715 682//682 680//680
f 692//692 690//690 715//715
f 715//715 690//690 688//688
f 715//715 688//688 686//686
f 698//698 696//696 715//715
f 715//715 696//696 694//694
f 715//715 694//694 692//692
f 704//704 702//702 715//715
f 715//715 702//702 700//700
f 715//715 700//700 698//698
f 710//710 708//708 715//715
f 715//715 708//708 706//706
f 715//715 706//706 704//704
f 612//612 714//714 715//715
f 715//715 714//714 712//712
f 715//715 712//712 710//710
f 618//618 616//616 715//715
f 715//715 616//616 614//614
f 715//715 614//614 612//612
f 624//624 622//622 715//715
f 715//715 622//622 620//620
f 715//715 620//620 618//618
f 630//630 628//628 715//715
f 715//715 628//628 626//626
f 715//715 626//626 624//624
f 636//636 634//634 715//715
f 715//715 634//634 632//632
f 715//715 632//632 630//630
f 642//642 640//640 715//715
f 715//715 640//640 638//638
f 715//715 638//638 636//636
f 648//648 646//646 715//715
f 715//715 646//646 644//644
f 715//715 644//644 642//642
f 654//654 652//652 715//715
f 715//715 652//652 650//650
f 715//715 650//650 648//648
f 660//660 658//658 715//715
f 715//715 658//658 656//656
f 715//715 656//656 654//654

