# https://github.com/mikedh/trimesh

o left_ankle_pitch_link.STL
v -0.00394218 0.00112798 -0.00892903
v -0.00394218 -0.00000002 -0.00900000
v -0.00544217 -0.00112800 -0.00892903
v -0.00544218 0.00112798 -0.00892904
v -0.00544218 0.00331311 -0.00836799
v -0.00394218 0.00331311 -0.00836800
v -0.00544218 0.00529006 -0.00728116
v -0.00394217 0.00529006 -0.00728116
v -0.00544217 0.00693461 -0.00573683
v -0.00394218 0.00693461 -0.00573682
v -0.00544218 0.00814344 -0.00383202
v -0.00394217 0.00814343 -0.00383202
v -0.00544217 0.00884058 -0.00168645
v -0.00394218 0.00884059 -0.00168644
v -0.00544218 0.00898224 0.00056510
v -0.00394218 0.00898224 0.00056510
v -0.00544218 0.00855951 0.00278114
v -0.00394217 0.00855951 0.00278115
v -0.00544217 0.00759896 0.00482243
v -0.00394218 0.00759896 0.00482243
v -0.00544218 0.00616093 0.00656071
v -0.00394218 0.00616093 0.00656072
v -0.00544218 0.00433580 0.00788675
v -0.00394218 0.00433580 0.00788675
v -0.00544218 0.00223822 0.00871725
v -0.00394218 0.00223822 0.00871726
v -0.00544218 0.00000001 0.00900001
v -0.00394218 0.00000001 0.00900000
v -0.00544218 -0.00223820 0.00871725
v -0.00394218 -0.00223820 0.00871725
v -0.00544217 -0.00433577 0.00788677
v -0.00394218 -0.00433578 0.00788677
v -0.00544218 -0.00616092 0.00656073
v -0.00394217 -0.00616091 0.00656073
v -0.00544218 -0.00759895 0.00482245
v -0.00394218 -0.00759895 0.00482245
v -0.00544218 -0.00855951 0.00278116
v -0.00394217 -0.00855951 0.00278117
v -0.00544218 -0.00898224 0.00056513
v -0.00394218 -0.00898225 0.00056512
v -0.00544217 -0.00884058 -0.00168642
v -0.00394218 -0.00884059 -0.00168643
v -0.00544218 -0.00814345 -0.00383200
v -0.00394219 -0.00814345 -0.00383199
v -0.00544218 -0.00693462 -0.00573681
v -0.00394218 -0.00693462 -0.00573681
v -0.00544217 -0.00529008 -0.00728115
v -0.00394218 -0.00529008 -0.00728115
v -0.00544217 -0.00331313 -0.00836798
v -0.00394218 -0.00331314 -0.00836799
v -0.00394218 -0.00112801 -0.00892904
v 0.00405782 0.00223822 0.00871724
v 0.00405782 0.00000002 0.00900000
v 0.00555783 0.00112801 0.00892904
v 0.00555783 0.00223822 0.00871725
v 0.00555783 0.00331314 0.00836799
v 0.00405782 0.00433579 0.00788675
v 0.00555783 0.00433579 0.00788676
v 0.00555783 0.00529008 0.00728115
v 0.00405782 0.00616093 0.00656071
v 0.00555782 0.00616094 0.00656071
v 0.00405782 0.00759895 0.00482243
v 0.00555782 0.00693462 0.00573681
v 0.00555782 0.00759895 0.00482243
v 0.00405783 0.00855951 0.00278113
v 0.00555782 0.00814345 0.00383200
v 0.00555782 0.00855951 0.00278114
v 0.00405782 0.00898223 0.00056510
v 0.00555783 0.00884059 0.00168643
v 0.00555783 0.00898223 0.00056511
v 0.00405782 0.00884057 -0.00168644
v 0.00555782 0.00898224 -0.00056512
v 0.00555782 0.00884059 -0.00168645
v 0.00405782 0.00814344 -0.00383202
v 0.00555782 0.00855951 -0.00278116
v 0.00555783 0.00814344 -0.00383202
v 0.00405782 0.00693461 -0.00573683
v 0.00555781 0.00759895 -0.00482245
v 0.00555782 0.00693461 -0.00573683
v 0.00405783 0.00529006 -0.00728115
v 0.00555782 0.00616092 -0.00656073
v 0.00555782 0.00529006 -0.00728115
v 0.00405782 0.00331311 -0.00836799
v 0.00555783 0.00433578 -0.00788676
v 0.00555783 0.00331311 -0.00836799
v 0.00405782 0.00112799 -0.00892903
v 0.00555782 0.00223820 -0.00871725
v 0.00555782 0.00112799 -0.00892904
v 0.00405782 -0.00000001 -0.00900000
v 0.00555782 -0.00000001 -0.00900000
v 0.00405782 -0.00112801 -0.00892903
v 0.00555782 -0.00112801 -0.00892902
v 0.00405782 -0.00331313 -0.00836798
v 0.00555782 -0.00223822 -0.00871725
v 0.00555782 -0.00331313 -0.00836798
v 0.00405782 -0.00529007 -0.00728115
v 0.00555782 -0.00433580 -0.00788675
v 0.00555782 -0.00529008 -0.00728115
v 0.00555782 -0.00616093 -0.00656072
v 0.00405782 -0.00693463 -0.00573681
v 0.00555782 -0.00693463 -0.00573681
v 0.00555783 -0.00759896 -0.00482243
v 0.00405782 -0.00814345 -0.00383200
v 0.00555783 -0.00814345 -0.00383200
v 0.00555782 -0.00855951 -0.00278114
v 0.00405783 -0.00884059 -0.00168642
v 0.00555782 -0.00884058 -0.00168642
v 0.00555782 -0.00898224 -0.00056510
v 0.00405782 -0.00898224 0.00056512
v 0.00555782 -0.00898223 0.00056513
v 0.00555783 -0.00884059 0.00168644
v 0.00405783 -0.00855950 0.00278117
v 0.00555782 -0.00855951 0.00278116
v 0.00555782 -0.00814343 0.00383202
v 0.00405782 -0.00759895 0.00482244
v 0.00555782 -0.00759895 0.00482245
v 0.00555783 -0.00693461 0.00573682
v 0.00405782 -0.00616092 0.00656072
v 0.00555783 -0.00616092 0.00656073
v 0.00555782 -0.00529006 0.00728117
v 0.00405783 -0.00433577 0.00788677
v 0.00555782 -0.00433577 0.00788677
v 0.00555782 -0.00331310 0.00836799
v 0.00405782 -0.00223819 0.00871725
v 0.00555782 -0.00223820 0.00871724
v 0.00555782 -0.00112799 0.00892903
v 0.00555783 0.00000002 0.00900000
v -0.00644217 -0.01684074 0.00650001
v -0.00624218 -0.01664074 0.00650001
v -0.00644217 -0.01655790 0.00630001
v -0.00644218 -0.02255790 -0.00499998
v -0.00444217 -0.02455790 -0.00499998
v -0.00644218 -0.02455791 -0.00499999
v -0.00644218 -0.02455789 0.00150002
v 0.00655781 -0.02455790 0.00150001
v 0.00655782 -0.02455790 -0.00499999
v 0.00455783 -0.02455790 -0.00499999
v 0.00455782 -0.02455791 -0.01749999
v -0.00444217 -0.02455791 -0.01749998
v 0.00035667 0.00455113 -0.00390988
v 0.00035656 0.00366670 -0.00339930
v 0.00063282 0.00462611 -0.00382089
v 0.00063282 0.00374538 -0.00331241
v 0.00087092 0.00474158 -0.00367661
v 0.00087095 0.00386586 -0.00317098
v 0.00105374 0.00488473 -0.00348417
v 0.00105376 0.00401389 -0.00298139
v 0.00116865 0.00504096 -0.00325404
v 0.00117435 0.00418583 -0.00273475
v 0.00120782 0.00519615 -0.00300000
v 0.00120782 0.00433012 -0.00250000
v 0.00116766 0.00534023 -0.00273533
v 0.00116858 0.00447135 -0.00223764
v 0.00105376 0.00545973 -0.00248823
v 0.00105376 0.00458890 -0.00198545
v 0.00087084 0.00555484 -0.00226796
v 0.00087084 0.00467912 -0.00176234
v 0.00063283 0.00562202 -0.00209589
v 0.00063283 0.00474132 -0.00158740
v 0.00035599 0.00566168 -0.00198629
v 0.00035608 0.00477727 -0.00147570
v 0.00005782 0.00567482 -0.00194847
v 0.00005782 0.00478903 -0.00143705
v -0.00024022 0.00566170 -0.00198625
v -0.00024038 0.00477727 -0.00147568
v -0.00051717 0.00562203 -0.00209588
v -0.00051717 0.00474132 -0.00158741
v -0.00075522 0.00555484 -0.00226797
v -0.00075516 0.00467913 -0.00176230
v -0.00093811 0.00545973 -0.00248823
v -0.00093811 0.00458889 -0.00198545
v -0.00105194 0.00534036 -0.00273506
v -0.00105288 0.00447145 -0.00223744
v -0.00109216 0.00519991 -0.00299348
v -0.00109217 0.00433012 -0.00250001
v -0.00105283 0.00504062 -0.00325455
v -0.00105871 0.00418583 -0.00273475
v -0.00093811 0.00488474 -0.00348416
v -0.00093811 0.00401390 -0.00298138
v -0.00075546 0.00474168 -0.00367647
v -0.00075545 0.00386595 -0.00317087
v -0.00051718 0.00462609 -0.00382089
v -0.00051718 0.00374538 -0.00331241
v -0.00023981 0.00455091 -0.00391015
v -0.00023993 0.00366653 -0.00339950
v 0.00005783 0.00452481 -0.00394031
v 0.00005783 0.00363903 -0.00342891
v -0.00644217 -0.01621532 0.00630001
v -0.00624218 -0.01621531 0.00650001
v -0.00634218 -0.01482179 0.00486570
v -0.00644219 -0.01492031 0.00488612
v -0.00644217 -0.01497628 0.00539343
v -0.00624218 -0.01478565 0.00545394
v -0.00624218 -0.01472337 0.00484485
v -0.00644217 -0.01524534 0.00586555
v -0.00624218 -0.01509612 0.00599871
v -0.00644217 -0.01568390 0.00618643
v -0.00624218 -0.01560215 0.00636896
v -0.00624217 -0.01530900 0.00242579
v -0.00624217 -0.01023701 -0.01163847
v -0.00644217 -0.01036909 -0.01178864
v -0.00624217 -0.01203656 -0.00976583
v -0.00644218 -0.01219187 -0.00989184
v -0.00624218 -0.01349817 -0.00761902
v -0.00644218 -0.01367235 -0.00771732
v -0.00624218 -0.01458082 -0.00525830
v -0.00644217 -0.01476896 -0.00532615
v -0.00624218 -0.01525411 -0.00274994
v -0.00644218 -0.01545093 -0.00278542
v -0.00624218 -0.01549912 -0.00016438
v -0.00644217 -0.01569911 -0.00016650
v -0.00644218 -0.01550654 0.00245708
v -0.00624218 -0.00973558 -0.01231613
v -0.00644217 -0.00991781 -0.01239853
v -0.00624218 -0.00955791 -0.01314019
v -0.00644217 -0.00975790 -0.01314020
v -0.00644218 -0.00975791 -0.01650000
v -0.00624217 -0.00955791 -0.01649999
v -0.00624217 -0.00963403 -0.01688268
v -0.00644218 -0.00981880 -0.01680613
v -0.00624217 -0.00969189 -0.01699999
v -0.00644217 -0.00999223 -0.01706568
v -0.00624217 -0.00985081 -0.01720710
v -0.00624217 -0.01005792 -0.01736602
v -0.00644217 -0.01025176 -0.01723910
v -0.00624218 -0.01017523 -0.01742387
v -0.00624218 -0.01055791 -0.01750000
v -0.00644217 -0.01055790 -0.01729999
v -0.00624218 -0.01595792 -0.01749999
v -0.00637517 -0.01662700 -0.01736700
v -0.00644218 -0.01755792 -0.01729999
v -0.00637517 -0.01848884 -0.01736700
v -0.00644218 -0.02255792 -0.01729998
v -0.00624218 -0.01915791 -0.01749999
v -0.00624217 -0.02275791 -0.01749999
v 0.00655782 -0.01684074 0.00650002
v 0.00655782 -0.01655789 0.00630001
v 0.00635782 -0.01664074 0.00650000
v 0.00635782 -0.01621532 0.00650001
v 0.00655782 -0.01621532 0.00630002
v 0.00645784 -0.01482178 0.00486570
v 0.00635782 -0.01472336 0.00484485
v 0.00635782 -0.01478565 0.00545394
v 0.00655783 -0.01492032 0.00488613
v 0.00655783 -0.01497628 0.00539342
v 0.00635782 -0.01509612 0.00599871
v 0.00655782 -0.01524534 0.00586555
v 0.00635782 -0.01560214 0.00636896
v 0.00655782 -0.01568389 0.00618644
v 0.00655782 -0.01550654 0.00245709
v 0.00635782 -0.01530900 0.00242578
v 0.00635782 -0.01549913 -0.00016439
v 0.00655783 -0.01569912 -0.00016651
v 0.00635783 -0.01525411 -0.00274995
v 0.00655782 -0.01545094 -0.00278543
v 0.00635782 -0.01458083 -0.00525829
v 0.00655782 -0.01476896 -0.00532614
v 0.00635783 -0.01349817 -0.00761902
v 0.00655783 -0.01367234 -0.00771732
v 0.00635782 -0.01203655 -0.00976583
v 0.00655782 -0.01219186 -0.00989184
v 0.00635782 -0.01023700 -0.01163846
v 0.00655782 -0.01036910 -0.01178863
v 0.00655783 -0.00975791 -0.01314021
v 0.00635782 -0.00955791 -0.01314020
v 0.00635782 -0.00973557 -0.01231613
v 0.00655782 -0.00991780 -0.01239853
v 0.00635782 -0.00955791 -0.01649999
v 0.00655782 -0.00975791 -0.01649999
v 0.00655782 -0.01055791 -0.01730000
v 0.00635782 -0.01055791 -0.01749999
v 0.00635782 -0.01005791 -0.01736602
v 0.00655782 -0.01015791 -0.01719282
v 0.00635782 -0.00984748 -0.01720376
v 0.00655782 -0.00986509 -0.01689999
v 0.00635782 -0.00969189 -0.01699999
v 0.00655783 -0.01755791 -0.01729998
v 0.00649082 -0.01662700 -0.01736699
v 0.00635783 -0.01595792 -0.01749999
v 0.00635782 -0.02275791 -0.01749999
v 0.00635783 -0.01915791 -0.01749998
v 0.00655782 -0.02255791 -0.01729998
v 0.00649082 -0.01848884 -0.01736700
v 0.00605782 0.00323282 0.00444958
v 0.00605782 0.00169961 0.00523081
v 0.00555782 0.00154509 0.00475528
v 0.00555782 0.00237974 0.00439737
v 0.00555782 0.00293892 0.00404508
v 0.00605782 0.00444960 0.00323282
v 0.00555783 0.00367862 0.00338640
v 0.00555783 0.00404508 0.00293892
v 0.00605782 0.00523081 0.00169959
v 0.00555783 0.00457886 0.00200847
v 0.00555782 0.00475529 0.00154508
v 0.00605783 0.00550001 -0.00000001
v 0.00555782 0.00498291 0.00041289
v 0.00555782 0.00500000 0.00000000
v 0.00605782 0.00523081 -0.00169961
v 0.00555782 0.00484699 -0.00122743
v 0.00555782 0.00475528 -0.00154510
v 0.00605782 0.00444958 -0.00323282
v 0.00555783 0.00418583 -0.00273475
v 0.00555783 0.00404508 -0.00293894
v 0.00605783 0.00323280 -0.00444960
v 0.00555782 0.00307106 -0.00394571
v 0.00555782 0.00293892 -0.00404508
v 0.00605782 0.00169959 -0.00523081
v 0.00555782 0.00162350 -0.00472908
v 0.00555782 0.00154508 -0.00475529
v 0.00605782 -0.00000001 -0.00550001
v 0.00555782 -0.00000001 -0.00499999
v 0.00605782 -0.00169961 -0.00523081
v 0.00555782 -0.00154509 -0.00475529
v 0.00555782 -0.00162350 -0.00472908
v 0.00605782 -0.00323282 -0.00444958
v 0.00555782 -0.00293893 -0.00404508
v 0.00555782 -0.00307106 -0.00394570
v 0.00605782 -0.00444961 -0.00323282
v 0.00555782 -0.00404509 -0.00293892
v 0.00555782 -0.00418583 -0.00273473
v 0.00605783 -0.00523082 -0.00169958
v 0.00555782 -0.00475529 -0.00154509
v 0.00555782 -0.00484700 -0.00122742
v 0.00605782 -0.00550000 0.00000001
v 0.00555783 -0.00500000 0.00000001
v 0.00555783 -0.00498293 0.00041290
v 0.00605782 -0.00523081 0.00169960
v 0.00555782 -0.00475528 0.00154509
v 0.00555782 -0.00457887 0.00200848
v 0.00605783 -0.00444959 0.00323283
v 0.00555782 -0.00404507 0.00293893
v 0.00555782 -0.00367862 0.00338641
v 0.00605782 -0.00323281 0.00444961
v 0.00555782 -0.00293891 0.00404509
v 0.00555783 -0.00237973 0.00439737
v 0.00605782 -0.00169959 0.00523080
v 0.00555783 -0.00154508 0.00475528
v 0.00555783 -0.00082296 0.00493180
v 0.00605782 0.00000001 0.00550000
v 0.00555782 0.00000001 0.00500001
v 0.00555782 0.00082297 0.00493181
v -0.00594218 0.00323282 -0.00444960
v -0.00594218 0.00169959 -0.00523081
v -0.00544217 0.00162350 -0.00472908
v -0.00544218 0.00293892 -0.00404508
v -0.00544218 0.00307106 -0.00394570
v -0.00594217 0.00444959 -0.00323283
v -0.00544218 0.00404508 -0.00293892
v -0.00544218 0.00418583 -0.00273474
v -0.00594218 0.00523081 -0.00169960
v -0.00544218 0.00475528 -0.00154509
v -0.00544218 0.00484700 -0.00122744
v -0.00594218 0.00550000 -0.00000001
v -0.00544217 0.00500001 -0.00000000
v -0.00544217 0.00498292 0.00041289
v -0.00594217 0.00523081 0.00169958
v -0.00544218 0.00475528 0.00154508
v -0.00544218 0.00457887 0.00200848
v -0.00594218 0.00444960 0.00323281
v -0.00544218 0.00404509 0.00293891
v -0.00544218 0.00367863 0.00338640
v -0.00594218 0.00323283 0.00444959
v -0.00544218 0.00293893 0.00404507
v -0.00544218 0.00237973 0.00439737
v -0.00594218 0.00169960 0.00523081
v -0.00544218 0.00154509 0.00475528
v -0.00544218 0.00082298 0.00493180
v -0.00594218 0.00000000 0.00550000
v -0.00544218 0.00000001 0.00500000
v -0.00594218 -0.00169958 0.00523082
v -0.00544218 -0.00082297 0.00493181
v -0.00544218 -0.00154509 0.00475529
v -0.00594217 -0.00323281 0.00444960
v -0.00544218 -0.00237974 0.00439737
v -0.00544218 -0.00293892 0.00404509
v -0.00594218 -0.00444959 0.00323282
v -0.00544217 -0.00367861 0.00338641
v -0.00544217 -0.00404508 0.00293893
v -0.00594218 -0.00523081 0.00169960
v -0.00544218 -0.00457887 0.00200848
v -0.00544218 -0.00475529 0.00154509
v -0.00594217 -0.00550001 0.00000001
v -0.00544218 -0.00498292 0.00041289
v -0.00544218 -0.00499999 0.00000001
v -0.00594218 -0.00523081 -0.00169959
v -0.00544218 -0.00484700 -0.00122742
v -0.00544218 -0.00475529 -0.00154508
v -0.00594218 -0.00444959 -0.00323281
v -0.00544217 -0.00418584 -0.00273473
v -0.00544217 -0.00404508 -0.00293892
v -0.00594218 -0.00323282 -0.00444958
v -0.00544218 -0.00307106 -0.00394570
v -0.00544218 -0.00293892 -0.00404508
v -0.00594218 -0.00169961 -0.00523081
v -0.00544218 -0.00162350 -0.00472909
v -0.00544218 -0.00154510 -0.00475528
v -0.00594218 -0.00000000 -0.00549999
v -0.00544218 0.00000000 -0.00500000
v -0.00544217 0.00154508 -0.00475529
v 0.00605782 0.00211386 -0.00823296
v 0.00605783 -0.00000000 -0.00850000
v 0.00605782 0.00409489 -0.00744862
v 0.00605783 0.00581864 -0.00619624
v 0.00605782 0.00717677 -0.00455454
v 0.00605782 0.00808397 -0.00262666
v 0.00605783 0.00848323 -0.00053373
v 0.00605782 0.00834945 0.00159273
v 0.00605782 0.00769104 0.00361911
v 0.00605783 0.00654938 0.00541809
v 0.00605782 0.00499619 0.00687664
v 0.00605782 0.00312908 0.00790310
v 0.00605782 0.00106534 0.00843298
v 0.00605782 0.00000001 0.00850000
v 0.00605782 -0.00106532 0.00843297
v 0.00605783 -0.00312905 0.00790310
v 0.00605782 -0.00499616 0.00687665
v 0.00605782 -0.00654935 0.00541811
v 0.00605783 -0.00769103 0.00361914
v 0.00605782 -0.00834943 0.00159275
v 0.00605783 -0.00848323 -0.00053371
v 0.00605782 -0.00808399 -0.00262664
v 0.00605782 -0.00717680 -0.00455452
v 0.00605782 -0.00581865 -0.00619623
v 0.00605783 -0.00409492 -0.00744860
v 0.00605783 -0.00211388 -0.00823295
v -0.00594218 -0.00211386 0.00823296
v -0.00594218 -0.00409490 0.00744862
v -0.00594217 -0.00581865 0.00619624
v -0.00594218 -0.00717678 0.00455453
v -0.00594218 -0.00808398 0.00262666
v -0.00594217 -0.00848323 0.00053373
v -0.00594218 -0.00834945 -0.00159273
v -0.00594218 -0.00769104 -0.00361911
v -0.00594217 -0.00654938 -0.00541810
v -0.00594218 -0.00499618 -0.00687663
v -0.00594218 -0.00312906 -0.00790310
v -0.00594218 -0.00106534 -0.00843298
v -0.00594219 0.00106532 -0.00843297
v -0.00594217 0.00312905 -0.00790310
v -0.00594218 0.00499616 -0.00687664
v -0.00594218 0.00654935 -0.00541811
v -0.00594217 0.00769103 -0.00361914
v -0.00594218 0.00834943 -0.00159275
v -0.00594217 0.00848322 0.00053371
v -0.00594218 0.00808399 0.00262663
v -0.00594218 0.00717680 0.00455452
v -0.00594218 0.00581865 0.00619622
v -0.00594217 0.00409492 0.00744860
v -0.00594217 0.00211388 0.00823295
v -0.00594217 0.00000001 0.00850001
v 0.00035599 0.00380291 0.00464089
v 0.00035577 0.00302057 0.00398450
v 0.00005782 0.00377185 0.00466617
v 0.00005782 0.00298834 0.00400871
v -0.00024022 0.00380288 0.00464092
v -0.00024014 0.00302057 0.00398450
v -0.00051717 0.00389234 0.00456614
v -0.00051718 0.00311331 0.00391246
v -0.00075522 0.00403107 0.00444415
v -0.00075560 0.00325673 0.00379390
v -0.00093810 0.00420552 0.00427944
v -0.00093811 0.00343521 0.00363308
v -0.00105193 0.00439662 0.00408286
v -0.00106903 0.00367862 0.00338640
v -0.00109215 0.00459143 0.00386248
v -0.00109217 0.00383023 0.00321394
v -0.00105284 0.00478228 0.00362351
v -0.00105285 0.00401508 0.00297979
v -0.00093811 0.00494473 0.00339849
v -0.00093811 0.00417442 0.00275213
v -0.00075545 0.00507650 0.00319831
v -0.00075548 0.00430186 0.00254833
v -0.00051718 0.00517268 0.00304029
v -0.00051718 0.00439364 0.00238661
v -0.00023980 0.00523083 0.00293912
v -0.00024015 0.00444848 0.00228277
v 0.00005782 0.00525027 0.00290426
v 0.00005782 0.00446675 0.00224682
v 0.00035666 0.00523067 0.00293940
v 0.00035580 0.00444848 0.00228277
v 0.00063283 0.00517268 0.00304029
v 0.00063282 0.00439365 0.00238660
v 0.00087092 0.00507660 0.00319814
v 0.00087095 0.00430195 0.00254817
v 0.00105376 0.00494473 0.00339850
v 0.00105376 0.00417442 0.00275214
v 0.00116864 0.00478191 0.00362399
v 0.00116862 0.00401480 0.00298016
v 0.00120782 0.00459627 0.00385671
v 0.00120782 0.00383025 0.00321390
v 0.00116766 0.00439683 0.00408262
v 0.00118468 0.00367862 0.00338640
v 0.00105375 0.00420552 0.00427945
v 0.00105376 0.00343521 0.00363309
v 0.00087086 0.00403106 0.00444417
v 0.00070775 0.00315081 0.00388232
v 0.00063282 0.00389234 0.00456615
v 0.00063283 0.00311331 0.00391246
v -0.00394218 -0.01023700 -0.01163846
v -0.00394218 -0.00973557 -0.01231612
v -0.00394217 -0.00955792 -0.01314020
v 0.00405783 -0.00955791 -0.01314020
v 0.00405783 -0.00973347 -0.01232077
v 0.00405782 -0.01023701 -0.01163846
v 0.00405782 -0.00963135 -0.01687614
v 0.00405782 -0.00955791 -0.01649999
v 0.00405782 -0.00984748 -0.01720376
v 0.00405783 -0.01017305 -0.01742296
v 0.00405783 -0.01055792 -0.01749999
v -0.00394218 -0.00955792 -0.01649999
v -0.00394218 -0.00969188 -0.01699999
v -0.00394218 -0.01005792 -0.01736602
v -0.00394218 -0.01055791 -0.01749999
v 0.00655782 -0.02255791 -0.00499999
v 0.00005782 -0.01155792 -0.02449999
v -0.00083643 -0.01162494 -0.02449999
v -0.00083643 -0.01162493 -0.01849999
v -0.00254548 -0.01215210 -0.02450000
v -0.00254549 -0.01215210 -0.01850000
v -0.00402322 -0.01315961 -0.02449998
v -0.00402322 -0.01315961 -0.01849999
v -0.00513833 -0.01455792 -0.02449998
v -0.00513833 -0.01455792 -0.01849999
v -0.00579174 -0.01622279 -0.02450000
v -0.00579174 -0.01622279 -0.01850000
v -0.00592540 -0.01800631 -0.02449999
v -0.00592541 -0.01800629 -0.01850000
v -0.00552742 -0.01974997 -0.02449999
v -0.00552742 -0.01974997 -0.01849999
v -0.00463317 -0.02129886 -0.02449999
v -0.00463316 -0.02129886 -0.01849999
v -0.00332209 -0.02251536 -0.02449998
v -0.00332209 -0.02251536 -0.01849999
v -0.00171071 -0.02329136 -0.02449998
v -0.00171071 -0.02329135 -0.01849999
v 0.00005782 -0.02355792 -0.02449998
v 0.00005782 -0.02355792 -0.01849999
v 0.00182635 -0.02329135 -0.02449999
v 0.00182635 -0.02329135 -0.01849999
v 0.00343774 -0.02251535 -0.02449999
v 0.00343774 -0.02251535 -0.01849999
v 0.00474881 -0.02129886 -0.02449998
v 0.00474881 -0.02129886 -0.01849998
v 0.00564307 -0.01974996 -0.02449999
v 0.00564307 -0.01974996 -0.01849999
v 0.00604105 -0.01800630 -0.02449999
v 0.00604105 -0.01800630 -0.01849999
v 0.00590738 -0.01622280 -0.02449999
v 0.00590740 -0.01622279 -0.01850000
v 0.00525398 -0.01455792 -0.02449999
v 0.00525398 -0.01455792 -0.01849999
v 0.00413887 -0.01315961 -0.02450000
v 0.00413886 -0.01315961 -0.01850000
v 0.00266113 -0.01215211 -0.02449999
v 0.00266113 -0.01215211 -0.01849999
v 0.00095207 -0.01162493 -0.02449998
v 0.00095207 -0.01162493 -0.01849999
v -0.00585479 -0.01485772 -0.01849998
v -0.00637602 -0.01663286 -0.01849999
v -0.00637602 -0.01848297 -0.01849999
v -0.00585479 -0.02025810 -0.01749999
v -0.00585479 -0.02025812 -0.01849999
v -0.00485455 -0.02181451 -0.01849999
v -0.00485455 -0.02181451 -0.01749999
v -0.00345634 -0.02302606 -0.01849999
v -0.00345634 -0.02302606 -0.01749999
v -0.00177345 -0.02379462 -0.01849999
v -0.00177343 -0.02379463 -0.01749999
v 0.00005782 -0.02405791 -0.01849998
v 0.00005782 -0.02405792 -0.01749998
v 0.00188908 -0.02379462 -0.01849998
v 0.00188908 -0.02379461 -0.01749999
v 0.00357199 -0.02302606 -0.01849998
v 0.00357199 -0.02302607 -0.01749998
v 0.00497019 -0.02181452 -0.01849999
v 0.00497019 -0.02181451 -0.01749998
v 0.00597043 -0.02025812 -0.01849999
v 0.00597043 -0.02025812 -0.01749999
v 0.00649166 -0.01848296 -0.01849999
v 0.00597042 -0.01485771 -0.01749999
v 0.00649166 -0.01663288 -0.01849999
v -0.00585478 -0.01485771 -0.01749999
v -0.00485456 -0.01330131 -0.01749999
v -0.00485455 -0.01330133 -0.01849999
v -0.00345634 -0.01208977 -0.01750000
v -0.00345635 -0.01208977 -0.01849999
v -0.00177344 -0.01132121 -0.01749998
v -0.00177344 -0.01132122 -0.01850000
v 0.00005782 -0.01105792 -0.01750000
v 0.00005782 -0.01105792 -0.01849999
v 0.00188908 -0.01132121 -0.01749999
v 0.00188908 -0.01132121 -0.01849999
v 0.00357199 -0.01208977 -0.01749999
v 0.00357199 -0.01208976 -0.01849999
v 0.00497020 -0.01330132 -0.01749999
v 0.00497020 -0.01330132 -0.01849999
v 0.00597043 -0.01485772 -0.01849998
v -0.00644218 -0.01889674 0.01050970
v -0.00644217 -0.01684074 0.01123596
v -0.00644217 -0.02430718 0.00372522
v -0.00644218 -0.02356759 0.00583886
v -0.00644217 -0.02237621 0.00773491
v -0.00644218 -0.02079280 0.00931833
v -0.00394218 -0.00246188 -0.01750001
v 0.00405782 -0.00246188 -0.01749999
v 0.00655783 -0.01684074 0.01123596
v 0.00655781 -0.01889672 0.01050969
v 0.00655782 -0.02430719 0.00372523
v 0.00655782 -0.02356758 0.00583885
v 0.00655782 -0.02079280 0.00931834
v 0.00655783 -0.02237622 0.00773491
v 0.00405783 -0.01472337 0.00484484
v 0.00405781 -0.01478911 0.00546470
v 0.00405781 -0.01510115 0.00600431
v 0.00405783 -0.01560558 0.00637050
v 0.00405783 -0.01621532 0.00650002
v 0.00405782 -0.01202678 -0.00977787
v 0.00405782 -0.01348289 -0.00764601
v 0.00405783 -0.01456496 -0.00530203
v 0.00405782 -0.01524298 -0.00281096
v 0.00405783 -0.01549812 -0.00024192
v 0.00405782 -0.01532329 0.00233384
v -0.00394217 -0.01472337 0.00484486
v -0.00394218 -0.01532330 0.00233384
v -0.00394217 -0.01549811 -0.00024192
v -0.00394218 -0.01524298 -0.00281097
v -0.00394217 -0.01456498 -0.00530204
v -0.00394218 -0.01348290 -0.00764601
v -0.00394218 -0.01202679 -0.00977787
v -0.00394217 -0.01478911 0.00546471
v -0.00394218 -0.01510115 0.00600432
v -0.00394218 -0.01560558 0.00637049
v -0.00394218 -0.01621532 0.00650001
v 0.00405783 -0.01510115 0.00600431
v 0.00405782 -0.01036989 0.00650000
v 0.00405782 0.01269851 -0.00141974
v 0.00405782 0.00288998 0.01150000
v 0.00405782 -0.00655607 0.01150000
v 0.00405782 0.01189966 0.00583883
v 0.00405783 0.01070829 0.00773489
v 0.00405783 0.01213144 -0.00329264
v 0.00405782 0.01121048 -0.00501925
v 0.00405783 0.00585864 -0.01304700
v 0.00405783 -0.01478911 0.00546470
v 0.00405782 -0.01036988 0.01150000
v 0.00405782 0.00511518 0.01124927
v 0.00405782 0.00722882 0.01050969
v 0.00405782 0.00912488 0.00931831
v 0.00405783 0.01288997 0.00052774
v 0.00405783 0.01288997 0.00149998
v 0.00405782 0.01263926 0.00372520
v 0.00405782 0.00461510 -0.01456515
v 0.00405782 -0.00050892 -0.01730744
v 0.00405783 0.00136883 -0.01673719
v 0.00405782 0.00309904 -0.01581121
v -0.00394218 0.00288998 0.01149999
v -0.00394218 0.00461512 -0.01456515
v -0.00394217 0.00585863 -0.01304700
v -0.00394219 0.01121047 -0.00501925
v -0.00394218 0.00511519 0.01124927
v -0.00394218 0.00722881 0.01050968
v -0.00394218 0.00912487 0.00931831
v -0.00394217 -0.01621531 0.01136170
v -0.00394218 -0.01455789 0.01150002
v -0.00394218 0.01213143 -0.00329264
v -0.00394217 0.01288997 0.00150000
v -0.00394217 0.01288997 0.00052775
v -0.00394218 0.01269851 -0.00141973
v -0.00394217 0.01070830 0.00773489
v -0.00394217 0.01189967 0.00583883
v -0.00394218 0.01263925 0.00372520
v -0.00394218 0.00309905 -0.01581121
v -0.00394217 0.00136882 -0.01673720
v -0.00394217 -0.00050892 -0.01730745
v 0.00555782 0.00000000 -0.00500000
v 0.00013486 0.00477600 0.00363179
v 0.00007795 0.00449787 0.00397104
v 0.00013486 0.00504625 -0.00324582
v 0.00007794 0.00526992 -0.00286843
v 0.00114253 -0.01530549 -0.02449999
v 0.00201240 -0.01599920 -0.02449998
v 0.00249514 -0.01700161 -0.02449999
v 0.00249514 -0.01811422 -0.02449999
v 0.00201240 -0.01911664 -0.02449999
v 0.00114253 -0.01981034 -0.02449999
v 0.00005782 -0.02005792 -0.02449999
v -0.00102688 -0.01981035 -0.02449998
v -0.00189676 -0.01911664 -0.02449999
v -0.00237949 -0.01811423 -0.02449998
v 0.00005783 -0.01505792 -0.02450000
v -0.00102689 -0.01530550 -0.02449998
v -0.00237950 -0.01700162 -0.02449998
v -0.00189676 -0.01599919 -0.02449998
v 0.00005783 -0.01755792 -0.01899784
v 0.00005782 -0.01505792 -0.02049999
v 0.00114253 -0.01530550 -0.02049999
v 0.00249514 -0.01700162 -0.02049999
v 0.00249514 -0.01811422 -0.02049998
v 0.00201240 -0.01599919 -0.02049999
v 0.00114253 -0.01981035 -0.02049999
v 0.00005782 -0.02005792 -0.02049999
v 0.00201240 -0.01911664 -0.02049998
v -0.00189675 -0.01911665 -0.02049999
v -0.00237949 -0.01811421 -0.02049999
v -0.00102688 -0.01981034 -0.02049999
v -0.00189675 -0.01599919 -0.02050000
v -0.00102688 -0.01530549 -0.02049999
v -0.00237949 -0.01700162 -0.02049999
v 0.00405781 -0.01621530 0.01136170
v 0.00405783 -0.01455789 0.01150001
v -0.00624218 -0.01621532 0.01136170
v -0.00624218 -0.01664073 0.01128069
v 0.00635782 -0.01664073 0.01128070
v 0.00635782 -0.01621531 0.01136170
vn -0.73526344 0.09284342 -0.67139241
vn -0.74402441 0.01715039 -0.66793228
vn -0.37707682 -0.11945652 -0.91844609
vn -0.37228781 0.11632345 -0.92079891
vn -0.37229562 0.34165934 -0.86293966
vn -0.73643869 0.24903633 -0.62899838
vn -0.37229767 0.54553000 -0.75086048
vn -0.73643619 0.39764109 -0.54730550
vn -0.37228785 0.71512707 -0.59160377
vn -0.73643464 0.52125878 -0.43122304
vn -0.37228984 0.83978485 -0.39517298
vn -0.73643600 0.61212211 -0.28804262
vn -0.37229051 0.91167643 -0.17391337
vn -0.73643595 0.66452381 -0.12676832
vn -0.37229483 0.92628324 0.05827455
vn -0.73643446 0.67517394 0.04247862
vn -0.37229095 0.88269116 0.28680264
vn -0.73643610 0.64339643 0.20905239
vn -0.37228604 0.78363674 0.49730932
vn -0.73643553 0.57119605 0.36248831
vn -0.37229224 0.63533970 0.67656629
vn -0.73643637 0.46310206 0.49315104
vn -0.37229638 0.44712353 0.81331172
vn -0.73643535 0.32591139 0.59282775
vn -0.37229966 0.23081558 0.89895335
vn -0.73643603 0.16824165 0.65525318
vn -0.37228988 -0.00000052 0.92811650
vn -0.73643214 -0.00000309 0.67651142
vn -0.37228675 -0.23081248 0.89895950
vn -0.73643465 -0.16823935 0.65525531
vn -0.37228730 -0.44712199 0.81331672
vn -0.73643849 -0.32591035 0.59282442
vn -0.37229246 -0.63533815 0.67656764
vn -0.73643401 -0.46310330 0.49315341
vn -0.37228948 -0.78363420 0.49731075
vn -0.73643459 -0.57119295 0.36249511
vn -0.37229439 -0.88268943 0.28680351
vn -0.73643651 -0.64339579 0.20905291
vn -0.37229167 -0.92628431 0.05827762
vn -0.73643669 -0.67517150 0.04247885
vn -0.37228350 -0.91167964 -0.17391155
vn -0.73643770 -0.66452268 -0.12676406
vn -0.37229171 -0.83978536 -0.39517013
vn -0.73643356 -0.61212508 -0.28804252
vn -0.37228837 -0.71512729 -0.59160318
vn -0.73643448 -0.52125942 -0.43122254
vn -0.37228822 -0.54553355 -0.75086259
vn -0.73643521 -0.39764140 -0.54730658
vn -0.37228677 -0.34166387 -0.86294169
vn -0.73643793 -0.24904014 -0.62899776
vn -0.72891762 -0.10709579 -0.67617276
vn 0.72661356 0.17086335 0.66546108
vn 0.72661455 0.00000146 0.68704534
vn 0.36830057 0.11652501 0.92237553
vn 0.39503206 0.22846507 0.88980525
vn 0.36829795 0.34225053 0.86441957
vn 0.72661302 0.33098792 0.60206354
vn 0.39502951 0.44257310 0.80503462
vn 0.36829752 0.54647006 0.75214853
vn 0.73154678 0.47310150 0.49093205
vn 0.41196096 0.64092644 0.64768933
vn 0.73300669 0.57655440 0.36095181
vn 0.35249705 0.70600671 0.61424779
vn 0.41195771 0.78186374 0.46795292
vn 0.73300719 0.64820542 0.20622850
vn 0.35250394 0.83657992 0.41937454
vn 0.41196671 0.87367088 0.25881003
vn 0.73300845 0.67912659 0.03854466
vn 0.35250255 0.91459206 0.19814974
vn 0.41196805 0.91058589 0.03340145
vn 0.73300415 0.66738176 -0.13155415
vn 0.35249357 0.93513988 -0.03552019
vn 0.41196195 0.89028818 -0.19409869
vn 0.73300884 0.61369312 -0.29339188
vn 0.35250861 0.89691999 -0.26696854
vn 0.41197596 0.81404031 -0.40940712
vn 0.73300910 0.52144876 -0.43679383
vn 0.35250378 0.80235198 -0.48163512
vn 0.41196553 0.68665674 -0.59898825
vn 0.73300657 0.39644068 -0.55275325
vn 0.35249952 0.65736528 -0.66604427
vn 0.41195927 0.51612199 -0.75093785
vn 0.73300982 0.24652041 -0.63397499
vn 0.35250217 0.47107841 -0.80859591
vn 0.41197408 0.31315014 -0.85569524
vn 0.72544557 0.10350546 -0.68045231
vn 0.35249789 0.25518999 -0.90034621
vn 0.41990341 0.10113060 -0.90191670
vn 0.72151770 -0.00000245 -0.69239599
vn 0.38343541 0.00882723 -0.92352551
vn 0.72891542 -0.10709702 -0.67617494
vn 0.41195879 -0.13781167 -0.90072076
vn 0.73300884 -0.25427995 -0.63090391
vn 0.35249939 -0.21012131 -0.91191733
vn 0.41196399 -0.35748700 -0.83814600
vn 0.72807156 -0.39915194 -0.55730560
vn 0.35249810 -0.43030352 -0.83101382
vn 0.39502594 -0.53998080 -0.74321951
vn 0.36829625 -0.63643014 -0.67772748
vn 0.72661518 -0.52937846 -0.43793702
vn 0.39502851 -0.70784753 -0.58558035
vn 0.36830108 -0.78497834 -0.49815994
vn 0.72661491 -0.62165699 -0.29252925
vn 0.39503107 -0.83123656 -0.39114734
vn 0.36829792 -0.88420583 -0.28729201
vn 0.72661520 -0.67487517 -0.12873947
vn 0.39503040 -0.90239587 -0.17214145
vn 0.36829518 -0.92787447 -0.05837496
vn 0.72661847 -0.68568520 0.04314402
vn 0.39502759 -0.91685635 0.05768573
vn 0.36830393 -0.91323817 0.17420751
vn 0.72661023 -0.65342329 0.21231008
vn 0.39502791 -0.87370567 0.28388616
vn 0.36828879 -0.84122686 0.39585444
vn 0.72661396 -0.58009148 0.36813860
vn 0.39502460 -0.77565872 0.49224903
vn 0.36830367 -0.71635185 0.59261491
vn 0.72661454 -0.47031487 0.50083454
vn 0.39503482 -0.62886993 0.66967911
vn 0.36830257 -0.54646551 0.75214937
vn 0.72661199 -0.33098687 0.60206537
vn 0.39503023 -0.44256890 0.80503658
vn 0.36829464 -0.34224366 0.86442370
vn 0.72661429 -0.17086012 0.66546111
vn 0.39502859 -0.22846241 0.88980747
vn 0.36829510 -0.11652692 0.92237747
vn 0.37738278 -0.00000191 0.92605736
vn -0.95687693 0.26732408 0.11368546
vn -0.85874641 0.35568419 0.36884055
vn -0.94017655 0.07667932 0.33194629
vn -0.97378127 -0.18574140 -0.13133988
vn -0.18574158 -0.97378128 -0.13133956
vn -0.57734867 -0.57734961 -0.57735253
vn -0.69470301 -0.71816511 0.04033117
vn 0.69470191 -0.71816632 0.04032865
vn 0.57735168 -0.57735022 -0.57734891
vn 0.18574383 -0.97378086 -0.13133949
vn 0.29710817 -0.71728305 -0.63026325
vn -0.29710793 -0.71728601 -0.63025999
vn -0.17421477 -0.17218689 0.96953643
vn -0.15635967 -0.18008335 0.97114450
vn -0.34201797 -0.21194170 0.91548043
vn -0.31032809 -0.22660883 0.92322528
vn -0.49547267 -0.27861056 0.82272899
vn -0.45585574 -0.29552492 0.83955975
vn -0.62057909 -0.37071058 0.69098137
vn -0.57394605 -0.39081355 0.71961844
vn -0.70097430 -0.48073005 0.52681462
vn -0.65476392 -0.52023769 0.54830370
vn -0.72900139 -0.59330853 0.34138243
vn -0.68628878 -0.63433725 0.35584260
vn -0.70065224 -0.69731528 0.15112192
vn -0.65861794 -0.73444575 0.16374323
vn -0.61810765 -0.78573590 -0.02370724
vn -0.57369514 -0.81896186 -0.01324195
vn -0.49301414 -0.85382457 -0.16709478
vn -0.44951864 -0.87957387 -0.15582941
vn -0.34013692 -0.90070558 -0.27025236
vn -0.30613835 -0.91709915 -0.25535947
vn -0.17301367 -0.92754188 -0.33125871
vn -0.15454111 -0.93711165 -0.31295177
vn -0.00011314 -0.93619588 -0.35147869
vn -0.00001438 -0.94108303 -0.33817558
vn 0.17293201 -0.92742915 -0.33161677
vn 0.15455041 -0.93713588 -0.31287459
vn 0.34029753 -0.90051574 -0.27068245
vn 0.30612429 -0.91709060 -0.25540703
vn 0.49329029 -0.85361707 -0.16733975
vn 0.44949343 -0.87958478 -0.15584054
vn 0.61810530 -0.78573550 -0.02378168
vn 0.57368778 -0.81896421 -0.01341477
vn 0.69990624 -0.69828593 0.15009335
vn 0.65881554 -0.73436418 0.16331361
vn 0.72919625 -0.59422740 0.33936210
vn 0.68603081 -0.63408156 0.35679448
vn 0.70209827 -0.48023798 0.52576563
vn 0.65384871 -0.52110094 0.54857604
vn 0.62163670 -0.37045261 0.69016858
vn 0.57394217 -0.39153063 0.71923164
vn 0.49630417 -0.27785045 0.82248483
vn 0.45591166 -0.29556186 0.83951638
vn 0.34260476 -0.21027270 0.91564588
vn 0.31018536 -0.22667926 0.92325595
vn 0.17375177 -0.17080572 0.96986377
vn 0.15608110 -0.17994263 0.97121539
vn -0.00049132 -0.15845594 0.98736593
vn -0.00013438 -0.15038324 0.98862777
vn -0.91405121 0.04477669 0.40311962
vn -0.65784288 0.37778620 0.65155225
vn -0.70619125 0.70657791 -0.04518371
vn -0.90802486 0.41836971 -0.02139245
vn -0.90571842 0.40333206 0.13037401
vn -0.36579502 0.88626754 0.28411944
vn -0.36864473 0.92721764 -0.06609470
vn -0.90534111 0.31687453 0.28275079
vn -0.36610952 0.69429286 0.61961379
vn -0.90533735 0.17360618 0.38758894
vn -0.36597379 0.38036820 0.84934282
vn -0.39065925 0.90940254 -0.14273183
vn -0.37491367 0.70729346 0.59931270
vn -0.91710645 0.30571640 0.25583832
vn -0.39015035 0.71508661 0.58002917
vn -0.93101389 0.28342954 0.22995834
vn -0.39027741 0.80187283 0.45241961
vn -0.93101467 0.31784446 0.17940618
vn -0.39042522 0.86611400 0.31211325
vn -0.93102069 0.34332298 0.12381358
vn -0.39053903 0.90603106 0.16305517
vn -0.93101465 0.35919188 0.06475271
vn -0.39069418 0.92047217 0.00943598
vn -0.93102091 0.36494531 0.00387073
vn -0.93085388 0.36099536 -0.05651025
vn -0.36564446 0.84807379 0.38350356
vn -0.90517869 0.38727415 0.17512928
vn -0.37271029 0.92290844 0.09657667
vn -0.91395762 0.40328455 0.04519998
vn -0.91476161 0.40186116 -0.04145843
vn -0.37349286 0.92331542 -0.08939648
vn -0.37107270 0.87889106 -0.29975916
vn -0.91004621 0.38610385 -0.15079693
vn -0.37906324 0.78575186 -0.48877917
vn -0.91156608 0.29072906 -0.29072992
vn -0.37136518 0.65654269 -0.65653606
vn -0.37904789 0.48876447 -0.78576841
vn -0.91004954 0.15079195 -0.38609796
vn -0.37109977 0.29974072 -0.87888592
vn -0.37352120 0.08940603 -0.92330302
vn -0.91477349 0.04145448 -0.40183452
vn -0.89509130 0.14919305 -0.42018210
vn -0.91351818 0.06632646 -0.40135438
vn -0.99941280 -0.00000048 -0.03426443
vn -0.91351988 -0.06632876 -0.40135012
vn -0.90540983 -0.30020209 -0.30018619
vn -0.88436986 -0.16027009 -0.43841014
vn -0.57324001 -0.41594206 -0.70596607
vn 0.95686944 0.26734717 0.11369417
vn 0.94016534 0.07668572 0.33197656
vn 0.85872193 0.35571056 0.36887213
vn 0.65777479 0.37785137 0.65158320
vn 0.91403943 0.04477917 0.40314607
vn 0.70568119 0.70701496 -0.04630230
vn 0.36805881 0.92742976 -0.06638335
vn 0.36491197 0.88645040 0.28468393
vn 0.90847285 0.41732388 -0.02275664
vn 0.90591523 0.40267285 0.13104266
vn 0.36556188 0.69453339 0.61966755
vn 0.90532905 0.31689374 0.28276788
vn 0.36569040 0.38052057 0.84939663
vn 0.90532553 0.17361781 0.38761132
vn 0.93085636 0.36098875 -0.05651167
vn 0.38964985 0.90977467 -0.14311901
vn 0.38944909 0.92099780 0.00961556
vn 0.93101539 0.36495938 0.00387237
vn 0.38957533 0.90640380 0.16328874
vn 0.93101973 0.35917924 0.06474980
vn 0.38967197 0.86636145 0.31236774
vn 0.93101350 0.34333972 0.12382126
vn 0.38978748 0.80198038 0.45265129
vn 0.93101351 0.31784736 0.17940705
vn 0.38990298 0.71507774 0.58020643
vn 0.93101290 0.28343147 0.22995998
vn 0.37485336 0.70726604 0.59938277
vn 0.91710653 0.30571512 0.25583957
vn 0.91395060 0.40330055 0.04519920
vn 0.37269534 0.92291506 0.09657112
vn 0.36562578 0.84807854 0.38351086
vn 0.90516868 0.38729286 0.17513963
vn 0.37258795 0.92065260 -0.11652039
vn 0.91137574 0.40758834 -0.05714903
vn 0.91136647 0.05715030 -0.40760889
vn 0.37245201 0.11660731 -0.92069660
vn 0.36865372 0.41553043 -0.83152204
vn 0.90575957 0.19841298 -0.37447548
vn 0.38091342 0.65677777 -0.65080560
vn 0.90587854 0.37433979 -0.19812570
vn 0.36624110 0.83235196 -0.41600201
vn 0.99821114 0.01229322 -0.05850980
vn 0.91023534 0.05279112 -0.41071245
vn 0.88437413 0.16026904 -0.43840190
vn 0.57324071 -0.41594031 -0.70596653
vn 0.89509095 -0.14919333 -0.42018276
vn 0.90541023 -0.30020347 -0.30018359
vn 0.91352515 -0.06632682 -0.40133844
vn 0.93493306 -0.21206277 -0.28448121
vn 0.93502422 -0.11366375 -0.33587238
vn 0.38295548 -0.30287428 -0.87270400
vn 0.34602393 -0.42284863 -0.83753595
vn 0.38832188 -0.55900329 -0.73261275
vn 0.93489179 -0.28963355 -0.20515786
vn 0.35019687 -0.66435098 -0.66030290
vn 0.38729720 -0.76486235 -0.51476836
vn 0.93490157 -0.33876534 -0.10581631
vn 0.35870693 -0.83643682 -0.41437036
vn 0.38535467 -0.88850829 -0.24910799
vn 0.93498995 -0.35465505 0.00368598
vn 0.36381992 -0.92315932 -0.12414477
vn 0.38615621 -0.92138041 0.04406276
vn 0.93516600 -0.33587870 0.11247245
vn 0.37331869 -0.91027346 0.17898430
vn 0.39018259 -0.86029342 0.32810482
vn 0.93544726 -0.28446800 0.20980083
vn 0.37406278 -0.80620762 0.45837354
vn 0.38736320 -0.71117248 0.58667150
vn 0.93585166 -0.20571688 0.28611579
vn 0.37985719 -0.61665501 0.68952528
vn 0.38849252 -0.48915702 0.78089626
vn 0.93639545 -0.10760471 0.33404310
vn 0.38499797 -0.36363328 0.84826140
vn 0.38927450 -0.21766261 0.89503539
vn 0.93708450 0.00000241 0.34910262
vn 0.70711950 0.00000488 0.70709407
vn 0.93614413 0.10697972 0.33494702
vn 0.38927651 0.21766753 0.89503332
vn 0.38614518 0.36211080 0.84839123
vn 0.93512964 0.20632904 0.28802933
vn 0.38942114 0.49009986 0.77984184
vn 0.38336269 0.61359324 0.69031614
vn 0.93432532 0.28671873 0.21172757
vn 0.38955981 0.71198507 0.58422635
vn 0.38057967 0.80193413 0.46050056
vn 0.93369424 0.33963629 0.11341191
vn 0.38966308 0.86042536 0.32837613
vn 0.37791563 0.90762263 0.18275925
vn 0.93321742 0.35930107 0.00282534
vn 0.38976983 0.92009887 0.03869825
vn 0.37551707 0.91975657 -0.11416996
vn 0.93286211 0.34337373 -0.10891630
vn 0.38984553 0.88487900 -0.25496983
vn 0.37346523 0.83712585 -0.39967991
vn 0.93260967 0.29316318 -0.21046272
vn 0.38990654 0.75839939 -0.52230571
vn 0.37185373 0.66828088 -0.64430231
vn 0.93244040 0.21354341 -0.29146888
vn 0.38994844 0.55369456 -0.73577343
vn 0.37075008 0.43062130 -0.82286674
vn 0.93234219 0.11244113 -0.34364958
vn 0.38997661 0.29189967 -0.87333431
vn 0.37018255 0.14864389 -0.91698957
vn 0.93470325 -0.00667464 -0.35536641
vn 0.38214028 -0.01191702 -0.92402748
vn 0.33494417 -0.13194300 -0.93295415
vn -0.93513007 -0.20632743 0.28802908
vn -0.93614212 -0.10698003 0.33495255
vn -0.38613870 -0.36210455 0.84839684
vn -0.38941871 -0.49007813 0.77985671
vn -0.38266080 -0.61352024 0.69077031
vn -0.93432521 -0.28671709 0.21173028
vn -0.38920181 -0.71226933 0.58411844
vn -0.37911009 -0.80189781 0.46177423
vn -0.93369640 -0.33963031 0.11341203
vn -0.39289274 -0.86062294 0.32398064
vn -0.38127893 -0.90567281 0.18542692
vn -0.93321599 -0.35930481 0.00282397
vn -0.38975792 -0.92010440 0.03868661
vn -0.37551053 -0.91975790 -0.11418079
vn -0.93286187 -0.34337575 -0.10891201
vn -0.38984599 -0.88488067 -0.25496333
vn -0.37341125 -0.83707479 -0.39983725
vn -0.93261022 -0.29316167 -0.21046238
vn -0.38980420 -0.75873208 -0.52189875
vn -0.37144461 -0.66818351 -0.64463921
vn -0.93244183 -0.21354368 -0.29146412
vn -0.39448870 -0.55002362 -0.73610644
vn -0.37395583 -0.43266632 -0.82033950
vn -0.93234353 -0.11243908 -0.34364662
vn -0.38997722 -0.29189896 -0.87333428
vn -0.37018360 -0.14864152 -0.91698953
vn -0.93470409 0.00667539 -0.35536418
vn -0.38214107 0.01191542 -0.92402718
vn -0.93502372 0.11366010 -0.33587501
vn -0.33494483 0.13193634 -0.93295486
vn -0.38295405 0.30287017 -0.87270606
vn -0.93493255 0.21206339 -0.28448241
vn -0.34275432 0.42074914 -0.83993431
vn -0.38376109 0.56265542 -0.73222012
vn -0.93488715 0.28964221 -0.20516677
vn -0.35018573 0.66435097 -0.66030882
vn -0.38455876 0.76473221 -0.51700988
vn -0.93490336 0.33876009 -0.10581738
vn -0.35722693 0.83771135 -0.41307217
vn -0.38536558 0.88850613 -0.24909884
vn -0.93499296 0.35464708 0.00369002
vn -0.36382855 0.92315728 -0.12413469
vn -0.38616181 0.92137739 0.04407673
vn -0.93516352 0.33588495 0.11247441
vn -0.36992842 0.91217686 0.17631318
vn -0.38693523 0.86006839 0.33251088
vn -0.93544534 0.28447468 0.20980032
vn -0.37552958 0.80624327 0.45710975
vn -0.38771691 0.71088924 0.58678112
vn -0.93585355 0.20571429 0.28611145
vn -0.38057374 0.61672187 0.68907022
vn -0.38850234 0.48917832 0.78087803
vn -0.93639777 0.10760125 0.33403771
vn -0.38500571 0.36361308 0.84826655
vn -0.38927543 0.21764092 0.89504026
vn -0.93708226 -0.00000041 0.34910864
vn -0.39685632 -0.00000067 0.91788074
vn -0.38926693 -0.21766130 0.89503900
vn 0.91532723 0.10652428 -0.38836663
vn 0.91532705 0.00659387 -0.40265731
vn 0.91532937 0.19975400 -0.34967196
vn 0.91532820 0.28044209 -0.28900954
vn 0.91532917 0.34350445 -0.21018374
vn 0.91533044 0.38497937 -0.11815697
vn 0.91532848 0.40227348 -0.01870321
vn 0.91532885 0.39428552 0.08192691
vn 0.91532947 0.36152368 0.17740518
vn 0.91532645 0.30605241 0.26174303
vn 0.91790650 0.23494765 0.31976126
vn 0.91806215 0.14593871 0.36859705
vn 0.91823612 0.05406677 0.39232539
vn 0.91842717 -0.00000068 0.39559011
vn 0.91823421 -0.05406849 0.39232963
vn 0.91806039 -0.14593813 0.36860165
vn 0.91806289 -0.23301797 0.32072285
vn 0.91806282 -0.30545807 0.25269752
vn 0.91805840 -0.35871374 0.16879938
vn 0.91806294 -0.38941300 0.07428289
vn 0.91805957 -0.39566023 -0.02489182
vn 0.91805960 -0.37703933 -0.12250679
vn 0.91806137 -0.33472426 -0.21242174
vn 0.91806150 -0.27138169 -0.28898973
vn 0.91546921 -0.18616372 -0.35673407
vn 0.91533013 -0.09375105 -0.39163949
vn -0.91289288 -0.10151504 0.39537486
vn -0.91289325 -0.19665187 0.35770652
vn -0.91289624 -0.27942487 0.29756041
vn -0.91289495 -0.34464989 0.21872190
vn -0.91289576 -0.38821444 0.12613833
vn -0.91289451 -0.40739003 0.02563161
vn -0.91288969 -0.40097586 -0.07649039
vn -0.91289431 -0.36934724 -0.17380046
vn -0.91289294 -0.31452419 -0.26019417
vn -0.91289477 -0.23993224 -0.33023576
vn -0.91289195 -0.15026837 -0.37953618
vn -0.91289076 -0.05116200 -0.40498507
vn -0.91289429 0.05116185 -0.40497714
vn -0.91289395 0.15026758 -0.37953168
vn -0.91289694 0.23992520 -0.33023487
vn -0.91289459 0.31452039 -0.26019300
vn -0.91289362 0.36934778 -0.17380293
vn -0.91289515 0.40096401 -0.07648725
vn -0.91289579 0.40738735 0.02562852
vn -0.91289401 0.38821861 0.12613815
vn -0.91289214 0.34465547 0.21872482
vn -0.91289487 0.27942783 0.29756183
vn -0.91289544 0.19664737 0.35770340
vn -0.91289826 0.10151481 0.39536250
vn -0.91289435 0.00000204 0.40819592
vn -0.17301079 -0.00597250 -0.98490182
vn -0.15594671 -0.01034244 -0.98771132
vn -0.00009413 0.01011228 -0.99994887
vn 0.00000131 0.02132593 -0.99977258
vn 0.17294510 -0.00558052 -0.98491566
vn 0.15595546 -0.01036573 -0.98770970
vn 0.34029064 -0.05362088 -0.93879022
vn 0.30979727 -0.06403996 -0.94864352
vn 0.49327095 -0.13472355 -0.85937962
vn 0.45534358 -0.14628691 -0.87821544
vn 0.61810697 -0.24642942 -0.74646923
vn 0.57817381 -0.26685573 -0.77104025
vn 0.69874154 -0.37954369 -0.60638836
vn 0.66285544 -0.42337060 -0.61755971
vn 0.72820748 -0.52389453 -0.44186919
vn 0.68536166 -0.56648225 -0.45757761
vn 0.70186957 -0.65815631 -0.27241396
vn 0.65528795 -0.69894787 -0.28647788
vn 0.62083232 -0.77590128 -0.11200190
vn 0.57432672 -0.80846167 -0.12860230
vn 0.49629288 -0.86792025 0.02019448
vn 0.45000495 -0.89302528 0.00118253
vn 0.34260483 -0.93234092 0.11559558
vn 0.30636299 -0.94738242 0.09278073
vn 0.17375801 -0.96979131 0.17121032
vn 0.15458896 -0.97706574 0.14644044
vn -0.00046193 -0.98201544 0.18880006
vn -0.00002115 -0.98511087 0.17192025
vn -0.17426741 -0.96994223 0.16983209
vn -0.15454716 -0.97706955 0.14645908
vn -0.34201329 -0.93275530 0.11399322
vn -0.30634283 -0.94738260 0.09284545
vn -0.49546019 -0.86840970 0.01959047
vn -0.44994288 -0.89305652 0.00120894
vn -0.62058825 -0.77609252 -0.11202960
vn -0.57433810 -0.80844241 -0.12867251
vn -0.70152317 -0.65880362 -0.27174074
vn -0.66327464 -0.69029866 -0.28905796
vn -0.72938238 -0.52379668 -0.44004361
vn -0.69002335 -0.56633695 -0.45069972
vn -0.70161802 -0.37719576 -0.60452917
vn -0.66075169 -0.42641628 -0.61771868
vn -0.62083547 -0.24625995 -0.74425759
vn -0.55549126 -0.25593779 -0.79115442
vn -0.49452793 -0.13517539 -0.85858590
vn -0.40377112 -0.10632721 -0.90866023
vn -0.33773003 -0.05534862 -0.93961426
vn -0.29018615 -0.04087203 -0.95609700
vn -0.72185720 0.52868708 0.44655588
vn -0.75776369 0.59456542 0.26886084
vn -0.73175453 0.67773068 0.07222488
vn 0.73166567 0.67786123 0.07189917
vn 0.75776572 0.59498088 0.26793444
vn 0.72198524 0.52874254 0.44628315
vn 0.75359168 0.60849839 -0.24865497
vn 0.72943183 0.68087676 -0.06584864
vn 0.75291580 0.46863548 -0.46205907
vn 0.75310139 0.25174719 -0.60783357
vn 0.03153921 0.04921756 -0.99828999
vn -0.73600381 0.67149199 -0.08600520
vn -0.76628211 0.55680065 -0.32060062
vn -0.76627275 0.32059958 -0.55681413
vn -0.03939647 0.06335084 -0.99721341
vn 0.97378115 -0.18574244 -0.13133934
vn 0.00000131 0.72355245 -0.69026941
vn -0.13583388 0.71791151 -0.68275341
vn -0.10250352 0.66416129 -0.74052873
vn -0.32010729 0.66470903 -0.67505054
vn -0.29075848 0.60377656 -0.74223539
vn -0.50181571 0.54082414 -0.67504832
vn -0.45580096 0.49122387 -0.74225642
vn -0.63892987 0.36888716 -0.67504881
vn -0.58035192 0.33506660 -0.74224121
vn -0.71927248 0.16417107 -0.67505182
vn -0.65333658 0.14912644 -0.74223488
vn -0.73571054 -0.05513381 -0.67504834
vn -0.66826211 -0.05007727 -0.74223852
vn -0.68677291 -0.26953779 -0.67504989
vn -0.62380550 -0.24482940 -0.74224339
vn -0.57681253 -0.45999460 -0.67504983
vn -0.52393228 -0.41782260 -0.74223934
vn -0.41560004 -0.60957864 -0.67504851
vn -0.37749249 -0.55368557 -0.74224774
vn -0.21746215 -0.70499868 -0.67504598
vn -0.19752290 -0.64035986 -0.74224252
vn -0.00000136 -0.73777365 -0.67504818
vn -0.00000007 -0.67013359 -0.74224051
vn 0.21746216 -0.70499621 -0.67504856
vn 0.19752566 -0.64036808 -0.74223469
vn 0.41560325 -0.60957582 -0.67504907
vn 0.37749911 -0.55369318 -0.74223869
vn 0.57681399 -0.45999627 -0.67504745
vn 0.52392401 -0.41781549 -0.74224918
vn 0.68677192 -0.26954102 -0.67504960
vn 0.62380987 -0.24483068 -0.74223931
vn 0.73571147 -0.05513084 -0.67504757
vn 0.66825545 -0.05007903 -0.74224440
vn 0.71927419 0.16416787 -0.67505078
vn 0.65333437 0.14912030 -0.74223806
vn 0.63893255 0.36888376 -0.67504812
vn 0.58035361 0.33506653 -0.74223993
vn 0.50181289 0.54082476 -0.67504993
vn 0.45580891 0.49124349 -0.74223855
vn 0.32010501 0.66471066 -0.67505001
vn 0.29075774 0.60377171 -0.74223962
vn 0.13583578 0.71791314 -0.68275131
vn 0.10250625 0.66415955 -0.74052992
vn -0.66136170 0.31373349 -0.68130169
vn -0.71777412 0.10150957 -0.68883678
vn -0.71814320 -0.10742723 -0.68755344
vn -0.60967113 -0.28461432 -0.73979443
vn -0.66994938 -0.30595827 -0.67642987
vn -0.55661062 -0.48230727 -0.67643501
vn -0.50783326 -0.44004071 -0.74058730
vn -0.39818166 -0.61958177 -0.67643906
vn -0.36328995 -0.56529081 -0.74058538
vn -0.20749681 -0.70666829 -0.67643552
vn -0.18931102 -0.64474514 -0.74058426
vn 0.00000199 -0.73650389 -0.67643331
vn 0.00000028 -0.67195938 -0.74058800
vn 0.20749931 -0.70667835 -0.67642424
vn 0.18931398 -0.64474576 -0.74058296
vn 0.39818293 -0.61959192 -0.67642901
vn 0.36328686 -0.56528827 -0.74058884
vn 0.55661064 -0.48230418 -0.67643719
vn 0.50783260 -0.44004090 -0.74058764
vn 0.66135851 -0.31373553 -0.68130385
vn 0.60991215 -0.29829758 -0.73418371
vn 0.71963486 -0.09626862 -0.68764672
vn 0.60967031 0.28461633 -0.73979433
vn 0.72501319 0.09722058 -0.68183872
vn -0.60991664 0.29829622 -0.73418053
vn -0.50782798 0.44003823 -0.74059240
vn -0.55660418 0.48230001 -0.67644548
vn -0.36328829 0.56529401 -0.74058376
vn -0.39818716 0.61958866 -0.67642951
vn -0.18931575 0.64473129 -0.74059511
vn -0.20749562 0.70666427 -0.67644008
vn -0.00000146 0.67196549 -0.74058246
vn 0.00000123 0.73649920 -0.67643842
vn 0.18931368 0.64473874 -0.74058915
vn 0.20749445 0.70667092 -0.67643349
vn 0.36329172 0.56529093 -0.74058442
vn 0.39818420 0.61959038 -0.67642968
vn 0.50783536 0.44004194 -0.74058513
vn 0.55661771 0.48230842 -0.67642835
vn 0.66995220 0.30595480 -0.67642864
vn -0.68306325 -0.31786307 0.65756191
vn -0.72642623 0.15541534 0.66944081
vn -0.68275168 -0.71233183 0.16258386
vn -0.68275301 -0.65829185 0.31701760
vn -0.68275327 -0.57124245 0.45555465
vn -0.68275342 -0.45555338 0.57124328
vn -0.69621629 0.03526094 -0.71696551
vn 0.69621644 0.03525990 -0.71696542
vn 0.72658501 0.15531068 0.66929277
vn 0.68306237 -0.31786284 0.65756293
vn 0.68275231 -0.71233096 0.16258503
vn 0.68275353 -0.65829133 0.31701759
vn 0.68275048 -0.45554983 0.57124962
vn 0.68275386 -0.57124627 0.45554897
vn 0.74753813 0.66280721 -0.04328232
vn 0.00044412 0.95069858 0.31011613
vn 0.00072950 0.74285070 0.66945673
vn 0.75714152 0.26560155 0.59681868
vn 0.58922671 0.62792884 0.50844592
vn 0.68887800 0.56234598 0.45739927
vn 0.68896691 0.63036218 0.35772632
vn 0.68905271 0.68089662 0.24816557
vn 0.68913716 0.71255320 0.13174944
vn 0.68921498 0.72446237 0.01170415
vn 0.68929822 0.71628590 -0.10863923
vn -0.74712570 0.66329049 -0.04299912
vn -0.68850267 0.71711571 -0.10820874
vn -0.68830790 0.72532643 0.01156747
vn -0.68840592 0.71326709 0.13170932
vn -0.68850639 0.68144606 0.24817379
vn -0.68860133 0.63075680 0.35773463
vn -0.68869544 0.56260274 0.45735844
vn -0.75676627 0.62150347 0.20257900
vn -0.75686222 0.48541014 0.43764891
vn -0.75695095 0.26555866 0.59707944
vn -0.58916089 0.62791119 0.50854398
vn 1.00000000 0.00000101 0.00000255
vn 1.00000000 0.00000025 0.00000044
vn 0.68573207 0.71391796 -0.14174862
vn 0.69470154 0.04033342 0.71816641
vn 0.70710664 0.00000029 0.70710692
vn 0.68275267 0.65829207 0.31701789
vn 0.68275463 0.57124483 0.45554962
vn 0.68573412 0.67264135 -0.27806893
vn 0.69624534 0.61603386 -0.36843549
vn 0.69621749 0.57698976 -0.42704101
vn 1.00000000 0.00000095 0.00000269
vn 0.70710771 0.00000067 0.70710586
vn 0.68275428 0.16258463 0.71232916
vn 0.68275280 0.31701625 0.65829272
vn 0.68275263 0.45555382 0.57124387
vn 0.69624863 0.71693914 -0.03515854
vn 0.69470239 0.71816573 0.04033070
vn 0.68275138 0.71233166 0.16258584
vn 0.68567384 0.51513885 -0.51427944
vn 0.68567408 0.14215467 -0.71389292
vn 0.68567498 0.27883720 -0.67238354
vn 0.68567489 0.40478506 -0.60497851
vn -0.69470128 0.04033145 0.71816676
vn -0.68567419 0.51514034 -0.51427749
vn -0.69621516 0.57699541 -0.42703716
vn -0.69624904 0.61603235 -0.36843101
vn -0.68275245 0.16258457 0.71233092
vn -0.68275288 0.31701790 0.65829184
vn -0.68275323 0.45555262 0.57124412
vn -0.33015805 0.17016254 0.92846129
vn -0.69785823 -0.02980778 0.71561539
vn -0.68573374 0.67264147 -0.27806957
vn -0.69470133 0.71816678 0.04033036
vn -0.69624563 0.71694208 -0.03515796
vn -0.68573425 0.71391603 -0.14174781
vn -0.68275193 0.57124532 0.45555305
vn -0.68275149 0.65829385 0.31701672
vn -0.68275512 0.71232880 0.16258267
vn -0.68567450 0.40478214 -0.60498092
vn -0.68567436 0.27883826 -0.67238374
vn -0.68567263 0.14215952 -0.71389335
vn 0.00000025 -0.00000011 1.00000000
vn 0.00065274 -0.80756599 -0.58977686
vn 0.00015364 -0.72952274 -0.68395653
vn 0.00065451 -0.83040960 0.55715300
vn 0.00015305 -0.89222708 0.45158699
vn -0.28158732 -0.58472875 -0.76078964
vn -0.50741243 -0.40464538 -0.76078561
vn -0.63272817 -0.14441533 -0.76078859
vn -0.63272856 0.14441482 -0.76078836
vn -0.50740956 0.40464159 -0.76078954
vn -0.28158794 0.58473186 -0.76078702
vn -0.00000397 0.64899778 -0.76079030
vn 0.28158776 0.58472690 -0.76079090
vn 0.50741111 0.40464374 -0.76078736
vn 0.63272749 0.14441909 -0.76078844
vn 0.00000147 -0.64899643 -0.76079145
vn 0.28158703 -0.58473335 -0.76078621
vn 0.63272977 -0.14441425 -0.76078746
vn 0.50740731 -0.40464468 -0.76078939
vn -0.00000002 -0.00000067 -1.00000000
vn -0.00000176 -0.88546943 -0.46469763
vn -0.38418744 -0.79778157 -0.46469837
vn -0.86326994 -0.19703449 -0.46469606
vn -0.86326888 0.19703094 -0.46469952
vn -0.69228752 -0.55208037 -0.46469910
vn -0.38418857 0.79778242 -0.46469597
vn 0.00000259 0.88546846 -0.46469947
vn -0.69228779 0.55207906 -0.46470026
vn 0.69228842 0.55208110 -0.46469688
vn 0.86326739 0.19703282 -0.46470150
vn 0.38418952 0.79777897 -0.46470110
vn 0.69229048 -0.55207822 -0.46469725
vn 0.38419022 -0.79777917 -0.46470019
vn 0.86326868 -0.19703559 -0.46469793
vn 0.33009644 0.16872889 0.92874480
vn 0.69786021 -0.02980669 0.71561350
vn -0.56809724 0.52468401 0.63401279
vn -0.58358780 0.04019496 0.81105465
vn 0.58390753 0.04113152 0.81077752
vn 0.56809708 0.52468480 0.63401227
f 1//1 2//2 3//3
f 3//3 4//4 1//1
f 1//1 4//4 5//5
f 1//1 5//5 6//6
f 6//6 5//5 7//7
f 6//6 7//7 8//8
f 8//8 7//7 9//9
f 8//8 9//9 10//10
f 10//10 9//9 11//11
f 10//10 11//11 12//12
f 12//12 11//11 13//13
f 12//12 13//13 14//14
f 14//14 13//13 15//15
f 14//14 15//15 16//16
f 16//16 15//15 17//17
f 16//16 17//17 18//18
f 18//18 17//17 19//19
f 18//18 19//19 20//20
f 20//20 19//19 21//21
f 20//20 21//21 22//22
f 22//22 21//21 23//23
f 22//22 23//23 24//24
f 24//24 23//23 25//25
f 24//24 25//25 26//26
f 26//26 25//25 27//27
f 26//26 27//27 28//28
f 28//28 27//27 29//29
f 28//28 29//29 30//30
f 30//30 29//29 31//31
f 30//30 31//31 32//32
f 32//32 31//31 33//33
f 32//32 33//33 34//34
f 34//34 33//33 35//35
f 34//34 35//35 36//36
f 36//36 35//35 37//37
f 36//36 37//37 38//38
f 38//38 37//37 39//39
f 38//38 39//39 40//40
f 40//40 39//39 41//41
f 40//40 41//41 42//42
f 42//42 41//41 43//43
f 42//42 43//43 44//44
f 44//44 43//43 45//45
f 44//44 45//45 46//46
f 46//46 45//45 47//47
f 46//46 47//47 48//48
f 48//48 47//47 49//49
f 48//48 49//49 50//50
f 50//50 49//49 3//3
f 50//50 3//3 51//51
f 51//51 3//3 2//2
f 52//52 53//53 54//54
f 54//54 55//55 52//52
f 52//52 55//55 56//56
f 52//52 56//56 57//57
f 56//56 58//58 57//57
f 57//57 58//58 59//59
f 57//57 59//59 60//60
f 60//60 59//59 61//61
f 60//60 61//61 62//62
f 61//61 63//63 62//62
f 62//62 63//63 64//64
f 62//62 64//64 65//65
f 64//64 66//66 65//65
f 65//65 66//66 67//67
f 65//65 67//67 68//68
f 67//67 69//69 68//68
f 68//68 69//69 70//70
f 68//68 70//70 71//71
f 70//70 72//72 71//71
f 71//71 72//72 73//73
f 71//71 73//73 74//74
f 73//73 75//75 74//74
f 74//74 75//75 76//76
f 74//74 76//76 77//77
f 76//76 78//78 77//77
f 77//77 78//78 79//79
f 77//77 79//79 80//80
f 79//79 81//81 80//80
f 80//80 81//81 82//82
f 80//80 82//82 83//83
f 82//82 84//84 83//83
f 83//83 84//84 85//85
f 83//83 85//85 86//86
f 85//85 87//87 86//86
f 86//86 87//87 88//88
f 86//86 88//88 89//89
f 89//89 88//88 90//90
f 89//89 90//90 91//91
f 91//91 90//90 92//92
f 91//91 92//92 93//93
f 92//92 94//94 93//93
f 93//93 94//94 95//95
f 93//93 95//95 96//96
f 96//96 95//95 97//97
f 97//97 98//98 96//96
f 96//96 98//98 99//99
f 96//96 99//99 100//100
f 99//99 101//101 100//100
f 100//100 101//101 102//102
f 100//100 102//102 103//103
f 102//102 104//104 103//103
f 103//103 104//104 105//105
f 103//103 105//105 106//106
f 105//105 107//107 106//106
f 106//106 107//107 108//108
f 106//106 108//108 109//109
f 108//108 110//110 109//109
f 109//109 110//110 111//111
f 109//109 111//111 112//112
f 111//111 113//113 112//112
f 112//112 113//113 114//114
f 112//112 114//114 115//115
f 114//114 116//116 115//115
f 115//115 116//116 117//117
f 115//115 117//117 118//118
f 117//117 119//119 118//118
f 118//118 119//119 120//120
f 118//118 120//120 121//121
f 120//120 122//122 121//121
f 121//121 122//122 123//123
f 121//121 123//123 124//124
f 123//123 125//125 124//124
f 124//124 125//125 126//126
f 124//124 126//126 53//53
f 53//53 126//126 127//127
f 53//53 127//127 54//54
f 128//128 129//129 130//130
f 131//131 132//132 133//133
f 134//134 133//133 135//135
f 135//135 133//133 132//132
f 136//136 135//135 137//137
f 137//137 135//135 132//132
f 137//137 132//132 138//138
f 138//138 132//132 139//139
f 140//140 141//141 142//142
f 142//142 141//141 143//143
f 142//142 143//143 144//144
f 144//144 143//143 145//145
f 144//144 145//145 146//146
f 146//146 145//145 147//147
f 146//146 147//147 148//148
f 148//148 147//147 149//149
f 148//148 149//149 150//150
f 150//150 149//149 151//151
f 150//150 151//151 152//152
f 152//152 151//151 153//153
f 152//152 153//153 154//154
f 154//154 153//153 155//155
f 154//154 155//155 156//156
f 156//156 155//155 157//157
f 156//156 157//157 158//158
f 158//158 157//157 159//159
f 158//158 159//159 160//160
f 160//160 159//159 161//161
f 160//160 161//161 162//162
f 162//162 161//161 163//163
f 162//162 163//163 164//164
f 164//164 163//163 165//165
f 164//164 165//165 166//166
f 166//166 165//165 167//167
f 166//166 167//167 168//168
f 168//168 167//167 169//169
f 168//168 169//169 170//170
f 170//170 169//169 171//171
f 170//170 171//171 172//172
f 172//172 171//171 173//173
f 172//172 173//173 174//174
f 174//174 173//173 175//175
f 174//174 175//175 176//176
f 176//176 175//175 177//177
f 176//176 177//177 178//178
f 178//178 177//177 179//179
f 178//178 179//179 180//180
f 180//180 179//179 181//181
f 180//180 181//181 182//182
f 182//182 181//181 183//183
f 182//182 183//183 184//184
f 184//184 183//183 185//185
f 184//184 185//185 186//186
f 186//186 185//185 187//187
f 186//186 187//187 140//140
f 140//140 187//187 141//141
f 130//130 129//129 188//188
f 188//188 129//129 189//189
f 190//190 191//191 192//192
f 193//193 194//194 190//190
f 190//190 192//192 193//193
f 193//193 192//192 195//195
f 193//193 195//195 196//196
f 196//196 195//195 197//197
f 196//196 197//197 198//198
f 198//198 197//197 188//188
f 198//198 188//188 189//189
f 190//190 194//194 199//199
f 200//200 201//201 202//202
f 202//202 201//201 203//203
f 202//202 203//203 204//204
f 204//204 203//203 205//205
f 204//204 205//205 206//206
f 206//206 205//205 207//207
f 206//206 207//207 208//208
f 208//208 207//207 209//209
f 208//208 209//209 210//210
f 210//210 209//209 211//211
f 210//210 211//211 199//199
f 199//199 211//211 212//212
f 199//199 212//212 190//190
f 190//190 212//212 191//191
f 201//201 200//200 213//213
f 201//201 213//213 214//214
f 214//214 213//213 215//215
f 214//214 215//215 216//216
f 216//216 215//215 217//217
f 217//217 215//215 218//218
f 217//217 218//218 219//219
f 217//217 219//219 220//220
f 220//220 219//219 221//221
f 220//220 221//221 222//222
f 221//221 223//223 222//222
f 222//222 223//223 224//224
f 222//222 224//224 225//225
f 224//224 226//226 225//225
f 225//225 226//226 227//227
f 225//225 227//227 228//228
f 227//227 229//229 228//228
f 228//228 229//229 230//230
f 228//228 230//230 231//231
f 231//231 232//232 233//233
f 233//233 232//232 234//234
f 233//233 234//234 235//235
f 236//236 237//237 238//238
f 238//238 237//237 239//239
f 239//239 237//237 240//240
f 241//241 242//242 243//243
f 241//241 243//243 244//244
f 244//244 243//243 245//245
f 245//245 243//243 246//246
f 245//245 246//246 247//247
f 247//247 246//246 248//248
f 247//247 248//248 249//249
f 249//249 248//248 239//239
f 249//249 239//239 240//240
f 241//241 244//244 250//250
f 242//242 241//241 251//251
f 251//251 241//241 250//250
f 251//251 250//250 252//252
f 252//252 250//250 253//253
f 252//252 253//253 254//254
f 254//254 253//253 255//255
f 254//254 255//255 256//256
f 256//256 255//255 257//257
f 256//256 257//257 258//258
f 258//258 257//257 259//259
f 258//258 259//259 260//260
f 260//260 259//259 261//261
f 260//260 261//261 262//262
f 262//262 261//261 263//263
f 264//264 265//265 266//266
f 264//264 266//266 267//267
f 267//267 266//266 262//262
f 267//267 262//262 263//263
f 265//265 264//264 268//268
f 268//268 264//264 269//269
f 270//270 271//271 272//272
f 270//270 272//272 273//273
f 273//273 272//272 274//274
f 273//273 274//274 275//275
f 274//274 276//276 275//275
f 275//275 276//276 268//268
f 275//275 268//268 269//269
f 277//277 278//278 270//270
f 270//270 278//278 279//279
f 270//270 279//279 271//271
f 280//280 281//281 282//282
f 282//282 281//281 283//283
f 282//282 283//283 277//277
f 284//284 285//285 286//286
f 286//286 287//287 284//284
f 284//284 287//287 288//288
f 284//284 288//288 289//289
f 288//288 290//290 289//289
f 289//289 290//290 291//291
f 289//289 291//291 292//292
f 291//291 293//293 292//292
f 292//292 293//293 294//294
f 292//292 294//294 295//295
f 294//294 296//296 295//295
f 295//295 296//296 297//297
f 295//295 297//297 298//298
f 297//297 299//299 298//298
f 298//298 299//299 300//300
f 298//298 300//300 301//301
f 300//300 302//302 301//301
f 301//301 302//302 303//303
f 301//301 303//303 304//304
f 303//303 305//305 304//304
f 304//304 305//305 306//306
f 304//304 306//306 307//307
f 306//306 308//308 307//307
f 307//307 308//308 309//309
f 307//307 309//309 310//310
f 310//310 309//309 311//311
f 310//310 311//311 312//312
f 311//311 313//313 312//312
f 312//312 313//313 314//314
f 312//312 314//314 315//315
f 314//314 316//316 315//315
f 315//315 316//316 317//317
f 315//315 317//317 318//318
f 317//317 319//319 318//318
f 318//318 319//319 320//320
f 318//318 320//320 321//321
f 320//320 322//322 321//321
f 321//321 322//322 323//323
f 321//321 323//323 324//324
f 323//323 325//325 324//324
f 324//324 325//325 326//326
f 324//324 326//326 327//327
f 326//326 328//328 327//327
f 327//327 328//328 329//329
f 327//327 329//329 330//330
f 329//329 331//331 330//330
f 330//330 331//331 332//332
f 330//330 332//332 333//333
f 332//332 334//334 333//333
f 333//333 334//334 335//335
f 333//333 335//335 336//336
f 335//335 337//337 336//336
f 336//336 337//337 338//338
f 336//336 338//338 339//339
f 339//339 338//338 340//340
f 339//339 340//340 285//285
f 285//285 340//340 341//341
f 285//285 341//341 286//286
f 342//342 343//343 344//344
f 344//344 345//345 342//342
f 342//342 345//345 346//346
f 342//342 346//346 347//347
f 346//346 348//348 347//347
f 347//347 348//348 349//349
f 347//347 349//349 350//350
f 349//349 351//351 350//350
f 350//350 351//351 352//352
f 350//350 352//352 353//353
f 352//352 354//354 353//353
f 353//353 354//354 355//355
f 353//353 355//355 356//356
f 355//355 357//357 356//356
f 356//356 357//357 358//358
f 356//356 358//358 359//359
f 358//358 360//360 359//359
f 359//359 360//360 361//361
f 359//359 361//361 362//362
f 361//361 363//363 362//362
f 362//362 363//363 364//364
f 362//362 364//364 365//365
f 364//364 366//366 365//365
f 365//365 366//366 367//367
f 365//365 367//367 368//368
f 368//368 367//367 369//369
f 368//368 369//369 370//370
f 369//369 371//371 370//370
f 370//370 371//371 372//372
f 370//370 372//372 373//373
f 372//372 374//374 373//373
f 373//373 374//374 375//375
f 373//373 375//375 376//376
f 375//375 377//377 376//376
f 376//376 377//377 378//378
f 376//376 378//378 379//379
f 378//378 380//380 379//379
f 379//379 380//380 381//381
f 379//379 381//381 382//382
f 381//381 383//383 382//382
f 382//382 383//383 384//384
f 382//382 384//384 385//385
f 384//384 386//386 385//385
f 385//385 386//386 387//387
f 385//385 387//387 388//388
f 387//387 389//389 388//388
f 388//388 389//389 390//390
f 388//388 390//390 391//391
f 390//390 392//392 391//391
f 391//391 392//392 393//393
f 391//391 393//393 394//394
f 393//393 395//395 394//394
f 394//394 395//395 396//396
f 394//394 396//396 397//397
f 397//397 396//396 398//398
f 397//397 398//398 343//343
f 343//343 398//398 399//399
f 343//343 399//399 344//344
f 400//400 401//401 90//90
f 90//90 88//88 400//400
f 400//400 88//88 87//87
f 400//400 87//87 402//402
f 87//87 85//85 402//402
f 402//402 85//85 84//84
f 402//402 84//84 403//403
f 84//84 82//82 403//403
f 403//403 82//82 81//81
f 403//403 81//81 404//404
f 81//81 79//79 404//404
f 404//404 79//79 78//78
f 404//404 78//78 405//405
f 78//78 76//76 405//405
f 405//405 76//76 75//75
f 405//405 75//75 406//406
f 75//75 73//73 406//406
f 406//406 73//73 72//72
f 406//406 72//72 407//407
f 72//72 70//70 407//407
f 407//407 70//70 69//69
f 407//407 69//69 408//408
f 69//69 67//67 408//408
f 408//408 67//67 66//66
f 408//408 66//66 409//409
f 66//66 64//64 409//409
f 409//409 64//64 63//63
f 409//409 63//63 410//410
f 410//410 63//63 61//61
f 61//61 59//59 410//410
f 410//410 59//59 58//58
f 410//410 58//58 411//411
f 58//58 56//56 411//411
f 411//411 56//56 55//55
f 411//411 55//55 412//412
f 412//412 55//55 54//54
f 412//412 54//54 413//413
f 413//413 54//54 127//127
f 413//413 127//127 414//414
f 127//127 126//126 414//414
f 414//414 126//126 125//125
f 414//414 125//125 415//415
f 125//125 123//123 415//415
f 415//415 123//123 122//122
f 415//415 122//122 416//416
f 122//122 120//120 416//416
f 416//416 120//120 119//119
f 416//416 119//119 417//417
f 119//119 117//117 417//417
f 417//417 117//117 116//116
f 417//417 116//116 418//418
f 116//116 114//114 418//418
f 418//418 114//114 113//113
f 418//418 113//113 419//419
f 113//113 111//111 419//419
f 419//419 111//111 110//110
f 419//419 110//110 420//420
f 110//110 108//108 420//420
f 420//420 108//108 107//107
f 420//420 107//107 421//421
f 107//107 105//105 421//421
f 421//421 105//105 104//104
f 421//421 104//104 422//422
f 104//104 102//102 422//422
f 422//422 102//102 101//101
f 422//422 101//101 423//423
f 101//101 99//99 423//423
f 423//423 99//99 98//98
f 423//423 98//98 424//424
f 424//424 98//98 97//97
f 424//424 97//97 425//425
f 97//97 95//95 425//425
f 425//425 95//95 94//94
f 425//425 94//94 401//401
f 401//401 94//94 92//92
f 401//401 92//92 90//90
f 27//27 426//426 29//29
f 29//29 426//426 427//427
f 29//29 427//427 31//31
f 31//31 427//427 428//428
f 31//31 428//428 33//33
f 33//33 428//428 429//429
f 33//33 429//429 35//35
f 35//35 429//429 430//430
f 35//35 430//430 37//37
f 37//37 430//430 431//431
f 37//37 431//431 39//39
f 39//39 431//431 432//432
f 39//39 432//432 41//41
f 41//41 432//432 433//433
f 41//41 433//433 43//43
f 43//43 433//433 434//434
f 43//43 434//434 45//45
f 45//45 434//434 435//435
f 45//45 435//435 47//47
f 47//47 435//435 436//436
f 47//47 436//436 49//49
f 49//49 436//436 437//437
f 49//49 437//437 3//3
f 3//3 437//437 438//438
f 3//3 438//438 4//4
f 4//4 438//438 439//439
f 4//4 439//439 5//5
f 5//5 439//439 440//440
f 5//5 440//440 7//7
f 7//7 440//440 441//441
f 7//7 441//441 9//9
f 9//9 441//441 442//442
f 9//9 442//442 11//11
f 11//11 442//442 443//443
f 11//11 443//443 13//13
f 13//13 443//443 444//444
f 13//13 444//444 15//15
f 15//15 444//444 445//445
f 15//15 445//445 17//17
f 17//17 445//445 446//446
f 17//17 446//446 19//19
f 19//19 446//446 447//447
f 19//19 447//447 21//21
f 21//21 447//447 448//448
f 21//21 448//448 23//23
f 23//23 448//448 449//449
f 23//23 449//449 25//25
f 25//25 449//449 450//450
f 25//25 450//450 27//27
f 27//27 450//450 426//426
f 451//451 452//452 453//453
f 453//453 452//452 454//454
f 453//453 454//454 455//455
f 455//455 454//454 456//456
f 455//455 456//456 457//457
f 457//457 456//456 458//458
f 457//457 458//458 459//459
f 459//459 458//458 460//460
f 459//459 460//460 461//461
f 461//461 460//460 462//462
f 461//461 462//462 463//463
f 463//463 462//462 464//464
f 463//463 464//464 465//465
f 465//465 464//464 466//466
f 465//465 466//466 467//467
f 467//467 466//466 468//468
f 467//467 468//468 469//469
f 469//469 468//468 470//470
f 469//469 470//470 471//471
f 471//471 470//470 472//472
f 471//471 472//472 473//473
f 473//473 472//472 474//474
f 473//473 474//474 475//475
f 475//475 474//474 476//476
f 475//475 476//476 477//477
f 477//477 476//476 478//478
f 477//477 478//478 479//479
f 479//479 478//478 480//480
f 479//479 480//480 481//481
f 481//481 480//480 482//482
f 481//481 482//482 483//483
f 483//483 482//482 484//484
f 483//483 484//484 485//485
f 485//485 484//484 486//486
f 485//485 486//486 487//487
f 487//487 486//486 488//488
f 487//487 488//488 489//489
f 489//489 488//488 490//490
f 489//489 490//490 491//491
f 491//491 490//490 492//492
f 491//491 492//492 493//493
f 493//493 492//492 494//494
f 493//493 494//494 495//495
f 495//495 494//494 496//496
f 495//495 496//496 497//497
f 497//497 496//496 498//498
f 497//497 498//498 451//451
f 451//451 498//498 452//452
f 376//376 428//428 373//373
f 373//373 428//428 427//427
f 373//373 427//427 370//370
f 370//370 427//427 426//426
f 370//370 426//426 368//368
f 368//368 426//426 450//450
f 368//368 450//450 365//365
f 450//450 449//449 365//365
f 365//365 449//449 448//448
f 365//365 448//448 362//362
f 362//362 448//448 447//447
f 362//362 447//447 359//359
f 359//359 447//447 446//446
f 359//359 446//446 356//356
f 356//356 446//446 445//445
f 356//356 445//445 353//353
f 353//353 445//445 444//444
f 353//353 444//444 350//350
f 385//385 432//432 382//382
f 382//382 432//432 431//431
f 382//382 431//431 379//379
f 379//379 431//431 430//430
f 379//379 430//430 376//376
f 376//376 430//430 429//429
f 376//376 429//429 428//428
f 397//397 437//437 394//394
f 394//394 437//437 436//436
f 394//394 436//436 391//391
f 391//391 436//436 435//435
f 391//391 435//435 388//388
f 388//388 435//435 434//434
f 388//388 434//434 385//385
f 385//385 434//434 433//433
f 385//385 433//433 432//432
f 444//444 443//443 350//350
f 350//350 443//443 442//442
f 350//350 442//442 347//347
f 347//347 442//442 441//441
f 347//347 441//441 342//342
f 342//342 441//441 440//440
f 342//342 440//440 343//343
f 343//343 440//440 439//439
f 343//343 439//439 397//397
f 397//397 439//439 438//438
f 397//397 438//438 437//437
f 412//412 339//339 285//285
f 327//327 419//419 324//324
f 324//324 419//419 420//420
f 324//324 420//420 321//321
f 321//321 420//420 421//421
f 321//321 421//421 318//318
f 412//412 413//413 339//339
f 339//339 413//413 414//414
f 339//339 414//414 336//336
f 336//336 414//414 415//415
f 336//336 415//415 333//333
f 333//333 415//415 416//416
f 333//333 416//416 330//330
f 330//330 416//416 417//417
f 330//330 417//417 327//327
f 327//327 417//417 418//418
f 327//327 418//418 419//419
f 307//307 402//402 304//304
f 304//304 402//402 403//403
f 304//304 403//403 301//301
f 301//301 403//403 404//404
f 301//301 404//404 298//298
f 298//298 404//404 405//405
f 298//298 405//405 295//295
f 295//295 405//405 406//406
f 295//295 406//406 292//292
f 421//421 422//422 318//318
f 318//318 422//422 423//423
f 318//318 423//423 315//315
f 315//315 423//423 424//424
f 315//315 424//424 312//312
f 312//312 424//424 425//425
f 312//312 425//425 310//310
f 310//310 425//425 401//401
f 310//310 401//401 307//307
f 307//307 401//401 400//400
f 307//307 400//400 402//402
f 406//406 407//407 292//292
f 292//292 407//407 408//408
f 292//292 408//408 289//289
f 289//289 408//408 409//409
f 289//289 409//409 284//284
f 284//284 409//409 410//410
f 284//284 410//410 285//285
f 285//285 410//410 411//411
f 285//285 411//411 412//412
f 200//200 499//499 500//500
f 200//200 500//500 213//213
f 213//213 500//500 501//501
f 213//213 501//501 215//215
f 266//266 265//265 502//502
f 502//502 503//503 266//266
f 266//266 503//503 504//504
f 266//266 504//504 262//262
f 505//505 506//506 268//268
f 268//268 276//276 505//505
f 505//505 276//276 274//274
f 505//505 274//274 507//507
f 507//507 274//274 272//272
f 507//507 272//272 508//508
f 508//508 272//272 271//271
f 508//508 271//271 509//509
f 218//218 510//510 219//219
f 219//219 510//510 511//511
f 219//219 511//511 221//221
f 221//221 511//511 223//223
f 223//223 511//511 512//512
f 223//223 512//512 224//224
f 224//224 512//512 226//226
f 226//226 512//512 513//513
f 226//226 513//513 227//227
f 136//136 137//137 514//514
f 218//218 215//215 510//510
f 510//510 215//215 501//501
f 131//131 233//233 132//132
f 132//132 233//233 235//235
f 132//132 235//235 139//139
f 282//282 514//514 280//280
f 280//280 514//514 137//137
f 280//280 137//137 138//138
f 515//515 516//516 517//517
f 517//517 516//516 518//518
f 517//517 518//518 519//519
f 519//519 518//518 520//520
f 519//519 520//520 521//521
f 521//521 520//520 522//522
f 521//521 522//522 523//523
f 523//523 522//522 524//524
f 523//523 524//524 525//525
f 525//525 524//524 526//526
f 525//525 526//526 527//527
f 527//527 526//526 528//528
f 527//527 528//528 529//529
f 529//529 528//528 530//530
f 529//529 530//530 531//531
f 531//531 530//530 532//532
f 531//531 532//532 533//533
f 533//533 532//532 534//534
f 533//533 534//534 535//535
f 535//535 534//534 536//536
f 535//535 536//536 537//537
f 537//537 536//536 538//538
f 537//537 538//538 539//539
f 539//539 538//538 540//540
f 539//539 540//540 541//541
f 541//541 540//540 542//542
f 541//541 542//542 543//543
f 543//543 542//542 544//544
f 543//543 544//544 545//545
f 545//545 544//544 546//546
f 545//545 546//546 547//547
f 547//547 546//546 548//548
f 547//547 548//548 549//549
f 549//549 548//548 550//550
f 549//549 550//550 551//551
f 551//551 550//550 552//552
f 551//551 552//552 553//553
f 553//553 552//552 554//554
f 553//553 554//554 555//555
f 555//555 554//554 556//556
f 555//555 556//556 557//557
f 557//557 556//556 515//515
f 557//557 515//515 517//517
f 558//558 559//559 229//229
f 560//560 231//231 559//559
f 559//559 231//231 230//230
f 559//559 230//230 229//229
f 561//561 234//234 560//560
f 560//560 234//234 232//232
f 560//560 232//232 231//231
f 560//560 562//562 561//561
f 561//561 562//562 563//563
f 561//561 563//563 564//564
f 564//564 563//563 565//565
f 564//564 565//565 566//566
f 566//566 565//565 567//567
f 566//566 567//567 568//568
f 568//568 567//567 569//569
f 568//568 569//569 570//570
f 570//570 569//569 571//571
f 570//570 571//571 572//572
f 572//572 571//571 573//573
f 572//572 573//573 574//574
f 574//574 573//573 575//575
f 574//574 575//575 576//576
f 576//576 575//575 577//577
f 576//576 577//577 578//578
f 578//578 577//577 281//281
f 281//281 577//577 579//579
f 281//281 579//579 283//283
f 580//580 279//279 581//581
f 581//581 279//279 278//278
f 581//581 278//278 579//579
f 579//579 278//278 277//277
f 579//579 277//277 283//283
f 229//229 582//582 558//558
f 558//558 582//582 583//583
f 558//558 583//583 584//584
f 584//584 583//583 585//585
f 584//584 585//585 586//586
f 586//586 585//585 587//587
f 586//586 587//587 588//588
f 588//588 587//587 589//589
f 588//588 589//589 590//590
f 590//590 589//589 591//591
f 590//590 591//591 592//592
f 592//592 591//591 593//593
f 592//592 593//593 594//594
f 594//594 593//593 595//595
f 594//594 595//595 596//596
f 596//596 595//595 580//580
f 596//596 580//580 597//597
f 597//597 580//580 581//581
f 586//586 588//588 517//517
f 517//517 588//588 590//590
f 517//517 590//590 557//557
f 557//557 590//590 592//592
f 557//557 592//592 555//555
f 555//555 592//592 594//594
f 555//555 594//594 553//553
f 553//553 594//594 596//596
f 553//553 596//596 551//551
f 551//551 596//596 597//597
f 551//551 597//597 549//549
f 549//549 597//597 581//581
f 549//549 581//581 547//547
f 547//547 581//581 579//579
f 547//547 579//579 545//545
f 545//545 579//579 577//577
f 545//545 577//577 543//543
f 543//543 577//577 575//575
f 543//543 575//575 541//541
f 541//541 575//575 573//573
f 541//541 573//573 539//539
f 539//539 573//573 571//571
f 539//539 571//571 537//537
f 537//537 571//571 569//569
f 537//537 569//569 535//535
f 535//535 569//569 567//567
f 535//535 567//567 533//533
f 533//533 567//567 565//565
f 533//533 565//565 531//531
f 531//531 565//565 563//563
f 531//531 563//563 529//529
f 529//529 563//563 562//562
f 529//529 562//562 527//527
f 527//527 562//562 560//560
f 527//527 560//560 525//525
f 525//525 560//560 559//559
f 525//525 559//559 523//523
f 523//523 559//559 558//558
f 523//523 558//558 521//521
f 521//521 558//558 584//584
f 521//521 584//584 519//519
f 519//519 584//584 586//586
f 519//519 586//586 517//517
f 598//598 599//599 128//128
f 131//131 212//212 211//211
f 211//211 209//209 131//131
f 131//131 209//209 207//207
f 131//131 207//207 233//233
f 207//207 205//205 233//233
f 233//233 205//205 203//203
f 233//233 203//203 231//231
f 231//231 203//203 201//201
f 231//231 201//201 228//228
f 130//130 134//134 128//128
f 128//128 134//134 600//600
f 128//128 600//600 601//601
f 133//133 134//134 131//131
f 131//131 134//134 130//130
f 131//131 130//130 212//212
f 212//212 130//130 188//188
f 212//212 188//188 191//191
f 601//601 602//602 128//128
f 128//128 602//602 603//603
f 128//128 603//603 598//598
f 197//197 195//195 188//188
f 188//188 195//195 192//192
f 188//188 192//192 191//191
f 217//217 220//220 222//222
f 222//222 225//225 217//217
f 217//217 225//225 228//228
f 217//217 228//228 216//216
f 216//216 228//228 201//201
f 216//216 201//201 214//214
f 578//578 281//281 280//280
f 572//572 574//574 138//138
f 138//138 574//574 280//280
f 280//280 574//574 576//576
f 280//280 576//576 578//578
f 572//572 138//138 570//570
f 570//570 138//138 139//139
f 570//570 139//139 568//568
f 234//234 561//561 235//235
f 235//235 561//561 564//564
f 235//235 564//564 139//139
f 139//139 564//564 566//566
f 139//139 566//566 568//568
f 582//582 229//229 227//227
f 279//279 580//580 271//271
f 271//271 580//580 595//595
f 271//271 595//595 509//509
f 509//509 595//595 593//593
f 509//509 593//593 591//591
f 604//604 605//605 513//513
f 513//513 605//605 509//509
f 513//513 509//509 589//589
f 589//589 509//509 591//591
f 589//589 587//587 513//513
f 513//513 587//587 585//585
f 513//513 585//585 227//227
f 227//227 585//585 583//583
f 227//227 583//583 582//582
f 502//502 265//265 506//506
f 506//506 265//265 268//268
f 135//135 136//136 514//514
f 236//236 606//606 607//607
f 250//250 514//514 253//253
f 253//253 514//514 255//255
f 250//250 240//240 514//514
f 514//514 240//240 237//237
f 514//514 237//237 135//135
f 135//135 237//237 236//236
f 135//135 236//236 608//608
f 608//608 236//236 609//609
f 277//277 261//261 282//282
f 282//282 261//261 259//259
f 282//282 259//259 514//514
f 514//514 259//259 257//257
f 514//514 257//257 255//255
f 607//607 610//610 236//236
f 236//236 610//610 611//611
f 236//236 611//611 609//609
f 264//264 267//267 263//263
f 247//247 249//249 245//245
f 245//245 249//249 240//240
f 245//245 240//240 244//244
f 244//244 240//240 250//250
f 270//270 273//273 275//275
f 275//275 269//269 270//270
f 270//270 269//269 264//264
f 270//270 264//264 277//277
f 277//277 264//264 263//263
f 277//277 263//263 261//261
f 242//242 612//612 613//613
f 242//242 613//613 243//243
f 243//243 613//613 614//614
f 243//243 614//614 246//246
f 246//246 614//614 615//615
f 246//246 615//615 248//248
f 248//248 615//615 616//616
f 248//248 616//616 239//239
f 262//262 504//504 617//617
f 262//262 617//617 260//260
f 260//260 617//617 618//618
f 260//260 618//618 258//258
f 258//258 618//618 619//619
f 258//258 619//619 256//256
f 256//256 619//619 620//620
f 256//256 620//620 254//254
f 254//254 620//620 621//621
f 254//254 621//621 252//252
f 252//252 621//621 622//622
f 252//252 622//622 251//251
f 251//251 622//622 612//612
f 251//251 612//612 242//242
f 194//194 623//623 624//624
f 194//194 624//624 199//199
f 199//199 624//624 625//625
f 199//199 625//625 210//210
f 210//210 625//625 626//626
f 210//210 626//626 208//208
f 208//208 626//626 627//627
f 208//208 627//627 206//206
f 206//206 627//627 628//628
f 206//206 628//628 204//204
f 204//204 628//628 629//629
f 204//204 629//629 202//202
f 202//202 629//629 499//499
f 202//202 499//499 200//200
f 623//623 194//194 193//193
f 623//623 193//193 630//630
f 630//630 193//193 196//196
f 630//630 196//196 631//631
f 631//631 196//196 198//198
f 631//631 198//198 632//632
f 632//632 198//198 189//189
f 632//632 189//189 633//633
f 505//505 507//507 605//605
f 605//605 507//507 508//508
f 605//605 508//508 509//509
f 634//634 635//635 615//615
f 615//615 635//635 616//616
f 635//635 106//106 109//109
f 68//68 71//71 636//636
f 637//637 638//638 124//124
f 504//504 96//96 617//617
f 617//617 96//96 100//100
f 617//617 100//100 618//618
f 618//618 100//100 103//103
f 618//618 103//103 619//619
f 619//619 103//103 106//106
f 619//619 106//106 620//620
f 620//620 106//106 621//621
f 65//65 639//639 62//62
f 62//62 639//639 640//640
f 62//62 640//640 60//60
f 636//636 71//71 641//641
f 641//641 71//71 74//74
f 641//641 74//74 642//642
f 642//642 74//74 77//77
f 642//642 77//77 643//643
f 504//504 503//503 96//96
f 96//96 503//503 502//502
f 96//96 502//502 93//93
f 634//634 644//644 635//635
f 635//635 644//644 612//612
f 635//635 612//612 106//106
f 106//106 612//612 622//622
f 106//106 622//622 621//621
f 109//109 112//112 635//635
f 635//635 112//112 115//115
f 635//635 115//115 645//645
f 645//645 115//115 118//118
f 645//645 118//118 638//638
f 638//638 118//118 121//121
f 638//638 121//121 124//124
f 124//124 53//53 637//637
f 637//637 53//53 52//52
f 637//637 52//52 646//646
f 646//646 52//52 57//57
f 646//646 57//57 647//647
f 647//647 57//57 60//60
f 647//647 60//60 648//648
f 648//648 60//60 640//640
f 636//636 649//649 68//68
f 68//68 649//649 650//650
f 68//68 650//650 65//65
f 65//65 650//650 651//651
f 65//65 651//651 639//639
f 77//77 80//80 643//643
f 643//643 80//80 83//83
f 643//643 83//83 652//652
f 652//652 83//83 86//86
f 502//502 506//506 93//93
f 93//93 506//506 505//505
f 93//93 505//505 91//91
f 91//91 505//505 605//605
f 91//91 605//605 89//89
f 605//605 653//653 89//89
f 89//89 653//653 654//654
f 89//89 654//654 86//86
f 86//86 654//654 655//655
f 86//86 655//655 652//652
f 513//513 512//512 604//604
f 604//604 512//512 511//511
f 604//604 511//511 510//510
f 48//48 50//50 501//501
f 32//32 34//34 630//630
f 24//24 26//26 656//656
f 656//656 26//26 28//28
f 656//656 28//28 30//30
f 630//630 34//34 623//623
f 657//657 1//1 6//6
f 657//657 6//6 658//658
f 658//658 6//6 8//8
f 658//658 8//8 659//659
f 34//34 36//36 623//623
f 623//623 36//36 38//38
f 623//623 38//38 624//624
f 624//624 38//38 40//40
f 656//656 660//660 24//24
f 24//24 660//660 661//661
f 24//24 661//661 22//22
f 22//22 661//661 662//662
f 22//22 662//662 20//20
f 633//633 663//663 632//632
f 632//632 663//663 664//664
f 632//632 664//664 631//631
f 631//631 664//664 656//656
f 631//631 656//656 630//630
f 630//630 656//656 30//30
f 630//630 30//30 32//32
f 8//8 10//10 659//659
f 659//659 10//10 12//12
f 659//659 12//12 665//665
f 665//665 12//12 14//14
f 18//18 666//666 16//16
f 16//16 666//666 667//667
f 16//16 667//667 14//14
f 14//14 667//667 668//668
f 14//14 668//668 665//665
f 662//662 669//669 20//20
f 20//20 669//669 670//670
f 20//20 670//670 18//18
f 18//18 670//670 671//671
f 18//18 671//671 666//666
f 44//44 627//627 42//42
f 42//42 627//627 626//626
f 42//42 626//626 40//40
f 40//40 626//626 625//625
f 40//40 625//625 624//624
f 501//501 500//500 48//48
f 48//48 500//500 499//499
f 48//48 499//499 46//46
f 46//46 499//499 629//629
f 46//46 629//629 44//44
f 44//44 629//629 628//628
f 44//44 628//628 627//627
f 657//657 672//672 1//1
f 1//1 672//672 673//673
f 1//1 673//673 2//2
f 2//2 673//673 674//674
f 2//2 674//674 51//51
f 51//51 674//674 604//604
f 51//51 604//604 50//50
f 50//50 604//604 510//510
f 50//50 510//510 501//501
f 458//458 456//456 364//364
f 454//454 452//452 287//287
f 287//287 452//452 498//498
f 498//498 496//496 287//287
f 287//287 496//496 494//494
f 287//287 494//494 288//288
f 288//288 494//494 492//492
f 288//288 492//492 290//290
f 486//486 484//484 293//293
f 293//293 484//484 482//482
f 293//293 482//482 480//480
f 290//290 492//492 291//291
f 291//291 492//492 490//490
f 291//291 490//490 293//293
f 293//293 490//490 488//488
f 293//293 488//488 486//486
f 478//478 476//476 358//358
f 358//358 476//476 474//474
f 358//358 474//474 472//472
f 472//472 470//470 358//358
f 358//358 470//470 468//468
f 358//358 468//468 360//360
f 360//360 468//468 466//466
f 360//360 466//466 361//361
f 361//361 466//466 464//464
f 361//361 464//464 363//363
f 363//363 464//464 462//462
f 363//363 462//462 364//364
f 364//364 462//462 460//460
f 364//364 460//460 458//458
f 143//143 141//141 305//305
f 187//187 185//185 346//346
f 346//346 185//185 183//183
f 167//167 165//165 352//352
f 167//167 352//352 169//169
f 183//183 181//181 346//346
f 346//346 181//181 179//179
f 346//346 179//179 348//348
f 348//348 179//179 177//177
f 348//348 177//177 349//349
f 349//349 177//177 175//175
f 349//349 175//175 351//351
f 351//351 175//175 173//173
f 351//351 173//173 352//352
f 352//352 173//173 171//171
f 352//352 171//171 169//169
f 163//163 161//161 299//299
f 299//299 161//161 159//159
f 299//299 159//159 157//157
f 157//157 155//155 299//299
f 299//299 155//155 153//153
f 299//299 153//153 300//300
f 300//300 153//153 151//151
f 300//300 151//151 302//302
f 302//302 151//151 149//149
f 302//302 149//149 303//303
f 303//303 149//149 147//147
f 303//303 147//147 305//305
f 305//305 147//147 145//145
f 305//305 145//145 143//143
f 165//165 163//163 352//352
f 352//352 163//163 299//299
f 352//352 299//299 354//354
f 354//354 299//299 297//297
f 354//354 297//297 355//355
f 355//355 297//297 296//296
f 355//355 296//296 357//357
f 357//357 296//296 294//294
f 357//357 294//294 358//358
f 358//358 294//294 293//293
f 358//358 293//293 478//478
f 478//478 293//293 480//480
f 456//456 454//454 364//364
f 364//364 454//454 287//287
f 364//364 287//287 366//366
f 366//366 287//287 286//286
f 366//366 286//286 367//367
f 367//367 286//286 341//341
f 367//367 341//341 369//369
f 369//369 341//341 340//340
f 369//369 340//340 371//371
f 371//371 340//340 338//338
f 371//371 338//338 372//372
f 372//372 338//338 337//337
f 372//372 337//337 374//374
f 374//374 337//337 335//335
f 374//374 335//335 375//375
f 375//375 335//335 334//334
f 375//375 334//334 377//377
f 377//377 334//334 332//332
f 377//377 332//332 378//378
f 378//378 332//332 331//331
f 378//378 331//331 380//380
f 380//380 331//331 329//329
f 380//380 329//329 381//381
f 381//381 329//329 328//328
f 381//381 328//328 383//383
f 383//383 328//328 326//326
f 383//383 326//326 384//384
f 384//384 326//326 325//325
f 384//384 325//325 386//386
f 386//386 325//325 323//323
f 386//386 323//323 387//387
f 387//387 323//323 322//322
f 387//387 322//322 389//389
f 389//389 322//322 320//320
f 389//389 320//320 390//390
f 390//390 320//320 319//319
f 390//390 319//319 392//392
f 392//392 319//319 317//317
f 392//392 317//317 393//393
f 393//393 317//317 316//316
f 393//393 316//316 395//395
f 395//395 316//316 314//314
f 395//395 314//314 396//396
f 396//396 314//314 313//313
f 396//396 313//313 398//398
f 398//398 313//313 675//675
f 398//398 675//675 399//399
f 399//399 675//675 309//309
f 399//399 309//309 344//344
f 344//344 309//309 308//308
f 344//344 308//308 345//345
f 345//345 308//308 306//306
f 345//345 306//306 346//346
f 346//346 306//306 305//305
f 346//346 305//305 187//187
f 187//187 305//305 141//141
f 650//650 649//649 666//666
f 666//666 649//649 667//667
f 469//469 676//676 467//467
f 467//467 676//676 465//465
f 483//483 485//485 676//676
f 483//483 676//676 481//481
f 469//469 471//471 676//676
f 676//676 471//471 473//473
f 676//676 473//473 475//475
f 475//475 477//477 676//676
f 676//676 477//477 479//479
f 676//676 479//479 481//481
f 459//459 461//461 677//677
f 453//453 455//455 677//677
f 677//677 455//455 457//457
f 677//677 457//457 459//459
f 489//489 491//491 677//677
f 677//677 491//491 493//493
f 677//677 493//493 495//495
f 495//495 497//497 677//677
f 677//677 497//497 451//451
f 677//677 451//451 453//453
f 485//485 487//487 676//676
f 676//676 487//487 489//489
f 676//676 489//489 465//465
f 465//465 489//489 677//677
f 465//465 677//677 463//463
f 463//463 677//677 461//461
f 178//178 678//678 176//176
f 176//176 678//678 174//174
f 144//144 146//146 678//678
f 144//144 678//678 142//142
f 178//178 180//180 678//678
f 678//678 180//180 182//182
f 678//678 182//182 184//184
f 184//184 186//186 678//678
f 678//678 186//186 140//140
f 678//678 140//140 142//142
f 168//168 170//170 679//679
f 162//162 164//164 679//679
f 679//679 164//164 166//166
f 679//679 166//166 168//168
f 150//150 152//152 679//679
f 679//679 152//152 154//154
f 679//679 154//154 156//156
f 156//156 158//158 679//679
f 679//679 158//158 160//160
f 679//679 160//160 162//162
f 146//146 148//148 678//678
f 678//678 148//148 150//150
f 678//678 150//150 174//174
f 174//174 150//150 679//679
f 174//174 679//679 172//172
f 172//172 679//679 170//170
f 658//658 659//659 643//643
f 643//643 659//659 642//642
f 680//680 552//552 681//681
f 681//681 552//552 550//550
f 681//681 550//550 682//682
f 550//550 548//548 682//682
f 682//682 548//548 546//546
f 682//682 546//546 683//683
f 683//683 546//546 544//544
f 683//683 544//544 684//684
f 684//684 544//544 542//542
f 684//684 542//542 685//685
f 542//542 540//540 685//685
f 685//685 540//540 538//538
f 685//685 538//538 686//686
f 686//686 538//538 536//536
f 686//686 536//536 687//687
f 536//536 534//534 687//687
f 687//687 534//534 532//532
f 687//687 532//532 688//688
f 688//688 532//532 530//530
f 688//688 530//530 689//689
f 690//690 556//556 680//680
f 680//680 556//556 554//554
f 680//680 554//554 552//552
f 691//691 516//516 690//690
f 690//690 516//516 515//515
f 690//690 515//515 556//556
f 692//692 522//522 693//693
f 693//693 522//522 520//520
f 693//693 520//520 691//691
f 691//691 520//520 518//518
f 691//691 518//518 516//516
f 530//530 528//528 689//689
f 689//689 528//528 526//526
f 689//689 526//526 692//692
f 692//692 526//526 524//524
f 692//692 524//524 522//522
f 694//694 695//695 696//696
f 694//694 697//697 698//698
f 699//699 697//697 694//694
f 696//696 699//699 694//694
f 694//694 700//700 701//701
f 702//702 700//700 694//694
f 698//698 702//702 694//694
f 694//694 703//703 704//704
f 705//705 703//703 694//694
f 701//701 705//705 694//694
f 694//694 706//706 707//707
f 708//708 706//706 694//694
f 704//704 708//708 694//694
f 707//707 695//695 694//694
f 686//686 701//701 685//685
f 685//685 701//701 700//700
f 685//685 700//700 684//684
f 684//684 700//700 702//702
f 684//684 702//702 683//683
f 683//683 702//702 698//698
f 683//683 698//698 682//682
f 682//682 698//698 697//697
f 682//682 697//697 681//681
f 681//681 697//697 699//699
f 681//681 699//699 680//680
f 680//680 699//699 696//696
f 680//680 696//696 690//690
f 690//690 696//696 695//695
f 690//690 695//695 691//691
f 691//691 695//695 707//707
f 691//691 707//707 693//693
f 693//693 707//707 706//706
f 693//693 706//706 692//692
f 692//692 706//706 708//708
f 692//692 708//708 689//689
f 689//689 708//708 704//704
f 689//689 704//704 688//688
f 688//688 704//704 703//703
f 688//688 703//703 687//687
f 687//687 703//703 705//705
f 687//687 705//705 686//686
f 686//686 705//705 701//701
f 709//709 616//616 710//710
f 710//710 616//616 635//635
f 710//710 635//635 645//645
f 663//663 633//633 711//711
f 711//711 633//633 189//189
f 711//711 189//189 712//712
f 712//712 189//189 129//129
f 712//712 129//129 599//599
f 599//599 129//129 128//128
f 606//606 236//236 713//713
f 713//713 236//236 238//238
f 713//713 238//238 714//714
f 714//714 238//238 239//239
f 714//714 239//239 709//709
f 709//709 239//239 616//616
f 637//637 656//656 638//638
f 638//638 656//656 664//664
f 638//638 664//664 645//645
f 645//645 664//664 710//710
f 642//642 659//659 665//665
f 642//642 665//665 641//641
f 641//641 665//665 668//668
f 641//641 668//668 636//636
f 636//636 668//668 667//667
f 636//636 667//667 649//649
f 658//658 643//643 652//652
f 658//658 652//652 657//657
f 657//657 652//652 655//655
f 657//657 655//655 672//672
f 672//672 655//655 654//654
f 672//672 654//654 673//673
f 673//673 654//654 653//653
f 673//673 653//653 674//674
f 674//674 653//653 605//605
f 674//674 605//605 604//604
f 712//712 599//599 709//709
f 711//711 712//712 663//663
f 663//663 712//712 709//709
f 663//663 709//709 664//664
f 664//664 709//709 710//710
f 714//714 709//709 713//713
f 713//713 709//709 599//599
f 713//713 599//599 606//606
f 606//606 599//599 598//598
f 606//606 598//598 607//607
f 607//607 598//598 603//603
f 607//607 603//603 610//610
f 610//610 603//603 602//602
f 610//610 602//602 611//611
f 611//611 602//602 601//601
f 611//611 601//601 609//609
f 609//609 601//601 600//600
f 609//609 600//600 608//608
f 608//608 600//600 134//134
f 608//608 134//134 135//135
f 650//650 666//666 671//671
f 650//650 671//671 651//651
f 651//651 671//671 670//670
f 651//651 670//670 639//639
f 639//639 670//670 669//669
f 639//639 669//669 640//640
f 640//640 669//669 662//662
f 640//640 662//662 648//648
f 648//648 662//662 661//661
f 648//648 661//661 647//647
f 647//647 661//661 660//660
f 647//647 660//660 646//646
f 646//646 660//660 656//656
f 646//646 656//656 637//637

