# https://github.com/mikedh/trimesh

o right_ankle_pitch_link.STL
v 0.00394218 -0.00000002 -0.00900000
v 0.00394218 0.00112798 -0.00892903
v 0.00544218 0.00112798 -0.00892904
v 0.00394218 0.00331311 -0.00836800
v 0.00544218 0.00331311 -0.00836799
v 0.00394217 0.00529006 -0.00728116
v 0.00544218 0.00529006 -0.00728116
v 0.00394218 0.00693461 -0.00573682
v 0.00544217 0.00693461 -0.00573683
v 0.00394217 0.00814343 -0.00383202
v 0.00544218 0.00814344 -0.00383202
v 0.00394218 0.00884059 -0.00168644
v 0.00544217 0.00884058 -0.00168645
v 0.00394218 0.00898224 0.00056510
v 0.00544218 0.00898224 0.00056510
v 0.00394217 0.00855951 0.00278115
v 0.00544218 0.00855951 0.00278114
v 0.00394218 0.00759896 0.00482243
v 0.00544217 0.00759896 0.00482243
v 0.00394218 0.00616093 0.00656072
v 0.00544218 0.00616093 0.00656071
v 0.00394218 0.00433580 0.00788675
v 0.00544218 0.00433580 0.00788675
v 0.00394218 0.00223822 0.00871726
v 0.00544218 0.00223822 0.00871725
v 0.00394218 0.00000001 0.00900000
v 0.00544218 0.00000001 0.00900001
v 0.00394218 -0.00223820 0.00871725
v 0.00544218 -0.00223820 0.00871725
v 0.00394218 -0.00433578 0.00788677
v 0.00544217 -0.00433577 0.00788677
v 0.00394217 -0.00616091 0.00656073
v 0.00544218 -0.00616092 0.00656073
v 0.00394218 -0.00759895 0.00482245
v 0.00544218 -0.00759895 0.00482245
v 0.00394217 -0.00855951 0.00278117
v 0.00544218 -0.00855951 0.00278116
v 0.00394218 -0.00898225 0.00056512
v 0.00544218 -0.00898224 0.00056513
v 0.00394218 -0.00884059 -0.00168643
v 0.00544217 -0.00884058 -0.00168642
v 0.00394219 -0.00814345 -0.00383199
v 0.00544218 -0.00814345 -0.00383200
v 0.00394218 -0.00693462 -0.00573681
v 0.00544218 -0.00693462 -0.00573681
v 0.00394218 -0.00529008 -0.00728115
v 0.00544217 -0.00529008 -0.00728115
v 0.00394218 -0.00331314 -0.00836799
v 0.00544217 -0.00331313 -0.00836798
v 0.00394218 -0.00112801 -0.00892904
v 0.00544217 -0.00112800 -0.00892903
v -0.00405782 -0.00223819 0.00871725
v -0.00405782 0.00000002 0.00900000
v -0.00555783 0.00000002 0.00900000
v -0.00555782 -0.00112799 0.00892903
v -0.00555782 -0.00223820 0.00871724
v -0.00405783 -0.00433577 0.00788677
v -0.00555782 -0.00331310 0.00836799
v -0.00555782 -0.00433577 0.00788677
v -0.00405782 -0.00616092 0.00656072
v -0.00555782 -0.00529006 0.00728117
v -0.00555783 -0.00616092 0.00656073
v -0.00405782 -0.00759895 0.00482244
v -0.00555783 -0.00693461 0.00573682
v -0.00555782 -0.00759895 0.00482245
v -0.00405783 -0.00855950 0.00278117
v -0.00555782 -0.00814343 0.00383202
v -0.00555782 -0.00855951 0.00278116
v -0.00405782 -0.00898224 0.00056512
v -0.00555783 -0.00884059 0.00168644
v -0.00555782 -0.00898223 0.00056513
v -0.00405783 -0.00884059 -0.00168642
v -0.00555782 -0.00898224 -0.00056510
v -0.00555782 -0.00884058 -0.00168642
v -0.00405782 -0.00814345 -0.00383200
v -0.00555782 -0.00855951 -0.00278114
v -0.00555783 -0.00814345 -0.00383200
v -0.00405782 -0.00693463 -0.00573681
v -0.00555783 -0.00759896 -0.00482243
v -0.00555782 -0.00693463 -0.00573681
v -0.00405782 -0.00529007 -0.00728115
v -0.00555782 -0.00616093 -0.00656072
v -0.00555782 -0.00529008 -0.00728115
v -0.00555782 -0.00433580 -0.00788675
v -0.00405782 -0.00331313 -0.00836798
v -0.00555782 -0.00331313 -0.00836798
v -0.00555782 -0.00223822 -0.00871725
v -0.00405782 -0.00112801 -0.00892903
v -0.00555782 -0.00112801 -0.00892902
v -0.00405782 -0.00000001 -0.00900000
v -0.00555782 -0.00000001 -0.00900000
v -0.00405782 0.00112799 -0.00892903
v -0.00555782 0.00112799 -0.00892904
v -0.00555782 0.00223820 -0.00871725
v -0.00405782 0.00331311 -0.00836799
v -0.00555783 0.00331311 -0.00836799
v -0.00555783 0.00433578 -0.00788676
v -0.00405783 0.00529006 -0.00728115
v -0.00555782 0.00529006 -0.00728115
v -0.00555782 0.00616092 -0.00656073
v -0.00405782 0.00693461 -0.00573683
v -0.00555782 0.00693461 -0.00573683
v -0.00555781 0.00759895 -0.00482245
v -0.00405782 0.00814344 -0.00383202
v -0.00555783 0.00814344 -0.00383202
v -0.00555782 0.00855951 -0.00278116
v -0.00405782 0.00884057 -0.00168644
v -0.00555782 0.00884059 -0.00168645
v -0.00555782 0.00898224 -0.00056512
v -0.00405782 0.00898223 0.00056510
v -0.00555783 0.00898223 0.00056511
v -0.00555783 0.00884059 0.00168643
v -0.00405783 0.00855951 0.00278113
v -0.00555782 0.00855951 0.00278114
v -0.00555782 0.00814345 0.00383200
v -0.00405782 0.00759895 0.00482243
v -0.00555782 0.00759895 0.00482243
v -0.00555782 0.00693462 0.00573681
v -0.00405782 0.00616093 0.00656071
v -0.00555782 0.00616094 0.00656071
v -0.00405782 0.00433579 0.00788675
v -0.00555783 0.00529008 0.00728115
v -0.00555783 0.00433579 0.00788676
v -0.00405782 0.00223822 0.00871724
v -0.00555783 0.00331314 0.00836799
v -0.00555783 0.00223822 0.00871725
v -0.00555783 0.00112801 0.00892904
v 0.00644217 -0.01655790 0.00630001
v 0.00624218 -0.01664074 0.00650001
v 0.00644217 -0.01684074 0.00650001
v 0.00644218 -0.02455791 -0.00499999
v 0.00444217 -0.02455790 -0.00499998
v 0.00644218 -0.02255790 -0.00499998
v 0.00644218 -0.02455789 0.00150002
v -0.00655781 -0.02455790 0.00150001
v -0.00655782 -0.02455790 -0.00499999
v -0.00455783 -0.02455790 -0.00499999
v -0.00455782 -0.02455791 -0.01749999
v 0.00444217 -0.02455791 -0.01749998
v 0.00023981 0.00455091 -0.00391015
v 0.00023993 0.00366653 -0.00339950
v 0.00051718 0.00462609 -0.00382089
v 0.00051718 0.00374538 -0.00331241
v 0.00075546 0.00474168 -0.00367647
v 0.00075545 0.00386595 -0.00317087
v 0.00093811 0.00488474 -0.00348416
v 0.00093811 0.00401390 -0.00298138
v 0.00105283 0.00504062 -0.00325455
v 0.00105871 0.00418583 -0.00273475
v 0.00109216 0.00519991 -0.00299348
v 0.00109217 0.00433012 -0.00250001
v 0.00105194 0.00534036 -0.00273506
v 0.00105288 0.00447145 -0.00223744
v 0.00093811 0.00545973 -0.00248823
v 0.00093811 0.00458889 -0.00198545
v 0.00075522 0.00555484 -0.00226797
v 0.00075516 0.00467913 -0.00176230
v 0.00051717 0.00562203 -0.00209588
v 0.00051717 0.00474132 -0.00158741
v 0.00024022 0.00566170 -0.00198625
v 0.00024038 0.00477727 -0.00147568
v -0.00005782 0.00567482 -0.00194847
v -0.00005782 0.00478903 -0.00143705
v -0.00035599 0.00566168 -0.00198629
v -0.00035608 0.00477727 -0.00147570
v -0.00063283 0.00562202 -0.00209589
v -0.00063283 0.00474132 -0.00158740
v -0.00087084 0.00555484 -0.00226796
v -0.00087084 0.00467912 -0.00176234
v -0.00105376 0.00545973 -0.00248823
v -0.00105376 0.00458890 -0.00198545
v -0.00116766 0.00534023 -0.00273533
v -0.00116858 0.00447135 -0.00223764
v -0.00120782 0.00519615 -0.00300000
v -0.00120782 0.00433012 -0.00250000
v -0.00116865 0.00504096 -0.00325404
v -0.00117435 0.00418583 -0.00273475
v -0.00105374 0.00488473 -0.00348417
v -0.00105376 0.00401389 -0.00298139
v -0.00087092 0.00474158 -0.00367661
v -0.00087095 0.00386586 -0.00317098
v -0.00063282 0.00462611 -0.00382089
v -0.00063282 0.00374538 -0.00331241
v -0.00035667 0.00455113 -0.00390988
v -0.00035656 0.00366670 -0.00339930
v -0.00005783 0.00452481 -0.00394031
v -0.00005783 0.00363903 -0.00342891
v 0.00624218 -0.01621531 0.00650001
v 0.00644217 -0.01621532 0.00630001
v 0.00634218 -0.01482179 0.00486570
v 0.00624218 -0.01472337 0.00484485
v 0.00624218 -0.01478565 0.00545394
v 0.00644219 -0.01492031 0.00488612
v 0.00644217 -0.01497628 0.00539343
v 0.00624218 -0.01509612 0.00599871
v 0.00644217 -0.01524534 0.00586555
v 0.00624218 -0.01560215 0.00636896
v 0.00644217 -0.01568390 0.00618643
v 0.00644218 -0.01550654 0.00245708
v 0.00624217 -0.01530900 0.00242579
v 0.00624218 -0.01549912 -0.00016438
v 0.00644217 -0.01569911 -0.00016650
v 0.00624218 -0.01525411 -0.00274994
v 0.00644218 -0.01545093 -0.00278542
v 0.00624218 -0.01458082 -0.00525830
v 0.00644217 -0.01476896 -0.00532615
v 0.00624218 -0.01349817 -0.00761902
v 0.00644218 -0.01367235 -0.00771732
v 0.00624217 -0.01203656 -0.00976583
v 0.00644218 -0.01219187 -0.00989184
v 0.00624217 -0.01023701 -0.01163847
v 0.00644217 -0.01036909 -0.01178864
v 0.00644217 -0.00975790 -0.01314020
v 0.00624218 -0.00955791 -0.01314019
v 0.00624218 -0.00973558 -0.01231613
v 0.00644217 -0.00991781 -0.01239853
v 0.00624217 -0.00955791 -0.01649999
v 0.00644218 -0.00975791 -0.01650000
v 0.00644217 -0.01055790 -0.01729999
v 0.00624218 -0.01055791 -0.01750000
v 0.00624218 -0.01017523 -0.01742387
v 0.00644217 -0.01025176 -0.01723910
v 0.00624217 -0.01005792 -0.01736602
v 0.00644217 -0.00999223 -0.01706568
v 0.00624217 -0.00985081 -0.01720710
v 0.00624217 -0.00969189 -0.01699999
v 0.00644218 -0.00981880 -0.01680613
v 0.00624217 -0.00963403 -0.01688268
v 0.00644218 -0.01755792 -0.01729999
v 0.00637517 -0.01662700 -0.01736700
v 0.00624218 -0.01595792 -0.01749999
v 0.00624217 -0.02275791 -0.01749999
v 0.00624218 -0.01915791 -0.01749999
v 0.00644218 -0.02255792 -0.01729998
v 0.00637517 -0.01848884 -0.01736700
v -0.00635782 -0.01664074 0.00650000
v -0.00655782 -0.01655789 0.00630001
v -0.00655782 -0.01684074 0.00650002
v -0.00655782 -0.01621532 0.00630002
v -0.00635782 -0.01621532 0.00650001
v -0.00645784 -0.01482178 0.00486570
v -0.00655783 -0.01492032 0.00488613
v -0.00655783 -0.01497628 0.00539342
v -0.00635782 -0.01478565 0.00545394
v -0.00635782 -0.01472336 0.00484485
v -0.00655782 -0.01524534 0.00586555
v -0.00635782 -0.01509612 0.00599871
v -0.00655782 -0.01568389 0.00618644
v -0.00635782 -0.01560214 0.00636896
v -0.00635782 -0.01530900 0.00242578
v -0.00635782 -0.01023700 -0.01163846
v -0.00655782 -0.01036910 -0.01178863
v -0.00635782 -0.01203655 -0.00976583
v -0.00655782 -0.01219186 -0.00989184
v -0.00635783 -0.01349817 -0.00761902
v -0.00655783 -0.01367234 -0.00771732
v -0.00635782 -0.01458083 -0.00525829
v -0.00655782 -0.01476896 -0.00532614
v -0.00635783 -0.01525411 -0.00274995
v -0.00655782 -0.01545094 -0.00278543
v -0.00635782 -0.01549913 -0.00016439
v -0.00655783 -0.01569912 -0.00016651
v -0.00655782 -0.01550654 0.00245709
v -0.00635782 -0.00973557 -0.01231613
v -0.00655782 -0.00991780 -0.01239853
v -0.00635782 -0.00955791 -0.01314020
v -0.00655783 -0.00975791 -0.01314021
v -0.00655782 -0.00975791 -0.01649999
v -0.00635782 -0.00955791 -0.01649999
v -0.00635782 -0.00969189 -0.01699999
v -0.00655782 -0.00986509 -0.01689999
v -0.00635782 -0.00985080 -0.01720710
v -0.00655782 -0.01015791 -0.01719282
v -0.00635782 -0.01005791 -0.01736602
v -0.00635782 -0.01055791 -0.01749999
v -0.00655782 -0.01055791 -0.01730000
v -0.00635783 -0.01595792 -0.01749999
v -0.00649082 -0.01662700 -0.01736699
v -0.00655783 -0.01755791 -0.01729998
v -0.00649082 -0.01848884 -0.01736700
v -0.00655782 -0.02255791 -0.01729998
v -0.00635783 -0.01915791 -0.01749998
v -0.00635782 -0.02275791 -0.01749999
v -0.00605782 -0.00323281 0.00444961
v -0.00605782 -0.00169959 0.00523080
v -0.00555783 -0.00154508 0.00475528
v -0.00555783 -0.00237973 0.00439737
v -0.00555782 -0.00293891 0.00404509
v -0.00605783 -0.00444959 0.00323283
v -0.00555782 -0.00367862 0.00338641
v -0.00555782 -0.00404507 0.00293893
v -0.00605782 -0.00523081 0.00169960
v -0.00555782 -0.00457887 0.00200848
v -0.00555782 -0.00475528 0.00154509
v -0.00605782 -0.00550000 0.00000001
v -0.00555783 -0.00498293 0.00041290
v -0.00555783 -0.00500000 0.00000001
v -0.00605783 -0.00523082 -0.00169958
v -0.00555782 -0.00484700 -0.00122742
v -0.00555782 -0.00475529 -0.00154509
v -0.00605782 -0.00444961 -0.00323282
v -0.00555782 -0.00418583 -0.00273473
v -0.00555782 -0.00404509 -0.00293892
v -0.00605782 -0.00323282 -0.00444958
v -0.00555782 -0.00307106 -0.00394570
v -0.00555782 -0.00293893 -0.00404508
v -0.00605782 -0.00169961 -0.00523081
v -0.00555782 -0.00162350 -0.00472908
v -0.00555782 -0.00154509 -0.00475529
v -0.00605782 -0.00000001 -0.00550001
v -0.00555782 -0.00000001 -0.00499999
v -0.00605782 0.00169959 -0.00523081
v -0.00555782 0.00154508 -0.00475529
v -0.00555782 0.00162350 -0.00472908
v -0.00605783 0.00323280 -0.00444960
v -0.00555782 0.00293892 -0.00404508
v -0.00555782 0.00307106 -0.00394571
v -0.00605782 0.00444958 -0.00323282
v -0.00555783 0.00404508 -0.00293894
v -0.00555783 0.00418583 -0.00273475
v -0.00605782 0.00523081 -0.00169961
v -0.00555782 0.00475528 -0.00154510
v -0.00555782 0.00484699 -0.00122743
v -0.00605783 0.00550001 -0.00000001
v -0.00555782 0.00500000 0.00000000
v -0.00555782 0.00498291 0.00041289
v -0.00605782 0.00523081 0.00169959
v -0.00555782 0.00475529 0.00154508
v -0.00555783 0.00457886 0.00200847
v -0.00605782 0.00444960 0.00323282
v -0.00555783 0.00404508 0.00293892
v -0.00555783 0.00367862 0.00338640
v -0.00605782 0.00323282 0.00444958
v -0.00555782 0.00293892 0.00404508
v -0.00555782 0.00237974 0.00439737
v -0.00605782 0.00169961 0.00523081
v -0.00555782 0.00154509 0.00475528
v -0.00555782 0.00082297 0.00493181
v -0.00605782 0.00000001 0.00550000
v -0.00555782 0.00000001 0.00500001
v -0.00555783 -0.00082296 0.00493180
v 0.00594218 -0.00323282 -0.00444958
v 0.00594218 -0.00169961 -0.00523081
v 0.00544218 -0.00162350 -0.00472909
v 0.00544218 -0.00293892 -0.00404508
v 0.00544218 -0.00307106 -0.00394570
v 0.00594218 -0.00444959 -0.00323281
v 0.00544217 -0.00404508 -0.00293892
v 0.00544217 -0.00418584 -0.00273473
v 0.00594218 -0.00523081 -0.00169959
v 0.00544218 -0.00475529 -0.00154508
v 0.00544218 -0.00484700 -0.00122742
v 0.00594217 -0.00550001 0.00000001
v 0.00544218 -0.00499999 0.00000001
v 0.00544218 -0.00498292 0.00041289
v 0.00594218 -0.00523081 0.00169960
v 0.00544218 -0.00475529 0.00154509
v 0.00544218 -0.00457887 0.00200848
v 0.00594218 -0.00444959 0.00323282
v 0.00544217 -0.00404508 0.00293893
v 0.00544217 -0.00367861 0.00338641
v 0.00594217 -0.00323281 0.00444960
v 0.00544218 -0.00293892 0.00404509
v 0.00544218 -0.00237974 0.00439737
v 0.00594218 -0.00169958 0.00523082
v 0.00544218 -0.00154509 0.00475529
v 0.00544218 -0.00082297 0.00493181
v 0.00594218 0.00000000 0.00550000
v 0.00544218 0.00000001 0.00500000
v 0.00594218 0.00169960 0.00523081
v 0.00544218 0.00082298 0.00493180
v 0.00544218 0.00154509 0.00475528
v 0.00594218 0.00323283 0.00444959
v 0.00544218 0.00237973 0.00439737
v 0.00544218 0.00293893 0.00404507
v 0.00594218 0.00444960 0.00323281
v 0.00544218 0.00367863 0.00338640
v 0.00544218 0.00404509 0.00293891
v 0.00594217 0.00523081 0.00169958
v 0.00544218 0.00457887 0.00200848
v 0.00544218 0.00475528 0.00154508
v 0.00594218 0.00550000 -0.00000001
v 0.00544217 0.00498292 0.00041289
v 0.00544217 0.00500001 -0.00000000
v 0.00594218 0.00523081 -0.00169960
v 0.00544218 0.00484700 -0.00122744
v 0.00544218 0.00475528 -0.00154509
v 0.00594217 0.00444959 -0.00323283
v 0.00544218 0.00418583 -0.00273474
v 0.00544218 0.00404508 -0.00293892
v 0.00594218 0.00323282 -0.00444960
v 0.00544218 0.00307106 -0.00394570
v 0.00544218 0.00293892 -0.00404508
v 0.00594218 0.00169959 -0.00523081
v 0.00544217 0.00162350 -0.00472908
v 0.00544217 0.00154508 -0.00475529
v 0.00594218 -0.00000000 -0.00549999
v 0.00544218 0.00000000 -0.00500000
v 0.00544218 -0.00154510 -0.00475528
v -0.00605783 -0.00211388 -0.00823295
v -0.00605783 -0.00000000 -0.00850000
v -0.00605783 -0.00409492 -0.00744860
v -0.00605782 -0.00581865 -0.00619623
v -0.00605782 -0.00717680 -0.00455452
v -0.00605782 -0.00808399 -0.00262664
v -0.00605783 -0.00848323 -0.00053371
v -0.00605782 -0.00834943 0.00159275
v -0.00605783 -0.00769103 0.00361914
v -0.00605782 -0.00654935 0.00541811
v -0.00605782 -0.00499616 0.00687665
v -0.00605783 -0.00312905 0.00790310
v -0.00605782 -0.00106532 0.00843297
v -0.00605782 0.00000001 0.00850000
v -0.00605782 0.00106534 0.00843298
v -0.00605782 0.00312908 0.00790310
v -0.00605782 0.00499619 0.00687664
v -0.00605783 0.00654938 0.00541809
v -0.00605782 0.00769104 0.00361911
v -0.00605782 0.00834945 0.00159273
v -0.00605783 0.00848323 -0.00053373
v -0.00605782 0.00808397 -0.00262666
v -0.00605782 0.00717677 -0.00455454
v -0.00605783 0.00581864 -0.00619624
v -0.00605782 0.00409489 -0.00744862
v -0.00605782 0.00211386 -0.00823296
v 0.00594217 0.00211388 0.00823295
v 0.00594217 0.00409492 0.00744860
v 0.00594218 0.00581865 0.00619622
v 0.00594218 0.00717680 0.00455452
v 0.00594218 0.00808399 0.00262663
v 0.00594217 0.00848322 0.00053371
v 0.00594218 0.00834943 -0.00159275
v 0.00594217 0.00769103 -0.00361914
v 0.00594218 0.00654935 -0.00541811
v 0.00594218 0.00499616 -0.00687664
v 0.00594217 0.00312905 -0.00790310
v 0.00594219 0.00106532 -0.00843297
v 0.00594218 -0.00106534 -0.00843298
v 0.00594218 -0.00312906 -0.00790310
v 0.00594218 -0.00499618 -0.00687663
v 0.00594217 -0.00654938 -0.00541810
v 0.00594218 -0.00769104 -0.00361911
v 0.00594218 -0.00834945 -0.00159273
v 0.00594217 -0.00848323 0.00053373
v 0.00594218 -0.00808398 0.00262666
v 0.00594218 -0.00717678 0.00455453
v 0.00594217 -0.00581865 0.00619624
v 0.00594218 -0.00409490 0.00744862
v 0.00594218 -0.00211386 0.00823296
v 0.00594217 0.00000001 0.00850001
v -0.00105376 0.00343521 0.00363309
v -0.00087086 0.00403106 0.00444417
v -0.00070775 0.00315081 0.00388232
v -0.00063282 0.00389234 0.00456615
v -0.00063283 0.00311331 0.00391246
v -0.00035577 0.00302057 0.00398450
v -0.00035599 0.00380291 0.00464089
v -0.00005782 0.00298834 0.00400871
v -0.00005782 0.00377185 0.00466617
v 0.00024014 0.00302057 0.00398450
v 0.00024022 0.00380288 0.00464092
v 0.00051718 0.00311331 0.00391246
v 0.00051717 0.00389234 0.00456614
v 0.00075560 0.00325673 0.00379390
v 0.00075522 0.00403107 0.00444415
v 0.00093811 0.00343521 0.00363308
v 0.00093810 0.00420552 0.00427944
v 0.00106903 0.00367862 0.00338640
v 0.00105193 0.00439662 0.00408286
v 0.00109217 0.00383023 0.00321394
v 0.00109215 0.00459143 0.00386248
v 0.00105285 0.00401508 0.00297979
v 0.00105284 0.00478228 0.00362351
v 0.00093811 0.00417442 0.00275213
v 0.00093811 0.00494473 0.00339849
v 0.00075548 0.00430186 0.00254833
v 0.00075545 0.00507650 0.00319831
v 0.00051718 0.00439364 0.00238661
v 0.00051718 0.00517268 0.00304029
v 0.00024015 0.00444848 0.00228277
v 0.00023980 0.00523083 0.00293912
v -0.00005782 0.00446675 0.00224682
v -0.00005782 0.00525027 0.00290426
v -0.00035580 0.00444848 0.00228277
v -0.00035666 0.00523067 0.00293940
v -0.00063282 0.00439365 0.00238660
v -0.00063283 0.00517268 0.00304029
v -0.00087095 0.00430195 0.00254817
v -0.00087092 0.00507660 0.00319814
v -0.00105376 0.00417442 0.00275214
v -0.00105376 0.00494473 0.00339850
v -0.00116862 0.00401480 0.00298016
v -0.00116864 0.00478191 0.00362399
v -0.00120782 0.00383025 0.00321390
v -0.00120782 0.00459627 0.00385671
v -0.00118468 0.00367862 0.00338640
v -0.00116766 0.00439683 0.00408262
v -0.00105375 0.00420552 0.00427945
v 0.00394217 -0.00955792 -0.01314020
v 0.00394218 -0.00973348 -0.01232077
v 0.00394218 -0.01023700 -0.01163846
v -0.00405782 -0.01023701 -0.01163846
v -0.00405783 -0.00973557 -0.01231613
v -0.00405783 -0.00955791 -0.01314020
v -0.00405783 -0.01055792 -0.01749999
v -0.00405783 -0.01017523 -0.01742388
v -0.00405782 -0.00985080 -0.01720711
v -0.00405782 -0.00963403 -0.01688267
v -0.00405782 -0.00955791 -0.01649999
v 0.00394218 -0.01055791 -0.01749999
v 0.00394218 -0.01005792 -0.01736602
v 0.00394218 -0.00969188 -0.01699999
v 0.00394218 -0.00955792 -0.01649999
v -0.00655782 -0.02255791 -0.00499999
v -0.00005782 -0.01155792 -0.02449999
v -0.00095207 -0.01162493 -0.02449998
v -0.00095207 -0.01162493 -0.01849999
v -0.00266113 -0.01215211 -0.02449999
v -0.00266113 -0.01215211 -0.01849999
v -0.00413887 -0.01315961 -0.02450000
v -0.00413886 -0.01315961 -0.01850000
v -0.00525398 -0.01455792 -0.02449999
v -0.00525398 -0.01455792 -0.01849999
v -0.00590738 -0.01622280 -0.02449999
v -0.00590740 -0.01622279 -0.01850000
v -0.00604105 -0.01800630 -0.02449999
v -0.00604105 -0.01800630 -0.01849999
v -0.00564307 -0.01974996 -0.02449999
v -0.00564307 -0.01974996 -0.01849999
v -0.00474881 -0.02129886 -0.02449998
v -0.00474881 -0.02129886 -0.01849998
v -0.00343774 -0.02251535 -0.02449999
v -0.00343774 -0.02251535 -0.01849999
v -0.00182635 -0.02329135 -0.02449999
v -0.00182635 -0.02329135 -0.01849999
v -0.00005782 -0.02355792 -0.02449998
v -0.00005782 -0.02355792 -0.01849999
v 0.00171071 -0.02329136 -0.02449998
v 0.00171071 -0.02329135 -0.01849999
v 0.00332209 -0.02251536 -0.02449998
v 0.00332209 -0.02251536 -0.01849999
v 0.00463317 -0.02129886 -0.02449999
v 0.00463316 -0.02129886 -0.01849999
v 0.00552742 -0.01974997 -0.02449999
v 0.00552742 -0.01974997 -0.01849999
v 0.00592540 -0.01800631 -0.02449999
v 0.00592541 -0.01800629 -0.01850000
v 0.00579174 -0.01622279 -0.02450000
v 0.00579174 -0.01622279 -0.01850000
v 0.00513833 -0.01455792 -0.02449998
v 0.00513833 -0.01455792 -0.01849999
v 0.00402322 -0.01315961 -0.02449998
v 0.00402322 -0.01315961 -0.01849999
v 0.00254548 -0.01215210 -0.02450000
v 0.00254549 -0.01215210 -0.01850000
v 0.00083643 -0.01162494 -0.02449999
v 0.00083643 -0.01162493 -0.01849999
v -0.00597043 -0.01485772 -0.01849998
v -0.00649166 -0.01663288 -0.01849999
v -0.00649166 -0.01848296 -0.01849999
v -0.00597043 -0.02025812 -0.01749999
v -0.00597043 -0.02025812 -0.01849999
v -0.00497019 -0.02181452 -0.01849999
v -0.00497019 -0.02181451 -0.01749998
v -0.00357199 -0.02302606 -0.01849998
v -0.00357199 -0.02302607 -0.01749998
v -0.00188908 -0.02379462 -0.01849998
v -0.00188908 -0.02379461 -0.01749999
v -0.00005782 -0.02405791 -0.01849998
v -0.00005782 -0.02405792 -0.01749998
v 0.00177345 -0.02379462 -0.01849999
v 0.00177343 -0.02379463 -0.01749999
v 0.00345634 -0.02302606 -0.01849999
v 0.00345634 -0.02302606 -0.01749999
v 0.00485455 -0.02181451 -0.01849999
v 0.00485455 -0.02181451 -0.01749999
v 0.00585479 -0.02025812 -0.01849999
v 0.00585479 -0.02025810 -0.01749999
v 0.00637602 -0.01848297 -0.01849999
v 0.00585478 -0.01485771 -0.01749999
v 0.00637602 -0.01663286 -0.01849999
v -0.00597042 -0.01485771 -0.01749999
v -0.00497020 -0.01330132 -0.01749999
v -0.00497020 -0.01330132 -0.01849999
v -0.00357199 -0.01208977 -0.01749999
v -0.00357199 -0.01208976 -0.01849999
v -0.00188908 -0.01132121 -0.01749999
v -0.00188908 -0.01132121 -0.01849999
v -0.00005782 -0.01105792 -0.01750000
v -0.00005782 -0.01105792 -0.01849999
v 0.00177344 -0.01132121 -0.01749998
v 0.00177344 -0.01132122 -0.01850000
v 0.00345634 -0.01208977 -0.01750000
v 0.00345635 -0.01208977 -0.01849999
v 0.00485456 -0.01330131 -0.01749999
v 0.00485455 -0.01330133 -0.01849999
v 0.00585479 -0.01485772 -0.01849998
v 0.00644217 -0.02430718 0.00372522
v 0.00644217 -0.01684074 0.01123596
v 0.00644218 -0.01889674 0.01050970
v 0.00644218 -0.02079280 0.00931833
v 0.00644217 -0.02237621 0.00773491
v 0.00644218 -0.02356759 0.00583886
v -0.00405782 -0.00246188 -0.01749999
v 0.00394218 -0.00246188 -0.01750001
v -0.00655781 -0.01889672 0.01050969
v -0.00655783 -0.01684074 0.01123596
v -0.00655782 -0.02430719 0.00372523
v -0.00655782 -0.02356758 0.00583885
v -0.00655783 -0.02237622 0.00773491
v -0.00655782 -0.02079280 0.00931834
v -0.00405783 -0.01621532 0.00650002
v -0.00405783 -0.01560558 0.00637050
v -0.00405781 -0.01510115 0.00600431
v -0.00405781 -0.01478911 0.00546470
v -0.00405783 -0.01472337 0.00484484
v -0.00405782 -0.01532329 0.00233384
v -0.00405783 -0.01549812 -0.00024192
v -0.00405782 -0.01524298 -0.00281096
v -0.00405783 -0.01456496 -0.00530203
v -0.00405782 -0.01348289 -0.00764601
v -0.00405782 -0.01202678 -0.00977787
v 0.00394218 -0.01202679 -0.00977787
v 0.00394218 -0.01348290 -0.00764601
v 0.00394217 -0.01456498 -0.00530204
v 0.00394218 -0.01524298 -0.00281097
v 0.00394217 -0.01549811 -0.00024192
v 0.00394218 -0.01532330 0.00233384
v 0.00394217 -0.01472337 0.00484486
v 0.00394218 -0.01621532 0.00650001
v 0.00394218 -0.01560558 0.00637049
v 0.00394218 -0.01510115 0.00600432
v 0.00394217 -0.01478911 0.00546471
v -0.00405782 0.00288998 0.01150000
v -0.00405782 0.00511518 0.01124927
v -0.00405782 0.00722882 0.01050969
v -0.00405782 0.00912488 0.00931831
v -0.00405783 -0.01478911 0.00546470
v -0.00405783 -0.01510115 0.00600431
v -0.00405782 -0.01036989 0.00650000
v -0.00405782 -0.00655607 0.01150000
v -0.00405782 -0.01036988 0.01150000
v -0.00405782 0.01121048 -0.00501925
v -0.00405783 0.00585864 -0.01304700
v -0.00405783 0.01288997 0.00149998
v -0.00405783 0.01288997 0.00052774
v -0.00405782 0.00461510 -0.01456515
v -0.00405783 0.01213144 -0.00329264
v -0.00405782 0.01269851 -0.00141974
v -0.00405783 0.01070829 0.00773489
v -0.00405782 0.01189966 0.00583883
v -0.00405782 0.01263926 0.00372520
v -0.00405782 0.00309904 -0.01581121
v -0.00405783 0.00136883 -0.01673719
v -0.00405782 -0.00050892 -0.01730744
v 0.00394217 -0.01621531 0.01136170
v 0.00394218 -0.01455789 0.01150002
v 0.00394218 0.00288998 0.01149999
v 0.00394218 0.00511519 0.01124927
v 0.00394218 0.00722881 0.01050968
v 0.00394218 0.01269851 -0.00141973
v 0.00394217 0.01189967 0.00583883
v 0.00394217 0.01070830 0.00773489
v 0.00394218 0.00912487 0.00931831
v 0.00394218 0.01213143 -0.00329264
v 0.00394219 0.01121047 -0.00501925
v 0.00394217 0.00585863 -0.01304700
v 0.00394218 0.00461512 -0.01456515
v 0.00394217 0.01288997 0.00052775
v 0.00394217 0.01288997 0.00150000
v 0.00394218 0.01263925 0.00372520
v 0.00394217 -0.00050892 -0.01730745
v 0.00394217 0.00136882 -0.01673720
v 0.00394218 0.00309905 -0.01581121
v -0.00555782 0.00000000 -0.00500000
v -0.00013486 0.00477600 0.00363179
v -0.00007795 0.00449787 0.00397104
v -0.00013486 0.00504625 -0.00324582
v -0.00007794 0.00526992 -0.00286843
v 0.00189676 -0.01911664 -0.02449999
v 0.00102688 -0.01981035 -0.02449998
v -0.00005782 -0.02005792 -0.02449999
v -0.00114253 -0.01530549 -0.02449999
v -0.00201240 -0.01599920 -0.02449998
v -0.00114253 -0.01981034 -0.02449999
v -0.00201240 -0.01911664 -0.02449999
v -0.00249514 -0.01811422 -0.02449999
v 0.00237950 -0.01700162 -0.02449998
v 0.00237949 -0.01811423 -0.02449998
v -0.00005783 -0.01505792 -0.02450000
v -0.00249514 -0.01700161 -0.02449999
v 0.00189676 -0.01599919 -0.02449998
v 0.00102689 -0.01530550 -0.02449998
v -0.00005783 -0.01755792 -0.01899784
v -0.00005782 -0.01505792 -0.02049999
v 0.00102688 -0.01530549 -0.02049999
v 0.00237949 -0.01700162 -0.02049999
v 0.00237949 -0.01811421 -0.02049999
v 0.00189675 -0.01599919 -0.02050000
v 0.00102688 -0.01981034 -0.02049999
v -0.00005782 -0.02005792 -0.02049999
v 0.00189675 -0.01911665 -0.02049999
v -0.00201240 -0.01911664 -0.02049998
v -0.00249514 -0.01811422 -0.02049998
v -0.00114253 -0.01981035 -0.02049999
v -0.00201240 -0.01599919 -0.02049999
v -0.00114253 -0.01530550 -0.02049999
v -0.00249514 -0.01700162 -0.02049999
v -0.00405783 -0.01455789 0.01150001
v -0.00405781 -0.01621530 0.01136170
v 0.00624218 -0.01621532 0.01136170
v 0.00624218 -0.01664073 0.01128069
v -0.00635782 -0.01664073 0.01128070
v -0.00635782 -0.01621531 0.01136170
vn 0.72807435 -0.00000087 -0.68549817
vn 0.72891335 0.10709324 -0.67617776
vn 0.37871025 0.12310262 -0.91729182
vn 0.73643840 0.24903947 -0.62899748
vn 0.37229523 0.34166138 -0.86293903
vn 0.73643715 0.39763921 -0.54730556
vn 0.37229701 0.54553103 -0.75086006
vn 0.73643530 0.52125853 -0.43122221
vn 0.37228850 0.71512606 -0.59160459
vn 0.73643581 0.61212203 -0.28804324
vn 0.37229006 0.83978456 -0.39517339
vn 0.73643607 0.66452364 -0.12676850
vn 0.37229030 0.91167648 -0.17391354
vn 0.73643489 0.67517343 0.04247930
vn 0.37229491 0.92628313 0.05827579
vn 0.73643608 0.64339641 0.20905252
vn 0.37229198 0.88269077 0.28680253
vn 0.73643557 0.57119606 0.36248823
vn 0.37228590 0.78363761 0.49730805
vn 0.73643638 0.46310205 0.49315104
vn 0.37229128 0.63533979 0.67656674
vn 0.73643539 0.32591149 0.59282765
vn 0.37229557 0.44712372 0.81331199
vn 0.73643673 0.16824005 0.65525280
vn 0.37229919 0.23081305 0.89895420
vn 0.73643228 -0.00000092 0.67651127
vn 0.37229102 0.00000141 0.92811605
vn 0.73643457 -0.16824101 0.65525498
vn 0.37228723 -0.23081259 0.89895927
vn 0.73643926 -0.32591004 0.59282364
vn 0.37228531 -0.44712177 0.81331776
vn 0.73643378 -0.46310179 0.49315517
vn 0.37229252 -0.63533817 0.67656758
vn 0.73643418 -0.57119415 0.36249406
vn 0.37229056 -0.78363378 0.49731060
vn 0.73643622 -0.64339593 0.20905351
vn 0.37229475 -0.88268943 0.28680306
vn 0.73643618 -0.67517212 0.04247779
vn 0.37229335 -0.92628374 0.05827607
vn 0.73643793 -0.66452232 -0.12676458
vn 0.37228268 -0.91168037 -0.17390949
vn 0.73643410 -0.61212505 -0.28804119
vn 0.37229017 -0.83978546 -0.39517137
vn 0.73643445 -0.52125945 -0.43122255
vn 0.37228872 -0.71512744 -0.59160279
vn 0.73643453 -0.39764295 -0.54730637
vn 0.37228966 -0.54553351 -0.75086190
vn 0.73643725 -0.24903896 -0.62899902
vn 0.37228819 -0.34166316 -0.86294136
vn 0.72891788 -0.10709628 -0.67617240
vn 0.37870669 -0.12310607 -0.91729283
vn -0.73300785 -0.17319898 0.65780058
vn -0.73300759 -0.00416982 0.68020768
vn -0.36932544 -0.01082450 0.92923708
vn -0.34642032 -0.10343326 0.93235965
vn -0.41196375 -0.24961616 0.87634333
vn -0.73300164 -0.33134657 0.59406906
vn -0.35250003 -0.32275320 0.87839291
vn -0.41196235 -0.45970865 0.78673692
vn -0.73301143 -0.46867369 0.49299008
vn -0.35250813 -0.53106280 0.77052600
vn -0.41197217 -0.64091988 0.64768869
vn -0.73300761 -0.57655199 0.36095380
vn -0.35251117 -0.70600200 0.61424511
vn -0.41196533 -0.78186085 0.46795103
vn -0.73300659 -0.64820537 0.20623080
vn -0.35249765 -0.83658020 0.41937927
vn -0.41195877 -0.87367333 0.25881437
vn -0.73300815 -0.67912670 0.03854852
vn -0.35250931 -0.91459012 0.19814667
vn -0.41196224 -0.91058832 0.03340691
vn -0.73300957 -0.66737577 -0.13155434
vn -0.35250037 -0.93513725 -0.03552198
vn -0.41196226 -0.89028812 -0.19409833
vn -0.73300922 -0.61369327 -0.29339062
vn -0.35250149 -0.89692430 -0.26696349
vn -0.41196669 -0.81404726 -0.40940262
vn -0.73300994 -0.52144933 -0.43679174
vn -0.35250769 -0.80235149 -0.48163307
vn -0.41196223 -0.68665843 -0.59898858
vn -0.72807155 -0.40668447 -0.55183290
vn -0.35249994 -0.65736934 -0.66604004
vn -0.41990284 -0.52312383 -0.74163540
vn -0.37437341 -0.45447227 -0.80826945
vn -0.72661383 -0.25291986 -0.63879879
vn -0.39502919 -0.33818708 -0.85415539
vn -0.36829812 -0.23120861 -0.90049935
vn -0.72401634 -0.09909599 -0.68262752
vn -0.39502850 -0.11513769 -0.91142515
vn -0.72151848 -0.00000104 -0.69239518
vn -0.37737438 -0.00000501 -0.92606078
vn -0.72401679 0.09909699 -0.68262690
vn -0.39502453 0.11513856 -0.91142676
vn -0.36829106 0.23120940 -0.90050203
vn -0.72661541 0.25291576 -0.63879861
vn -0.39503231 0.33818172 -0.85415607
vn -0.36829847 0.44789194 -0.81470795
vn -0.72661198 0.40383479 -0.55583495
vn -0.39502889 0.53997737 -0.74322044
vn -0.36829488 0.63642566 -0.67773244
vn -0.72661492 0.52937779 -0.43793826
vn -0.39502931 0.70784755 -0.58557979
vn -0.36829599 0.78497818 -0.49816395
vn -0.72661496 0.62165683 -0.29252945
vn -0.39503480 0.83123329 -0.39115052
vn -0.36829911 0.88420428 -0.28729523
vn -0.72661065 0.67487974 -0.12874120
vn -0.39502672 0.90239702 -0.17214387
vn -0.36829061 0.92787623 -0.05837571
vn -0.72661386 0.68569043 0.04313861
vn -0.39503080 0.91685513 0.05768303
vn -0.36829686 0.91324095 0.17420787
vn -0.72661269 0.65342087 0.21230914
vn -0.39503048 0.87370459 0.28388591
vn -0.36829775 0.84122433 0.39585147
vn -0.72661266 0.58009374 0.36813760
vn -0.39502561 0.77566044 0.49224552
vn -0.36828918 0.71635709 0.59261758
vn -0.73154696 0.46025830 0.50299239
vn -0.38703700 0.62319491 0.67958110
vn -0.73300744 0.32403823 0.59807969
vn -0.34642156 0.56284750 0.75046305
vn -0.41196465 0.41793623 0.80970021
vn -0.73300811 0.16512237 0.65987401
vn -0.35250341 0.36602057 0.86126087
vn -0.41196654 0.20344220 0.88819752
vn -0.35250614 0.14033386 0.92522745
vn 0.94017532 0.07668213 0.33194912
vn 0.85874641 0.35568594 0.36883887
vn 0.95687699 0.26732396 0.11368523
vn 0.57734848 -0.57734991 -0.57735242
vn 0.18574192 -0.97378134 -0.13133868
vn 0.97378123 -0.18574171 -0.13133978
vn 0.69470292 -0.71816520 0.04033114
vn -0.69470185 -0.71816637 0.04032872
vn -0.57735168 -0.57735022 -0.57734891
vn -0.18574377 -0.97378089 -0.13133940
vn -0.29710840 -0.71728268 -0.63026356
vn 0.29710772 -0.71728634 -0.63025971
vn -0.17375322 -0.17081306 0.96986222
vn -0.15608510 -0.17993592 0.97121599
vn -0.34260301 -0.21027670 0.91564561
vn -0.31018715 -0.22667525 0.92325634
vn -0.49630804 -0.27785186 0.82248202
vn -0.45591504 -0.29556335 0.83951402
vn -0.62083350 -0.37064943 0.69078562
vn -0.57398626 -0.39079136 0.71959842
vn -0.70148696 -0.48110749 0.52578667
vn -0.65468982 -0.52046491 0.54817654
vn -0.72912789 -0.59466196 0.33874723
vn -0.68613793 -0.63437552 0.35606523
vn -0.70022843 -0.69796411 0.15008748
vn -0.65859259 -0.73448381 0.16367446
vn -0.61822465 -0.78564224 -0.02376008
vn -0.57368262 -0.81896992 -0.01328623
vn -0.49328842 -0.85361893 -0.16733577
vn -0.44949689 -0.87958246 -0.15584368
vn -0.34029201 -0.90051716 -0.27068468
vn -0.30611956 -0.91709165 -0.25540891
vn -0.17292796 -0.92742564 -0.33162871
vn -0.15454241 -0.93714045 -0.31286485
vn 0.00009797 -0.93619447 -0.35148244
vn 0.00000217 -0.94108437 -0.33817186
vn 0.17301811 -0.92754299 -0.33125329
vn 0.15454668 -0.93710953 -0.31295536
vn 0.34013739 -0.90070528 -0.27025277
vn 0.30613830 -0.91709933 -0.25535888
vn 0.49301150 -0.85382602 -0.16709516
vn 0.44951770 -0.87957395 -0.15583163
vn 0.61799217 -0.78582625 -0.02372301
vn 0.57370496 -0.81895297 -0.01336591
vn 0.70052906 -0.69741983 0.15121052
vn 0.65875656 -0.73434224 0.16364984
vn 0.72932078 -0.59265835 0.34182930
vn 0.68590599 -0.63428234 0.35667756
vn 0.70174150 -0.47985160 0.52659407
vn 0.65385859 -0.52108099 0.54858321
vn 0.62136578 -0.37051678 0.69037807
vn 0.57390156 -0.39153907 0.71925945
vn 0.49547058 -0.27860985 0.82273049
vn 0.45585398 -0.29552408 0.83956100
vn 0.34202007 -0.21194202 0.91547958
vn 0.31032977 -0.22660936 0.92322459
vn 0.17421675 -0.17219183 0.96953520
vn 0.15636315 -0.18007901 0.97114474
vn 0.00049265 -0.15846469 0.98736452
vn 0.00013544 -0.15037461 0.98862908
vn 0.65779026 0.37785686 0.65156440
vn 0.91405081 0.04477314 0.40312092
vn 0.70566130 0.70703405 -0.04631394
vn 0.36808918 0.92741776 -0.06638256
vn 0.36491571 0.88644951 0.28468193
vn 0.90844936 0.41737425 -0.02277057
vn 0.90591220 0.40267463 0.13105814
vn 0.36557838 0.69452685 0.61966516
vn 0.90534054 0.31687316 0.28275415
vn 0.36570777 0.38052221 0.84938841
vn 0.90533696 0.17361028 0.38758801
vn 0.93085406 0.36099501 -0.05650943
vn 0.38964240 0.90977781 -0.14311932
vn 0.38946831 0.92098969 0.00961408
vn 0.93102084 0.36494551 0.00386892
vn 0.38955909 0.90641039 0.16329091
vn 0.93101462 0.35919160 0.06475468
vn 0.38969037 0.86635538 0.31236161
vn 0.93102031 0.34332425 0.12381298
vn 0.38978840 0.80198014 0.45265091
vn 0.93101412 0.31784562 0.17940697
vn 0.38990527 0.71507707 0.58020571
vn 0.93101388 0.28342957 0.22995833
vn 0.37485478 0.70726512 0.59938297
vn 0.91710558 0.30571969 0.25583750
vn 0.91395679 0.40328656 0.04519885
vn 0.37271030 0.92290860 0.09657511
vn 0.36564481 0.84806963 0.38351242
vn 0.90517822 0.38727330 0.17513359
vn 0.37349605 0.92331389 -0.08939884
vn 0.91475934 0.40186578 -0.04146367
vn 0.91477299 0.04145582 -0.40183552
vn 0.37352139 0.08940651 -0.92330290
vn 0.37110049 0.29973983 -0.87888592
vn 0.91004912 0.15079100 -0.38609930
vn 0.37904789 0.48876447 -0.78576841
vn 0.91156617 0.29072895 -0.29072977
vn 0.37136518 0.65654269 -0.65653606
vn 0.37906324 0.78575186 -0.48877917
vn 0.91004470 0.38610886 -0.15079320
vn 0.37107545 0.87889107 -0.29975573
vn 0.99821130 0.01229304 -0.05850715
vn 0.91024019 0.05279142 -0.41070166
vn 0.88436943 0.16026974 -0.43841114
vn 0.57324101 -0.41594195 -0.70596532
vn 0.89509050 -0.14919462 -0.42018325
vn 0.90540959 -0.30020377 -0.30018522
vn 0.91351988 -0.06632876 -0.40135012
vn -0.85872189 0.35571023 0.36887253
vn -0.94016522 0.07668587 0.33197686
vn -0.95686930 0.26734745 0.11369473
vn -0.91403954 0.04477835 0.40314591
vn -0.65782898 0.37777829 0.65157087
vn -0.70620500 0.70656409 -0.04518508
vn -0.90805322 0.41830806 -0.02139427
vn -0.90572485 0.40332173 0.13036132
vn -0.36578498 0.88627039 0.28412347
vn -0.36861494 0.92722948 -0.06609474
vn -0.90533090 0.31689017 0.28276596
vn -0.36608927 0.69429788 0.61962012
vn -0.90532653 0.17361477 0.38761035
vn -0.36595335 0.38036866 0.84935141
vn -0.39066563 0.90939976 -0.14273205
vn -0.37491361 0.70729487 0.59931106
vn -0.91710623 0.30571621 0.25583932
vn -0.39014735 0.71508824 0.58002918
vn -0.93101287 0.28343160 0.22995991
vn -0.39027679 0.80187217 0.45242132
vn -0.93101360 0.31784698 0.17940726
vn -0.39040622 0.86612170 0.31211565
vn -0.93101384 0.34333933 0.12381974
vn -0.39055602 0.90602343 0.16305683
vn -0.93101978 0.35917882 0.06475143
vn -0.39067483 0.92048039 0.00943579
vn -0.93101531 0.36495960 0.00387120
vn -0.93085646 0.36098856 -0.05651122
vn -0.36562713 0.84808110 0.38350390
vn -0.90516835 0.38729358 0.17513976
vn -0.37269669 0.92291445 0.09657165
vn -0.91395015 0.40330151 0.04519976
vn -0.91137531 0.40758925 -0.05714930
vn -0.37250261 0.92067786 -0.11659370
vn -0.36876909 0.83195071 -0.41456890
vn -0.90582301 0.37440657 -0.19825335
vn -0.38105591 0.65237915 -0.65513193
vn -0.90581723 0.19826717 -0.37441324
vn -0.36409723 0.41541613 -0.83358421
vn -0.37017664 0.11862974 -0.92135565
vn -0.91136507 0.05715517 -0.40761133
vn -0.89509638 0.14919180 -0.42017172
vn -0.91351330 0.06632591 -0.40136556
vn -0.99941270 -0.00000007 -0.03426731
vn -0.91352515 -0.06632682 -0.40133844
vn -0.90541045 -0.30020173 -0.30018466
vn -0.88436907 -0.16026999 -0.43841177
vn -0.57323964 -0.41594044 -0.70596733
vn -0.93493431 0.21205958 -0.28447948
vn -0.93502266 0.11366281 -0.33587704
vn -0.38295346 0.30286946 -0.87270656
vn -0.34276364 0.42074709 -0.83993153
vn -0.38375875 0.56264915 -0.73222616
vn -0.93488938 0.28963795 -0.20516261
vn -0.35018720 0.66435262 -0.66030638
vn -0.38456569 0.76473716 -0.51699740
vn -0.93490275 0.33876206 -0.10581647
vn -0.35722309 0.83771209 -0.41307400
vn -0.38536340 0.88850666 -0.24910031
vn -0.93499072 0.35465300 0.00368879
vn -0.36381974 0.92316011 -0.12413948
vn -0.38615885 0.92137856 0.04407834
vn -0.93516389 0.33588516 0.11247067
vn -0.36993052 0.91217531 0.17631679
vn -0.38693872 0.86006710 0.33251017
vn -0.93544929 0.28446635 0.20979398
vn -0.37554290 0.80624112 0.45710260
vn -0.38772917 0.71088861 0.58677379
vn -0.93585307 0.20571375 0.28611340
vn -0.38057025 0.61672307 0.68907107
vn -0.38850043 0.48917837 0.78087895
vn -0.93639668 0.10760372 0.33403996
vn -0.38500031 0.36363944 0.84825770
vn -0.38927774 0.21766920 0.89503238
vn -0.93708464 -0.00000081 0.34910224
vn -0.70711898 -0.00000322 0.70709459
vn -0.93614304 -0.10698032 0.33494986
vn -0.38927276 -0.21766036 0.89503670
vn -0.38614265 -0.36210484 0.84839492
vn -0.93512800 -0.20633171 0.28803272
vn -0.38941315 -0.49007843 0.77985930
vn -0.38265195 -0.61352315 0.69077263
vn -0.93432226 -0.28672282 0.21173557
vn -0.38919497 -0.71226994 0.58412225
vn -0.37910470 -0.80189729 0.46177957
vn -0.93369602 -0.33963106 0.11341289
vn -0.39289785 -0.86062838 0.32396000
vn -0.38127987 -0.90567519 0.18541337
vn -0.93321789 -0.35929987 0.00282244
vn -0.38976517 -0.92010135 0.03868608
vn -0.37551177 -0.91975757 -0.11417936
vn -0.93286128 -0.34337643 -0.10891491
vn -0.38983478 -0.88488205 -0.25497569
vn -0.37341544 -0.83706867 -0.39984615
vn -0.93261162 -0.29315992 -0.21045860
vn -0.38981056 -0.75873384 -0.52189145
vn -0.37144441 -0.66818348 -0.64463934
vn -0.93243969 -0.21354792 -0.29146784
vn -0.39448391 -0.55002426 -0.73610852
vn -0.37396403 -0.43266871 -0.82033450
vn -0.93234353 -0.11244041 -0.34364617
vn -0.38997990 -0.29190232 -0.87333196
vn -0.37018396 -0.14864351 -0.91698906
vn -0.93470310 0.00667687 -0.35536676
vn -0.38214063 0.01192179 -0.92402728
vn -0.33494501 0.13194389 -0.93295372
vn 0.93513087 0.20632900 0.28802535
vn 0.93614476 0.10697901 0.33494548
vn 0.38615031 0.36208461 0.84840007
vn 0.38942310 0.49009984 0.77984088
vn 0.38336326 0.61359544 0.69031388
vn 0.93432159 0.28672559 0.21173474
vn 0.38954548 0.71198441 0.58423670
vn 0.38056966 0.80193351 0.46050991
vn 0.93369295 0.33963806 0.11341723
vn 0.38966135 0.86042692 0.32837409
vn 0.37791696 0.90762240 0.18275763
vn 0.93321963 0.35929534 0.00282412
vn 0.38977438 0.92009707 0.03869524
vn 0.37552167 0.91975496 -0.11416784
vn 0.93286310 0.34337071 -0.10891734
vn 0.38984597 0.88487955 -0.25496727
vn 0.37346500 0.83712525 -0.39968139
vn 0.93260741 0.29316858 -0.21046521
vn 0.38989875 0.75839567 -0.52231693
vn 0.37184942 0.66827931 -0.64430643
vn 0.93243904 0.21354828 -0.29146968
vn 0.38994966 0.55370146 -0.73576760
vn 0.37074579 0.43062503 -0.82286672
vn 0.93234339 0.11243773 -0.34364745
vn 0.38997850 0.29189841 -0.87333389
vn 0.37018496 0.14863724 -0.91698968
vn 0.93470418 -0.00667752 -0.35536392
vn 0.38214114 -0.01192366 -0.92402704
vn 0.93502393 -0.11366185 -0.33587384
vn 0.33494476 -0.13194103 -0.93295422
vn 0.38295355 -0.30286958 -0.87270648
vn 0.93493519 -0.21205916 -0.28447689
vn 0.34601989 -0.42284751 -0.83753819
vn 0.38832585 -0.55900377 -0.73261028
vn 0.93489071 -0.28963485 -0.20516094
vn 0.35019566 -0.66435084 -0.66030369
vn 0.38729426 -0.76486101 -0.51477256
vn 0.93490341 -0.33876178 -0.10581151
vn 0.35870233 -0.83644145 -0.41436498
vn 0.38536373 -0.88850852 -0.24909316
vn 0.93498806 -0.35466002 0.00368722
vn 0.36381194 -0.92316159 -0.12415131
vn 0.38614961 -0.92138320 0.04406217
vn 0.93516592 -0.33587936 0.11247114
vn 0.37331955 -0.91027019 0.17899914
vn 0.39017812 -0.86028799 0.32812437
vn 0.93545032 -0.28446218 0.20979507
vn 0.37406961 -0.80620693 0.45836919
vn 0.38737012 -0.71117190 0.58666764
vn 0.93585452 -0.20570925 0.28611190
vn 0.37986612 -0.61665211 0.68952296
vn 0.38849663 -0.48915529 0.78089530
vn 0.93639466 -0.10760424 0.33404547
vn 0.38499226 -0.36363532 0.84826312
vn 0.38926825 -0.21766301 0.89503801
vn 0.93708169 0.00000025 0.34911017
vn 0.39685756 0.00000128 0.91788021
vn 0.38927531 0.21764084 0.89504033
vn -0.91806143 -0.09859030 -0.38398330
vn -0.91805939 -0.00000121 -0.39644287
vn -0.91546890 -0.20144953 -0.34833142
vn -0.91532975 -0.28044055 -0.28900614
vn -0.91532922 -0.34350337 -0.21018530
vn -0.91532795 -0.38498563 -0.11815587
vn -0.91532812 -0.40227435 -0.01870232
vn -0.91533161 -0.39428020 0.08192172
vn -0.91532560 -0.36152971 0.17741282
vn -0.91533048 -0.30604335 0.26173954
vn -0.91533155 -0.23133590 0.32962382
vn -0.91532893 -0.14209545 0.37680478
vn -0.91807109 -0.05621846 0.39240917
vn -0.91842680 -0.00000211 0.39559097
vn -0.91561410 0.06345893 0.39701862
vn -0.91533038 0.15435600 0.37194693
vn -0.91790652 0.23151076 0.32225825
vn -0.91805851 0.30546789 0.25270130
vn -0.91806097 0.35870900 0.16879543
vn -0.91806078 0.38941748 0.07428614
vn -0.91806053 0.39565788 -0.02489383
vn -0.91806225 0.37703301 -0.12250644
vn -0.91806154 0.33472375 -0.21242180
vn -0.91806023 0.27138150 -0.28899393
vn -0.91806070 0.19098554 -0.34740333
vn -0.91805972 0.09859118 -0.38398714
vn 0.91289813 0.10151284 0.39536331
vn 0.91289583 0.19664703 0.35770260
vn 0.91289531 0.27942689 0.29756137
vn 0.91289219 0.34465643 0.21872308
vn 0.91289387 0.38821914 0.12613757
vn 0.91289590 0.40738692 0.02563144
vn 0.91289501 0.40096407 -0.07648865
vn 0.91289363 0.36934776 -0.17380292
vn 0.91289457 0.31451903 -0.26019472
vn 0.91289712 0.23992759 -0.33023265
vn 0.91289409 0.15026722 -0.37953147
vn 0.91289433 0.05116208 -0.40497701
vn 0.91289101 -0.05116317 -0.40498436
vn 0.91289165 -0.15026942 -0.37953648
vn 0.91289475 -0.23993190 -0.33023606
vn 0.91289309 -0.31452391 -0.26019399
vn 0.91289470 -0.36934532 -0.17380249
vn 0.91288966 -0.40097665 -0.07648656
vn 0.91289384 -0.40739160 0.02563044
vn 0.91289577 -0.38821477 0.12613729
vn 0.91289485 -0.34464926 0.21872331
vn 0.91289636 -0.27942647 0.29755855
vn 0.91289374 -0.19665046 0.35770606
vn 0.91289302 -0.10151294 0.39537509
vn 0.91289398 0.00000170 0.40819674
vn 0.55561386 -0.25346607 -0.79186375
vn 0.49452793 -0.13517539 -0.85858590
vn 0.40377112 -0.10632721 -0.90866023
vn 0.33772649 -0.05534116 -0.93961597
vn 0.29017846 -0.04087644 -0.95609915
vn 0.15594266 -0.01035551 -0.98771182
vn 0.17301237 -0.00595900 -0.98490163
vn 0.00000744 0.02132124 -0.99977268
vn 0.00010517 0.01011703 -0.99994882
vn -0.15595587 -0.01035921 -0.98770970
vn -0.17294244 -0.00558679 -0.98491609
vn -0.30980896 -0.06405539 -0.94863866
vn -0.34031463 -0.05361599 -0.93878181
vn -0.45532484 -0.14630825 -0.87822160
vn -0.49328196 -0.13469922 -0.85937711
vn -0.57797901 -0.26933534 -0.77032379
vn -0.62095368 -0.24615306 -0.74419433
vn -0.66073344 -0.42641269 -0.61774068
vn -0.70118347 -0.37642666 -0.60551194
vn -0.68984625 -0.56661868 -0.45061672
vn -0.72951676 -0.52178582 -0.44220455
vn -0.66314326 -0.69037456 -0.28917812
vn -0.70206310 -0.65793100 -0.27245954
vn -0.57432923 -0.80845962 -0.12860393
vn -0.62083392 -0.77589960 -0.11200469
vn -0.45000280 -0.89302636 0.00118464
vn -0.49628974 -0.86792202 0.02019569
vn -0.30637934 -0.94737653 0.09278691
vn -0.34261372 -0.93233949 0.11558075
vn -0.15458979 -0.97706255 0.14646080
vn -0.17374912 -0.96979627 0.17119121
vn 0.00000845 -0.98510559 0.17195052
vn 0.00044628 -0.98202132 0.18876950
vn 0.15455622 -0.97706137 0.14650409
vn 0.17425567 -0.96995216 0.16978740
vn 0.30637301 -0.94737129 0.09286130
vn 0.34202601 -0.93275437 0.11396268
vn 0.44994436 -0.89305578 0.00120665
vn 0.49546320 -0.86840800 0.01958991
vn 0.57433578 -0.80844485 -0.12866756
vn 0.62058358 -0.77609666 -0.11202674
vn 0.65533812 -0.69884116 -0.28662342
vn 0.70151811 -0.65880724 -0.27174502
vn 0.68527725 -0.56641182 -0.45779114
vn 0.72831953 -0.52571864 -0.43951173
vn 0.66277936 -0.42359898 -0.61748476
vn 0.69932903 -0.38030298 -0.60523429
vn 0.61800456 -0.24651950 -0.74652428
vn 0.73166557 0.67786115 0.07190101
vn 0.75776188 0.59498931 0.26792659
vn 0.72198979 0.52874278 0.44627549
vn -0.72185423 0.52868755 0.44656012
vn -0.75776155 0.59456401 0.26886999
vn -0.73175533 0.67772958 0.07222717
vn -0.03452673 0.05119418 -0.99809171
vn -0.75616464 0.24756757 -0.60574362
vn -0.75262232 0.46450563 -0.46668422
vn -0.75280742 0.60873722 -0.25043957
vn -0.72985225 0.68031273 -0.06700952
vn 0.03939704 0.06334907 -0.99721350
vn 0.76627275 0.32059958 -0.55681413
vn 0.76628211 0.55680065 -0.32060062
vn 0.73600380 0.67149200 -0.08600519
vn -0.97378118 -0.18574230 -0.13133929
vn -0.00000131 0.72355245 -0.69026941
vn -0.13583581 0.71791316 -0.68275129
vn -0.10250652 0.66415950 -0.74052993
vn -0.32010496 0.66471069 -0.67505001
vn -0.29075709 0.60377558 -0.74223673
vn -0.50181290 0.54082472 -0.67504995
vn -0.45580897 0.49124828 -0.74223534
vn -0.63893323 0.36888312 -0.67504783
vn -0.58035355 0.33506532 -0.74224052
vn -0.71927379 0.16416930 -0.67505086
vn -0.65333450 0.14912317 -0.74223737
vn -0.73571108 -0.05513142 -0.67504795
vn -0.66825374 -0.05008271 -0.74224569
vn -0.68677169 -0.26954116 -0.67504978
vn -0.62381268 -0.24482734 -0.74223804
vn -0.57681440 -0.45999582 -0.67504740
vn -0.52391839 -0.41781918 -0.74225107
vn -0.41560306 -0.60957624 -0.67504882
vn -0.37750333 -0.55369300 -0.74223668
vn -0.21746216 -0.70499621 -0.67504856
vn -0.19752772 -0.64036750 -0.74223464
vn 0.00000074 -0.73777353 -0.67504831
vn 0.00000002 -0.67013303 -0.74224101
vn 0.21746314 -0.70499850 -0.67504584
vn 0.19752401 -0.64035911 -0.74224287
vn 0.41559947 -0.60957907 -0.67504847
vn 0.37749377 -0.55368549 -0.74224715
vn 0.57681307 -0.45999418 -0.67504966
vn 0.52393215 -0.41782271 -0.74223937
vn 0.68677304 -0.26953830 -0.67504955
vn 0.62380614 -0.24482899 -0.74224299
vn 0.73571047 -0.05513375 -0.67504842
vn 0.66826173 -0.05007807 -0.74223881
vn 0.71927246 0.16417111 -0.67505183
vn 0.65333511 0.14912391 -0.74223669
vn 0.63892988 0.36888715 -0.67504880
vn 0.58035044 0.33506202 -0.74224444
vn 0.50181605 0.54082411 -0.67504809
vn 0.45580067 0.49123485 -0.74224933
vn 0.32010713 0.66470930 -0.67505034
vn 0.29076116 0.60376818 -0.74224116
vn 0.13583388 0.71791151 -0.68275341
vn 0.10250302 0.66416134 -0.74052876
vn -0.66136143 0.31373343 -0.68130198
vn -0.71777051 0.10150770 -0.68884083
vn -0.71813676 -0.10742531 -0.68756047
vn -0.60967580 -0.28461468 -0.73979045
vn -0.66995171 -0.30595438 -0.67642932
vn -0.55660589 -0.48230793 -0.67643843
vn -0.50783124 -0.44004293 -0.74058737
vn -0.39818515 -0.61958929 -0.67643012
vn -0.36328940 -0.56528713 -0.74058846
vn -0.20749862 -0.70667891 -0.67642387
vn -0.18931184 -0.64474635 -0.74058300
vn -0.00000306 -0.73650504 -0.67643205
vn -0.00000146 -0.67195882 -0.74058851
vn 0.20749845 -0.70666858 -0.67643471
vn 0.18931167 -0.64474456 -0.74058459
vn 0.39818188 -0.61958191 -0.67643880
vn 0.36328834 -0.56529102 -0.74058602
vn 0.55660807 -0.48230848 -0.67643624
vn 0.50783311 -0.44004133 -0.74058704
vn 0.66136079 -0.31373324 -0.68130270
vn 0.60990933 -0.29829431 -0.73418738
vn 0.71963965 -0.09627379 -0.68764099
vn 0.60967787 0.28461530 -0.73978850
vn 0.72501781 0.09722392 -0.68183333
vn -0.60990646 0.29829969 -0.73418758
vn -0.50783559 0.44004108 -0.74058549
vn -0.55661825 0.48230830 -0.67642799
vn -0.36329331 0.56529080 -0.74058375
vn -0.39818522 0.61958736 -0.67643184
vn -0.18931256 0.64473979 -0.74058852
vn -0.20749345 0.70666949 -0.67643529
vn 0.00000265 0.67195957 -0.74058783
vn -0.00000098 0.73649929 -0.67643832
vn 0.18931413 0.64473696 -0.74059059
vn 0.20749487 0.70666715 -0.67643730
vn 0.36328920 0.56529621 -0.74058163
vn 0.39818556 0.61958539 -0.67643344
vn 0.50783025 0.44003605 -0.74059213
vn 0.55660677 0.48229920 -0.67644392
vn 0.66995257 0.30595885 -0.67642644
vn 0.68275196 -0.71233169 0.16258327
vn 0.72642604 0.15541483 0.66944114
vn 0.68306345 -0.31786234 0.65756206
vn 0.68275374 -0.45555363 0.57124270
vn 0.68275285 -0.57124305 0.45555452
vn 0.68275297 -0.65829145 0.31701853
vn -0.69621668 0.03526019 -0.71696517
vn 0.69621642 0.03526106 -0.71696538
vn -0.68306257 -0.31786211 0.65756308
vn -0.72658508 0.15531120 0.66929258
vn -0.68275259 -0.71233082 0.16258443
vn -0.68275349 -0.65829092 0.31701852
vn -0.68275345 -0.57124687 0.45554884
vn -0.68275080 -0.45555009 0.57124904
vn -0.58916342 0.62791077 0.50854158
vn -0.75695125 0.26556528 0.59707612
vn 0.00042898 0.74270773 0.66961559
vn 0.00071295 0.95076664 0.30990691
vn -0.74712125 0.66329557 -0.04299784
vn -0.68850661 0.71711144 -0.10821199
vn -0.68830384 0.72533029 0.01156707
vn -0.68840805 0.71326476 0.13171083
vn -0.68850676 0.68144589 0.24817322
vn -0.68860336 0.63075535 0.35773327
vn -0.68869649 0.56260223 0.45735749
vn 0.68887757 0.56234688 0.45739882
vn 0.68896511 0.63036316 0.35772806
vn 0.68905240 0.68089707 0.24816519
vn 0.68913388 0.71255654 0.13174852
vn 0.68921866 0.72445884 0.01170618
vn 0.68929432 0.71628979 -0.10863827
vn 0.74754241 0.66280230 -0.04328346
vn 0.58922470 0.62792991 0.50844693
vn 0.75714280 0.26559483 0.59682005
vn 0.75724477 0.48517357 0.43724931
vn 0.75714731 0.62103912 0.20257928
vn -0.69470182 0.04033310 0.71816616
vn -0.68275426 0.16258541 0.71232900
vn -0.68275263 0.31701607 0.65829299
vn -0.68275292 0.45555325 0.57124398
vn -1.00000000 0.00000093 0.00000267
vn -1.00000000 0.00000101 0.00000255
vn -0.99999996 -0.00006486 0.00028123
vn -0.70710637 0.00000047 0.70710719
vn -0.70710764 0.00000041 0.70710592
vn -0.69624533 0.61603391 -0.36843543
vn -0.69621775 0.57698976 -0.42704059
vn -0.69470259 0.71816556 0.04033040
vn -0.69624816 0.71693963 -0.03515775
vn -0.68567411 0.51513839 -0.51427954
vn -0.68573401 0.67264150 -0.27806882
vn -0.68573125 0.71391853 -0.14174974
vn -0.68275493 0.57124492 0.45554906
vn -0.68275228 0.65829266 0.31701750
vn -0.68275119 0.71233164 0.16258675
vn -0.68567477 0.40478496 -0.60497871
vn -0.68567506 0.27883763 -0.67238329
vn -0.68567434 0.14215436 -0.71389273
vn 0.33015721 0.17016273 0.92846155
vn 0.69785800 -0.02980821 0.71561560
vn 0.69470152 0.04033116 0.71816655
vn 0.68275243 0.16258535 0.71233077
vn 0.68275271 0.31701772 0.65829211
vn 0.68573342 0.71391660 -0.14174893
vn 0.68275110 0.65829444 0.31701634
vn 0.68275223 0.57124541 0.45555249
vn 0.68275352 0.45555205 0.57124423
vn 0.68573364 0.67264162 -0.27806946
vn 0.69624903 0.61603240 -0.36843096
vn 0.69621542 0.57699542 -0.42703674
vn 0.68567446 0.51513988 -0.51427759
vn 0.69624516 0.71694257 -0.03515717
vn 0.69470152 0.71816661 0.04033006
vn 0.68275492 0.71232878 0.16258359
vn 0.68567266 0.14215945 -0.71389334
vn 0.68567443 0.27883869 -0.67238349
vn 0.68567437 0.40478204 -0.60498112
vn -0.00000025 -0.00000011 1.00000000
vn -0.00065274 -0.80756599 -0.58977686
vn -0.00015364 -0.72952274 -0.68395653
vn -0.00065451 -0.83040960 0.55715300
vn -0.00015305 -0.89222708 0.45158699
vn -0.50741043 0.40464440 -0.76078746
vn -0.28158859 0.58472646 -0.76079092
vn 0.00000358 0.64899886 -0.76078938
vn 0.28158813 -0.58472790 -0.76078999
vn 0.50741103 -0.40464640 -0.76078600
vn 0.28158949 0.58473152 -0.76078670
vn 0.50740835 0.40464287 -0.76078966
vn 0.63272847 0.14441430 -0.76078854
vn -0.63272982 -0.14441422 -0.76078743
vn -0.63272798 0.14441902 -0.76078804
vn -0.00000138 -0.64899698 -0.76079099
vn 0.63272847 -0.14441445 -0.76078851
vn -0.50740668 -0.40464544 -0.76078941
vn -0.28158848 -0.58473308 -0.76078588
vn 0.00000002 -0.00000067 -1.00000000
vn 0.00000185 -0.88546911 -0.46469825
vn -0.38419085 -0.79777886 -0.46470020
vn -0.86326867 -0.19703554 -0.46469797
vn -0.86326727 0.19703237 -0.46470191
vn -0.69229036 -0.55207862 -0.46469696
vn -0.38419072 0.79777854 -0.46470087
vn -0.00000251 0.88546798 -0.46470039
vn -0.69228783 0.55208212 -0.46469655
vn 0.69228771 0.55207944 -0.46469992
vn 0.86326888 0.19703094 -0.46469952
vn 0.38418925 0.79778205 -0.46469605
vn 0.69228693 -0.55208139 -0.46469877
vn 0.38418847 -0.79778135 -0.46469789
vn 0.86326982 -0.19703403 -0.46469647
vn -0.69785999 -0.02980702 0.71561370
vn -0.33009598 0.16872917 0.92874491
vn 0.56809742 0.52468350 0.63401306
vn 0.58358760 0.04019506 0.81105479
vn -0.58390799 0.04113129 0.81077721
vn -0.56809712 0.52468470 0.63401233
f 1//1 2//2 3//3
f 3//3 2//2 4//4
f 3//3 4//4 5//5
f 5//5 4//4 6//6
f 5//5 6//6 7//7
f 7//7 6//6 8//8
f 7//7 8//8 9//9
f 9//9 8//8 10//10
f 9//9 10//10 11//11
f 11//11 10//10 12//12
f 11//11 12//12 13//13
f 13//13 12//12 14//14
f 13//13 14//14 15//15
f 15//15 14//14 16//16
f 15//15 16//16 17//17
f 17//17 16//16 18//18
f 17//17 18//18 19//19
f 19//19 18//18 20//20
f 19//19 20//20 21//21
f 21//21 20//20 22//22
f 21//21 22//22 23//23
f 23//23 22//22 24//24
f 23//23 24//24 25//25
f 25//25 24//24 26//26
f 25//25 26//26 27//27
f 27//27 26//26 28//28
f 27//27 28//28 29//29
f 29//29 28//28 30//30
f 29//29 30//30 31//31
f 31//31 30//30 32//32
f 31//31 32//32 33//33
f 33//33 32//32 34//34
f 33//33 34//34 35//35
f 35//35 34//34 36//36
f 35//35 36//36 37//37
f 37//37 36//36 38//38
f 37//37 38//38 39//39
f 39//39 38//38 40//40
f 39//39 40//40 41//41
f 41//41 40//40 42//42
f 41//41 42//42 43//43
f 43//43 42//42 44//44
f 43//43 44//44 45//45
f 45//45 44//44 46//46
f 45//45 46//46 47//47
f 47//47 46//46 48//48
f 47//47 48//48 49//49
f 49//49 48//48 50//50
f 49//49 50//50 51//51
f 51//51 50//50 1//1
f 51//51 1//1 3//3
f 52//52 53//53 54//54
f 54//54 55//55 52//52
f 52//52 55//55 56//56
f 52//52 56//56 57//57
f 56//56 58//58 57//57
f 57//57 58//58 59//59
f 57//57 59//59 60//60
f 59//59 61//61 60//60
f 60//60 61//61 62//62
f 60//60 62//62 63//63
f 62//62 64//64 63//63
f 63//63 64//64 65//65
f 63//63 65//65 66//66
f 65//65 67//67 66//66
f 66//66 67//67 68//68
f 66//66 68//68 69//69
f 68//68 70//70 69//69
f 69//69 70//70 71//71
f 69//69 71//71 72//72
f 71//71 73//73 72//72
f 72//72 73//73 74//74
f 72//72 74//74 75//75
f 74//74 76//76 75//75
f 75//75 76//76 77//77
f 75//75 77//77 78//78
f 77//77 79//79 78//78
f 78//78 79//79 80//80
f 78//78 80//80 81//81
f 81//81 80//80 82//82
f 82//82 83//83 81//81
f 81//81 83//83 84//84
f 81//81 84//84 85//85
f 84//84 86//86 85//85
f 85//85 86//86 87//87
f 85//85 87//87 88//88
f 88//88 87//87 89//89
f 88//88 89//89 90//90
f 90//90 89//89 91//91
f 90//90 91//91 92//92
f 91//91 93//93 92//92
f 92//92 93//93 94//94
f 92//92 94//94 95//95
f 94//94 96//96 95//95
f 95//95 96//96 97//97
f 95//95 97//97 98//98
f 97//97 99//99 98//98
f 98//98 99//99 100//100
f 98//98 100//100 101//101
f 100//100 102//102 101//101
f 101//101 102//102 103//103
f 101//101 103//103 104//104
f 103//103 105//105 104//104
f 104//104 105//105 106//106
f 104//104 106//106 107//107
f 106//106 108//108 107//107
f 107//107 108//108 109//109
f 107//107 109//109 110//110
f 109//109 111//111 110//110
f 110//110 111//111 112//112
f 110//110 112//112 113//113
f 112//112 114//114 113//113
f 113//113 114//114 115//115
f 113//113 115//115 116//116
f 115//115 117//117 116//116
f 116//116 117//117 118//118
f 116//116 118//118 119//119
f 119//119 118//118 120//120
f 119//119 120//120 121//121
f 120//120 122//122 121//121
f 121//121 122//122 123//123
f 121//121 123//123 124//124
f 123//123 125//125 124//124
f 124//124 125//125 126//126
f 124//124 126//126 53//53
f 53//53 126//126 127//127
f 53//53 127//127 54//54
f 128//128 129//129 130//130
f 131//131 132//132 133//133
f 132//132 131//131 134//134
f 135//135 136//136 137//137
f 138//138 139//139 137//137
f 137//137 139//139 132//132
f 137//137 132//132 135//135
f 135//135 132//132 134//134
f 140//140 141//141 142//142
f 142//142 141//141 143//143
f 142//142 143//143 144//144
f 144//144 143//143 145//145
f 144//144 145//145 146//146
f 146//146 145//145 147//147
f 146//146 147//147 148//148
f 148//148 147//147 149//149
f 148//148 149//149 150//150
f 150//150 149//149 151//151
f 150//150 151//151 152//152
f 152//152 151//151 153//153
f 152//152 153//153 154//154
f 154//154 153//153 155//155
f 154//154 155//155 156//156
f 156//156 155//155 157//157
f 156//156 157//157 158//158
f 158//158 157//157 159//159
f 158//158 159//159 160//160
f 160//160 159//159 161//161
f 160//160 161//161 162//162
f 162//162 161//161 163//163
f 162//162 163//163 164//164
f 164//164 163//163 165//165
f 164//164 165//165 166//166
f 166//166 165//165 167//167
f 166//166 167//167 168//168
f 168//168 167//167 169//169
f 168//168 169//169 170//170
f 170//170 169//169 171//171
f 170//170 171//171 172//172
f 172//172 171//171 173//173
f 172//172 173//173 174//174
f 174//174 173//173 175//175
f 174//174 175//175 176//176
f 176//176 175//175 177//177
f 176//176 177//177 178//178
f 178//178 177//177 179//179
f 178//178 179//179 180//180
f 180//180 179//179 181//181
f 180//180 181//181 182//182
f 182//182 181//181 183//183
f 182//182 183//183 184//184
f 184//184 183//183 185//185
f 184//184 185//185 186//186
f 186//186 185//185 187//187
f 186//186 187//187 140//140
f 140//140 187//187 141//141
f 129//129 128//128 188//188
f 188//188 128//128 189//189
f 190//190 191//191 192//192
f 190//190 192//192 193//193
f 193//193 192//192 194//194
f 194//194 192//192 195//195
f 194//194 195//195 196//196
f 196//196 195//195 197//197
f 196//196 197//197 198//198
f 198//198 197//197 188//188
f 198//198 188//188 189//189
f 190//190 193//193 199//199
f 191//191 190//190 200//200
f 200//200 190//190 199//199
f 200//200 199//199 201//201
f 201//201 199//199 202//202
f 201//201 202//202 203//203
f 203//203 202//202 204//204
f 203//203 204//204 205//205
f 205//205 204//204 206//206
f 205//205 206//206 207//207
f 207//207 206//206 208//208
f 207//207 208//208 209//209
f 209//209 208//208 210//210
f 209//209 210//210 211//211
f 211//211 210//210 212//212
f 213//213 214//214 215//215
f 213//213 215//215 216//216
f 216//216 215//215 211//211
f 216//216 211//211 212//212
f 214//214 213//213 217//217
f 217//217 213//213 218//218
f 219//219 220//220 221//221
f 219//219 221//221 222//222
f 222//222 221//221 223//223
f 222//222 223//223 224//224
f 223//223 225//225 224//224
f 224//224 225//225 226//226
f 224//224 226//226 227//227
f 226//226 228//228 227//227
f 227//227 228//228 217//217
f 227//227 217//217 218//218
f 229//229 230//230 219//219
f 219//219 230//230 231//231
f 219//219 231//231 220//220
f 232//232 233//233 234//234
f 234//234 233//233 235//235
f 234//234 235//235 229//229
f 236//236 237//237 238//238
f 237//237 236//236 239//239
f 239//239 236//236 240//240
f 241//241 242//242 243//243
f 244//244 245//245 241//241
f 241//241 243//243 244//244
f 244//244 243//243 246//246
f 244//244 246//246 247//247
f 247//247 246//246 248//248
f 247//247 248//248 249//249
f 249//249 248//248 239//239
f 249//249 239//239 240//240
f 241//241 245//245 250//250
f 251//251 252//252 253//253
f 253//253 252//252 254//254
f 253//253 254//254 255//255
f 255//255 254//254 256//256
f 255//255 256//256 257//257
f 257//257 256//256 258//258
f 257//257 258//258 259//259
f 259//259 258//258 260//260
f 259//259 260//260 261//261
f 261//261 260//260 262//262
f 261//261 262//262 250//250
f 250//250 262//262 263//263
f 250//250 263//263 241//241
f 241//241 263//263 242//242
f 252//252 251//251 264//264
f 252//252 264//264 265//265
f 265//265 264//264 266//266
f 265//265 266//266 267//267
f 267//267 266//266 268//268
f 268//268 266//266 269//269
f 268//268 269//269 270//270
f 268//268 270//270 271//271
f 271//271 270//270 272//272
f 271//271 272//272 273//273
f 272//272 274//274 273//273
f 273//273 274//274 275//275
f 273//273 275//275 276//276
f 275//275 277//277 276//276
f 276//276 277//277 278//278
f 276//276 278//278 279//279
f 279//279 280//280 281//281
f 281//281 280//280 282//282
f 281//281 282//282 283//283
f 284//284 285//285 286//286
f 286//286 287//287 284//284
f 284//284 287//287 288//288
f 284//284 288//288 289//289
f 288//288 290//290 289//289
f 289//289 290//290 291//291
f 289//289 291//291 292//292
f 291//291 293//293 292//292
f 292//292 293//293 294//294
f 292//292 294//294 295//295
f 294//294 296//296 295//295
f 295//295 296//296 297//297
f 295//295 297//297 298//298
f 297//297 299//299 298//298
f 298//298 299//299 300//300
f 298//298 300//300 301//301
f 300//300 302//302 301//301
f 301//301 302//302 303//303
f 301//301 303//303 304//304
f 303//303 305//305 304//304
f 304//304 305//305 306//306
f 304//304 306//306 307//307
f 306//306 308//308 307//307
f 307//307 308//308 309//309
f 307//307 309//309 310//310
f 310//310 309//309 311//311
f 310//310 311//311 312//312
f 311//311 313//313 312//312
f 312//312 313//313 314//314
f 312//312 314//314 315//315
f 314//314 316//316 315//315
f 315//315 316//316 317//317
f 315//315 317//317 318//318
f 317//317 319//319 318//318
f 318//318 319//319 320//320
f 318//318 320//320 321//321
f 320//320 322//322 321//321
f 321//321 322//322 323//323
f 321//321 323//323 324//324
f 323//323 325//325 324//324
f 324//324 325//325 326//326
f 324//324 326//326 327//327
f 326//326 328//328 327//327
f 327//327 328//328 329//329
f 327//327 329//329 330//330
f 329//329 331//331 330//330
f 330//330 331//331 332//332
f 330//330 332//332 333//333
f 332//332 334//334 333//333
f 333//333 334//334 335//335
f 333//333 335//335 336//336
f 335//335 337//337 336//336
f 336//336 337//337 338//338
f 336//336 338//338 339//339
f 339//339 338//338 340//340
f 339//339 340//340 285//285
f 285//285 340//340 341//341
f 285//285 341//341 286//286
f 342//342 343//343 344//344
f 344//344 345//345 342//342
f 342//342 345//345 346//346
f 342//342 346//346 347//347
f 346//346 348//348 347//347
f 347//347 348//348 349//349
f 347//347 349//349 350//350
f 349//349 351//351 350//350
f 350//350 351//351 352//352
f 350//350 352//352 353//353
f 352//352 354//354 353//353
f 353//353 354//354 355//355
f 353//353 355//355 356//356
f 355//355 357//357 356//356
f 356//356 357//357 358//358
f 356//356 358//358 359//359
f 358//358 360//360 359//359
f 359//359 360//360 361//361
f 359//359 361//361 362//362
f 361//361 363//363 362//362
f 362//362 363//363 364//364
f 362//362 364//364 365//365
f 364//364 366//366 365//365
f 365//365 366//366 367//367
f 365//365 367//367 368//368
f 368//368 367//367 369//369
f 368//368 369//369 370//370
f 369//369 371//371 370//370
f 370//370 371//371 372//372
f 370//370 372//372 373//373
f 372//372 374//374 373//373
f 373//373 374//374 375//375
f 373//373 375//375 376//376
f 375//375 377//377 376//376
f 376//376 377//377 378//378
f 376//376 378//378 379//379
f 378//378 380//380 379//379
f 379//379 380//380 381//381
f 379//379 381//381 382//382
f 381//381 383//383 382//382
f 382//382 383//383 384//384
f 382//382 384//384 385//385
f 384//384 386//386 385//385
f 385//385 386//386 387//387
f 385//385 387//387 388//388
f 387//387 389//389 388//388
f 388//388 389//389 390//390
f 388//388 390//390 391//391
f 390//390 392//392 391//391
f 391//391 392//392 393//393
f 391//391 393//393 394//394
f 393//393 395//395 394//394
f 394//394 395//395 396//396
f 394//394 396//396 397//397
f 397//397 396//396 398//398
f 397//397 398//398 343//343
f 343//343 398//398 399//399
f 343//343 399//399 344//344
f 400//400 401//401 89//89
f 89//89 87//87 400//400
f 400//400 87//87 86//86
f 400//400 86//86 402//402
f 402//402 86//86 84//84
f 402//402 84//84 403//403
f 84//84 83//83 403//403
f 403//403 83//83 82//82
f 403//403 82//82 404//404
f 82//82 80//80 404//404
f 404//404 80//80 79//79
f 404//404 79//79 405//405
f 79//79 77//77 405//405
f 405//405 77//77 76//76
f 405//405 76//76 406//406
f 76//76 74//74 406//406
f 406//406 74//74 73//73
f 406//406 73//73 407//407
f 73//73 71//71 407//407
f 407//407 71//71 70//70
f 407//407 70//70 408//408
f 70//70 68//68 408//408
f 408//408 68//68 67//67
f 408//408 67//67 409//409
f 67//67 65//65 409//409
f 409//409 65//65 64//64
f 409//409 64//64 410//410
f 64//64 62//62 410//410
f 410//410 62//62 61//61
f 410//410 61//61 411//411
f 61//61 59//59 411//411
f 411//411 59//59 58//58
f 411//411 58//58 412//412
f 58//58 56//56 412//412
f 412//412 56//56 55//55
f 412//412 55//55 413//413
f 413//413 55//55 54//54
f 413//413 54//54 414//414
f 414//414 54//54 127//127
f 414//414 127//127 415//415
f 127//127 126//126 415//415
f 415//415 126//126 125//125
f 415//415 125//125 416//416
f 416//416 125//125 123//123
f 123//123 122//122 416//416
f 416//416 122//122 120//120
f 416//416 120//120 417//417
f 120//120 118//118 417//417
f 417//417 118//118 117//117
f 417//417 117//117 418//418
f 117//117 115//115 418//418
f 418//418 115//115 114//114
f 418//418 114//114 419//419
f 114//114 112//112 419//419
f 419//419 112//112 111//111
f 419//419 111//111 420//420
f 111//111 109//109 420//420
f 420//420 109//109 108//108
f 420//420 108//108 421//421
f 108//108 106//106 421//421
f 421//421 106//106 105//105
f 421//421 105//105 422//422
f 105//105 103//103 422//422
f 422//422 103//103 102//102
f 422//422 102//102 423//423
f 102//102 100//100 423//423
f 423//423 100//100 99//99
f 423//423 99//99 424//424
f 99//99 97//97 424//424
f 424//424 97//97 96//96
f 424//424 96//96 425//425
f 96//96 94//94 425//425
f 425//425 94//94 93//93
f 425//425 93//93 401//401
f 401//401 93//93 91//91
f 401//401 91//91 89//89
f 27//27 426//426 25//25
f 25//25 426//426 427//427
f 25//25 427//427 23//23
f 23//23 427//427 428//428
f 23//23 428//428 21//21
f 21//21 428//428 429//429
f 21//21 429//429 19//19
f 19//19 429//429 430//430
f 19//19 430//430 17//17
f 17//17 430//430 431//431
f 17//17 431//431 15//15
f 15//15 431//431 432//432
f 15//15 432//432 13//13
f 13//13 432//432 433//433
f 13//13 433//433 11//11
f 11//11 433//433 434//434
f 11//11 434//434 9//9
f 9//9 434//434 435//435
f 9//9 435//435 7//7
f 7//7 435//435 436//436
f 7//7 436//436 5//5
f 5//5 436//436 437//437
f 5//5 437//437 3//3
f 3//3 437//437 438//438
f 3//3 438//438 51//51
f 51//51 438//438 439//439
f 51//51 439//439 49//49
f 49//49 439//439 440//440
f 49//49 440//440 47//47
f 47//47 440//440 441//441
f 47//47 441//441 45//45
f 45//45 441//441 442//442
f 45//45 442//442 43//43
f 43//43 442//442 443//443
f 43//43 443//443 41//41
f 41//41 443//443 444//444
f 41//41 444//444 39//39
f 39//39 444//444 445//445
f 39//39 445//445 37//37
f 37//37 445//445 446//446
f 37//37 446//446 35//35
f 35//35 446//446 447//447
f 35//35 447//447 33//33
f 33//33 447//447 448//448
f 33//33 448//448 31//31
f 31//31 448//448 449//449
f 31//31 449//449 29//29
f 29//29 449//449 450//450
f 29//29 450//450 27//27
f 27//27 450//450 426//426
f 451//451 452//452 453//453
f 453//453 452//452 454//454
f 453//453 454//454 455//455
f 455//455 454//454 456//456
f 456//456 454//454 457//457
f 456//456 457//457 458//458
f 458//458 457//457 459//459
f 458//458 459//459 460//460
f 460//460 459//459 461//461
f 460//460 461//461 462//462
f 462//462 461//461 463//463
f 462//462 463//463 464//464
f 464//464 463//463 465//465
f 464//464 465//465 466//466
f 466//466 465//465 467//467
f 466//466 467//467 468//468
f 468//468 467//467 469//469
f 468//468 469//469 470//470
f 470//470 469//469 471//471
f 470//470 471//471 472//472
f 472//472 471//471 473//473
f 472//472 473//473 474//474
f 474//474 473//473 475//475
f 474//474 475//475 476//476
f 476//476 475//475 477//477
f 476//476 477//477 478//478
f 478//478 477//477 479//479
f 478//478 479//479 480//480
f 480//480 479//479 481//481
f 480//480 481//481 482//482
f 482//482 481//481 483//483
f 482//482 483//483 484//484
f 484//484 483//483 485//485
f 484//484 485//485 486//486
f 486//486 485//485 487//487
f 486//486 487//487 488//488
f 488//488 487//487 489//489
f 488//488 489//489 490//490
f 490//490 489//489 491//491
f 490//490 491//491 492//492
f 492//492 491//491 493//493
f 492//492 493//493 494//494
f 494//494 493//493 495//495
f 494//494 495//495 496//496
f 496//496 495//495 497//497
f 496//496 497//497 451//451
f 451//451 497//497 498//498
f 451//451 498//498 452//452
f 350//350 442//442 347//347
f 347//347 442//442 441//441
f 347//347 441//441 342//342
f 342//342 441//441 440//440
f 342//342 440//440 343//343
f 362//362 447//447 359//359
f 359//359 447//447 446//446
f 359//359 446//446 356//356
f 356//356 446//446 445//445
f 356//356 445//445 353//353
f 353//353 445//445 444//444
f 353//353 444//444 350//350
f 350//350 444//444 443//443
f 350//350 443//443 442//442
f 440//440 439//439 343//343
f 343//343 439//439 438//438
f 343//343 438//438 397//397
f 397//397 438//438 437//437
f 397//397 437//437 394//394
f 394//394 437//437 436//436
f 394//394 436//436 391//391
f 391//391 436//436 435//435
f 391//391 435//435 388//388
f 373//373 427//427 370//370
f 370//370 427//427 426//426
f 370//370 426//426 368//368
f 368//368 426//426 450//450
f 368//368 450//450 365//365
f 365//365 450//450 449//449
f 365//365 449//449 362//362
f 362//362 449//449 448//448
f 362//362 448//448 447//447
f 435//435 434//434 388//388
f 388//388 434//434 433//433
f 388//388 433//433 385//385
f 385//385 433//433 432//432
f 385//385 432//432 382//382
f 382//382 432//432 431//431
f 382//382 431//431 379//379
f 379//379 431//431 430//430
f 379//379 430//430 376//376
f 376//376 430//430 429//429
f 376//376 429//429 373//373
f 373//373 429//429 428//428
f 373//373 428//428 427//427
f 339//339 414//414 336//336
f 336//336 414//414 415//415
f 336//336 415//415 333//333
f 333//333 415//415 416//416
f 333//333 416//416 330//330
f 285//285 412//412 339//339
f 339//339 412//412 413//413
f 339//339 413//413 414//414
f 295//295 407//407 292//292
f 292//292 407//407 408//408
f 292//292 408//408 289//289
f 289//289 408//408 409//409
f 289//289 409//409 284//284
f 284//284 409//409 410//410
f 284//284 410//410 285//285
f 285//285 410//410 411//411
f 285//285 411//411 412//412
f 304//304 403//403 301//301
f 301//301 403//403 404//404
f 301//301 404//404 298//298
f 298//298 404//404 405//405
f 298//298 405//405 295//295
f 295//295 405//405 406//406
f 295//295 406//406 407//407
f 315//315 424//424 312//312
f 312//312 424//424 425//425
f 312//312 425//425 310//310
f 310//310 425//425 401//401
f 310//310 401//401 307//307
f 307//307 401//401 400//400
f 307//307 400//400 304//304
f 304//304 400//400 402//402
f 304//304 402//402 403//403
f 416//416 417//417 330//330
f 330//330 417//417 418//418
f 330//330 418//418 327//327
f 327//327 418//418 419//419
f 327//327 419//419 324//324
f 324//324 419//419 420//420
f 324//324 420//420 321//321
f 321//321 420//420 421//421
f 321//321 421//421 318//318
f 318//318 421//421 422//422
f 318//318 422//422 315//315
f 315//315 422//422 423//423
f 315//315 423//423 424//424
f 215//215 214//214 499//499
f 499//499 500//500 215//215
f 215//215 500//500 501//501
f 215//215 501//501 211//211
f 251//251 502//502 503//503
f 251//251 503//503 264//264
f 264//264 503//503 504//504
f 264//264 504//504 266//266
f 505//505 275//275 274//274
f 505//505 274//274 506//506
f 506//506 274//274 272//272
f 506//506 272//272 507//507
f 507//507 272//272 270//270
f 507//507 270//270 508//508
f 508//508 270//270 269//269
f 508//508 269//269 509//509
f 220//220 510//510 221//221
f 221//221 510//510 511//511
f 221//221 511//511 223//223
f 223//223 511//511 225//225
f 225//225 511//511 512//512
f 225//225 512//512 226//226
f 226//226 512//512 228//228
f 228//228 512//512 513//513
f 228//228 513//513 217//217
f 514//514 137//137 136//136
f 214//214 217//217 499//499
f 499//499 217//217 513//513
f 234//234 133//133 232//232
f 232//232 133//133 132//132
f 232//232 132//132 139//139
f 514//514 281//281 137//137
f 137//137 281//281 283//283
f 137//137 283//283 138//138
f 515//515 516//516 517//517
f 517//517 516//516 518//518
f 517//517 518//518 519//519
f 519//519 518//518 520//520
f 519//519 520//520 521//521
f 521//521 520//520 522//522
f 521//521 522//522 523//523
f 523//523 522//522 524//524
f 523//523 524//524 525//525
f 525//525 524//524 526//526
f 525//525 526//526 527//527
f 527//527 526//526 528//528
f 527//527 528//528 529//529
f 529//529 528//528 530//530
f 529//529 530//530 531//531
f 531//531 530//530 532//532
f 531//531 532//532 533//533
f 533//533 532//532 534//534
f 533//533 534//534 535//535
f 535//535 534//534 536//536
f 535//535 536//536 537//537
f 537//537 536//536 538//538
f 537//537 538//538 539//539
f 539//539 538//538 540//540
f 539//539 540//540 541//541
f 541//541 540//540 542//542
f 541//541 542//542 543//543
f 543//543 542//542 544//544
f 543//543 544//544 545//545
f 545//545 544//544 546//546
f 545//545 546//546 547//547
f 547//547 546//546 548//548
f 547//547 548//548 549//549
f 549//549 548//548 550//550
f 549//549 550//550 551//551
f 551//551 550//550 552//552
f 551//551 552//552 553//553
f 553//553 552//552 554//554
f 553//553 554//554 555//555
f 555//555 554//554 556//556
f 555//555 556//556 557//557
f 557//557 556//556 515//515
f 557//557 515//515 517//517
f 558//558 559//559 277//277
f 560//560 279//279 559//559
f 559//559 279//279 278//278
f 559//559 278//278 277//277
f 561//561 282//282 560//560
f 560//560 282//282 280//280
f 560//560 280//280 279//279
f 560//560 562//562 561//561
f 561//561 562//562 563//563
f 561//561 563//563 564//564
f 564//564 563//563 565//565
f 564//564 565//565 566//566
f 566//566 565//565 567//567
f 566//566 567//567 568//568
f 568//568 567//567 569//569
f 568//568 569//569 570//570
f 570//570 569//569 571//571
f 570//570 571//571 572//572
f 572//572 571//571 573//573
f 572//572 573//573 574//574
f 574//574 573//573 575//575
f 574//574 575//575 576//576
f 576//576 575//575 577//577
f 576//576 577//577 578//578
f 578//578 577//577 233//233
f 233//233 577//577 579//579
f 233//233 579//579 235//235
f 580//580 231//231 581//581
f 581//581 231//231 230//230
f 581//581 230//230 579//579
f 579//579 230//230 229//229
f 579//579 229//229 235//235
f 277//277 582//582 558//558
f 558//558 582//582 583//583
f 558//558 583//583 584//584
f 584//584 583//583 585//585
f 584//584 585//585 586//586
f 586//586 585//585 587//587
f 586//586 587//587 588//588
f 588//588 587//587 589//589
f 588//588 589//589 590//590
f 590//590 589//589 591//591
f 590//590 591//591 592//592
f 592//592 591//591 593//593
f 592//592 593//593 594//594
f 594//594 593//593 595//595
f 594//594 595//595 596//596
f 596//596 595//595 580//580
f 596//596 580//580 597//597
f 597//597 580//580 581//581
f 586//586 588//588 517//517
f 517//517 588//588 590//590
f 517//517 590//590 557//557
f 557//557 590//590 592//592
f 557//557 592//592 555//555
f 555//555 592//592 594//594
f 555//555 594//594 553//553
f 553//553 594//594 596//596
f 553//553 596//596 551//551
f 551//551 596//596 597//597
f 551//551 597//597 549//549
f 549//549 597//597 581//581
f 549//549 581//581 547//547
f 547//547 581//581 579//579
f 547//547 579//579 545//545
f 545//545 579//579 577//577
f 545//545 577//577 543//543
f 543//543 577//577 575//575
f 543//543 575//575 541//541
f 541//541 575//575 573//573
f 541//541 573//573 539//539
f 539//539 573//573 571//571
f 539//539 571//571 537//537
f 537//537 571//571 569//569
f 537//537 569//569 535//535
f 535//535 569//569 567//567
f 535//535 567//567 533//533
f 533//533 567//567 565//565
f 533//533 565//565 531//531
f 531//531 565//565 563//563
f 531//531 563//563 529//529
f 529//529 563//563 562//562
f 529//529 562//562 527//527
f 527//527 562//562 560//560
f 527//527 560//560 525//525
f 525//525 560//560 559//559
f 525//525 559//559 523//523
f 523//523 559//559 558//558
f 523//523 558//558 521//521
f 521//521 558//558 584//584
f 521//521 584//584 519//519
f 519//519 584//584 586//586
f 519//519 586//586 517//517
f 134//134 131//131 133//133
f 199//199 133//133 202//202
f 202//202 133//133 204//204
f 199//199 189//189 133//133
f 133//133 189//189 128//128
f 133//133 128//128 134//134
f 134//134 128//128 130//130
f 134//134 130//130 598//598
f 599//599 600//600 130//130
f 130//130 600//600 601//601
f 601//601 602//602 130//130
f 130//130 602//602 603//603
f 130//130 603//603 598//598
f 219//219 212//212 229//229
f 229//229 212//212 210//210
f 229//229 210//210 234//234
f 234//234 210//210 208//208
f 234//234 208//208 133//133
f 133//133 208//208 206//206
f 133//133 206//206 204//204
f 196//196 198//198 194//194
f 194//194 198//198 189//189
f 194//194 189//189 193//193
f 193//193 189//189 199//199
f 224//224 227//227 222//222
f 222//222 227//227 218//218
f 222//222 218//218 219//219
f 219//219 218//218 212//212
f 212//212 218//218 213//213
f 212//212 213//213 216//216
f 578//578 233//233 232//232
f 566//566 138//138 564//564
f 564//564 138//138 283//283
f 564//564 283//283 561//561
f 561//561 283//283 282//282
f 566//566 568//568 138//138
f 138//138 568//568 570//570
f 138//138 570//570 139//139
f 570//570 572//572 139//139
f 139//139 572//572 574//574
f 139//139 574//574 232//232
f 232//232 574//574 576//576
f 232//232 576//576 578//578
f 582//582 277//277 275//275
f 505//505 604//604 589//589
f 589//589 604//604 605//605
f 589//589 605//605 591//591
f 591//591 605//605 510//510
f 589//589 587//587 505//505
f 505//505 587//587 585//585
f 505//505 585//585 275//275
f 275//275 585//585 583//583
f 275//275 583//583 582//582
f 231//231 580//580 220//220
f 220//220 580//580 595//595
f 220//220 595//595 510//510
f 510//510 595//595 593//593
f 510//510 593//593 591//591
f 266//266 504//504 269//269
f 269//269 504//504 509//509
f 606//606 607//607 238//238
f 514//514 263//263 262//262
f 262//262 260//260 514//514
f 514//514 260//260 258//258
f 514//514 258//258 281//281
f 237//237 135//135 238//238
f 238//238 135//135 608//608
f 238//238 608//608 609//609
f 136//136 135//135 514//514
f 514//514 135//135 237//237
f 514//514 237//237 263//263
f 263//263 237//237 239//239
f 263//263 239//239 242//242
f 258//258 256//256 281//281
f 281//281 256//256 254//254
f 281//281 254//254 279//279
f 279//279 254//254 252//252
f 609//609 610//610 238//238
f 238//238 610//610 611//611
f 238//238 611//611 606//606
f 248//248 246//246 239//239
f 239//239 246//246 243//243
f 239//239 243//243 242//242
f 271//271 273//273 268//268
f 268//268 273//273 276//276
f 268//268 276//276 267//267
f 267//267 276//276 279//279
f 267//267 279//279 265//265
f 265//265 279//279 252//252
f 240//240 612//612 613//613
f 240//240 613//613 249//249
f 249//249 613//613 614//614
f 249//249 614//614 247//247
f 247//247 614//614 615//615
f 247//247 615//615 244//244
f 244//244 615//615 616//616
f 244//244 616//616 245//245
f 245//245 616//616 617//617
f 245//245 617//617 250//250
f 250//250 617//617 618//618
f 250//250 618//618 261//261
f 261//261 618//618 619//619
f 261//261 619//619 259//259
f 259//259 619//619 620//620
f 259//259 620//620 257//257
f 257//257 620//620 621//621
f 257//257 621//621 255//255
f 255//255 621//621 622//622
f 255//255 622//622 253//253
f 253//253 622//622 502//502
f 253//253 502//502 251//251
f 211//211 501//501 623//623
f 211//211 623//623 209//209
f 209//209 623//623 624//624
f 209//209 624//624 207//207
f 207//207 624//624 625//625
f 207//207 625//625 205//205
f 205//205 625//625 626//626
f 205//205 626//626 203//203
f 203//203 626//626 627//627
f 203//203 627//627 201//201
f 201//201 627//627 628//628
f 201//201 628//628 200//200
f 200//200 628//628 629//629
f 200//200 629//629 191//191
f 630//630 188//188 197//197
f 630//630 197//197 631//631
f 631//631 197//197 195//195
f 631//631 195//195 632//632
f 632//632 195//195 192//192
f 632//632 192//192 633//633
f 633//633 192//192 191//191
f 633//633 191//191 629//629
f 634//634 635//635 121//121
f 121//121 635//635 636//636
f 121//121 636//636 119//119
f 119//119 636//636 637//637
f 119//119 637//637 116//116
f 505//505 506//506 604//604
f 604//604 506//506 507//507
f 604//604 507//507 508//508
f 638//638 639//639 640//640
f 640//640 639//639 613//613
f 640//640 613//613 612//612
f 121//121 124//124 634//634
f 634//634 124//124 53//53
f 634//634 53//53 641//641
f 641//641 53//53 52//52
f 641//641 52//52 642//642
f 642//642 52//52 640//640
f 640//640 52//52 57//57
f 640//640 57//57 638//638
f 638//638 57//57 60//60
f 638//638 60//60 616//616
f 509//509 504//504 85//85
f 643//643 644//644 98//98
f 113//113 645//645 110//110
f 110//110 645//645 646//646
f 110//110 646//646 107//107
f 60//60 63//63 616//616
f 616//616 63//63 66//66
f 616//616 66//66 617//617
f 617//617 66//66 69//69
f 85//85 504//504 81//81
f 98//98 644//644 95//95
f 95//95 644//644 647//647
f 95//95 647//647 92//92
f 75//75 620//620 72//72
f 72//72 620//620 619//619
f 72//72 619//619 69//69
f 69//69 619//619 618//618
f 69//69 618//618 617//617
f 504//504 503//503 81//81
f 81//81 503//503 502//502
f 81//81 502//502 78//78
f 78//78 502//502 622//622
f 78//78 622//622 75//75
f 75//75 622//622 621//621
f 75//75 621//621 620//620
f 98//98 101//101 643//643
f 643//643 101//101 104//104
f 643//643 104//104 648//648
f 648//648 104//104 107//107
f 648//648 107//107 649//649
f 649//649 107//107 646//646
f 637//637 650//650 116//116
f 116//116 650//650 651//651
f 116//116 651//651 113//113
f 113//113 651//651 652//652
f 113//113 652//652 645//645
f 647//647 653//653 92//92
f 92//92 653//653 654//654
f 92//92 654//654 90//90
f 90//90 654//654 655//655
f 90//90 655//655 88//88
f 88//88 655//655 604//604
f 88//88 604//604 85//85
f 85//85 604//604 508//508
f 85//85 508//508 509//509
f 656//656 630//630 657//657
f 657//657 630//630 631//631
f 657//657 631//631 658//658
f 513//513 512//512 605//605
f 605//605 512//512 511//511
f 605//605 511//511 510//510
f 633//633 32//32 30//30
f 631//631 632//632 658//658
f 658//658 632//632 633//633
f 658//658 633//633 28//28
f 28//28 633//633 30//30
f 501//501 46//46 623//623
f 623//623 46//46 44//44
f 623//623 44//44 624//624
f 624//624 44//44 42//42
f 624//624 42//42 625//625
f 625//625 42//42 40//40
f 32//32 633//633 34//34
f 34//34 633//633 629//629
f 34//34 629//629 36//36
f 36//36 629//629 628//628
f 36//36 628//628 38//38
f 38//38 628//628 627//627
f 38//38 627//627 40//40
f 40//40 627//627 626//626
f 40//40 626//626 625//625
f 28//28 26//26 658//658
f 658//658 26//26 24//24
f 658//658 24//24 659//659
f 659//659 24//24 22//22
f 659//659 22//22 660//660
f 660//660 22//22 20//20
f 14//14 12//12 661//661
f 16//16 662//662 18//18
f 18//18 662//662 663//663
f 18//18 663//663 20//20
f 20//20 663//663 664//664
f 20//20 664//664 660//660
f 661//661 12//12 665//665
f 665//665 12//12 10//10
f 665//665 10//10 666//666
f 666//666 10//10 8//8
f 666//666 8//8 667//667
f 8//8 6//6 667//667
f 667//667 6//6 4//4
f 667//667 4//4 668//668
f 668//668 4//4 2//2
f 501//501 500//500 46//46
f 46//46 500//500 499//499
f 46//46 499//499 48//48
f 48//48 499//499 513//513
f 48//48 513//513 50//50
f 50//50 513//513 605//605
f 50//50 605//605 1//1
f 661//661 669//669 14//14
f 14//14 669//669 670//670
f 14//14 670//670 16//16
f 16//16 670//670 671//671
f 16//16 671//671 662//662
f 605//605 672//672 1//1
f 1//1 672//672 673//673
f 1//1 673//673 2//2
f 2//2 673//673 674//674
f 2//2 674//674 668//668
f 455//455 456//456 335//335
f 458//458 460//460 374//374
f 374//374 460//460 462//462
f 462//462 464//464 374//374
f 374//374 464//464 466//466
f 374//374 466//466 375//375
f 375//375 466//466 468//468
f 375//375 468//468 377//377
f 474//474 476//476 380//380
f 380//380 476//476 478//478
f 380//380 478//478 480//480
f 377//377 468//468 378//378
f 378//378 468//468 470//470
f 378//378 470//470 380//380
f 380//380 470//470 472//472
f 380//380 472//472 474//474
f 482//482 484//484 329//329
f 329//329 484//484 486//486
f 329//329 486//486 488//488
f 488//488 490//490 329//329
f 329//329 490//490 492//492
f 329//329 492//492 331//331
f 331//331 492//492 494//494
f 331//331 494//494 332//332
f 332//332 494//494 496//496
f 332//332 496//496 334//334
f 334//334 496//496 451//451
f 334//334 451//451 335//335
f 335//335 451//451 453//453
f 335//335 453//453 455//455
f 143//143 141//141 392//392
f 187//187 185//185 317//317
f 317//317 185//185 183//183
f 167//167 165//165 323//323
f 167//167 323//323 169//169
f 183//183 181//181 317//317
f 317//317 181//181 179//179
f 317//317 179//179 319//319
f 319//319 179//179 177//177
f 319//319 177//177 320//320
f 320//320 177//177 175//175
f 320//320 175//175 322//322
f 322//322 175//175 173//173
f 322//322 173//173 323//323
f 323//323 173//173 171//171
f 323//323 171//171 169//169
f 163//163 161//161 386//386
f 386//386 161//161 159//159
f 386//386 159//159 157//157
f 157//157 155//155 386//386
f 386//386 155//155 153//153
f 386//386 153//153 387//387
f 387//387 153//153 151//151
f 387//387 151//151 389//389
f 389//389 151//151 149//149
f 389//389 149//149 390//390
f 390//390 149//149 147//147
f 390//390 147//147 392//392
f 392//392 147//147 145//145
f 392//392 145//145 143//143
f 480//480 482//482 380//380
f 380//380 482//482 329//329
f 380//380 329//329 381//381
f 381//381 329//329 328//328
f 381//381 328//328 383//383
f 383//383 328//328 326//326
f 383//383 326//326 384//384
f 384//384 326//326 325//325
f 384//384 325//325 386//386
f 386//386 325//325 323//323
f 386//386 323//323 163//163
f 163//163 323//323 165//165
f 141//141 187//187 392//392
f 392//392 187//187 317//317
f 392//392 317//317 393//393
f 393//393 317//317 316//316
f 393//393 316//316 395//395
f 395//395 316//316 314//314
f 395//395 314//314 396//396
f 396//396 314//314 313//313
f 396//396 313//313 398//398
f 398//398 313//313 675//675
f 398//398 675//675 399//399
f 399//399 675//675 309//309
f 399//399 309//309 344//344
f 344//344 309//309 308//308
f 344//344 308//308 345//345
f 345//345 308//308 306//306
f 345//345 306//306 346//346
f 346//346 306//306 305//305
f 346//346 305//305 348//348
f 348//348 305//305 303//303
f 348//348 303//303 349//349
f 349//349 303//303 302//302
f 349//349 302//302 351//351
f 351//351 302//302 300//300
f 351//351 300//300 352//352
f 352//352 300//300 299//299
f 352//352 299//299 354//354
f 354//354 299//299 297//297
f 354//354 297//297 355//355
f 355//355 297//297 296//296
f 355//355 296//296 357//357
f 357//357 296//296 294//294
f 357//357 294//294 358//358
f 358//358 294//294 293//293
f 358//358 293//293 360//360
f 360//360 293//293 291//291
f 360//360 291//291 361//361
f 361//361 291//291 290//290
f 361//361 290//290 363//363
f 363//363 290//290 288//288
f 363//363 288//288 364//364
f 364//364 288//288 287//287
f 364//364 287//287 366//366
f 366//366 287//287 286//286
f 366//366 286//286 367//367
f 367//367 286//286 341//341
f 367//367 341//341 369//369
f 369//369 341//341 340//340
f 369//369 340//340 371//371
f 371//371 340//340 338//338
f 371//371 338//338 372//372
f 372//372 338//338 337//337
f 372//372 337//337 374//374
f 374//374 337//337 335//335
f 374//374 335//335 458//458
f 458//458 335//335 456//456
f 646//646 645//645 669//669
f 669//669 645//645 670//670
f 483//483 481//481 676//676
f 676//676 481//481 479//479
f 676//676 479//479 477//477
f 493//493 491//491 676//676
f 676//676 491//491 489//489
f 489//489 487//487 676//676
f 676//676 487//487 485//485
f 676//676 485//485 483//483
f 477//477 475//475 676//676
f 676//676 475//475 473//473
f 676//676 473//473 471//471
f 454//454 452//452 677//677
f 452//452 498//498 677//677
f 677//677 498//498 497//497
f 677//677 497//497 495//495
f 493//493 676//676 495//495
f 495//495 676//676 471//471
f 495//495 471//471 677//677
f 677//677 471//471 469//469
f 677//677 469//469 467//467
f 467//467 465//465 677//677
f 677//677 465//465 463//463
f 677//677 463//463 461//461
f 461//461 459//459 677//677
f 677//677 459//459 457//457
f 677//677 457//457 454//454
f 186//186 140//140 678//678
f 678//678 140//140 142//142
f 678//678 142//142 144//144
f 176//176 178//178 678//678
f 678//678 178//178 180//180
f 180//180 182//182 678//678
f 678//678 182//182 184//184
f 678//678 184//184 186//186
f 144//144 146//146 678//678
f 678//678 146//146 148//148
f 678//678 148//148 150//150
f 166//166 168//168 679//679
f 168//168 170//170 679//679
f 679//679 170//170 172//172
f 679//679 172//172 174//174
f 176//176 678//678 174//174
f 174//174 678//678 150//150
f 174//174 150//150 679//679
f 679//679 150//150 152//152
f 679//679 152//152 154//154
f 154//154 156//156 679//679
f 679//679 156//156 158//158
f 679//679 158//158 160//160
f 160//160 162//162 679//679
f 679//679 162//162 164//164
f 679//679 164//164 166//166
f 666//666 667//667 643//643
f 643//643 667//667 644//644
f 680//680 540//540 681//681
f 681//681 540//540 538//538
f 681//681 538//538 682//682
f 683//683 684//684 520//520
f 538//538 536//536 682//682
f 682//682 536//536 534//534
f 682//682 534//534 685//685
f 685//685 534//534 532//532
f 685//685 532//532 686//686
f 686//686 532//532 530//530
f 686//686 530//530 687//687
f 688//688 546//546 689//689
f 689//689 546//546 544//544
f 689//689 544//544 680//680
f 680//680 544//544 542//542
f 680//680 542//542 540//540
f 520//520 518//518 683//683
f 683//683 518//518 516//516
f 683//683 516//516 690//690
f 530//530 528//528 687//687
f 687//687 528//528 526//526
f 687//687 526//526 691//691
f 691//691 526//526 524//524
f 691//691 524//524 684//684
f 684//684 524//524 522//522
f 684//684 522//522 520//520
f 692//692 550//550 688//688
f 688//688 550//550 548//548
f 688//688 548//548 546//546
f 516//516 515//515 690//690
f 690//690 515//515 556//556
f 690//690 556//556 693//693
f 693//693 556//556 554//554
f 693//693 554//554 692//692
f 692//692 554//554 552//552
f 692//692 552//552 550//550
f 694//694 695//695 696//696
f 694//694 697//697 698//698
f 699//699 697//697 694//694
f 696//696 699//699 694//694
f 694//694 700//700 701//701
f 702//702 700//700 694//694
f 698//698 702//702 694//694
f 694//694 703//703 704//704
f 705//705 703//703 694//694
f 701//701 705//705 694//694
f 694//694 706//706 707//707
f 708//708 706//706 694//694
f 704//704 708//708 694//694
f 707//707 695//695 694//694
f 682//682 701//701 681//681
f 681//681 701//701 700//700
f 681//681 700//700 680//680
f 680//680 700//700 702//702
f 680//680 702//702 689//689
f 689//689 702//702 698//698
f 689//689 698//698 688//688
f 688//688 698//698 697//697
f 688//688 697//697 692//692
f 692//692 697//697 699//699
f 692//692 699//699 693//693
f 693//693 699//699 696//696
f 693//693 696//696 690//690
f 690//690 696//696 695//695
f 690//690 695//695 683//683
f 683//683 695//695 707//707
f 683//683 707//707 684//684
f 684//684 707//707 706//706
f 684//684 706//706 691//691
f 691//691 706//706 708//708
f 691//691 708//708 687//687
f 687//687 708//708 704//704
f 687//687 704//704 686//686
f 686//686 704//704 703//703
f 686//686 703//703 685//685
f 685//685 703//703 705//705
f 685//685 705//705 682//682
f 682//682 705//705 701//701
f 642//642 640//640 709//709
f 709//709 640//640 612//612
f 709//709 612//612 710//710
f 630//630 656//656 188//188
f 188//188 656//656 711//711
f 188//188 711//711 129//129
f 129//129 711//711 712//712
f 129//129 712//712 130//130
f 130//130 712//712 599//599
f 238//238 607//607 236//236
f 236//236 607//607 713//713
f 236//236 713//713 240//240
f 240//240 713//713 714//714
f 240//240 714//714 612//612
f 612//612 714//714 710//710
f 657//657 658//658 634//634
f 634//634 641//641 657//657
f 657//657 641//641 642//642
f 657//657 642//642 709//709
f 646//646 669//669 661//661
f 646//646 661//661 649//649
f 649//649 661//661 665//665
f 649//649 665//665 648//648
f 648//648 665//665 666//666
f 648//648 666//666 643//643
f 605//605 604//604 655//655
f 605//605 655//655 672//672
f 672//672 655//655 654//654
f 672//672 654//654 673//673
f 673//673 654//654 653//653
f 673//673 653//653 674//674
f 674//674 653//653 647//647
f 674//674 647//647 668//668
f 668//668 647//647 644//644
f 668//668 644//644 667//667
f 657//657 709//709 656//656
f 656//656 709//709 710//710
f 710//710 714//714 713//713
f 711//711 656//656 712//712
f 712//712 656//656 710//710
f 712//712 710//710 599//599
f 599//599 710//710 713//713
f 713//713 607//607 599//599
f 599//599 607//607 606//606
f 599//599 606//606 600//600
f 600//600 606//606 611//611
f 600//600 611//611 601//601
f 601//601 611//611 610//610
f 601//601 610//610 602//602
f 602//602 610//610 609//609
f 602//602 609//609 603//603
f 603//603 609//609 608//608
f 603//603 608//608 598//598
f 598//598 608//608 135//135
f 598//598 135//135 134//134
f 634//634 658//658 659//659
f 634//634 659//659 635//635
f 635//635 659//659 660//660
f 635//635 660//660 636//636
f 636//636 660//660 664//664
f 636//636 664//664 637//637
f 637//637 664//664 663//663
f 637//637 663//663 650//650
f 650//650 663//663 662//662
f 650//650 662//662 651//651
f 651//651 662//662 671//671
f 651//651 671//671 652//652
f 652//652 671//671 670//670
f 652//652 670//670 645//645

