# https://github.com/mikedh/trimesh

o right_elbow_link.STL
v -0.02166560 0.00527909 0.03882265
v -0.02186250 -0.00957832 0.03690362
v -0.02240533 -0.00902598 0.03315885
v -0.01536216 -0.04042419 0.04652307
v -0.01501453 -0.03119269 0.04664075
v -0.01517997 -0.04044874 0.04659203
v -0.01353269 -0.03203851 0.04701096
v -0.01352701 -0.04068120 0.04701668
v -0.01175990 -0.03288446 0.04714666
v -0.01175967 -0.04093855 0.04715196
v -0.01710846 -0.04019120 0.04556927
v -0.01651713 -0.03018893 0.04594238
v -0.01655380 -0.04026560 0.04593658
v -0.01597015 -0.04034312 0.04625509
v -0.01834694 -0.04001917 0.04446116
v -0.01788235 -0.02913015 0.04491183
v -0.01787816 -0.04008545 0.04493425
v -0.01763044 -0.04011988 0.04515635
v -0.01856752 -0.03998738 0.04421177
v -0.01898186 -0.03992633 0.04368982
v -0.01905935 -0.02808593 0.04357537
v -0.01917562 -0.03989694 0.04341882
v -0.01953772 -0.03983962 0.04285908
v -0.01983116 -0.02732418 0.04236012
v -0.02090743 -0.03956474 0.03982392
v -0.02070532 -0.02637533 0.04046502
v -0.02043877 -0.03967376 0.04107305
v -0.02016742 -0.03972830 0.04168207
v -0.02130799 0.00582744 0.04000000
v -0.02116926 -0.00060024 0.04000000
v -0.02101935 -0.00991088 0.04000000
v -0.02034222 0.01950011 0.04286340
v -0.01929281 0.01940087 0.04418500
v -0.01947241 0.00785421 0.04356271
v -0.01686504 0.01943799 0.04600715
v -0.01830158 0.00894099 0.04484117
v -0.01832300 0.01938303 0.04507209
v -0.01870352 0.01938356 0.04475445
v -0.01499300 0.01137368 0.04668796
v -0.01659697 0.01029879 0.04603261
v -0.01685289 0.01011008 0.04589146
v -0.01693553 0.01004805 0.04584338
v -0.01563286 0.01953540 0.04653042
v -0.01374971 0.01974447 0.04698738
v -0.01319569 0.01238036 0.04705347
v -0.01176120 0.02001979 0.04713103
v -0.01176105 0.01305169 0.04713301
v -0.02037630 0.01950531 0.04281193
v -0.02055319 0.00671537 0.04181185
v -0.02116602 0.01967841 0.04140009
v -0.02147337 0.01978409 0.04069616
v -0.02187599 0.01997814 0.03955831
v -0.02222320 0.02023444 0.03824219
v -0.02265099 -0.00826349 0.02922530
v -0.02259218 0.02076631 0.03590258
v -0.02271012 0.02141982 0.03345607
v -0.02271135 -0.03630302 0.01844051
v -0.02271021 -0.03590540 0.01699795
v -0.02241677 -0.03870698 0.03132221
v -0.02266426 -0.03793124 0.02603032
v -0.02270311 -0.03744549 0.02339955
v -0.02110870 -0.03950961 0.03918843
v -0.02129067 -0.03945357 0.03854724
v -0.02087632 -0.02617776 0.04000000
v -0.02160364 -0.03933752 0.03725150
v -0.02096022 -0.01495920 0.04000000
v -0.02173754 -0.03927702 0.03659901
v -0.02204436 -0.03909737 0.03476938
v -0.02215194 -0.03901316 0.03396752
v -0.01176213 -0.04293123 0.06894290
v -0.01087105 -0.04004844 0.07094080
v -0.01406230 -0.04248785 0.06894252
v -0.01394074 -0.03891826 0.07094049
v -0.01685507 -0.03748206 0.07094008
v -0.01787089 -0.04126877 0.06894296
v -0.01693462 -0.04162990 0.06894319
v -0.02975576 -0.02363081 0.07093610
v -0.03192851 -0.02679622 0.06893724
v -0.02822072 -0.02649568 0.07093693
v -0.03058350 -0.02965343 0.06893825
v -0.02637755 -0.02920529 0.07093771
v -0.02902883 -0.03220390 0.06893930
v -0.02592100 -0.02979082 0.07093787
v -0.02851989 -0.03291963 0.06893954
v -0.02438645 -0.03156877 0.07093838
v -0.02723411 -0.03453028 0.06894023
v -0.02338528 -0.03259499 0.07093867
v -0.02520056 -0.03662490 0.06894118
v -0.02205133 -0.03382561 0.07093904
v -0.02458679 -0.03716935 0.06894138
v -0.02052529 -0.03506977 0.07093938
v -0.02317567 -0.03829279 0.06894172
v -0.01947235 -0.03583954 0.07093959
v -0.02226172 -0.03893532 0.06894192
v -0.01976444 -0.04040091 0.06894244
v -0.03124462 -0.01983191 0.07093502
v -0.03374468 -0.02062683 0.06893522
v -0.03098252 -0.02061999 0.07093524
v -0.03298074 -0.02378335 0.06893625
v -0.03264746 -0.02484834 0.06893664
v -0.01176179 0.02158417 0.06259278
v -0.01176205 0.02137901 0.06892321
v -0.01067695 0.02177036 0.06880051
v -0.01176213 0.02178543 0.05641493
v -0.01152560 0.02205884 0.04913354
v -0.01176183 0.02202038 0.04913072
v -0.01054341 0.02229242 0.04922663
v -0.01024336 0.02239230 0.04928601
v -0.01036806 0.02193127 0.06871855
v -0.00984444 0.02255098 0.04939299
v -0.00926705 0.02269960 0.06824148
v -0.00884809 0.02312009 0.04984744
v -0.00885407 0.02307191 0.06798271
v -0.00859446 0.02331973 0.05002249
v -0.00788873 0.02413918 0.06719090
v -0.00786425 0.02410407 0.05075326
v -0.00710203 0.02451917 0.06689692
v -0.00705738 0.02451476 0.05115482
v -0.00719166 0.02451509 0.06690019
v -0.00730734 0.02448282 0.05112311
v -0.00745624 0.02445443 0.06694820
v -0.00754127 0.02441778 0.06697676
v -0.00752900 0.02439622 0.05103747
v -0.00773315 0.02429582 0.06707079
v 0.00356883 0.02451920 0.06689698
v 0.00348006 0.02451468 0.05115487
v -0.00172011 0.02451911 0.06689695
v -0.00172012 0.02451458 0.05115487
v -0.00441107 0.02451911 0.06689686
v -0.00438875 0.02451459 0.05115498
v -0.02271019 -0.02250925 0.01087814
v -0.02271019 -0.01909680 0.01613420
v -0.02271019 0.00338998 0.02476910
v -0.02271019 0.00944330 0.02314788
v -0.02271019 -0.02385513 -0.00747883
v -0.02271019 -0.02496559 -0.00131133
v -0.02271019 -0.02866260 -0.00822908
v -0.02271018 -0.01448442 0.02037649
v -0.02271018 -0.00896194 0.02333846
v -0.02271018 -0.00287635 0.02483398
v -0.02271019 0.02977511 0.00164473
v -0.02271019 0.02866260 0.00822907
v -0.02271019 0.02460437 0.00443000
v -0.02271019 0.01490327 0.02007218
v -0.02271019 0.01942680 0.01573530
v -0.02271019 0.02272968 0.01040969
v -0.02271019 -0.02450736 0.00493855
v -0.02271018 0.02939457 -0.00502209
v -0.02271018 0.02493308 -0.00182803
v -0.02271018 0.02754006 -0.01143708
v -0.02271018 0.02369515 -0.00797120
v -0.02271019 0.02430459 -0.01727857
v -0.02271018 0.02096836 -0.01361351
v -0.02271019 0.01985038 -0.02225365
v -0.02271019 0.01692406 -0.01840044
v -0.02271019 0.01440078 -0.02611282
v -0.02271019 0.01181636 -0.02203120
v -0.02271019 0.00822908 -0.02866259
v -0.02271019 0.00596619 -0.02427766
v -0.02271019 0.00164473 -0.02977511
v -0.02271019 -0.00025886 -0.02499866
v -0.02271018 -0.00502209 -0.02939458
v -0.02271018 -0.00646764 -0.02414891
v -0.02271018 -0.01143708 -0.02754007
v -0.02271018 -0.01227003 -0.02178179
v -0.02271018 -0.01727858 -0.02430458
v -0.02271018 -0.02225365 -0.01985037
v -0.02271018 -0.01730146 -0.01804604
v -0.02271019 -0.02611283 -0.01440078
v -0.02271019 -0.02124577 -0.01317639
v -0.02271018 -0.02333846 -0.00896195
v -0.01176216 -0.04293722 0.04915058
v -0.01387554 -0.04261962 0.04902680
v -0.01586292 -0.04231514 0.04863697
v -0.01870207 -0.04184993 0.04740353
v -0.01703467 -0.04212955 0.04824362
v -0.02002325 -0.04160668 0.04642114
v -0.02332522 -0.04076382 0.04154002
v -0.02224472 -0.04110561 0.04371719
v -0.02219202 -0.04111988 0.04380405
v -0.02134914 -0.04132844 0.04501764
v -0.02435216 -0.04027779 0.03830643
v -0.02417790 -0.04037978 0.03898528
v -0.02570532 -0.03712181 0.02158431
v -0.02571061 -0.03590537 0.01699767
v -0.02498760 -0.03976116 0.03496380
v -0.02544199 -0.03901365 0.03056603
v -0.02559108 -0.03847635 0.02773036
v -0.02569173 -0.03754447 0.02336662
v -0.03374459 -0.00027827 0.06892937
v -0.03124453 -0.00107204 0.07092962
v -0.03351684 0.00083055 0.06892917
v -0.02990721 0.00239950 0.07092861
v -0.03260875 0.00422647 0.06892914
v -0.03144570 0.00726394 0.06893015
v -0.02869827 0.00477471 0.07092793
v -0.02816313 0.00568611 0.07092767
v -0.03031594 0.00946486 0.06893116
v -0.02603758 0.00874008 0.07092679
v -0.02879352 0.01174531 0.06893259
v -0.02500876 0.00997621 0.07092644
v -0.02700390 0.01379396 0.06893322
v -0.02356149 0.01151663 0.07092599
v -0.02650156 0.01428158 0.06893332
v -0.02524459 0.01537294 0.06893347
v -0.02033235 0.01431200 0.07092518
v -0.02302286 0.01695048 0.06893282
v -0.01770431 0.01608428 0.07092468
v -0.02057930 0.01831161 0.06893103
v -0.01847020 0.01926010 0.06892927
v -0.01486739 0.01759828 0.07092424
v -0.01523196 0.02042163 0.06892598
v -0.01191048 0.01880247 0.07092388
v -0.01092818 0.01912634 0.07092379
v -0.03418662 -0.01797225 0.06893449
v -0.03447103 -0.01556280 0.06893374
v -0.03233294 -0.01519809 0.07093367
v -0.03461594 -0.01370009 0.06893323
v -0.03269922 -0.01045202 0.07093231
v -0.03470968 -0.01112556 0.06893261
v -0.03459221 -0.00683360 0.06893124
v -0.03233292 -0.00570598 0.07093094
v -0.03438666 -0.00452331 0.06893057
v -0.03374457 -0.00028024 0.06195928
v -0.03266139 0.00410941 0.06203997
v -0.01643763 0.02034233 0.06252008
v -0.02048739 0.01872175 0.06244411
v -0.02394867 0.01669869 0.06236557
v -0.02925625 0.01135070 0.06220363
v -0.02685907 0.01424955 0.06228517
v -0.03117781 0.00797853 0.06212166
v -0.03458010 -0.01425388 0.04714078
v -0.03374466 -0.00028450 0.04713676
v -0.03458009 -0.00666383 0.04713860
v -0.03471390 -0.01045888 0.04713969
v -0.03374482 -0.02063325 0.04714261
v -0.00662264 0.02223134 0.06895577
v -0.00480481 0.02037253 0.07092343
v -0.00172011 0.02052647 0.07092337
v -0.00172011 0.02341986 0.06800568
v -0.00782908 0.01991818 0.07092356
v -0.01084879 -0.03325500 0.04714622
v 0.02092714 0.01067799 0.04713357
v 0.01311213 0.01008383 0.04713374
v 0.01590773 0.01501512 0.04713233
v 0.00753483 0.01324011 0.04713283
v 0.00133836 0.01487481 0.04713238
v 0.00160365 0.02034084 0.04713080
v 0.00302411 0.02015416 0.04713086
v 0.02490807 0.00537163 0.04713509
v 0.02766798 -0.00066063 0.04713682
v 0.02908031 -0.00714218 0.04713868
v 0.01311205 -0.02991617 0.04714524
v 0.02490801 -0.02628963 0.04714419
v -0.00172013 0.02051963 0.04713076
v -0.00507011 0.01488050 0.04713238
v -0.00579939 0.02048612 0.04713076
v -0.01126948 0.01325682 0.04713285
v 0.02908030 -0.01377583 0.04714059
v 0.02766794 -0.02025738 0.04714245
v 0.00485197 0.01981445 0.04713095
v 0.00796723 0.01896597 0.04713121
v 0.01007999 0.01818416 0.04713142
v -0.00172026 -0.04143753 0.04714858
v -0.00472266 -0.04142415 0.04714857
v -0.00473345 -0.03475367 0.04714666
v -0.00772408 -0.04133065 0.04714856
v -0.01133745 -0.04099821 0.04714846
v 0.00149524 -0.04127024 0.04714853
v 0.00156239 -0.03467691 0.04714663
v 0.00302413 -0.04107205 0.04714846
v 0.02092706 -0.03159597 0.04714572
v 0.01590762 -0.03593308 0.04714697
v 0.00763937 -0.03302957 0.04714614
v 0.01007987 -0.03910210 0.04714789
v 0.00796711 -0.03988390 0.04714813
v 0.00474968 -0.04075437 0.04714838
v -0.00905869 0.01844202 0.07092399
v -0.00232564 0.01933063 0.07092372
v -0.00197139 -0.03916603 0.07094055
v -0.00485446 -0.03901562 0.07094049
v -0.00472796 -0.04128434 0.07094116
v 0.00471417 0.01985090 0.07092357
v 0.00302778 0.02016047 0.07092348
v 0.00443085 0.01864254 0.07092391
v 0.00150227 0.02035842 0.07092343
v -0.00172016 -0.04143069 0.07094119
v 0.00149544 -0.04126334 0.07094116
v 0.00193622 -0.03891469 0.07094048
v -0.01759906 -0.03459035 0.07093924
v -0.01540533 0.01602462 0.07092469
v 0.00788999 0.01899824 0.07092381
v 0.01084653 0.01641483 0.07092454
v 0.00950023 0.01842364 0.07092397
v 0.01454367 -0.03411257 0.07093907
v 0.00852059 -0.03725043 0.07094000
v 0.00861273 -0.03965703 0.07094067
v -0.01148538 -0.03754780 0.07094009
v 0.00302378 -0.04106529 0.07094110
v 0.00474980 -0.04074752 0.07094099
v 0.00796718 -0.03987721 0.07094072
v -0.00767969 -0.04085203 0.07094102
v -0.02102339 0.01220874 0.07092579
v 0.01324445 -0.03757673 0.07094007
v 0.01745999 -0.03477908 0.07093927
v 0.01968075 -0.02967028 0.07093780
v 0.02116108 -0.03133729 0.07093827
v 0.02365490 -0.02416304 0.07093622
v -0.02286591 -0.03030271 0.07093802
v 0.02130900 0.00789753 0.07092699
v 0.02131903 0.01025853 0.07092631
v 0.01657553 0.01276763 0.07092559
v 0.01819129 0.01328059 0.07092544
v 0.01406911 0.01620054 0.07092461
v -0.02561003 0.00720011 0.07092723
v -0.02700199 -0.02491602 0.07093648
v -0.02978433 -0.01872067 0.07093468
v -0.02891795 0.00126874 0.07092894
v 0.02425087 -0.02733860 0.07093713
v 0.02666025 -0.02287426 0.07093584
v 0.02625187 -0.01788774 0.07093440
v 0.02830411 -0.01808147 0.07093446
v 0.02733165 -0.01118269 0.07093248
v -0.03076885 -0.00526562 0.07093082
v -0.03106292 -0.01205068 0.07093277
v 0.02914586 -0.01309726 0.07093303
v 0.02916581 -0.00804910 0.07093157
v 0.02683605 -0.00440937 0.07093053
v 0.02836279 -0.00305792 0.07093013
v 0.02479176 0.00206709 0.07092867
v 0.02675164 0.00175929 0.07092875
v 0.02438404 0.00622786 0.07092746
v -0.00172012 0.02275646 0.04938374
v -0.01176209 0.02193748 0.04904765
v -0.01176221 0.02031967 0.04743077
v -0.03231248 0.01528934 0.00438960
v -0.03100812 0.01887509 0.00541907
v -0.03096992 0.01950933 0.00298047
v -0.02768268 0.02558068 0.00734426
v -0.02571010 0.02866260 0.00822909
v -0.02571011 0.02947849 0.00450345
v -0.03231254 -0.01528930 -0.00438958
v -0.03302420 -0.01286848 -0.00369455
v -0.03302578 -0.01229206 -0.00530699
v -0.02945722 -0.02231249 -0.00640595
v -0.03100820 -0.01887506 -0.00541906
v -0.03097098 -0.01811891 -0.00782266
v -0.02768280 -0.02558066 -0.00734425
v -0.02817775 -0.02472438 -0.00709841
v -0.02817819 -0.02361638 -0.01019612
v -0.03460906 -0.00291008 -0.00174999
v -0.03471630 0.00000049 0.00000015
v -0.03460903 -0.00235795 -0.00244364
v -0.03456063 -0.00390386 -0.00112080
v -0.03460900 -0.00164510 -0.00297076
v -0.03460896 -0.00082011 -0.00329542
v -0.03460885 0.00093759 -0.00326417
v -0.03460880 0.00175052 -0.00291037
v -0.02571013 0.02430460 -0.01727857
v -0.02571014 0.02145790 -0.02070800
v -0.02817771 0.01850982 -0.01786292
v -0.03428808 0.00677135 0.00012052
v -0.03428807 0.00669475 0.00102281
v -0.03302469 0.01323561 0.00202204
v -0.02945711 0.02231252 0.00640596
v -0.02817750 0.02472465 0.00709849
v -0.02817755 0.02542847 0.00388474
v -0.03428810 0.00673043 -0.00075280
v -0.03302471 0.01338706 0.00023813
v -0.03302398 0.01286911 0.00369475
v -0.03460675 0.00326462 0.00093729
v -0.03460865 0.00339603 0.00006051
v -0.03456061 0.00390391 0.00112082
v -0.03460867 0.00329595 -0.00082039
v -0.02571011 0.02977511 0.00164473
v -0.02571011 0.02963563 -0.00331538
v -0.02817757 0.02556402 -0.00285987
v -0.03428812 0.00657180 -0.00163605
v -0.03302473 0.01330617 -0.00148850
v -0.03096993 0.01973256 0.00035095
v -0.03410334 0.00777461 0.00223211
v -0.03334980 0.01157990 0.00332462
v -0.02817755 0.02571943 0.00045741
v -0.03096996 0.01961333 -0.00219413
v -0.03096999 0.01915102 -0.00476813
v -0.03302477 0.01299253 -0.00323475
v -0.03302480 0.01246191 -0.00489590
v -0.03428815 0.00630341 -0.00247625
v -0.03428818 0.00592442 -0.00328113
v -0.03460871 0.00297130 -0.00164539
v -0.02571012 0.02939458 -0.00502209
v -0.02571011 0.02893708 -0.00720470
v -0.02817759 0.02496144 -0.00621484
v -0.02817761 0.02394199 -0.00940630
v -0.03097003 0.01836888 -0.00721669
v -0.03097008 0.01726438 -0.00956228
v -0.03302485 0.01171260 -0.00648719
v -0.03302491 0.01076115 -0.00796652
v -0.03428821 0.00544318 -0.00402937
v -0.03428826 0.00487331 -0.00470259
v -0.03460875 0.00244418 -0.00235824
v -0.03428839 0.00268462 -0.00621728
v -0.03428835 0.00349012 -0.00580356
v -0.03302510 0.00689981 -0.01147426
v -0.03302503 0.00832057 -0.01048975
v -0.03097025 0.01226446 -0.01546213
v -0.03097018 0.01420120 -0.01370478
v -0.02817767 0.02067443 -0.01530572
v -0.02571013 0.02608636 -0.01444868
v -0.02571012 0.02754007 -0.01143708
v -0.02817764 0.02250238 -0.01246357
v -0.03097013 0.01586193 -0.01174285
v -0.03302497 0.00963448 -0.00929753
v -0.03428830 0.00420874 -0.00530561
v -0.03428844 0.00186912 -0.00650904
v -0.03302516 0.00530725 -0.01229220
v -0.03097032 0.01017024 -0.01691332
v -0.02817775 0.01598547 -0.02015346
v -0.02571015 0.01985038 -0.02225364
v -0.02571015 0.01853148 -0.02336336
v -0.02571016 0.01440079 -0.02611282
v -0.02817778 0.01325585 -0.02204493
v -0.02817783 0.01019617 -0.02361641
v -0.03097038 0.00782279 -0.01811899
v -0.03097045 0.00544621 -0.01896923
v -0.03302524 0.00369494 -0.01286903
v -0.03302531 0.00202219 -0.01323535
v -0.03428849 0.00102304 -0.00669431
v -0.03428854 0.00012075 -0.00677092
v -0.03460890 0.00006080 -0.00339550
v -0.02571019 0.00164473 -0.02977510
v -0.02571020 -0.00331537 -0.02963563
v -0.02817800 -0.00285985 -0.02556397
v -0.03428867 -0.00247602 -0.00630299
v -0.03428862 -0.00163582 -0.00657136
v -0.03302551 -0.00323461 -0.01299226
v -0.03302545 -0.00148836 -0.01330591
v -0.03097066 -0.00219406 -0.01961320
v -0.03097059 0.00035103 -0.01973243
v -0.02817796 0.00045743 -0.02571937
v -0.02817791 0.00388476 -0.02542842
v -0.02571019 0.00450346 -0.02947849
v -0.02571018 0.00822908 -0.02866260
v -0.02571017 0.01182010 -0.02737786
v -0.02817787 0.00709852 -0.02472463
v -0.03097052 0.00298054 -0.01950920
v -0.03302538 0.00023828 -0.01338679
v -0.03428859 -0.00075257 -0.00673000
v -0.02571021 -0.00720470 -0.02893708
v -0.02571022 -0.01143708 -0.02754006
v -0.02817807 -0.00940628 -0.02394195
v -0.03428871 -0.00328089 -0.00592398
v -0.03302557 -0.00489576 -0.01246164
v -0.03097072 -0.00476806 -0.01915089
v -0.02817810 -0.01246354 -0.02250233
v -0.02571022 -0.01444867 -0.02608635
v -0.02817813 -0.01530570 -0.02067439
v -0.02571023 -0.01727857 -0.02430459
v -0.02817816 -0.01786289 -0.01850977
v -0.02571023 -0.02070799 -0.02145788
v -0.02571023 -0.02225364 -0.01985038
v -0.02817818 -0.02015343 -0.01598542
v -0.02571023 -0.02336336 -0.01853147
v -0.02817819 -0.02204491 -0.01325580
v -0.02571024 -0.02611282 -0.01440078
v -0.02571023 -0.02737786 -0.01182010
v -0.02571024 -0.02866259 -0.00822907
v -0.03097097 -0.01691324 -0.01017012
v -0.03097094 -0.01546206 -0.01226433
v -0.03097091 -0.01370471 -0.01420107
v -0.03097087 -0.01174278 -0.01586181
v -0.03097082 -0.00956221 -0.01726425
v -0.03302577 -0.01147412 -0.00689954
v -0.03302575 -0.01048961 -0.00832030
v -0.03302571 -0.00929739 -0.00963423
v -0.03302567 -0.00796638 -0.01076089
v -0.03334985 -0.01157986 -0.00332459
v -0.03428881 -0.00621704 -0.00268419
v -0.03428880 -0.00580333 -0.00348970
v -0.03428879 -0.00530537 -0.00420830
v -0.03428876 -0.00470235 -0.00487288
v -0.02571020 -0.00502209 -0.02939456
v -0.02817804 -0.00621482 -0.02496140
v -0.03097078 -0.00721663 -0.01836874
v -0.03302563 -0.00648705 -0.01171233
v -0.03428874 -0.00402913 -0.00544275
v -0.03410337 -0.00777457 -0.00223209
v -0.03175656 -0.02427176 0.02033764
v -0.02570994 0.02141968 0.03345599
v -0.02771380 0.01831083 0.03256314
v -0.02838482 0.01714772 0.03222907
v -0.02971119 0.01461223 0.03150112
v -0.03380152 0.00253748 0.02803498
v -0.03276075 0.00674916 0.02924558
v -0.03136861 0.01082871 0.03041526
v -0.03453195 -0.00232988 0.02663761
v -0.03477544 -0.00724204 0.02522721
v -0.03452985 -0.01215423 0.02381708
v -0.03379807 -0.01702119 0.02241969
v -0.03309141 -0.02003811 0.02155338
v -0.02807455 -0.03217453 0.01806907
v -0.03011954 -0.02822965 0.01920124
v -0.02784801 0.01664083 0.03757023
v -0.01550007 0.02104851 0.05423352
v -0.01957650 0.01969460 0.05429678
v -0.02334046 0.01767925 0.05432032
v -0.02663423 0.01490926 0.05427032
v -0.02934139 0.01148248 0.05414778
v -0.03140656 0.00757351 0.05396640
v -0.03276541 0.00384055 0.04520689
v -0.03374461 -0.00028454 0.04696815
v -0.03374774 -0.00027514 0.04492385
v -0.03380230 0.00102562 0.03377785
v -0.03378613 0.00024149 0.03779021
v -0.03376273 -0.00016610 0.04160409
v -0.02988503 0.01276445 0.03728537
v -0.02409980 0.02000332 0.04221881
v -0.02480331 0.01939405 0.04196421
v -0.02349030 0.02001339 0.04339188
v -0.02396292 0.01858051 0.04603243
v -0.02439661 0.02002460 0.04152002
v -0.02507333 0.02020174 0.03936581
v -0.02556913 0.02016662 0.03781714
v -0.02552035 0.02059945 0.03684615
v -0.02611536 0.02075142 0.03357077
v -0.02570304 0.02123431 0.03412194
v -0.01799915 0.02093203 0.04807913
v -0.01971789 0.02059769 0.04723342
v -0.01979807 0.02002927 0.05009905
v -0.02245253 0.02012113 0.04487949
v -0.02232635 0.01975637 0.04604360
v -0.02112885 0.02033370 0.04622311
v -0.02346865 0.01804616 0.05013935
v -0.02034829 0.02047710 0.04682465
v -0.02031242 0.02048388 0.04684962
v -0.01405645 0.02165416 0.04901346
v -0.01572773 0.02124621 0.04999353
v -0.01621675 0.02127034 0.04864161
v -0.01765051 0.02099934 0.04821119
v -0.02933571 0.01203641 0.04573343
v -0.02687730 0.01560634 0.04592350
v -0.02736123 0.01614173 0.04177871
v -0.03129355 0.00806820 0.04548814
v -0.02927032 0.01175063 0.04993307
v -0.02663857 0.01522412 0.05007810
v -0.02784275 -0.03424899 0.02368639
v -0.02320522 -0.04070634 0.04338335
v -0.01176208 -0.04293405 0.05917089
v -0.03285473 -0.02439384 0.05851400
v -0.03130744 -0.02886462 0.05823515
v -0.02919438 -0.03303752 0.05792644
v -0.02646186 -0.03666000 0.05755406
v -0.02485723 -0.03817398 0.05733538
v -0.02121362 -0.04046918 0.05683222
v -0.01921527 -0.04127214 0.05655653
v -0.01499150 -0.04237877 0.05598776
v -0.01176200 -0.04293344 0.06152075
v -0.01596161 -0.04228217 0.04927830
v -0.02013693 -0.04133985 0.04984844
v -0.02491846 -0.03967200 0.04363323
v -0.02556359 -0.03932477 0.03684724
v -0.02570165 -0.03867482 0.03007396
v -0.02701553 -0.03706596 0.03027515
v -0.03027774 -0.03124507 0.03080359
v -0.03380096 -0.01871082 0.02846798
v -0.03319539 -0.02231958 0.03147880
v -0.03378008 -0.02003584 0.03460594
v -0.03375329 -0.02055885 0.04086318
v -0.03312902 -0.02353654 0.04498668
v -0.03192956 -0.02687451 0.03113632
v -0.03200010 -0.02766199 0.03791392
v -0.03184520 -0.02827175 0.04469607
v -0.03036556 -0.03214296 0.03760067
v -0.03012578 -0.03277263 0.04439875
v -0.02821302 -0.03526417 0.03046038
v -0.02937109 -0.03422334 0.03743523
v -0.02906465 -0.03483344 0.04423609
v -0.02824512 -0.03614539 0.03725794
v -0.02697853 -0.03786230 0.03706355
v -0.02647028 -0.03833609 0.04385817
v -0.02785021 -0.03670575 0.04405760
v -0.02561424 -0.03836782 0.05061532
v -0.02712709 -0.03681294 0.05082338
v -0.02393303 -0.03963568 0.05038126
v -0.02310204 -0.03944442 0.05709371
v -0.02847156 -0.03501760 0.05100853
v -0.02965468 -0.03303108 0.05117517
v -0.03157796 -0.02865952 0.05147172
v -0.03448462 -0.00525911 0.04193396
v -0.03453178 -0.01372701 0.02952816
v -0.03477716 -0.00870590 0.03059586
v -0.03453407 -0.00369010 0.03166207
v -0.03451451 -0.00474755 0.03675707
v -0.03475570 -0.00984201 0.03604047
v -0.03450994 -0.01495224 0.03532149
v -0.03448149 -0.01547982 0.04121853
v -0.03472607 -0.01036529 0.04157637
v -0.00749250 -0.04533051 0.05107592
v -0.00786435 -0.04501986 0.05077326
v -0.00727552 -0.04540610 0.05115095
v -0.00705753 -0.04543024 0.05117496
v -0.00859420 -0.04426806 0.05007715
v -0.00885901 -0.04406882 0.04990449
v -0.00994241 -0.04346342 0.04942534
v -0.01140040 -0.04300135 0.04916165
v -0.01057308 -0.04322168 0.04926608
v -0.01016981 -0.04336832 0.04935935
v -0.00172006 -0.04511045 0.05085234
v -0.00438890 -0.04543015 0.05117508
v -0.00172026 -0.04543016 0.05117494
v -0.00441121 -0.04542563 0.06691696
v -0.00172025 -0.04542563 0.06691702
v -0.00753925 -0.04532529 0.06699587
v -0.00657669 -0.04313649 0.06897547
v -0.00767079 -0.04524884 0.06705468
v -0.00788890 -0.04504548 0.06721080
v -0.00738033 -0.04538621 0.06694862
v -0.00710217 -0.04542571 0.06691708
v -0.01066826 -0.04319572 0.06879799
v -0.01040783 -0.04328824 0.06872342
v -0.00916691 -0.04283337 0.06908143
v -0.00924357 -0.04386266 0.06821281
v -0.00884389 -0.04413450 0.06796886
v 0.00356870 -0.04542569 0.06691707
v 0.00347991 -0.04543028 0.05117500
v -0.02047599 -0.02124577 -0.01317640
v -0.02047599 -0.02333846 -0.00896194
v -0.02047599 -0.02385513 -0.00747882
v -0.02047598 -0.02496559 -0.00131133
v -0.02047598 -0.02450736 0.00493855
v -0.02047598 -0.02250925 0.01087813
v -0.02047599 -0.01909680 0.01613420
v -0.02047598 -0.01448442 0.02037649
v -0.02047599 -0.00896194 0.02333846
v -0.02047598 -0.00287635 0.02483398
v -0.02047599 0.00338998 0.02476910
v -0.02047598 0.00944330 0.02314787
v -0.02047598 0.01490327 0.02007219
v -0.02047598 0.01942680 0.01573529
v -0.02047599 0.02272968 0.01040969
v -0.02047599 0.02460437 0.00443001
v -0.02047599 0.02493308 -0.00182802
v -0.02047599 0.02369515 -0.00797120
v -0.02047599 0.02096836 -0.01361351
v -0.02047598 0.01692406 -0.01840044
v -0.02047599 0.01181636 -0.02203119
v -0.02047599 0.00596619 -0.02427765
v -0.02047598 -0.00025886 -0.02499866
v -0.02047599 -0.00646764 -0.02414890
v -0.02047599 -0.01227003 -0.02178179
v -0.02047599 -0.01730146 -0.01804604
v -0.02047599 0.00000000 -0.00000000
v 0.00356115 -0.04542686 0.05117198
v 0.00518348 -0.04371758 0.04990135
v 0.00334222 -0.04310106 0.04910678
v 0.00611517 -0.04294551 0.04947026
v 0.00603049 -0.04261594 0.04916089
v 0.00718710 -0.04233949 0.04923575
v 0.00496508 -0.04395891 0.05005832
v 0.00437550 -0.04486632 0.05071906
v 0.00422789 -0.04509094 0.05089528
v 0.00407484 -0.04523283 0.05100888
v 0.00381611 -0.04537181 0.05112429
v 0.00859252 -0.04178298 0.04914872
v 0.00442579 -0.04494291 0.06728194
v 0.00530286 -0.04378904 0.06808229
v 0.00581251 -0.04330206 0.06837761
v 0.00693249 -0.04251058 0.06876869
v 0.00724616 -0.04233899 0.06883186
v 0.00859257 -0.04177737 0.06894125
v 0.00397807 -0.04533810 0.06698633
v 0.00423953 -0.04516784 0.06711518
v 0.02662724 0.00639994 0.06892728
v 0.02630183 0.00693565 0.06892695
v 0.00931272 0.02062564 0.06892371
v 0.00859267 0.02087189 0.06892318
v 0.01241429 0.01934336 0.06892461
v 0.01625174 0.01719867 0.06892395
v 0.01537660 0.01774815 0.06892397
v 0.01896657 0.01523088 0.06892518
v 0.01704582 0.01666602 0.06892411
v 0.02374744 0.01049934 0.06892671
v 0.02238930 0.01204888 0.06892714
v 0.02146823 0.01299693 0.06892705
v 0.01953343 0.01476380 0.06892565
v 0.02439139 0.00969112 0.06892651
v 0.02792302 0.00399957 0.06892914
v 0.02861199 0.00249129 0.06893008
v 0.02958715 -0.00008743 0.06893013
v 0.02924703 0.00088834 0.06893029
v 0.03125531 -0.01000126 0.06893367
v 0.03116290 -0.00794473 0.06893233
v 0.03103577 -0.00662715 0.06893136
v 0.03047782 -0.00331996 0.06892984
v 0.03125327 -0.01103461 0.06893393
v 0.03106882 -0.01398371 0.06893359
v 0.03102376 -0.01437970 0.06893354
v 0.03045556 -0.01768516 0.06893399
v 0.02847697 -0.02370858 0.06893755
v 0.02920189 -0.02191620 0.06893689
v 0.02954588 -0.02094173 0.06893618
v 0.02787808 -0.02499675 0.06893741
v 0.02662717 -0.02730541 0.06893697
v 0.02262040 -0.03270403 0.06893989
v 0.02366435 -0.03150529 0.06893884
v 0.02431145 -0.03069968 0.06893818
v 0.02624779 -0.02792778 0.06893697
v 0.02139548 -0.03397401 0.06894056
v 0.01888690 -0.03620020 0.06893993
v 0.01472272 -0.03903970 0.06894053
v 0.01614221 -0.03817490 0.06893987
v 0.01704571 -0.03757145 0.06893970
v 0.01173343 -0.04056227 0.06894208
v 0.01419713 -0.03933565 0.06894082
v 0.00859263 0.02086617 0.04913074
v 0.00776994 0.02118458 0.06888448
v 0.00718710 0.02142282 0.04921734
v 0.00694183 0.02159978 0.06875236
v 0.00611705 0.02202774 0.04945102
v 0.00581867 0.02239115 0.06836165
v 0.00518493 0.02279989 0.04988144
v 0.00520865 0.02298522 0.06799731
v 0.00496639 0.02304127 0.05003822
v 0.00437565 0.02395045 0.05069927
v 0.00442596 0.02403662 0.06726215
v 0.00427874 0.02422427 0.06712291
v 0.00369147 0.02449192 0.05113516
v 0.00381882 0.02448738 0.06692246
v 0.00394916 0.02439718 0.05105482
v 0.00405745 0.02439183 0.06699685
v 0.00401066 0.02436138 0.05102525
v 0.00422089 0.02418328 0.05088194
v 0.00603353 0.02169883 0.04914332
v 0.00335884 0.02218406 0.04908393
v 0.00603482 0.02171035 0.06890070
v 0.00335879 0.02218740 0.06895337
v 0.02662723 0.00639425 0.04913480
v 0.02956527 -0.02088940 0.04914263
v 0.01084170 -0.04095075 0.04914842
v 0.01704570 -0.03757715 0.04914746
v 0.02238919 -0.03296002 0.04914611
v 0.02662716 -0.02731111 0.04914450
v 0.03106881 -0.01398940 0.04914065
v 0.03106883 -0.00692747 0.04913862
v 0.02956531 -0.00002746 0.04913664
v 0.02238928 0.01204319 0.04913318
v 0.01704581 0.01666034 0.04913186
v 0.01084183 0.02003397 0.04913089
v 0.00335332 -0.04309050 0.06897419
v 0.00603287 -0.04261092 0.06892616
v -0.01685238 0.01011045 0.04000000
v 0.01311214 0.01008382 0.04000001
v 0.00753483 0.01324011 0.04000000
v 0.00133836 0.01487481 0.04000000
v -0.00507011 0.01488050 0.04000001
v -0.01126948 0.01325682 0.04000000
v -0.01639575 -0.03027596 0.04000000
v -0.01084880 -0.03325500 0.03999999
v -0.00473345 -0.03475367 0.04000000
v 0.00156239 -0.03467691 0.04000000
v 0.00763938 -0.03302958 0.04000001
v 0.01311205 -0.02991617 0.04000000
v -0.00821267 -0.03847482 0.09791683
v -0.01148538 -0.03754780 0.09791681
v -0.01462835 -0.03624711 0.09791682
v -0.01759906 -0.03459035 0.09791683
v -0.02035735 -0.03259990 0.09791682
v -0.02286591 -0.03030270 0.09791682
v -0.02509082 -0.02772981 0.09791682
v -0.02700199 -0.02491602 0.09791683
v -0.02857358 -0.02189937 0.09791683
v -0.02978433 -0.01872068 0.09791683
v -0.03061786 -0.01542292 0.09791683
v -0.03106292 -0.01205069 0.09791683
v -0.03111347 -0.00864959 0.09791683
v -0.03076885 -0.00526562 0.09791683
v -0.03003369 -0.00194454 0.09791683
v -0.02891795 0.00126874 0.09791683
v -0.02743672 0.00433076 0.09791681
v -0.02561003 0.00720011 0.09791682
v -0.02346257 0.00983800 0.09791682
v -0.02102339 0.01220875 0.09791681
v -0.01832549 0.01428029 0.09791683
v -0.01540533 0.01602462 0.09791683
v -0.01230241 0.01741814 0.09791683
v -0.00905869 0.01844202 0.09791683
v -0.00571804 0.01908240 0.09791683
v -0.00232564 0.01933063 0.09791683
v 0.00107264 0.01918335 0.09791681
v 0.00443085 0.01864254 0.09791681
v 0.00770356 0.01771552 0.09791683
v 0.01084653 0.01641483 0.09791683
v 0.01381724 0.01475807 0.09791682
v 0.01657553 0.01276763 0.09791682
v 0.01908409 0.01047042 0.09791683
v 0.02130900 0.00789753 0.09791682
v 0.02322017 0.00508373 0.09791683
v 0.02479175 0.00206709 0.09791681
v 0.02600251 -0.00111160 0.09791682
v 0.02683605 -0.00440936 0.09791681
v 0.02728110 -0.00778159 0.09791681
v 0.02733165 -0.01118269 0.09791681
v 0.02698703 -0.01456667 0.09791683
v 0.02625187 -0.01788774 0.09791682
v 0.02513613 -0.02110101 0.09791682
v 0.02365490 -0.02416304 0.09791683
v 0.02182820 -0.02703239 0.09791682
v 0.01968075 -0.02967028 0.09791682
v 0.01724158 -0.03204103 0.09791683
v 0.01454366 -0.03411257 0.09791681
v 0.01162350 -0.03585690 0.09791681
v 0.00852059 -0.03725042 0.09791681
v 0.00527687 -0.03827430 0.09791681
v 0.00193622 -0.03891468 0.09791681
v -0.00145618 -0.03916291 0.09791681
v -0.00485446 -0.03901562 0.09791683
v -0.00218516 0.01008165 0.10000002
v -0.00780715 0.00918785 0.10000000
v -0.00188791 -0.00991614 0.09999999
v 0.01303075 0.00340427 0.10000001
v 0.00867365 0.00706778 0.09999999
v 0.00346091 0.00935534 0.10000001
v 0.01794864 -0.01246789 0.09999999
v 0.01786403 -0.00677593 0.09999999
v 0.01617924 -0.00133837 0.10000002
v 0.00917378 -0.02657865 0.10000000
v 0.01342007 -0.02278726 0.10000000
v 0.01642620 -0.01795313 0.09999999
v -0.00723672 -0.02918763 0.10000000
v -0.00159065 -0.02991393 0.10000000
v 0.00403133 -0.02902014 0.10000001
v -0.01995505 -0.01849391 0.10000000
v -0.01680657 -0.02323656 0.10000000
v -0.01244947 -0.02690006 0.09999999
v -0.02020202 -0.00187915 0.10000000
v -0.02172446 -0.00736438 0.09999999
v -0.02163985 -0.01305635 0.09999999
v -0.01294959 0.00674636 0.10000001
v -0.01719589 0.00295497 0.10000001
v -0.00159066 -0.02991393 0.09891682
v -0.00723673 -0.02918763 0.09891682
v -0.01244947 -0.02690006 0.09891681
v -0.01680657 -0.02323656 0.09891682
v -0.01995506 -0.01849391 0.09891681
v -0.02163985 -0.01305634 0.09891681
v -0.02172445 -0.00736439 0.09891684
v -0.02020202 -0.00187914 0.09891681
v -0.01719589 0.00295498 0.09891683
v -0.01294959 0.00674636 0.09891683
v -0.00780715 0.00918786 0.09891682
v -0.00218516 0.01008165 0.09891683
v 0.00346091 0.00935534 0.09891683
v 0.00867365 0.00706777 0.09891684
v 0.01303076 0.00340427 0.09891683
v 0.01617924 -0.00133837 0.09891683
v 0.01786403 -0.00677593 0.09891681
v 0.01794864 -0.01246789 0.09891681
v 0.01642621 -0.01795314 0.09891684
v 0.01342007 -0.02278726 0.09891682
v 0.00917378 -0.02657864 0.09891682
v 0.00403133 -0.02902014 0.09891683
v 0.00097132 0.01818849 0.09891681
v -0.01972602 -0.03182439 0.09891682
v -0.01419288 -0.03534691 0.09891681
v -0.00799654 -0.03749845 0.09891682
v -0.00147104 -0.03816301 0.09891681
v 0.00503182 -0.03730479 0.09891682
v -0.00231078 0.01833074 0.09891681
v -0.00558721 0.01809100 0.09891681
v -0.01194646 0.01648364 0.09891683
v -0.01776362 0.01345306 0.09891681
v -0.02272508 0.00916264 0.09891682
v 0.02504889 -0.00141261 0.09891681
v 0.02236167 0.00457092 0.09891681
v 0.01836700 0.00977345 0.09891682
v 0.01328021 0.01391451 0.09891681
v 0.00737554 0.01677085 0.09891682
v 0.01116147 -0.03497004 0.09891682
v 0.01658747 -0.03128462 0.09891684
v 0.02101730 -0.02644723 0.09891683
v 0.02421213 -0.02071863 0.09891682
v 0.02599975 -0.01440767 0.09891681
v 0.02628377 -0.00785457 0.09891681
v -0.02656336 0.00384369 0.09891681
v -0.02907154 -0.00221707 0.09891681
v -0.03011441 -0.00869289 0.09891683
v -0.02963574 -0.01523465 0.09891684
v -0.02766135 -0.02148969 0.09891681
v -0.02429766 -0.02712079 0.09891682
f 1 2 3
f 4 5 6
f 6 5 7
f 6 7 8
f 8 7 9
f 8 9 10
f 11 12 13
f 13 12 5
f 13 5 14
f 14 5 4
f 15 16 17
f 17 16 12
f 17 12 18
f 18 12 11
f 15 19 16
f 16 19 20
f 16 20 21
f 20 22 21
f 21 22 23
f 21 23 24
f 25 26 27
f 27 26 24
f 27 24 28
f 28 24 23
f 1 29 2
f 2 29 30
f 2 30 31
f 32 33 34
f 35 36 37
f 37 36 34
f 37 34 38
f 38 34 33
f 39 40 35
f 40 41 35
f 35 41 42
f 35 42 36
f 35 43 39
f 39 43 44
f 39 44 45
f 45 44 46
f 45 46 47
f 32 34 48
f 48 34 49
f 48 49 50
f 50 49 29
f 50 29 51
f 51 29 1
f 51 1 52
f 52 1 3
f 52 3 53
f 53 3 54
f 53 54 55
f 55 54 56
f 56 54 57
f 56 57 58
f 2 59 3
f 3 59 60
f 3 60 54
f 54 60 61
f 54 61 57
f 25 62 26
f 26 62 63
f 26 63 64
f 64 63 65
f 64 65 66
f 66 65 67
f 66 67 31
f 31 67 68
f 31 68 2
f 2 68 69
f 2 69 59
f 70 71 72
f 72 71 73
f 74 75 73
f 73 75 76
f 73 76 72
f 77 78 79
f 79 78 80
f 79 80 81
f 81 80 82
f 81 82 83
f 83 82 84
f 83 84 85
f 85 84 86
f 85 86 87
f 87 86 88
f 87 88 89
f 89 88 90
f 89 90 91
f 91 90 92
f 91 92 93
f 93 92 94
f 93 94 74
f 74 94 95
f 74 95 75
f 96 97 98
f 98 97 99
f 98 99 77
f 77 99 100
f 77 100 78
f 101 102 103
f 101 103 104
f 105 106 104
f 105 104 107
f 107 104 103
f 107 103 108
f 108 103 109
f 108 109 110
f 110 109 111
f 110 111 112
f 112 111 113
f 112 113 114
f 114 113 115
f 114 115 116
f 117 118 119
f 119 118 120
f 119 120 121
f 121 120 122
f 122 120 123
f 122 123 124
f 124 123 116
f 124 116 115
f 125 126 127
f 127 126 128
f 127 128 129
f 129 128 130
f 129 130 117
f 117 130 118
f 131 132 58
f 56 133 134
f 135 136 137
f 132 138 58
f 58 138 139
f 58 139 56
f 56 139 140
f 56 140 133
f 141 142 143
f 134 144 56
f 56 144 145
f 56 145 142
f 142 145 146
f 142 146 143
f 137 136 58
f 58 136 147
f 58 147 131
f 141 143 148
f 148 143 149
f 148 149 150
f 150 149 151
f 150 151 152
f 152 151 153
f 152 153 154
f 154 153 155
f 154 155 156
f 156 155 157
f 156 157 158
f 158 157 159
f 158 159 160
f 160 159 161
f 160 161 162
f 162 161 163
f 162 163 164
f 164 163 165
f 164 165 166
f 166 165 167
f 167 165 168
f 167 168 169
f 169 168 170
f 169 170 137
f 137 170 171
f 137 171 135
f 10 172 173
f 174 6 173
f 173 6 8
f 173 8 10
f 175 11 13
f 175 13 176
f 176 13 14
f 176 14 174
f 174 14 4
f 174 4 6
f 19 15 177
f 177 15 17
f 177 17 175
f 175 17 18
f 175 18 11
f 25 27 178
f 178 27 179
f 179 27 28
f 179 28 180
f 180 28 23
f 180 23 181
f 181 23 22
f 181 22 177
f 177 22 20
f 177 20 19
f 68 67 182
f 182 67 65
f 182 65 183
f 183 65 63
f 183 63 178
f 178 63 62
f 178 62 25
f 61 184 57
f 57 184 185
f 57 185 58
f 68 182 69
f 69 182 186
f 69 186 59
f 59 186 187
f 59 187 60
f 60 187 188
f 60 188 61
f 61 188 189
f 61 189 184
f 190 191 192
f 192 191 193
f 192 193 194
f 194 193 195
f 193 196 195
f 195 196 197
f 195 197 198
f 198 197 199
f 198 199 200
f 200 199 201
f 200 201 202
f 202 201 203
f 202 203 204
f 204 203 205
f 205 203 206
f 205 206 207
f 207 206 208
f 207 208 209
f 209 208 210
f 210 208 211
f 210 211 212
f 212 211 102
f 102 211 213
f 102 213 214
f 215 97 96
f 215 96 216
f 216 96 217
f 216 217 218
f 218 217 219
f 218 219 220
f 220 219 221
f 221 219 222
f 221 222 223
f 223 222 191
f 223 191 190
f 224 190 192
f 224 192 225
f 102 101 212
f 212 101 226
f 212 226 210
f 210 226 227
f 210 227 209
f 209 227 228
f 209 228 207
f 229 202 230
f 230 202 204
f 230 204 228
f 228 204 205
f 228 205 207
f 192 194 225
f 225 194 195
f 225 195 231
f 231 195 198
f 231 198 229
f 229 198 200
f 229 200 202
f 216 218 232
f 233 234 224
f 224 234 223
f 224 223 190
f 232 218 235
f 235 218 220
f 235 220 234
f 234 220 221
f 234 221 223
f 216 232 215
f 215 232 236
f 215 236 97
f 103 102 237
f 238 239 237
f 237 239 240
f 102 214 237
f 237 214 241
f 237 241 238
f 113 111 237
f 237 111 109
f 237 109 103
f 121 122 237
f 127 129 240
f 240 129 117
f 240 117 237
f 237 117 119
f 237 119 121
f 122 124 237
f 237 124 115
f 237 115 113
f 10 9 242
f 243 244 245
f 245 244 246
f 247 248 249
f 243 250 244
f 244 250 251
f 244 251 252
f 253 244 254
f 248 247 255
f 255 247 256
f 255 256 257
f 257 256 46
f 46 256 258
f 46 258 47
f 252 259 244
f 244 259 260
f 244 260 254
f 249 261 247
f 247 261 262
f 247 262 246
f 246 262 263
f 246 263 245
f 264 265 266
f 266 265 267
f 266 267 242
f 242 267 268
f 242 268 10
f 264 266 269
f 269 266 270
f 269 270 271
f 254 272 253
f 253 272 273
f 253 273 274
f 273 275 274
f 274 275 276
f 274 276 270
f 270 276 277
f 270 277 271
f 241 278 238
f 238 278 279
f 280 281 282
f 283 284 285
f 285 284 286
f 285 286 279
f 279 286 239
f 279 239 238
f 282 287 280
f 280 287 288
f 280 288 289
f 290 93 74
f 241 214 278
f 278 214 213
f 278 213 291
f 283 285 292
f 292 285 293
f 292 293 294
f 295 296 297
f 290 74 298
f 288 299 289
f 289 299 300
f 289 300 296
f 296 300 301
f 296 301 297
f 74 73 298
f 298 73 71
f 298 71 281
f 281 71 302
f 281 302 282
f 213 211 291
f 291 211 208
f 291 208 303
f 297 304 295
f 295 304 305
f 295 305 306
f 306 305 307
f 306 307 308
f 83 85 309
f 310 311 312
f 312 311 313
f 312 313 293
f 293 313 314
f 293 314 294
f 85 87 309
f 309 87 89
f 309 89 290
f 290 89 91
f 290 91 93
f 201 315 203
f 203 315 303
f 203 303 206
f 206 303 208
f 316 317 98
f 196 318 197
f 197 318 315
f 197 315 199
f 199 315 201
f 307 319 308
f 308 319 320
f 308 320 321
f 321 320 322
f 321 322 323
f 98 77 316
f 316 77 79
f 316 79 309
f 309 79 81
f 309 81 83
f 196 193 318
f 318 193 191
f 318 191 324
f 324 191 222
f 324 222 325
f 222 219 325
f 325 219 217
f 325 217 317
f 317 217 96
f 317 96 98
f 322 326 323
f 323 326 327
f 323 327 328
f 328 327 329
f 328 329 330
f 330 329 331
f 330 331 310
f 310 331 332
f 310 332 311
f 333 255 257
f 334 106 105
f 334 105 335
f 335 105 46
f 46 105 107
f 46 107 257
f 107 108 257
f 257 108 110
f 257 110 112
f 112 114 257
f 257 114 116
f 257 116 123
f 123 120 257
f 257 120 118
f 257 118 333
f 333 118 130
f 333 130 128
f 336 337 338
f 339 340 341
f 342 343 344
f 345 346 347
f 348 349 350
f 351 352 353
f 354 352 351
f 355 352 356
f 357 352 358
f 359 360 361
f 362 363 364
f 365 366 367
f 367 366 339
f 368 362 369
f 369 362 364
f 369 364 338
f 338 364 370
f 338 370 336
f 352 371 372
f 372 371 373
f 374 352 372
f 375 376 377
f 378 368 379
f 379 368 369
f 379 369 380
f 380 369 338
f 380 338 367
f 367 338 337
f 367 337 365
f 378 374 368
f 368 374 372
f 368 372 362
f 362 372 373
f 362 373 363
f 363 373 381
f 363 381 364
f 364 381 382
f 364 382 370
f 341 375 383
f 383 375 377
f 383 377 384
f 384 377 385
f 384 385 386
f 386 385 387
f 386 387 388
f 388 387 389
f 388 389 390
f 339 341 367
f 367 341 383
f 367 383 380
f 380 383 384
f 380 384 379
f 379 384 386
f 379 386 378
f 378 386 388
f 378 388 374
f 374 388 390
f 374 390 352
f 391 392 393
f 393 392 394
f 393 394 395
f 395 394 396
f 395 396 397
f 397 396 398
f 397 398 399
f 399 398 400
f 399 400 401
f 402 403 404
f 404 403 405
f 404 405 406
f 406 405 407
f 406 407 361
f 361 407 408
f 361 408 359
f 359 408 409
f 392 410 394
f 394 410 411
f 394 411 396
f 396 411 412
f 396 412 398
f 398 412 413
f 398 413 400
f 400 413 414
f 400 414 401
f 401 414 358
f 401 358 352
f 415 402 416
f 416 402 404
f 416 404 417
f 417 404 406
f 417 406 418
f 418 406 361
f 418 361 419
f 419 361 360
f 415 357 402
f 402 357 358
f 402 358 403
f 403 358 414
f 403 414 405
f 405 414 413
f 405 413 407
f 407 413 412
f 407 412 408
f 408 412 411
f 408 411 409
f 409 411 410
f 376 391 377
f 377 391 393
f 377 393 385
f 385 393 395
f 385 395 387
f 387 395 397
f 387 397 389
f 389 397 399
f 389 399 390
f 390 399 401
f 390 401 352
f 420 421 422
f 422 421 423
f 422 423 424
f 424 423 425
f 424 425 426
f 426 425 427
f 426 427 428
f 428 427 429
f 428 429 430
f 431 432 433
f 434 435 436
f 436 435 437
f 436 437 438
f 438 437 439
f 438 439 440
f 440 439 441
f 440 441 442
f 442 441 443
f 421 444 423
f 423 444 445
f 423 445 425
f 425 445 446
f 425 446 427
f 427 446 447
f 427 447 429
f 429 447 448
f 429 448 430
f 430 448 356
f 430 356 352
f 449 450 451
f 452 434 453
f 453 434 436
f 453 436 454
f 454 436 438
f 454 438 433
f 433 438 440
f 433 440 431
f 431 440 442
f 452 355 434
f 434 355 356
f 434 356 435
f 435 356 448
f 435 448 437
f 437 448 447
f 437 447 439
f 439 447 446
f 439 446 441
f 441 446 445
f 441 445 443
f 443 445 444
f 419 420 418
f 418 420 422
f 418 422 417
f 417 422 424
f 417 424 416
f 416 424 426
f 416 426 415
f 415 426 428
f 415 428 357
f 357 428 430
f 357 430 352
f 451 450 455
f 455 450 456
f 455 456 457
f 457 456 458
f 457 458 459
f 458 460 459
f 459 460 461
f 459 461 462
f 462 461 463
f 462 463 464
f 464 463 465
f 464 465 350
f 350 465 466
f 350 466 348
f 348 466 467
f 349 345 350
f 350 345 347
f 350 347 464
f 464 347 468
f 464 468 462
f 462 468 469
f 462 469 459
f 459 469 470
f 459 470 457
f 457 470 471
f 457 471 455
f 455 471 472
f 455 472 451
f 346 342 347
f 347 342 344
f 347 344 468
f 468 344 473
f 468 473 469
f 469 473 474
f 469 474 470
f 470 474 475
f 470 475 471
f 471 475 476
f 471 476 472
f 343 477 344
f 344 477 478
f 344 478 473
f 473 478 479
f 473 479 474
f 474 479 480
f 474 480 475
f 475 480 481
f 475 481 476
f 482 449 483
f 483 449 451
f 483 451 484
f 484 451 472
f 484 472 485
f 485 472 476
f 485 476 486
f 486 476 481
f 486 481 353
f 353 481 480
f 353 480 351
f 351 480 479
f 351 479 354
f 354 479 478
f 354 478 487
f 487 478 477
f 432 482 433
f 433 482 483
f 433 483 454
f 454 483 484
f 454 484 453
f 453 484 485
f 453 485 452
f 452 485 486
f 452 486 355
f 355 486 353
f 355 353 352
f 488 346 345
f 489 340 490
f 490 340 339
f 490 339 491
f 491 339 366
f 491 366 492
f 382 493 370
f 370 493 494
f 370 494 336
f 336 494 495
f 336 495 337
f 337 495 492
f 337 492 365
f 365 492 366
f 382 381 493
f 493 381 373
f 493 373 496
f 496 373 371
f 496 371 497
f 497 371 352
f 497 352 354
f 497 354 498
f 498 354 487
f 498 487 499
f 499 487 477
f 499 477 500
f 500 477 343
f 500 343 488
f 488 343 342
f 488 342 346
f 349 501 345
f 345 501 502
f 345 502 488
f 349 348 501
f 501 348 467
f 501 467 185
f 490 491 503
f 101 104 504
f 101 504 226
f 226 504 505
f 226 505 227
f 227 505 506
f 227 506 228
f 228 506 507
f 228 507 230
f 230 507 508
f 230 508 229
f 229 508 509
f 229 509 231
f 224 225 233
f 233 225 510
f 233 510 511
f 511 510 512
f 494 493 513
f 513 514 510
f 510 514 515
f 510 515 512
f 503 491 516
f 516 491 492
f 516 492 495
f 517 518 519
f 519 518 520
f 517 521 518
f 518 521 522
f 518 522 523
f 523 522 524
f 523 524 525
f 525 524 526
f 527 528 529
f 530 531 532
f 532 531 533
f 532 533 534
f 534 533 529
f 534 529 535
f 535 529 528
f 106 536 537
f 537 536 538
f 537 538 529
f 529 538 539
f 529 539 527
f 540 541 542
f 513 510 494
f 494 510 543
f 494 543 495
f 495 543 540
f 495 540 516
f 516 540 542
f 516 542 503
f 543 544 540
f 540 544 545
f 540 545 541
f 541 545 520
f 541 520 542
f 542 520 518
f 542 518 503
f 503 518 523
f 503 523 490
f 490 523 525
f 490 525 489
f 489 525 526
f 104 106 504
f 504 106 537
f 504 537 505
f 505 537 529
f 505 529 506
f 506 529 533
f 506 533 507
f 530 519 531
f 531 519 520
f 531 520 533
f 533 520 545
f 533 545 507
f 507 545 544
f 507 544 508
f 508 544 543
f 508 543 509
f 509 543 510
f 509 510 231
f 231 510 225
f 335 46 44
f 55 524 522
f 524 55 526
f 526 55 56
f 526 56 489
f 33 32 530
f 530 32 48
f 530 48 519
f 519 48 50
f 519 50 517
f 517 50 51
f 517 51 521
f 521 51 52
f 521 52 522
f 522 52 53
f 522 53 55
f 530 532 33
f 33 532 534
f 33 534 38
f 38 534 535
f 38 535 37
f 335 44 334
f 106 334 536
f 536 334 44
f 536 44 538
f 538 44 43
f 538 43 539
f 539 43 35
f 539 35 527
f 527 35 37
f 527 37 528
f 528 37 535
f 184 189 546
f 179 547 178
f 173 172 548
f 97 549 99
f 99 549 100
f 550 80 78
f 80 550 82
f 82 550 551
f 82 551 84
f 84 551 86
f 86 551 552
f 86 552 88
f 92 90 553
f 94 554 95
f 95 554 555
f 95 555 75
f 75 555 76
f 76 555 556
f 76 556 72
f 72 556 557
f 72 557 70
f 173 548 558
f 559 181 177
f 177 175 559
f 559 175 176
f 559 176 558
f 558 176 174
f 558 174 173
f 183 560 182
f 182 560 561
f 182 561 186
f 186 561 187
f 562 563 188
f 188 563 189
f 185 184 501
f 501 184 546
f 501 546 502
f 502 546 564
f 499 500 565
f 565 500 566
f 565 566 567
f 567 566 568
f 568 566 569
f 568 569 236
f 500 488 566
f 566 488 570
f 566 570 569
f 569 570 571
f 569 571 572
f 488 502 570
f 570 502 564
f 570 564 571
f 571 564 573
f 571 573 572
f 572 573 574
f 189 563 546
f 546 563 575
f 546 575 564
f 564 575 576
f 564 576 573
f 573 576 577
f 573 577 574
f 578 579 580
f 578 580 581
f 581 580 582
f 581 582 583
f 583 582 553
f 583 553 552
f 552 553 90
f 552 90 88
f 183 178 560
f 560 178 547
f 560 547 584
f 584 547 554
f 584 554 585
f 585 554 94
f 585 94 92
f 92 553 585
f 585 553 582
f 585 582 584
f 584 582 580
f 584 580 560
f 560 580 579
f 560 579 561
f 179 180 547
f 547 180 181
f 547 181 554
f 554 181 559
f 554 559 555
f 555 559 558
f 555 558 556
f 556 558 548
f 556 548 557
f 577 586 574
f 574 586 587
f 574 587 572
f 572 587 588
f 572 588 569
f 569 588 549
f 569 549 236
f 236 549 97
f 188 187 562
f 562 187 561
f 562 561 563
f 563 561 579
f 563 579 575
f 575 579 578
f 575 578 576
f 576 578 581
f 576 581 577
f 577 581 583
f 577 583 586
f 586 583 552
f 586 552 587
f 587 552 551
f 587 551 588
f 588 551 550
f 588 550 549
f 549 550 78
f 549 78 100
f 512 515 589
f 589 515 514
f 234 233 511
f 498 590 497
f 497 590 591
f 513 493 592
f 592 493 496
f 592 496 591
f 591 496 497
f 567 590 565
f 565 590 498
f 565 498 499
f 513 592 593
f 593 592 591
f 593 591 594
f 594 591 590
f 594 590 595
f 595 590 567
f 595 567 568
f 568 596 595
f 595 596 597
f 595 597 594
f 594 597 589
f 594 589 593
f 593 589 514
f 593 514 513
f 511 512 234
f 234 512 589
f 234 589 235
f 235 589 597
f 235 597 232
f 232 597 596
f 232 596 236
f 236 596 568
f 489 56 340
f 340 56 142
f 137 58 467
f 467 58 185
f 137 467 169
f 169 467 466
f 466 465 169
f 169 465 463
f 169 463 167
f 463 461 167
f 167 461 460
f 167 460 166
f 460 458 166
f 166 458 456
f 166 456 164
f 164 456 450
f 164 450 162
f 162 450 449
f 449 482 162
f 162 482 432
f 162 432 160
f 432 431 160
f 160 431 442
f 160 442 158
f 158 442 443
f 158 443 156
f 156 443 444
f 444 421 156
f 156 421 420
f 156 420 154
f 420 419 154
f 154 419 360
f 154 360 152
f 360 359 152
f 152 359 409
f 152 409 150
f 150 409 410
f 150 410 148
f 148 410 392
f 392 391 148
f 148 391 376
f 148 376 141
f 340 142 341
f 341 142 141
f 341 141 375
f 375 141 376
f 598 599 600
f 600 599 265
f 600 265 601
f 599 602 265
f 265 602 603
f 265 603 267
f 267 603 604
f 172 10 605
f 605 10 268
f 605 268 606
f 606 268 267
f 606 267 607
f 607 267 604
f 265 264 608
f 601 265 609
f 609 265 608
f 609 608 610
f 611 612 287
f 613 614 615
f 615 614 616
f 613 617 614
f 614 617 618
f 614 618 611
f 70 619 71
f 71 619 620
f 71 620 621
f 621 620 622
f 621 622 614
f 614 622 623
f 614 623 616
f 611 287 614
f 614 287 282
f 614 282 621
f 621 282 302
f 621 302 71
f 618 601 611
f 611 601 609
f 611 609 612
f 612 609 610
f 612 610 624
f 624 610 625
f 615 616 599
f 615 599 613
f 600 601 618
f 599 598 613
f 613 598 600
f 613 600 617
f 617 600 618
f 623 603 616
f 616 603 602
f 616 602 599
f 619 604 620
f 620 604 603
f 620 603 622
f 622 603 623
f 70 557 619
f 619 557 548
f 172 605 548
f 548 605 606
f 548 606 619
f 619 606 607
f 619 607 604
f 626 627 171
f 171 627 135
f 627 628 135
f 135 628 629
f 135 629 136
f 136 629 630
f 136 630 147
f 147 630 631
f 147 631 131
f 131 631 632
f 131 632 132
f 132 632 633
f 132 633 138
f 138 633 634
f 138 634 139
f 139 634 635
f 139 635 140
f 140 635 636
f 140 636 133
f 133 636 637
f 133 637 134
f 134 637 638
f 134 638 144
f 144 638 639
f 144 639 145
f 145 639 640
f 145 640 146
f 146 640 641
f 146 641 143
f 143 641 642
f 143 642 149
f 149 642 643
f 149 643 151
f 151 643 644
f 151 644 153
f 153 644 645
f 153 645 155
f 155 645 646
f 155 646 157
f 157 646 647
f 157 647 159
f 159 647 648
f 159 648 161
f 161 648 649
f 161 649 163
f 163 649 650
f 163 650 165
f 165 650 651
f 165 651 168
f 168 651 626
f 168 626 170
f 170 626 171
f 627 626 652
f 627 652 628
f 631 630 652
f 652 630 629
f 652 629 628
f 634 633 652
f 652 633 632
f 652 632 631
f 637 636 652
f 652 636 635
f 652 635 634
f 640 639 652
f 652 639 638
f 652 638 637
f 643 642 652
f 652 642 641
f 652 641 640
f 646 645 652
f 652 645 644
f 652 644 643
f 649 648 652
f 652 648 647
f 652 647 646
f 626 651 652
f 652 651 650
f 652 650 649
f 653 625 269
f 264 269 608
f 608 269 625
f 608 625 610
f 654 655 656
f 656 655 657
f 656 657 658
f 654 659 655
f 655 659 660
f 655 660 661
f 661 662 655
f 655 662 663
f 655 663 653
f 653 269 655
f 655 269 271
f 655 271 657
f 657 271 277
f 657 277 658
f 658 277 276
f 658 276 664
f 665 660 659
f 665 659 666
f 666 659 654
f 666 654 667
f 667 654 656
f 667 656 668
f 668 656 658
f 668 658 669
f 669 658 664
f 669 664 670
f 624 625 671
f 671 625 653
f 671 653 663
f 663 662 671
f 671 662 661
f 671 661 672
f 672 661 660
f 672 660 665
f 673 674 332
f 675 676 292
f 675 292 677
f 678 679 314
f 314 679 677
f 314 677 294
f 294 677 292
f 313 680 314
f 314 680 681
f 314 681 678
f 682 683 311
f 311 683 684
f 311 684 313
f 313 684 685
f 313 685 680
f 332 674 311
f 311 674 686
f 311 686 682
f 673 332 687
f 687 332 331
f 687 331 688
f 329 689 331
f 331 689 690
f 331 690 688
f 691 692 327
f 327 692 693
f 327 693 329
f 329 693 694
f 329 694 689
f 691 327 695
f 695 327 326
f 695 326 696
f 696 326 697
f 697 326 322
f 697 322 698
f 320 699 700
f 320 700 322
f 322 700 701
f 322 701 698
f 699 320 702
f 702 320 319
f 702 319 703
f 704 705 307
f 307 705 706
f 307 706 319
f 319 706 707
f 319 707 703
f 704 307 708
f 708 307 305
f 708 305 709
f 304 710 711
f 304 711 305
f 305 711 712
f 305 712 709
f 301 670 297
f 297 670 713
f 297 713 304
f 304 713 714
f 304 714 710
f 676 715 716
f 716 715 717
f 716 717 718
f 718 717 719
f 718 719 720
f 720 719 721
f 720 721 722
f 721 723 722
f 722 723 724
f 722 724 725
f 726 725 724
f 126 125 727
f 727 125 728
f 727 728 729
f 729 728 730
f 729 730 731
f 731 730 726
f 731 726 732
f 732 726 724
f 721 719 733
f 733 719 717
f 333 128 126
f 261 249 734
f 734 249 248
f 248 255 333
f 333 126 248
f 248 126 727
f 248 727 734
f 734 727 729
f 734 729 731
f 731 732 734
f 734 732 724
f 734 724 723
f 723 721 734
f 734 721 733
f 734 733 261
f 261 733 717
f 261 717 262
f 262 717 715
f 676 716 292
f 292 716 718
f 292 718 283
f 240 239 286
f 283 735 284
f 284 735 736
f 284 736 286
f 286 736 125
f 286 125 240
f 240 125 127
f 283 718 735
f 735 718 720
f 735 720 736
f 720 722 736
f 736 722 725
f 736 725 726
f 726 730 736
f 736 730 728
f 736 728 125
f 674 673 737
f 698 701 738
f 715 676 675
f 670 664 739
f 740 712 711
f 711 710 740
f 740 710 714
f 740 714 739
f 739 714 713
f 739 713 670
f 705 704 741
f 741 704 708
f 741 708 740
f 740 708 709
f 740 709 712
f 742 703 707
f 742 707 741
f 741 707 706
f 741 706 705
f 701 700 738
f 738 700 699
f 738 699 742
f 742 699 702
f 742 702 703
f 698 738 697
f 697 738 743
f 697 743 696
f 693 692 744
f 744 692 691
f 744 691 743
f 743 691 695
f 743 695 696
f 693 744 694
f 694 744 745
f 694 745 689
f 673 687 737
f 737 687 688
f 737 688 745
f 745 688 690
f 745 690 689
f 674 737 686
f 686 737 746
f 686 746 682
f 678 681 747
f 747 681 680
f 680 685 747
f 747 685 684
f 747 684 746
f 746 684 683
f 746 683 682
f 715 675 748
f 748 675 677
f 748 677 747
f 747 677 679
f 747 679 678
f 670 301 669
f 669 301 300
f 672 665 749
f 749 665 666
f 749 666 750
f 750 666 667
f 750 667 668
f 668 669 750
f 750 669 300
f 750 300 749
f 749 300 299
f 749 299 288
f 287 612 288
f 288 612 624
f 288 624 749
f 749 624 671
f 749 671 672
f 263 262 715
f 739 664 276
f 276 275 739
f 739 275 273
f 739 273 740
f 740 273 272
f 740 272 741
f 741 272 254
f 741 254 742
f 742 254 260
f 742 260 738
f 738 260 259
f 738 259 743
f 743 259 252
f 743 252 744
f 744 252 251
f 744 251 745
f 745 251 250
f 745 250 737
f 737 250 243
f 737 243 746
f 746 243 245
f 746 245 747
f 747 245 263
f 747 263 748
f 748 263 715
f 42 41 751
f 244 752 753
f 244 753 246
f 246 753 754
f 246 754 247
f 247 754 755
f 247 755 256
f 256 755 756
f 256 756 258
f 39 45 756
f 756 45 47
f 756 47 258
f 751 41 756
f 756 41 40
f 756 40 39
f 751 29 49
f 49 34 751
f 751 34 36
f 751 36 42
f 26 64 757
f 9 758 242
f 242 758 759
f 242 759 266
f 266 759 760
f 266 760 270
f 270 760 761
f 270 761 274
f 274 761 762
f 274 762 253
f 16 21 757
f 757 21 24
f 757 24 26
f 9 7 758
f 758 7 5
f 758 5 757
f 757 5 12
f 757 12 16
f 755 754 753
f 762 66 752
f 752 66 31
f 752 31 30
f 30 29 752
f 752 29 751
f 752 751 753
f 753 751 756
f 753 756 755
f 762 761 66
f 66 761 760
f 66 760 759
f 759 758 66
f 66 758 757
f 66 757 64
f 762 752 253
f 253 752 244
f 763 298 281
f 763 764 298
f 298 764 765
f 298 765 290
f 765 766 290
f 290 766 767
f 290 767 309
f 767 768 309
f 309 768 769
f 309 769 316
f 769 770 316
f 316 770 771
f 316 771 317
f 771 772 317
f 317 772 773
f 317 773 325
f 773 774 325
f 325 774 775
f 325 775 324
f 775 776 324
f 324 776 777
f 324 777 318
f 777 778 318
f 318 778 779
f 318 779 315
f 779 780 315
f 315 780 781
f 315 781 303
f 781 782 303
f 303 782 783
f 303 783 291
f 783 784 291
f 291 784 785
f 291 785 278
f 785 786 278
f 278 786 787
f 278 787 279
f 787 788 279
f 279 788 789
f 279 789 285
f 789 790 285
f 285 790 791
f 285 791 293
f 791 792 293
f 293 792 793
f 293 793 312
f 793 794 312
f 312 794 795
f 312 795 310
f 795 796 310
f 310 796 797
f 310 797 330
f 797 798 330
f 330 798 799
f 330 799 328
f 799 800 328
f 328 800 801
f 328 801 323
f 801 802 323
f 323 802 803
f 323 803 321
f 803 804 321
f 321 804 805
f 321 805 308
f 805 806 308
f 308 806 807
f 308 807 306
f 807 808 306
f 306 808 809
f 306 809 295
f 809 810 295
f 295 810 811
f 295 811 296
f 811 812 296
f 296 812 813
f 296 813 289
f 289 813 814
f 289 814 280
f 280 814 815
f 280 815 281
f 281 815 816
f 281 816 763
f 817 818 819
f 820 821 819
f 819 821 822
f 819 822 817
f 823 824 819
f 819 824 825
f 819 825 820
f 826 827 819
f 819 827 828
f 819 828 823
f 829 830 819
f 819 830 831
f 819 831 826
f 832 833 819
f 819 833 834
f 819 834 829
f 835 836 819
f 819 836 837
f 819 837 832
f 818 838 819
f 819 838 839
f 819 839 835
f 840 829 841
f 841 829 834
f 841 834 842
f 842 834 833
f 842 833 843
f 843 833 832
f 843 832 844
f 844 832 837
f 844 837 845
f 845 837 836
f 845 836 846
f 846 836 835
f 846 835 847
f 847 835 839
f 847 839 848
f 848 839 838
f 848 838 849
f 849 838 818
f 849 818 850
f 850 818 817
f 850 817 851
f 851 817 822
f 851 822 852
f 852 822 821
f 852 821 853
f 853 821 820
f 853 820 854
f 854 820 825
f 854 825 855
f 855 825 824
f 855 824 856
f 856 824 823
f 856 823 857
f 857 823 828
f 857 828 858
f 858 828 827
f 858 827 859
f 859 827 826
f 859 826 860
f 860 826 831
f 860 831 861
f 861 831 830
f 861 830 840
f 840 830 829
f 862 851 852
f 843 863 842
f 842 863 864
f 842 864 841
f 841 864 865
f 841 865 840
f 840 865 866
f 840 866 861
f 861 866 867
f 861 867 860
f 862 868 851
f 851 868 869
f 851 869 850
f 850 869 870
f 850 870 849
f 849 870 871
f 849 871 848
f 848 871 872
f 848 872 847
f 856 873 855
f 855 873 874
f 855 874 854
f 854 874 875
f 854 875 853
f 853 875 876
f 853 876 852
f 852 876 877
f 852 877 862
f 867 878 860
f 860 878 879
f 860 879 859
f 859 879 880
f 859 880 858
f 858 880 881
f 858 881 857
f 857 881 882
f 857 882 856
f 856 882 883
f 856 883 873
f 872 884 847
f 847 884 885
f 847 885 846
f 846 885 886
f 846 886 845
f 845 886 887
f 845 887 844
f 844 887 888
f 844 888 843
f 843 888 889
f 843 889 863
f 866 815 814
f 866 814 867
f 814 813 867
f 867 813 812
f 867 812 878
f 812 811 878
f 878 811 810
f 878 810 879
f 810 809 879
f 879 809 808
f 879 808 880
f 880 808 807
f 880 807 881
f 881 807 806
f 806 805 881
f 881 805 804
f 881 804 882
f 882 804 803
f 882 803 883
f 883 803 802
f 802 801 883
f 883 801 800
f 883 800 873
f 873 800 799
f 873 799 874
f 799 798 874
f 874 798 797
f 874 797 875
f 875 797 796
f 796 795 875
f 875 795 794
f 875 794 876
f 876 794 793
f 876 793 877
f 877 793 792
f 792 791 877
f 877 791 790
f 877 790 862
f 862 790 789
f 862 789 868
f 868 789 788
f 868 788 869
f 788 787 869
f 869 787 786
f 869 786 870
f 870 786 785
f 870 785 871
f 871 785 784
f 784 783 871
f 871 783 782
f 871 782 872
f 782 781 872
f 872 781 780
f 872 780 884
f 780 779 884
f 884 779 778
f 884 778 885
f 778 777 885
f 885 777 776
f 885 776 886
f 776 775 886
f 886 775 774
f 886 774 887
f 887 774 773
f 887 773 888
f 888 773 772
f 772 771 888
f 888 771 770
f 888 770 889
f 889 770 769
f 889 769 863
f 863 769 768
f 768 767 863
f 863 767 766
f 863 766 864
f 766 765 864
f 864 765 764
f 864 764 865
f 865 764 763
f 865 763 866
f 866 763 816
f 866 816 815

