# https://github.com/mikedh/trimesh

o torso_constraint_R_rod_link.STL
v 0.00042990 0.00698508 0.00200597
v -0.00072805 0.00696392 -0.00199344
v -0.00072595 0.00696037 0.00200655
v -0.00186406 0.00674930 -0.00199304
v -0.00186197 0.00674575 0.00200696
v -0.00294926 0.00635063 -0.00199282
v -0.00294716 0.00634708 0.00200717
v -0.00395404 0.00577878 -0.00199281
v -0.00395194 0.00577523 0.00200719
v -0.00485099 0.00504935 -0.00199298
v -0.00484889 0.00504580 0.00200702
v -0.00561565 0.00418223 -0.00199335
v -0.00561355 0.00417869 0.00200665
v -0.00622715 0.00320108 -0.00199390
v -0.00622506 0.00319754 0.00200610
v -0.00666883 0.00213267 -0.00199462
v -0.00666673 0.00212912 0.00200538
v -0.00692862 0.00100612 -0.00199548
v -0.00692652 0.00100258 0.00200452
v -0.00699945 -0.00014782 -0.00199647
v -0.00699735 -0.00015136 0.00200353
v -0.00687938 -0.00129767 -0.00199755
v -0.00687728 -0.00130122 0.00200245
v -0.00657169 -0.00241209 -0.00199870
v -0.00656959 -0.00241563 0.00200130
v -0.00608476 -0.00346066 -0.00199988
v -0.00608267 -0.00346420 0.00200012
v -0.00543189 -0.00441478 -0.00200107
v -0.00542980 -0.00441833 0.00199893
v -0.00463088 -0.00524843 -0.00200223
v -0.00462879 -0.00525198 0.00199777
v -0.00370358 -0.00593887 -0.00200333
v -0.00370149 -0.00594242 0.00199667
v -0.00267529 -0.00646726 -0.00200433
v -0.00267319 -0.00647081 0.00199566
v -0.00157405 -0.00681920 -0.00200522
v -0.00157195 -0.00682274 0.00199477
v -0.00042990 -0.00698508 -0.00200597
v -0.00042780 -0.00698862 0.00199403
v 0.00072595 -0.00696037 -0.00200655
v 0.00072805 -0.00696392 0.00199344
v 0.00186197 -0.00674575 -0.00200696
v 0.00186406 -0.00674930 0.00199304
v 0.00294716 -0.00634708 -0.00200717
v 0.00294926 -0.00635063 0.00199282
v 0.00395194 -0.00577523 -0.00200719
v 0.00395404 -0.00577878 0.00199281
v 0.00484889 -0.00504580 -0.00200702
v 0.00485099 -0.00504935 0.00199298
v 0.00561355 -0.00417869 -0.00200665
v 0.00561565 -0.00418223 0.00199335
v 0.00622506 -0.00319754 -0.00200610
v 0.00622715 -0.00320108 0.00199390
v 0.00666673 -0.00212912 -0.00200538
v 0.00666883 -0.00213267 0.00199462
v 0.00692652 -0.00100258 -0.00200452
v 0.00692862 -0.00100612 0.00199548
v 0.00699735 0.00015136 -0.00200353
v 0.00699945 0.00014782 0.00199647
v 0.00687728 0.00130122 -0.00200245
v 0.00687938 0.00129767 0.00199755
v 0.00656959 0.00241563 -0.00200130
v 0.00657169 0.00241209 0.00199870
v 0.00608267 0.00346420 -0.00200012
v 0.00608476 0.00346066 0.00199988
v 0.00542980 0.00441833 -0.00199893
v 0.00543189 0.00441478 0.00200107
v 0.00462879 0.00525198 -0.00199777
v 0.00463088 0.00524843 0.00200223
v 0.00370149 0.00594242 -0.00199667
v 0.00370358 0.00593887 0.00200333
v 0.00267319 0.00647081 -0.00199566
v 0.00267529 0.00646726 0.00200433
v 0.00157195 0.00682274 -0.00199477
v 0.00157405 0.00681920 0.00200522
v 0.00042780 0.00698862 -0.00199403
v -0.00028180 -0.00457219 -0.00200391
v 0.00344409 -0.00301999 -0.00200448
v 0.00398184 -0.00226463 -0.00200410
v 0.00456269 0.00041689 -0.00200202
v -0.00344618 0.00302353 -0.00199551
v -0.00398394 0.00226818 -0.00199590
v 0.00141066 -0.00435794 -0.00200460
v 0.00455283 -0.00051028 -0.00200284
v 0.00458127 -0.00004694 -0.00200244
v -0.00141275 0.00436148 -0.00199539
v 0.00018239 -0.00457713 -0.00200416
v 0.00074137 -0.00452026 -0.00200440
v 0.00110036 -0.00444647 -0.00200452
v 0.00276529 -0.00365163 -0.00200469
v 0.00205347 -0.00409444 -0.00200471
v 0.00197324 -0.00413370 -0.00200470
v 0.00435654 -0.00141649 -0.00200354
v 0.00447766 -0.00096836 -0.00200321
v 0.00449728 0.00087647 -0.00200158
v 0.00442784 0.00117860 -0.00200128
v 0.00437990 0.00134613 -0.00200110
v 0.00428084 0.00163440 -0.00200079
v 0.00422912 0.00176407 -0.00200065
v 0.00378778 0.00257952 -0.00199970
v 0.00319133 0.00328944 -0.00199876
v 0.00309688 0.00337858 -0.00199863
v 0.00246418 0.00386476 -0.00199787
v 0.00193324 0.00415611 -0.00199733
v 0.00163610 0.00428193 -0.00199706
v -0.00276738 0.00365518 -0.00199531
v -0.00205556 0.00409798 -0.00199529
v -0.00197533 0.00413725 -0.00199530
v -0.00455493 0.00051383 -0.00199716
v -0.00402248 -0.00219551 -0.00199984
v -0.00400711 -0.00222341 -0.00199987
v 0.00128883 0.00439907 -0.00199678
v 0.00074100 0.00452387 -0.00199638
v -0.00018448 0.00458067 -0.00199584
v -0.00074347 0.00452381 -0.00199560
v -0.00110245 0.00445002 -0.00199548
v -0.00359901 -0.00283631 -0.00200063
v -0.00350965 -0.00294606 -0.00200077
v -0.00310168 -0.00337256 -0.00200137
v -0.00284444 -0.00359199 -0.00200170
v -0.00254240 -0.00381156 -0.00200205
v -0.00206281 -0.00409080 -0.00200255
v -0.00119678 -0.00442205 -0.00200330
v -0.00062195 -0.00453854 -0.00200370
v 0.00404903 -0.00214226 -0.00200402
v 0.00418260 -0.00186827 -0.00200385
v 0.00425067 -0.00170786 -0.00200374
v -0.00435863 0.00142003 -0.00199646
v -0.00447976 0.00097191 -0.00199679
v -0.00458336 0.00005049 -0.00199756
v -0.00456478 -0.00041334 -0.00199798
v -0.00449937 -0.00087292 -0.00199842
v -0.00438780 -0.00132352 -0.00199888
v -0.00403122 -0.00217944 -0.00199982
v -0.00405112 0.00214581 -0.00199598
v -0.00418470 0.00187182 -0.00199615
v -0.00425277 0.00171141 -0.00199626
v 0.00193534 0.00415256 0.00200267
v 0.00246627 0.00386121 0.00200213
v 0.00309898 0.00337503 0.00200137
v 0.00319342 0.00328589 0.00200124
v 0.00378988 0.00257597 0.00200030
v 0.00423122 0.00176052 0.00199935
v -0.00018239 0.00457713 0.00200416
v 0.00074310 0.00452032 0.00200362
v 0.00129093 0.00439552 0.00200322
v 0.00163820 0.00427838 0.00200294
v -0.00276529 0.00365163 0.00200469
v -0.00205347 0.00409444 0.00200471
v -0.00197324 0.00413370 0.00200470
v 0.00449937 0.00087292 0.00199842
v 0.00018448 -0.00458067 0.00199584
v -0.00141066 0.00435794 0.00200460
v -0.00110036 0.00444647 0.00200452
v -0.00074137 0.00452026 0.00200440
v 0.00456478 0.00041334 0.00199798
v 0.00458336 -0.00005049 0.00199756
v 0.00455493 -0.00051383 0.00199716
v 0.00447976 -0.00097191 0.00199679
v 0.00428293 0.00163085 0.00199920
v 0.00438199 0.00134259 0.00199890
v 0.00442994 0.00117505 0.00199872
v 0.00276738 -0.00365518 0.00199531
v 0.00205556 -0.00409798 0.00199529
v 0.00197533 -0.00413725 0.00199530
v 0.00141275 -0.00436148 0.00199539
v 0.00110245 -0.00445002 0.00199548
v 0.00074347 -0.00452381 0.00199560
v -0.00027970 -0.00457574 0.00199609
v -0.00061985 -0.00454209 0.00199630
v -0.00119469 -0.00442560 0.00199670
v -0.00206072 -0.00409434 0.00199745
v -0.00254031 -0.00381511 0.00199795
v -0.00458127 0.00004694 0.00200244
v 0.00435863 -0.00142003 0.00199646
v 0.00425277 -0.00171141 0.00199626
v 0.00418470 -0.00187182 0.00199615
v 0.00344618 -0.00302353 0.00199551
v 0.00398394 -0.00226818 0.00199590
v 0.00405112 -0.00214581 0.00199598
v -0.00284234 -0.00359554 0.00199830
v -0.00309958 -0.00337610 0.00199863
v -0.00350756 -0.00294960 0.00199922
v -0.00359691 -0.00283985 0.00199937
v -0.00400502 -0.00222695 0.00200012
v -0.00402039 -0.00219906 0.00200016
v -0.00402913 -0.00218298 0.00200018
v -0.00438570 -0.00132707 0.00200112
v -0.00449728 -0.00087647 0.00200158
v -0.00456269 -0.00041689 0.00200202
v -0.00455283 0.00051028 0.00200284
v -0.00447766 0.00096836 0.00200321
v -0.00435654 0.00141649 0.00200354
v -0.00425067 0.00170786 0.00200374
v -0.00418260 0.00186827 0.00200385
v -0.00344409 0.00301999 0.00200448
v -0.00398184 0.00226463 0.00200410
v -0.00404903 0.00214226 0.00200402
v 0.00498438 0.00035073 0.00018139
v 0.00498550 0.00036968 0.00009042
v 0.00499061 -0.00030632 -0.00000289
v 0.00498252 0.00031959 0.00026892
v 0.00497995 0.00027685 0.00035139
v 0.00497670 0.00022329 0.00042726
v 0.00497285 0.00015993 0.00049511
v 0.00496847 0.00008793 0.00055370
v 0.00496363 0.00000864 0.00060191
v 0.00495843 -0.00007647 0.00063886
v 0.00495296 -0.00016580 0.00066385
v 0.00494733 -0.00025769 0.00067643
v 0.00494163 -0.00035044 0.00067635
v 0.00493599 -0.00044232 0.00066362
v 0.00493049 -0.00053160 0.00063847
v 0.00492525 -0.00061664 0.00060137
v 0.00492036 -0.00069584 0.00055303
v 0.00491592 -0.00076774 0.00049432
v 0.00491199 -0.00083098 0.00042636
v 0.00490867 -0.00088440 0.00035039
v 0.00490601 -0.00092700 0.00026785
v 0.00490406 -0.00095798 0.00018027
v 0.00490285 -0.00097677 0.00008927
v 0.00490241 -0.00098302 -0.00000344
v 0.00490275 -0.00097661 -0.00009614
v 0.00490386 -0.00095766 -0.00018711
v 0.00490572 -0.00092652 -0.00027464
v 0.00490830 -0.00088378 -0.00035711
v 0.00491154 -0.00083022 -0.00043298
v 0.00491539 -0.00076686 -0.00050083
v 0.00491978 -0.00069486 -0.00055941
v 0.00492462 -0.00061557 -0.00060763
v 0.00492982 -0.00053046 -0.00064458
v 0.00493529 -0.00044113 -0.00066957
v 0.00494092 -0.00034924 -0.00068214
v 0.00494662 -0.00025649 -0.00068207
v 0.00495226 -0.00016461 -0.00066933
v 0.00495776 -0.00007533 -0.00064419
v 0.00496300 0.00000971 -0.00060709
v 0.00496789 0.00008891 -0.00055874
v 0.00497233 0.00016081 -0.00050004
v 0.00497625 0.00022405 -0.00043207
v 0.00497958 0.00027747 -0.00035611
v 0.00498224 0.00032007 -0.00027357
v 0.00498419 0.00035105 -0.00018599
v 0.00498540 0.00036984 -0.00009499
v 0.00498583 0.00037609 -0.00000228
v -0.00492462 0.00061557 0.00060763
v -0.00491978 0.00069486 0.00055941
v -0.00475731 0.00107045 0.00110552
v -0.00496363 -0.00000864 -0.00060191
v -0.00496847 -0.00008793 -0.00055370
v -0.00485378 -0.00048053 -0.00109996
v -0.00492525 0.00061664 -0.00060137
v -0.00493049 0.00053160 -0.00063847
v -0.00477853 0.00074698 -0.00126793
v -0.00490406 0.00095798 -0.00018027
v -0.00490601 0.00092700 -0.00026785
v -0.00473002 0.00153041 -0.00053360
v -0.00499061 0.00030632 0.00000289
v -0.00494092 0.00034924 0.00068214
v -0.00494662 0.00025649 0.00068207
v -0.00495776 0.00007533 0.00064419
v -0.00496300 -0.00000971 0.00060709
v -0.00495226 0.00016461 0.00066933
v -0.00497233 -0.00016081 0.00050004
v -0.00497625 -0.00022405 0.00043207
v -0.00496789 -0.00008891 0.00055874
v -0.00495296 0.00016580 -0.00066385
v -0.00494733 0.00025769 -0.00067643
v -0.00372236 0.00268249 -0.00198703
v -0.00074131 0.00454575 -0.00194592
v -0.00006131 0.00458944 -0.00198326
v 0.00402018 0.00220726 -0.00199151
v 0.00403558 0.00245484 -0.00163945
v 0.00415444 -0.00202993 -0.00190263
v 0.00321408 -0.00332373 -0.00190329
v 0.00321607 -0.00332710 0.00189402
v 0.00320178 -0.00355573 0.00145100
v 0.00372236 -0.00268249 0.00198703
v 0.00370696 -0.00293007 0.00163498
v -0.00140553 0.00441406 0.00188164
v -0.00450621 0.00142611 0.00163103
v -0.00437171 -0.00150985 0.00189961
v -0.00465998 -0.00107743 0.00145732
v -0.00254454 -0.00392488 0.00176653
v -0.00310667 -0.00356443 0.00162588
v -0.00413975 0.00227172 0.00164370
v -0.00372027 0.00267896 0.00199569
v -0.00370524 0.00292716 0.00164405
v -0.00321408 0.00332373 0.00190329
v -0.00320026 0.00355315 0.00146066
v -0.00264760 0.00391484 0.00163227
v -0.00204562 0.00420360 0.00177347
v -0.00073926 0.00454229 0.00195476
v -0.00005922 0.00458591 0.00199146
v 0.00062192 0.00454410 0.00199107
v 0.00129147 0.00441765 0.00195358
v 0.00193697 0.00420890 0.00187971
v 0.00254639 0.00392175 0.00177082
v 0.00310837 0.00356154 0.00162894
v 0.00402227 0.00220373 0.00199121
v 0.00438839 0.00174827 0.00163877
v 0.00437370 0.00150648 0.00189770
v 0.00466150 0.00107485 0.00145434
v 0.00464867 0.00086419 0.00162574
v 0.00463451 0.00063220 0.00176681
v 0.00461929 0.00038321 0.00187491
v 0.00460329 0.00012184 0.00194804
v 0.00458681 -0.00014704 0.00198483
v 0.00457015 -0.00041840 0.00198460
v 0.00455363 -0.00068721 0.00194735
v 0.00450792 -0.00142899 0.00162378
v 0.00452222 -0.00119726 0.00176524
v 0.00453756 -0.00094845 0.00187377
v 0.00449491 -0.00163934 0.00145202
v 0.00415643 -0.00203329 0.00189467
v 0.00414147 -0.00227463 0.00163533
v 0.00264930 -0.00391772 0.00162255
v 0.00204747 -0.00420674 0.00176387
v 0.00140750 -0.00441739 0.00187234
v -0.00193501 -0.00421223 0.00187427
v -0.00128943 -0.00442111 0.00194710
v -0.00061984 -0.00454763 0.00198365
v 0.00006131 -0.00458944 0.00198326
v 0.00074131 -0.00454575 0.00194592
v -0.00062192 -0.00454410 -0.00199107
v 0.00005922 -0.00458591 -0.00199146
v 0.00073926 -0.00454229 -0.00195476
v 0.00140553 -0.00441406 -0.00188164
v 0.00204562 -0.00420360 -0.00177347
v 0.00264760 -0.00391484 -0.00163227
v 0.00320026 -0.00355315 -0.00146066
v 0.00413975 -0.00227172 -0.00164370
v 0.00449338 -0.00163676 -0.00145964
v 0.00450621 -0.00142611 -0.00163103
v 0.00452037 -0.00119412 -0.00177210
v 0.00453559 -0.00094512 -0.00188020
v 0.00455159 -0.00068375 -0.00195333
v 0.00456807 -0.00041488 -0.00199012
v 0.00458473 -0.00014351 -0.00198989
v 0.00460125 0.00012530 -0.00195264
v 0.00464697 0.00086708 -0.00162908
v 0.00463266 0.00063534 -0.00177054
v 0.00461733 0.00038653 -0.00187907
v 0.00465998 0.00107743 -0.00145732
v 0.00437171 0.00150985 -0.00189961
v 0.00438667 0.00175118 -0.00164026
v 0.00193501 0.00421223 -0.00187427
v 0.00254454 0.00392488 -0.00176653
v 0.00310667 0.00356443 -0.00162588
v 0.00361093 0.00313757 -0.00145494
v 0.00359664 0.00290894 -0.00189796
v 0.00128943 0.00442111 -0.00194710
v 0.00061984 0.00454763 -0.00198365
v -0.00140750 0.00441739 -0.00187234
v -0.00414147 0.00227463 -0.00163533
v -0.00452222 0.00119726 -0.00176524
v -0.00457015 0.00041840 -0.00198460
v -0.00458681 0.00014704 -0.00198483
v -0.00460329 -0.00012184 -0.00194804
v -0.00461929 -0.00038321 -0.00187491
v -0.00463451 -0.00063220 -0.00176681
v -0.00359863 -0.00290557 -0.00189935
v -0.00310837 -0.00356154 -0.00162894
v -0.00129147 -0.00441765 -0.00195358
v -0.00193697 -0.00420890 -0.00187971
v -0.00254639 -0.00392175 -0.00177082
v -0.00447371 0.00198069 -0.00103091
v -0.00473530 0.00144601 -0.00069715
v -0.00490867 0.00088440 -0.00035039
v -0.00455363 0.00068721 -0.00194735
v -0.00478942 0.00057007 -0.00131775
v -0.00493599 0.00044232 -0.00066362
v -0.00480061 0.00038804 -0.00134298
v -0.00494163 0.00035044 -0.00067635
v -0.00481189 0.00020427 -0.00134314
v -0.00482305 0.00002219 -0.00131822
v -0.00483388 -0.00015481 -0.00126870
v -0.00466150 -0.00107485 -0.00145434
v -0.00486247 -0.00062319 -0.00098389
v -0.00497285 -0.00015993 -0.00049511
v -0.00479920 0.00038565 0.00134870
v -0.00481048 0.00020188 0.00134854
v -0.00482166 0.00001984 0.00132331
v -0.00483255 -0.00015707 0.00127349
v -0.00484294 -0.00032556 0.00119999
v -0.00485262 -0.00048249 0.00110419
v -0.00486143 -0.00062494 0.00098788
v -0.00449338 0.00163676 0.00145964
v -0.00474862 0.00121311 0.00098945
v -0.00491539 0.00076686 0.00050083
v -0.00448343 0.00182439 -0.00125316
v -0.00474188 0.00134017 -0.00084766
v -0.00491199 0.00083098 -0.00042636
v -0.00491592 0.00076774 -0.00049432
v -0.00475846 0.00107241 -0.00109864
v -0.00474965 0.00121486 -0.00098232
v -0.00450792 0.00142899 -0.00162378
v -0.00449491 0.00163934 -0.00145202
v -0.00415643 0.00203329 -0.00189467
v -0.00453756 0.00094845 -0.00187377
v -0.00476815 0.00091548 -0.00119443
v -0.00492036 0.00069584 -0.00055303
v -0.00464867 -0.00086419 -0.00162574
v -0.00484419 -0.00032343 -0.00119549
v -0.00495843 0.00007646 -0.00063886
v -0.00456807 0.00041488 0.00199012
v -0.00458473 0.00014351 0.00198989
v -0.00460125 -0.00012530 0.00195264
v -0.00461733 -0.00038653 0.00187907
v -0.00463266 -0.00063534 0.00177054
v -0.00464697 -0.00086708 0.00162908
v -0.00478804 0.00056773 0.00132378
v -0.00453559 0.00094512 0.00188020
v -0.00455159 0.00068375 0.00195333
v -0.00452037 0.00119412 0.00177210
v -0.00477720 0.00074473 0.00127426
v -0.00493529 0.00044113 0.00066957
v -0.00476689 0.00091335 0.00120105
v -0.00492982 0.00053046 0.00064458
v -0.00497670 -0.00022329 -0.00042726
v -0.00487010 -0.00074874 -0.00084944
v -0.00467277 -0.00126024 -0.00125580
v -0.00438839 -0.00174827 -0.00163877
v -0.00437370 -0.00150648 -0.00189770
v -0.00486920 -0.00075025 0.00085321
v -0.00467145 -0.00126247 0.00125846
v -0.00438667 -0.00175118 0.00164026
v -0.00402018 -0.00220726 0.00199151
v -0.00415444 0.00202993 0.00190263
v -0.00448212 0.00182216 0.00126110
v -0.00474099 0.00133866 0.00085500
v -0.00491154 0.00083022 0.00043298
v -0.00321607 0.00332710 -0.00189402
v -0.00370696 0.00293007 -0.00163498
v -0.00412879 0.00247846 -0.00134548
v -0.00497995 -0.00027685 -0.00035139
v -0.00487652 -0.00085485 -0.00069911
v -0.00468226 -0.00141693 -0.00103382
v -0.00440077 -0.00195262 -0.00134926
v -0.00403730 -0.00245194 -0.00163958
v -0.00402227 -0.00220373 -0.00199121
v -0.00361245 -0.00313499 -0.00145672
v -0.00404924 -0.00265004 -0.00125736
v -0.00441060 -0.00211572 -0.00103458
v -0.00468979 -0.00154200 -0.00079253
v -0.00488163 -0.00093954 -0.00053571
v -0.00498252 -0.00031959 -0.00026892
v -0.00497958 -0.00027747 0.00035611
v -0.00487579 -0.00085610 0.00070271
v -0.00468117 -0.00141877 0.00103621
v -0.00439935 -0.00195502 0.00135041
v -0.00403558 -0.00245484 0.00163945
v -0.00359664 -0.00290894 0.00189796
v -0.00490830 0.00088378 0.00035711
v -0.00473456 0.00144477 0.00070467
v -0.00447263 0.00197885 0.00103911
v -0.00412738 0.00247607 0.00135420
v -0.00446592 0.00210532 -0.00078941
v -0.00411863 0.00264101 -0.00103051
v -0.00369462 0.00312750 -0.00125242
v -0.00320178 0.00355573 -0.00145100
v -0.00264930 0.00391772 -0.00162255
v -0.00204747 0.00420674 -0.00176387
v -0.00498224 -0.00032007 0.00027357
v -0.00488106 -0.00094050 0.00053916
v -0.00468896 -0.00154340 0.00079471
v -0.00440951 -0.00211756 0.00103545
v -0.00404792 -0.00265227 0.00125690
v -0.00361093 -0.00313757 0.00145494
v -0.00490572 0.00092652 0.00027464
v -0.00472946 0.00152946 0.00054127
v -0.00446509 0.00210391 0.00079782
v -0.00411755 0.00263917 0.00103951
v -0.00369330 0.00312527 0.00126184
v -0.00490285 0.00097677 -0.00008927
v -0.00490241 0.00098302 0.00000344
v -0.00472376 0.00162903 -0.00017977
v -0.00472290 0.00164141 0.00000393
v -0.00445668 0.00225094 -0.00026691
v -0.00445540 0.00226922 0.00000435
v -0.00410658 0.00283092 -0.00034909
v -0.00410491 0.00285476 0.00000468
v -0.00367998 0.00335817 -0.00042476
v -0.00367796 0.00338713 0.00000493
v -0.00318483 0.00382286 -0.00049252
v -0.00318248 0.00385639 0.00000509
v -0.00263035 0.00421634 -0.00055110
v -0.00262773 0.00425382 0.00000515
v -0.00202688 0.00453128 -0.00059942
v -0.00202403 0.00457201 0.00000511
v -0.00138564 0.00476180 -0.00063657
v -0.00138262 0.00480503 0.00000499
v -0.00071860 0.00490363 -0.00066187
v -0.00071546 0.00494855 0.00000476
v -0.00003817 0.00495410 -0.00067483
v -0.00003496 0.00499988 0.00000445
v 0.00064298 0.00491230 -0.00067523
v 0.00064618 0.00495807 0.00000406
v 0.00131214 0.00477898 -0.00066304
v 0.00131528 0.00482390 0.00000359
v 0.00195686 0.00455664 -0.00063851
v 0.00195989 0.00459987 0.00000305
v 0.00256513 0.00424942 -0.00060208
v 0.00256798 0.00429016 0.00000246
v 0.00312562 0.00386305 -0.00055443
v 0.00312824 0.00390053 0.00000182
v 0.00362788 0.00340471 -0.00049646
v 0.00363022 0.00343824 0.00000115
v -0.00472615 0.00159180 -0.00036006
v -0.00446021 0.00219597 -0.00053315
v -0.00411118 0.00275923 -0.00069631
v -0.00368557 0.00327109 -0.00084650
v -0.00319130 0.00372201 -0.00098091
v -0.00263759 0.00410361 -0.00109706
v -0.00203474 0.00440876 -0.00119277
v -0.00139399 0.00463178 -0.00126626
v -0.00072727 0.00476852 -0.00131616
v -0.00004700 0.00481644 -0.00134154
v 0.00063414 0.00477463 -0.00134194
v 0.00130347 0.00464388 -0.00131733
v 0.00194852 0.00442662 -0.00126819
v 0.00255727 0.00412690 -0.00119542
v 0.00311838 0.00375031 -0.00110039
v 0.00362141 0.00330386 -0.00098485
v -0.00498438 -0.00035073 -0.00018139
v -0.00488531 -0.00100124 -0.00036228
v -0.00469524 -0.00163310 -0.00053643
v -0.00441770 -0.00223454 -0.00070058
v -0.00405786 -0.00279435 -0.00085168
v -0.00362244 -0.00330211 -0.00098692
v -0.00311954 -0.00374836 -0.00110377
v -0.00255852 -0.00412478 -0.00120006
v -0.00194985 -0.00442437 -0.00127400
v -0.00130485 -0.00464154 -0.00132420
v -0.00063555 -0.00477224 -0.00134974
v 0.00004559 -0.00481405 -0.00135013
v 0.00072589 -0.00476618 -0.00132538
v 0.00139266 -0.00462953 -0.00127593
v 0.00203348 -0.00440663 -0.00120272
v 0.00263643 -0.00410165 -0.00110710
v 0.00319027 -0.00372027 -0.00099086
v -0.00498550 -0.00036968 -0.00009042
v -0.00488751 -0.00103879 -0.00018205
v -0.00469849 -0.00168855 -0.00027028
v -0.00442193 -0.00230685 -0.00035348
v -0.00406301 -0.00288218 -0.00043009
v -0.00362840 -0.00340382 -0.00049869
v -0.00312620 -0.00386206 -0.00055801
v -0.00256576 -0.00424835 -0.00060692
v -0.00195753 -0.00455551 -0.00064454
v -0.00131284 -0.00477780 -0.00067014
v -0.00064369 -0.00491109 -0.00068326
v 0.00003746 -0.00495290 -0.00068366
v 0.00071790 -0.00490244 -0.00067132
v 0.00138497 -0.00476066 -0.00064647
v 0.00202624 -0.00453020 -0.00060958
v 0.00262977 -0.00421535 -0.00056134
v 0.00318431 -0.00382198 -0.00050263
v -0.00498583 -0.00037609 0.00000228
v -0.00488819 -0.00105149 0.00000163
v -0.00469948 -0.00170730 0.00000095
v -0.00442323 -0.00233131 0.00000025
v -0.00406459 -0.00291190 -0.00000045
v -0.00363022 -0.00343824 -0.00000115
v -0.00312824 -0.00390053 -0.00000182
v -0.00256798 -0.00429016 -0.00000246
v -0.00195989 -0.00459987 -0.00000305
v -0.00131528 -0.00482390 -0.00000359
v -0.00064618 -0.00495807 -0.00000406
v 0.00003496 -0.00499988 -0.00000445
v 0.00071546 -0.00494855 -0.00000476
v 0.00138262 -0.00480503 -0.00000499
v 0.00202403 -0.00457201 -0.00000511
v 0.00262773 -0.00425382 -0.00000515
v 0.00318248 -0.00385639 -0.00000509
v -0.00498540 -0.00036984 0.00009499
v -0.00488732 -0.00103911 0.00018533
v -0.00469820 -0.00168903 0.00027221
v -0.00442156 -0.00230748 0.00035402
v -0.00406256 -0.00288294 0.00042924
v -0.00362788 -0.00340471 0.00049646
v -0.00312562 -0.00386305 0.00055443
v -0.00256513 -0.00424942 0.00060208
v -0.00195686 -0.00455664 0.00063851
v -0.00131214 -0.00477898 0.00066304
v -0.00064298 -0.00491230 0.00067523
v 0.00003817 -0.00495410 0.00067483
v 0.00071860 -0.00490363 0.00066187
v 0.00138564 -0.00476180 0.00063657
v 0.00202688 -0.00453128 0.00059942
v 0.00263035 -0.00421634 0.00055110
v 0.00318483 -0.00382286 0.00049252
v -0.00498419 -0.00035105 0.00018599
v -0.00488493 -0.00100188 0.00036562
v -0.00469467 -0.00163405 0.00053845
v -0.00441696 -0.00223578 0.00070124
v -0.00405697 -0.00279586 0.00085097
v -0.00362141 -0.00330386 0.00098485
v -0.00311838 -0.00375031 0.00110039
v -0.00255727 -0.00412690 0.00119542
v -0.00194852 -0.00442662 0.00126819
v -0.00130347 -0.00464388 0.00131733
v -0.00063414 -0.00477463 0.00134194
v 0.00004700 -0.00481644 0.00134154
v 0.00072727 -0.00476852 0.00131616
v 0.00139399 -0.00463178 0.00126626
v 0.00203474 -0.00440876 0.00119277
v 0.00263759 -0.00410361 0.00109706
v 0.00319130 -0.00372201 0.00098091
v 0.00404792 0.00265227 -0.00125690
v 0.00405697 0.00279586 -0.00085097
v 0.00406256 0.00288294 -0.00042924
v 0.00406459 0.00291190 0.00000045
v 0.00369462 -0.00312750 0.00125242
v 0.00368557 -0.00327109 0.00084650
v 0.00367998 -0.00335817 0.00042476
v 0.00367796 -0.00338713 -0.00000493
v 0.00367953 -0.00335741 -0.00043457
v 0.00368468 -0.00326958 -0.00085616
v 0.00369330 -0.00312527 -0.00126184
v 0.00370524 -0.00292716 -0.00164405
v 0.00372027 -0.00267896 -0.00199569
v 0.00439935 0.00195502 -0.00135041
v 0.00440951 0.00211756 -0.00103545
v 0.00441696 0.00223578 -0.00070124
v 0.00442156 0.00230748 -0.00035402
v 0.00442323 0.00233131 -0.00000025
v 0.00412879 -0.00247846 0.00134548
v 0.00411863 -0.00264101 0.00103051
v 0.00411118 -0.00275923 0.00069631
v 0.00410658 -0.00283092 0.00034909
v 0.00410491 -0.00285476 -0.00000468
v 0.00410621 -0.00283030 -0.00035841
v 0.00411045 -0.00275798 -0.00070551
v 0.00411755 -0.00263917 -0.00103951
v 0.00412738 -0.00247607 -0.00135420
v 0.00467145 0.00126247 -0.00125846
v 0.00468117 0.00141877 -0.00103621
v 0.00468896 0.00154340 -0.00079471
v 0.00469467 0.00163405 -0.00053845
v 0.00469820 0.00168903 -0.00027221
v 0.00469948 0.00170730 -0.00000095
v 0.00448343 -0.00182439 0.00125316
v 0.00447371 -0.00198069 0.00103091
v 0.00446592 -0.00210532 0.00078941
v 0.00446021 -0.00219597 0.00053315
v 0.00445668 -0.00225094 0.00026691
v 0.00445540 -0.00226922 -0.00000435
v 0.00445640 -0.00225046 -0.00027558
v 0.00445965 -0.00219501 -0.00054172
v 0.00446509 -0.00210391 -0.00079782
v 0.00447263 -0.00197885 -0.00103911
v 0.00448212 -0.00182216 -0.00126110
v 0.00467277 0.00126024 0.00125580
v 0.00359863 0.00290557 0.00189935
v 0.00403730 0.00245194 0.00163958
v 0.00440077 0.00195262 0.00134926
v 0.00468226 0.00141693 0.00103382
v 0.00361245 0.00313499 0.00145672
v 0.00404924 0.00265004 0.00125736
v 0.00441060 0.00211572 0.00103458
v 0.00468979 0.00154200 0.00079253
v -0.00490386 0.00095766 0.00018711
v -0.00472577 0.00159116 0.00036784
v -0.00445965 0.00219501 0.00054172
v -0.00411045 0.00275798 0.00070551
v -0.00368468 0.00326958 0.00085616
v -0.00319027 0.00372027 0.00099086
v -0.00263643 0.00410165 0.00110710
v -0.00203348 0.00440663 0.00120272
v -0.00139266 0.00462953 0.00127593
v -0.00072589 0.00476618 0.00132538
v -0.00004559 0.00481405 0.00135013
v 0.00063555 0.00477224 0.00134974
v 0.00130485 0.00464154 0.00132420
v 0.00194985 0.00442437 0.00127400
v 0.00255852 0.00412478 0.00120006
v 0.00311954 0.00374836 0.00110377
v 0.00362244 0.00330211 0.00098692
v 0.00405786 0.00279435 0.00085168
v 0.00441770 0.00223454 0.00070058
v 0.00469524 0.00163310 0.00053643
v -0.00490275 0.00097661 0.00009614
v -0.00472357 0.00162870 0.00018761
v -0.00445640 0.00225046 0.00027558
v -0.00410621 0.00283030 0.00035841
v -0.00367953 0.00335741 0.00043457
v -0.00318431 0.00382198 0.00050263
v -0.00262977 0.00421535 0.00056134
v -0.00202624 0.00453020 0.00060958
v -0.00138497 0.00476066 0.00064647
v -0.00071790 0.00490244 0.00067132
v -0.00003746 0.00495290 0.00068366
v 0.00064369 0.00491109 0.00068326
v 0.00131284 0.00477780 0.00067014
v 0.00195753 0.00455551 0.00064454
v 0.00256576 0.00424835 0.00060692
v 0.00312620 0.00386206 0.00055801
v 0.00362840 0.00340382 0.00049869
v 0.00406301 0.00288218 0.00043009
v 0.00442193 0.00230685 0.00035348
v 0.00469849 0.00168855 0.00027028
v 0.00488751 0.00103879 0.00018205
v 0.00488531 0.00100124 0.00036228
v 0.00488163 0.00093954 0.00053571
v 0.00487652 0.00085485 0.00069911
v 0.00487010 0.00074874 0.00084944
v 0.00486247 0.00062319 0.00098389
v 0.00485378 0.00048053 0.00109996
v 0.00484419 0.00032343 0.00119549
v 0.00483388 0.00015481 0.00126870
v 0.00482305 -0.00002219 0.00131822
v 0.00481189 -0.00020427 0.00134314
v 0.00480061 -0.00038804 0.00134298
v 0.00478942 -0.00057007 0.00131775
v 0.00477853 -0.00074698 0.00126793
v 0.00476815 -0.00091548 0.00119443
v 0.00475846 -0.00107241 0.00109864
v 0.00474965 -0.00121486 0.00098232
v 0.00474188 -0.00134017 0.00084766
v 0.00473530 -0.00144601 0.00069715
v 0.00473002 -0.00153041 0.00053360
v 0.00472615 -0.00159180 0.00036006
v 0.00472376 -0.00162903 0.00017977
v 0.00472290 -0.00164141 -0.00000393
v 0.00472357 -0.00162870 -0.00018761
v 0.00472577 -0.00159116 -0.00036784
v 0.00472946 -0.00152946 -0.00054127
v 0.00473456 -0.00144477 -0.00070467
v 0.00474099 -0.00133866 -0.00085500
v 0.00474862 -0.00121311 -0.00098945
v 0.00475731 -0.00107045 -0.00110552
v 0.00476689 -0.00091335 -0.00120105
v 0.00477720 -0.00074473 -0.00127426
v 0.00478804 -0.00056773 -0.00132378
v 0.00479920 -0.00038565 -0.00134870
v 0.00481048 -0.00020188 -0.00134854
v 0.00482166 -0.00001984 -0.00132331
v 0.00483255 0.00015707 -0.00127349
v 0.00484294 0.00032556 -0.00119999
v 0.00485262 0.00048249 -0.00110419
v 0.00486143 0.00062494 -0.00098788
v 0.00486920 0.00075025 -0.00085321
v 0.00487579 0.00085610 -0.00070271
v 0.00488106 0.00094050 -0.00053916
v 0.00488493 0.00100188 -0.00036562
v 0.00488732 0.00103911 -0.00018533
v 0.00488819 0.00105149 -0.00000163
vn 0.04476375 0.72280416 0.68960159
vn -0.07563421 0.72146792 -0.68830481
vn -0.07491212 0.72024603 0.68966212
vn -0.19325666 0.69924670 -0.68826297
vn -0.19253472 0.69802494 0.68970397
vn -0.30561748 0.65796869 -0.68824063
vn -0.30489565 0.65674676 0.68972628
vn -0.40965156 0.59875966 -0.68823867
vn -0.40892972 0.59753780 0.68972825
vn -0.50252166 0.52323464 -0.68825685
vn -0.50179966 0.52201272 0.68970995
vn -0.58169386 0.43345359 -0.68829517
vn -0.58097192 0.43223186 0.68967184
vn -0.64500883 0.33186622 -0.68835196
vn -0.64428702 0.33064426 0.68961483
vn -0.69073966 0.22124253 -0.68842608
vn -0.69001774 0.22002058 0.68954076
vn -0.71763863 0.10460072 -0.68851542
vn -0.71691659 0.10337886 0.68945153
vn -0.72497206 -0.01487735 -0.68861759
vn -0.72425012 -0.01609915 0.68934939
vn -0.71254012 -0.13393323 -0.68872960
vn -0.71181828 -0.13515489 0.68923718
vn -0.68068167 -0.24931910 -0.68884864
vn -0.67995973 -0.25054103 0.68911825
vn -0.63026591 -0.35788750 -0.68897127
vn -0.62954385 -0.35910930 0.68899568
vn -0.56266795 -0.45667683 -0.68909437
vn -0.56194612 -0.45789871 0.68887250
vn -0.47973181 -0.54299267 -0.68921430
vn -0.47900977 -0.54421448 0.68875267
vn -0.38371971 -0.61448038 -0.68932797
vn -0.38299776 -0.61570231 0.68863879
vn -0.27725044 -0.66918996 -0.68943236
vn -0.27652851 -0.67041187 0.68853461
vn -0.16322850 -0.70562922 -0.68952437
vn -0.16250664 -0.70685108 0.68844255
vn -0.04476376 -0.72280416 -0.68960159
vn -0.04404184 -0.72402599 0.68836522
vn 0.07491208 -0.72024603 -0.68966212
vn 0.07563418 -0.72146790 0.68830483
vn 0.19253478 -0.69802494 -0.68970395
vn 0.19325670 -0.69924669 0.68826297
vn 0.30489566 -0.65674677 -0.68972626
vn 0.30561746 -0.65796871 0.68824061
vn 0.40892972 -0.59753780 -0.68972825
vn 0.40965159 -0.59875966 0.68823865
vn 0.50179955 -0.52201279 -0.68970998
vn 0.50252162 -0.52323466 0.68825687
vn 0.58097196 -0.43223188 -0.68967179
vn 0.58169385 -0.43345357 0.68829519
vn 0.64428706 -0.33064416 -0.68961484
vn 0.64500887 -0.33186617 0.68835195
vn 0.69001774 -0.22002063 -0.68954075
vn 0.69073965 -0.22124258 0.68842607
vn 0.71691659 -0.10337886 -0.68945153
vn 0.71763863 -0.10460072 0.68851542
vn 0.72425011 0.01609912 -0.68934940
vn 0.72497205 0.01487732 0.68861760
vn 0.71181827 0.13515493 -0.68923719
vn 0.71254010 0.13393328 0.68872962
vn 0.67995974 0.25054105 -0.68911823
vn 0.68068167 0.24931913 0.68884864
vn 0.62954389 0.35910927 -0.68899567
vn 0.63026595 0.35788745 0.68897127
vn 0.56194608 0.45789875 -0.68887252
vn 0.56266792 0.45667687 0.68909437
vn 0.47900979 0.54421445 -0.68875268
vn 0.47973183 0.54299265 0.68921430
vn 0.38299774 0.61570230 -0.68863881
vn 0.38371966 0.61448038 0.68932800
vn 0.27652854 0.67041187 -0.68853459
vn 0.27725048 0.66918995 0.68943236
vn 0.16250662 0.70685109 -0.68844255
vn 0.16322849 0.70562923 0.68952436
vn 0.04404184 0.72402599 -0.68836522
vn 0.03022329 0.50203547 -0.86431877
vn -0.60902803 0.54246188 -0.57863630
vn -0.70217703 0.42163199 -0.57373678
vn -0.82325079 -0.08117403 -0.56184420
vn 0.60842103 -0.54143425 -0.58023513
vn 0.70157557 -0.42061289 -0.57521866
vn -0.27037535 0.77827891 -0.56672666
vn -0.81338689 0.09338100 -0.57417920
vn -0.81864070 0.00777460 -0.57425339
vn 0.26978082 -0.77727314 -0.56838787
vn -0.04730612 0.72172735 -0.69055902
vn -0.12822505 0.81738101 -0.56164634
vn -0.18039725 0.77812003 -0.60165277
vn -0.48950836 0.64863913 -0.58279400
vn -0.39594184 0.71954405 -0.57051417
vn -0.33150098 0.75300205 -0.56841448
vn -0.76779286 0.26072858 -0.58524758
vn -0.80345043 0.18741318 -0.56510504
vn -0.80519652 -0.15820882 -0.57151424
vn -0.78260447 -0.21154629 -0.58547281
vn -0.78498489 -0.22781914 -0.57610516
vn -0.76668281 -0.29655626 -0.56943116
vn -0.74871245 -0.33007299 -0.57487520
vn -0.67073781 -0.46292089 -0.57949551
vn -0.58139535 -0.57059340 -0.58000226
vn -0.53691197 -0.61683086 -0.57553908
vn -0.44285587 -0.68567591 -0.57769129
vn -0.36346890 -0.73840452 -0.56802212
vn -0.25821729 -0.74085645 -0.62004480
vn 0.48889676 -0.64760417 -0.58445598
vn 0.39534265 -0.71853088 -0.57220412
vn 0.33090443 -0.75199264 -0.57009589
vn 0.81278060 -0.09235763 -0.57520237
vn 0.73376870 0.37401769 -0.56718097
vn 0.70273302 0.42669477 -0.56929594
vn -0.23876101 -0.78767528 -0.56794440
vn -0.13396579 -0.70951738 -0.69183687
vn 0.04539005 -0.72052182 -0.69194512
vn 0.12763579 -0.81638413 -0.56322825
vn 0.17976595 -0.77705206 -0.60321995
vn 0.66543861 0.47651719 -0.57456316
vn 0.60495523 0.55140226 -0.57444296
vn 0.56421689 0.58637660 -0.58122438
vn 0.49448907 0.64537445 -0.58221335
vn 0.45261706 0.68037793 -0.57638847
vn 0.38080182 0.70816502 -0.59455216
vn 0.18131982 0.77934039 -0.59979303
vn 0.12443348 0.81859672 -0.56072784
vn -0.72836981 0.38801824 -0.56472937
vn -0.75054500 0.32617198 -0.57471214
vn -0.75778226 0.30091579 -0.57897818
vn 0.76717927 -0.25968869 -0.58651321
vn 0.80285637 -0.18641048 -0.56627978
vn 0.81803410 -0.00675622 -0.57513004
vn 0.82266237 0.08217133 -0.56256066
vn 0.80142592 0.16613104 -0.57455807
vn 0.78214955 0.23078338 -0.57877553
vn 0.70975126 0.37111107 -0.59877352
vn 0.72777779 -0.38701523 -0.56617903
vn 0.74994099 -0.32515257 -0.57607665
vn 0.75717521 -0.29988799 -0.58030414
vn -0.36398349 -0.73838073 0.56772345
vn -0.44197143 -0.68630319 0.57762374
vn -0.53583556 -0.61811579 0.57516355
vn -0.58078750 -0.57162176 0.57959852
vn -0.67013097 -0.46394842 0.57937582
vn -0.74780937 -0.33263396 0.57457445
vn 0.04611429 -0.72174680 0.69061931
vn -0.13323879 -0.71073423 0.69072736
vn -0.22657828 -0.79560205 0.56185377
vn -0.27351099 -0.75025927 0.60191592
vn 0.48679785 -0.65003124 0.58351284
vn 0.40198369 -0.71266012 0.57491274
vn 0.33058253 -0.75314018 0.56876627
vn -0.79324116 -0.16491360 0.58615012
vn -0.04658185 0.72050251 0.69188602
vn 0.27160267 -0.77739161 0.56735728
vn 0.16560886 -0.76793013 0.61875441
vn 0.14057854 -0.81192936 0.56657602
vn -0.81968781 -0.08778695 0.56604359
vn -0.81803411 0.00675625 0.57513003
vn -0.81278063 0.09235759 0.57520233
vn -0.80649544 0.18120624 0.56278717
vn -0.76970430 -0.29606858 0.56559587
vn -0.78413780 -0.23197522 0.57560004
vn -0.78822763 -0.20602287 0.57987221
vn -0.48618549 0.64899500 0.58517447
vn -0.40137993 0.71163910 0.57659687
vn -0.32998537 0.75213021 0.57044702
vn -0.27100781 0.77638452 0.56901831
vn -0.16495962 0.76683191 0.62028795
vn -0.13998423 0.81092369 0.56816123
vn 0.03113027 0.50051820 0.86516613
vn 0.12901325 0.81601129 0.56345467
vn 0.18099208 0.77677414 0.60321125
vn 0.37186818 0.72444270 0.58042814
vn 0.45372787 0.68371478 0.57154625
vn 0.81864070 -0.00777461 0.57425340
vn -0.77914474 0.25545393 0.57243057
vn -0.75018431 0.30562611 0.58635841
vn -0.75056531 0.32206994 0.57699451
vn -0.60842105 0.54143423 0.58023512
vn -0.70206248 0.41911972 0.57571429
vn -0.72400227 0.38805245 0.57029466
vn 0.50303695 0.64244041 0.57812123
vn 0.56482616 0.58534527 0.58167200
vn 0.60555719 0.55038344 0.57478565
vn 0.66604013 0.47549827 0.57471030
vn 0.70332839 0.42568481 0.56931680
vn 0.73384071 0.39991881 0.54912909
vn 0.72910342 0.36055821 0.58172672
vn 0.78327329 0.22653332 0.57893489
vn 0.78630619 0.17297715 0.59312855
vn 0.82027961 0.08678381 0.56534054
vn 0.81338689 -0.09338099 0.57417920
vn 0.80708552 -0.18220314 0.56161818
vn 0.77974350 -0.25646881 0.57116006
vn 0.75079769 -0.30666493 0.58502944
vn 0.75117052 -0.32309074 0.57563463
vn 0.60902803 -0.54246188 0.57863630
vn 0.70266446 -0.42013963 0.57423457
vn 0.72459853 -0.38906278 0.56884719
vn -0.99664549 -0.07296594 -0.03706387
vn -0.99687235 -0.07683671 -0.01848347
vn -0.99812145 0.06126360 0.00057730
vn -0.99626544 -0.06660515 -0.05494472
vn -0.99573920 -0.05787273 -0.07179271
vn -0.99507672 -0.04693374 -0.08729005
vn -0.99429030 -0.03399083 -0.10115047
vn -0.99339454 -0.01928391 -0.11311683
vn -0.99240604 -0.00308571 -0.12296640
vn -0.99134329 0.01429973 -0.13051439
vn -0.99022627 0.03254628 -0.13561958
vn -0.98907564 0.05131679 -0.13818817
vn -0.98791267 0.07026419 -0.13817199
vn -0.98675921 0.08903190 -0.13557134
vn -0.98563680 0.10727043 -0.13043446
vn -0.98456618 0.12464199 -0.12285684
vn -0.98356744 0.14082034 -0.11298104
vn -0.98265910 0.15550643 -0.10098935
vn -0.98185803 0.16842700 -0.08710424
vn -0.98117929 0.17933861 -0.07158820
vn -0.98063550 0.18803916 -0.05472931
vn -0.98023671 0.19436826 -0.03683695
vn -0.97999034 0.19820692 -0.01824670
vn -0.97990103 0.19948305 0.00069136
vn -0.97997048 0.19817331 0.01962655
vn -0.98019729 0.19430257 0.03820704
vn -0.98057744 0.18794137 0.05608851
vn -0.98110361 0.17920974 0.07293545
vn -0.98176604 0.16827107 0.08843236
vn -0.98255262 0.15532585 0.10229483
vn -0.98344830 0.14061993 0.11426053
vn -0.98443682 0.12442295 0.12410914
vn -0.98549951 0.10703734 0.13165763
vn -0.98661656 0.08879026 0.13676273
vn -0.98776721 0.07001917 0.13933145
vn -0.98893022 0.05107211 0.13931497
vn -0.99008356 0.03230488 0.13671478
vn -0.99120610 0.01406594 0.13157741
vn -0.99227676 -0.00330681 0.12399958
vn -0.99327531 -0.01948279 0.11412528
vn -0.99418382 -0.03417020 0.10213196
vn -0.99498482 -0.04709041 0.08824794
vn -0.99566353 -0.05800138 0.07273228
vn -0.99620735 -0.06670322 0.05587121
vn -0.99660620 -0.07303194 0.03797920
vn -0.99685250 -0.07687061 0.01939081
vn -0.99694177 -0.07814661 0.00045405
vn 0.98443684 -0.12442268 -0.12410921
vn 0.98344829 -0.14062019 -0.11426035
vn 0.95059050 -0.21562268 -0.22334852
vn 0.99240602 0.00308559 0.12296652
vn 0.99339456 0.01928384 0.11311671
vn 0.97008165 0.09773343 0.22223810
vn 0.98456617 -0.12464200 0.12285696
vn 0.98563679 -0.10727051 0.13043451
vn 0.95487915 -0.15026919 0.25617373
vn 0.98023672 -0.19436832 0.03683664
vn 0.98063554 -0.18803894 0.05472928
vn 0.94507812 -0.30855096 0.10781305
vn 0.99812145 -0.06126360 -0.00057730
vn 0.98776719 -0.07001948 -0.13933145
vn 0.98893024 -0.05107188 -0.13931489
vn 0.99120611 -0.01406560 -0.13157738
vn 0.99227673 0.00330667 -0.12399986
vn 0.99008356 -0.03230511 -0.13671478
vn 0.99418382 0.03417052 -0.10213181
vn 0.99498480 0.04709028 -0.08824827
vn 0.99327533 0.01948261 -0.11412514
vn 0.99022628 -0.03254620 0.13561955
vn 0.98907566 -0.05131676 0.13818800
vn 0.57226091 -0.40339944 0.71399324
vn 0.14332199 -0.92382644 0.35496973
vn -0.01132189 -0.82299220 0.56793983
vn -0.61647710 -0.33043618 0.71468029
vn -0.81015096 -0.49101576 0.32024824
vn -0.84208951 0.40016362 0.36159968
vn -0.62599560 0.65383058 0.42501187
vn -0.62643993 0.65458262 -0.42319571
vn -0.64098869 0.71175724 -0.28728928
vn -0.57226086 0.40339943 -0.71399328
vn -0.74438841 0.58643174 -0.31934890
vn 0.28651941 -0.89322662 -0.34648642
vn 0.90427941 -0.28545847 -0.31747788
vn 0.85984005 0.31362251 -0.40288460
vn 0.93176967 0.21713834 -0.29095742
vn 0.50891357 0.79418294 -0.33208497
vn 0.62570391 0.71457723 -0.31284821
vn 0.82994285 -0.45611325 -0.32117841
vn 0.57151409 -0.40213342 -0.71530438
vn 0.74405278 -0.58586376 -0.32116836
vn 0.62599560 -0.65383058 -0.42501187
vn 0.64068657 -0.71124599 -0.28922286
vn 0.52321124 -0.78696742 -0.32700501
vn 0.41455926 -0.84553798 -0.33646122
vn 0.14939948 -0.92068792 -0.36057391
vn -0.01191758 -0.82198379 -0.56938617
vn -0.08935394 -0.81723373 -0.56933725
vn -0.25519163 -0.89875903 -0.35652412
vn -0.39440297 -0.85131619 -0.34598705
vn -0.51493405 -0.78697317 -0.33987668
vn -0.61893488 -0.71799681 -0.31843397
vn -0.61722652 -0.32916908 -0.71461818
vn -0.87991646 -0.35124869 -0.31995527
vn -0.88512339 -0.29414955 -0.36060038
vn -0.93245447 -0.21681432 -0.28899865
vn -0.93152385 -0.16961030 -0.32170742
vn -0.93034620 -0.12298616 -0.34544227
vn -0.93212896 -0.07412740 -0.35445838
vn -0.91801596 -0.02331010 -0.39585772
vn -0.88540908 0.04148908 -0.46295725
vn -0.88379137 0.06789504 -0.46292880
vn -0.90823206 0.13608008 -0.39572306
vn -0.90461141 0.28601950 -0.31602381
vn -0.91077676 0.23334670 -0.34063912
vn -0.91772487 0.18351093 -0.35228511
vn -0.89845653 0.32946983 -0.29021631
vn -0.84203142 0.40170259 -0.36002516
vn -0.83027852 0.45668127 -0.31949928
vn -0.52355281 0.78754572 -0.32506030
vn -0.41491082 0.84613301 -0.33452643
vn -0.28688163 0.89383903 -0.34460225
vn 0.37035196 0.84936990 -0.37604547
vn 0.27992341 0.86598732 -0.41437766
vn 0.13267055 0.92329573 -0.36044906
vn -0.00271669 0.88486045 -0.46584826
vn -0.14977628 0.92132554 -0.35878451
vn 0.13092530 0.92345511 0.36067884
vn -0.00222809 0.88403374 0.46741778
vn -0.14294921 0.92319559 0.35675681
vn -0.28624490 0.89351588 0.34596710
vn -0.41084078 0.84844361 0.33369642
vn -0.52630431 0.78670425 0.32264563
vn -0.64068655 0.71124601 0.28922284
vn -0.82998550 0.45620063 0.32094400
vn -0.89860577 0.32920205 0.29005807
vn -0.90341719 0.28223749 0.32276831
vn -0.90792304 0.23581737 0.34650530
vn -0.91565735 0.18754250 0.35552696
vn -0.90781653 0.13537743 0.39691573
vn -0.88329690 0.06707302 0.46399116
vn -0.88492011 0.04066610 0.46396407
vn -0.91759957 -0.02401278 0.39678006
vn -0.93243556 -0.17326384 0.31708606
vn -0.93208447 -0.12023360 0.34170516
vn -0.93287205 -0.06992326 0.35335601
vn -0.93167042 -0.21713883 0.29127471
vn -0.88442199 -0.29573411 0.36102503
vn -0.87952806 -0.35173525 0.32048822
vn -0.39301125 -0.85252904 0.34458148
vn -0.51429283 -0.78811315 0.33820192
vn -0.61892609 -0.71845199 0.31742280
vn -0.72289130 -0.62804382 0.28807834
vn -0.70130303 -0.57308737 0.42396336
vn -0.26091407 -0.89611876 0.35901953
vn -0.08875797 -0.81823684 0.56798812
vn 0.28660641 -0.89412747 0.34408259
vn 0.83032085 -0.45676835 0.31926473
vn 0.90828546 -0.23643037 0.34513505
vn 0.88379228 -0.06789553 0.46292699
vn 0.88540999 -0.04148878 0.46295553
vn 0.91801595 0.02331006 0.39585774
vn 0.93324135 0.06929724 0.35250317
vn 0.93244199 0.11962851 0.34094127
vn 0.73363057 0.57998871 0.35411761
vn 0.62519761 0.71446507 0.31411402
vn 0.27692038 0.87084799 0.40612668
vn 0.37461281 0.84765632 0.37569137
vn 0.50857020 0.79177719 0.33829754
vn 0.89352897 -0.39819595 0.20747521
vn 0.94614395 -0.29149866 0.14085510
vn 0.98117928 -0.17933859 0.07158839
vn 0.90823210 -0.13607990 0.39572302
vn 0.95707873 -0.11452715 0.26624019
vn 0.98675920 -0.08903193 0.13557138
vn 0.95933897 -0.07775029 0.27133676
vn 0.98791268 -0.07026429 0.13817190
vn 0.96161797 -0.04062125 0.27136838
vn 0.96387299 -0.00383468 0.26633467
vn 0.96606216 0.03192543 0.25632923
vn 0.93207436 0.21662325 0.29036487
vn 0.97183714 0.12655512 0.19878729
vn 0.99429031 0.03399081 0.10115039
vn 0.95905415 -0.07726852 -0.27247881
vn 0.96133312 -0.04013842 -0.27244733
vn 0.96359340 -0.00336135 -0.26735084
vn 0.96579305 0.03238076 -0.25728442
vn 0.96789107 0.06642262 -0.24243536
vn 0.96984830 0.09812803 -0.22308107
vn 0.97162839 0.12690765 -0.19958136
vn 0.89815161 -0.32895394 -0.29174131
vn 0.94883505 -0.24444401 -0.19989789
vn 0.98255259 -0.15532588 -0.10229509
vn 0.89548552 -0.36674141 0.25220315
vn 0.94747406 -0.27011470 0.17126284
vn 0.98185800 -0.16842720 0.08710428
vn 0.98265911 -0.15550646 0.10098918
vn 0.95082376 -0.21601711 0.22197022
vn 0.94904369 -0.24479718 0.19847017
vn 0.90375471 -0.28280788 0.32132093
vn 0.89890886 -0.32971511 0.28853215
vn 0.84246744 -0.40080401 0.36000660
vn 0.91602964 -0.18817277 0.35423256
vn 0.95278108 -0.18431083 0.24132496
vn 0.98356747 -0.14082014 0.11298109
vn 0.93242839 0.17292571 0.31729166
vn 0.96814460 0.06599315 0.24153869
vn 0.99134327 -0.01429961 0.13051452
vn 0.88329618 -0.06707273 -0.46399256
vn 0.88491946 -0.04066620 -0.46396531
vn 0.91759956 0.02401265 -0.39678009
vn 0.93175749 0.07475741 -0.35530171
vn 0.92943536 0.12657509 -0.34659582
vn 0.92840154 0.17265509 -0.32903009
vn 0.95679912 -0.11405438 -0.26744541
vn 0.91735444 -0.18288456 -0.35357328
vn 0.90781652 -0.13537753 -0.39691572
vn 0.91041896 -0.23274165 -0.34200680
vn 0.95461009 -0.14981341 -0.25744030
vn 0.98661658 -0.08878998 -0.13676282
vn 0.95252753 -0.18388196 -0.24264941
vn 0.98549950 -0.10703755 -0.13165753
vn 0.99507671 0.04693379 0.08729004
vn 0.97337829 0.15192075 0.17162398
vn 0.93358886 0.25404241 0.25273364
vn 0.87683365 0.35121932 0.32834088
vn 0.86026252 0.31290888 0.40253749
vn 0.97319814 0.15222576 -0.17237369
vn 0.93332372 0.25449116 -0.25326092
vn 0.87649128 0.35179917 -0.32863412
vn 0.82060019 0.44005128 -0.36465079
vn 0.84165350 -0.40106218 -0.36161929
vn 0.89522047 -0.36629258 -0.25379136
vn 0.94729379 -0.26980935 -0.17273504
vn 0.98176608 -0.16827085 -0.08843238
vn 0.62643996 -0.65458262 0.42319566
vn 0.74438838 -0.58643176 0.31934891
vn 0.82433151 -0.49745427 0.27021624
vn 0.99573919 0.05787292 0.07179273
vn 0.97467662 0.17335869 0.14125245
vn 0.93549844 0.28557575 0.20806047
vn 0.87895300 0.39244520 0.27097673
vn 0.80656521 0.49209338 0.32756169
vn 0.82414767 0.43204653 0.36621907
vn 0.72164939 0.62828360 0.29065767
vn 0.80850100 0.53172372 0.25218249
vn 0.88092688 0.42520113 0.20777830
vn 0.93701517 0.31074456 0.15950047
vn 0.97570773 0.19046949 0.10823958
vn 0.99626544 0.06660498 0.05494496
vn 0.99566354 0.05800140 -0.07273208
vn 0.97452824 0.17361012 -0.14196562
vn 0.93528024 0.28594540 -0.20853322
vn 0.87866895 0.39292571 -0.27120152
vn 0.80622188 0.49267427 -0.32753372
vn 0.73325968 0.58061657 -0.35385680
vn 0.98110357 -0.17921003 -0.07293519
vn 0.94599558 -0.29124757 -0.14236295
vn 0.89331077 -0.39782615 -0.20911773
vn 0.82404746 -0.49697331 -0.27196198
vn 0.89196137 -0.42327795 0.15887322
vn 0.82229126 -0.53009792 0.20696204
vn 0.73737682 -0.62703899 0.25119222
vn 0.64098867 -0.71175719 0.28728945
vn 0.52664132 -0.78727481 0.32069814
vn 0.41118946 -0.84903376 0.33176031
vn 0.99620735 0.06670310 -0.05587133
vn 0.97559397 0.19066207 -0.10892376
vn 0.93684792 0.31102739 -0.15993102
vn 0.88070912 0.42556975 -0.20794673
vn 0.80823673 0.53217096 -0.25208623
vn 0.72134488 0.62879882 -0.29029916
vn 0.98057744 -0.18794127 -0.05608892
vn 0.94496441 -0.30835832 -0.10934994
vn 0.89179403 -0.42299456 -0.16055847
vn 0.82207347 -0.52972926 -0.20876332
vn 0.73711256 -0.62659184 -0.25307653
vn 0.97999032 -0.19820703 0.01824675
vn 0.97990103 -0.19948309 -0.00069116
vn 0.94381393 -0.32847487 0.03632532
vn 0.94363897 -0.33097562 -0.00078857
vn 0.89010166 -0.45258497 0.05372044
vn 0.88984440 -0.45626329 -0.00087049
vn 0.81987099 -0.56823943 0.07011067
vn 0.81953607 -0.57302683 -0.00093740
vn 0.73444125 -0.67330387 0.08519358
vn 0.73403494 -0.67911099 -0.00098674
vn 0.63540933 -0.76584273 0.09869095
vn 0.63493923 -0.77256141 -0.00101779
vn 0.52462054 -0.84415354 0.11035442
vn 0.52409542 -0.85165893 -0.00102999
vn 0.40413256 -0.90679885 0.11996965
vn 0.40356247 -0.91495152 -0.00102262
vn 0.27617841 -0.95263047 0.12736038
vn 0.27557333 -0.96127954 -0.00099667
vn 0.14312513 -0.98080982 0.13239066
vn 0.14249655 -0.98979484 -0.00095240
vn 0.00743206 -0.99082196 0.13496893
vn 0.00679167 -0.99997654 -0.00089007
vn -0.12839519 -0.98248504 0.13504749
vn -0.12903595 -0.99163958 -0.00081174
vn -0.26184837 -0.95595298 0.13262479
vn -0.26247701 -0.96493798 -0.00071820
vn -0.39046206 -0.91171289 0.12774579
vn -0.39106721 -0.92036192 -0.00061126
vn -0.51185935 -0.85057621 0.12049947
vn -0.51242973 -0.85872902 -0.00049290
vn -0.62379264 -0.77366505 0.11101861
vn -0.62431769 -0.78117046 -0.00036547
vn -0.72418574 -0.68239233 0.09947724
vn -0.72465585 -0.68911091 -0.00023143
vn 0.94429661 -0.32095333 0.07275219
vn 0.89081184 -0.44152087 0.10730140
vn 0.82079506 -0.55384055 0.13984321
vn 0.73556214 -0.65583810 0.16977845
vn 0.63670625 -0.74563513 0.19655379
vn 0.52606923 -0.82157976 0.21967672
vn 0.40570648 -0.88227765 0.23872242
vn 0.27784799 -0.92661688 0.25334097
vn 0.14485963 -0.95378570 0.26326513
vn 0.00919900 -0.96328798 0.26831261
vn -0.12662809 -0.95495104 0.26839121
vn -0.26011381 -0.92892887 0.26349943
vn -0.38879266 -0.88569919 0.25372665
vn -0.51028568 -0.82605507 0.23925204
vn -0.62234383 -0.75109128 0.22034074
vn -0.72288872 -0.66218486 0.19734007
vn 0.99664551 0.07296587 0.03706362
vn 0.97645256 0.20293403 0.07319964
vn 0.93811071 0.32907910 0.10795950
vn 0.88235268 0.44906244 0.14070067
vn 0.81023050 0.56066718 0.17081821
vn 0.72309586 0.66183435 0.19775661
vn 0.62257497 0.75069998 0.22102022
vn 0.51053676 0.82562998 0.24018192
vn 0.38905923 0.88524818 0.25488933
vn 0.26039075 0.92846036 0.26487359
vn 0.12691009 0.95447365 0.26995163
vn -0.00891717 0.96281053 0.27003029
vn -0.14458269 0.95331720 0.26510782
vn -0.27758147 0.92616585 0.25527506
vn -0.40545519 0.88185259 0.24071166
vn -0.52583809 0.82118838 0.22168435
vn -0.63649925 0.74528480 0.19854285
vn 0.99687234 0.07683687 0.01848351
vn 0.97689716 0.21052026 0.03678520
vn 0.93876466 0.34023783 0.05439792
vn 0.88320383 0.46358504 0.07099232
vn 0.81126286 0.57828302 0.08626305
vn 0.72429020 0.68221553 0.09992838
vn 0.62390938 0.77346752 0.11173669
vn 0.51198608 0.85036165 0.12147145
vn 0.39059643 0.91148530 0.12895337
vn 0.26198803 0.95571653 0.13404549
vn 0.12853787 0.98224410 0.13665481
vn -0.00728983 0.99058102 0.13673367
vn -0.14298557 0.98057333 0.13427983
vn -0.27604383 0.95240288 0.12933893
vn -0.40400585 0.90658427 0.12200092
vn -0.52450392 0.84395597 0.11240084
vn -0.63530474 0.76566602 0.10071461
vn 0.99694179 0.07814644 -0.00045382
vn 0.97703317 0.21308701 -0.00032272
vn 0.93896490 0.34401292 -0.00018724
vn 0.88346425 0.46849857 -0.00004733
vn 0.81157885 0.58424290 0.00009277
vn 0.72465582 0.68911094 0.00023125
vn 0.62431766 0.78117048 0.00036558
vn 0.51242977 0.85872900 0.00049286
vn 0.39106723 0.92036191 0.00061108
vn 0.26247696 0.96493799 0.00071818
vn 0.12903588 0.99163959 0.00081169
vn -0.00679148 0.99997654 0.00089004
vn -0.14249669 0.98979482 0.00095233
vn -0.27557329 0.96127955 0.00099680
vn -0.40356242 0.91495154 0.00102285
vn -0.52409549 0.85165888 0.00102989
vn -0.63493924 0.77256140 0.00101782
vn 0.99685250 0.07687054 -0.01939112
vn 0.97685823 0.21058629 -0.03743537
vn 0.93870747 0.34033464 -0.05477797
vn 0.88312942 0.46371097 -0.07109541
vn 0.81117247 0.57843602 -0.08608713
vn 0.72418572 0.68239235 -0.09947725
vn 0.62379266 0.77366502 -0.11101870
vn 0.51185936 0.85057622 -0.12049938
vn 0.39046203 0.91171292 -0.12774566
vn 0.26184833 0.95595298 -0.13262487
vn 0.12839524 0.98248504 -0.13504739
vn -0.00743199 0.99082197 -0.13496886
vn -0.14312526 0.98080980 -0.13239066
vn -0.27617829 0.95263049 -0.12736052
vn -0.40413257 0.90679882 -0.11996985
vn -0.52462060 0.84415350 -0.11035437
vn -0.63540930 0.76584274 -0.09869106
vn 0.99660620 0.07303205 -0.03797899
vn 0.97637553 0.20306438 -0.07386267
vn 0.93799741 0.32927095 -0.10835820
vn 0.88220523 0.44931215 -0.14082801
vn 0.81005156 0.56097011 -0.17067221
vn 0.72288875 0.66218485 -0.19734001
vn 0.62234377 0.75109134 -0.22034072
vn 0.51028575 0.82605498 -0.23925220
vn 0.38879266 0.88569916 -0.25372674
vn 0.26011379 0.92892893 -0.26349927
vn 0.12662810 0.95495103 -0.26839125
vn -0.00919900 0.96328794 -0.26831272
vn -0.14485958 0.95378573 -0.26326505
vn -0.27784815 0.92661687 -0.25334084
vn -0.40570634 0.88227772 -0.23872240
vn -0.52606932 0.82157970 -0.21967673
vn -0.63670625 0.74563514 -0.19655380
vn -0.80823666 -0.53217100 0.25208634
vn -0.81005156 -0.56097018 0.17067200
vn -0.81117253 -0.57843592 0.08608720
vn -0.81157881 -0.58424296 -0.00009279
vn -0.73737681 0.62703903 -0.25119214
vn -0.73556200 0.65583822 -0.16977860
vn -0.73444124 0.67330390 -0.08519346
vn -0.73403491 0.67911102 0.00098668
vn -0.73435085 0.67315117 0.08715688
vn -0.73538319 0.65553536 0.17171186
vn -0.73711260 0.62659180 0.25307651
vn -0.74405274 0.58586384 0.32116830
vn -0.57151401 0.40213341 0.71530445
vn -0.87866891 -0.39292578 0.27120153
vn -0.88070924 -0.42556953 0.20794664
vn -0.88220524 -0.44931211 0.14082803
vn -0.88312940 -0.46371104 0.07109530
vn -0.88346430 -0.46849848 0.00004745
vn -0.82433149 0.49745435 -0.27021615
vn -0.82229129 0.53009787 -0.20696203
vn -0.82079520 0.55384034 -0.13984321
vn -0.81987101 0.56823941 -0.07011060
vn -0.81953608 0.57302681 0.00093737
vn -0.81979653 0.56811348 0.07197725
vn -0.82064755 0.55359092 0.14168515
vn -0.82207334 0.52972944 0.20876334
vn -0.82404750 0.49697323 0.27196198
vn -0.93332375 -0.25449101 0.25326095
vn -0.93528027 -0.28594538 0.20853311
vn -0.93684784 -0.31102765 0.15993098
vn -0.93799743 -0.32927085 0.10835836
vn -0.93870745 -0.34033472 0.05477782
vn -0.93896483 -0.34401311 0.00018737
vn -0.89548557 0.36674132 -0.25220308
vn -0.89352903 0.39819588 -0.20747511
vn -0.89196131 0.42327805 -0.15887325
vn -0.89081175 0.44152105 -0.10730141
vn -0.89010163 0.45258500 -0.05372062
vn -0.88984433 0.45626342 0.00087063
vn -0.89004451 0.45248810 0.05545534
vn -0.89069851 0.44132912 0.10901727
vn -0.89179416 0.42299429 0.16055843
vn -0.89331078 0.39782609 0.20911778
vn -0.89522038 0.36629281 0.25379136
vn -0.93358880 -0.25404247 -0.25273379
vn -0.70174742 -0.57233490 -0.42424442
vn -0.81048663 -0.49044784 -0.32026917
vn -0.87895293 -0.39244530 -0.27097680
vn -0.93549852 -0.28557555 -0.20806040
vn -0.72319354 -0.62753244 -0.28843395
vn -0.80850105 -0.53172367 -0.25218247
vn -0.88092680 -0.42520131 -0.20777827
vn -0.93701521 -0.31074447 -0.15950040
vn 0.98019732 -0.19430247 -0.03820677
vn 0.94421968 -0.32082259 -0.07431059
vn 0.89069846 -0.44132919 -0.10901737
vn 0.82064765 -0.55359078 -0.14168513
vn 0.73538312 -0.65553542 -0.17171189
vn 0.63649924 -0.74528484 -0.19854276
vn 0.52583818 -0.82118831 -0.22168438
vn 0.40545507 -0.88185262 -0.24071174
vn 0.27758150 -0.92616586 -0.25527495
vn 0.14458281 -0.95331717 -0.26510788
vn 0.00891698 -0.96281052 -0.27003035
vn -0.12691004 -0.95447369 -0.26995150
vn -0.26039071 -0.92846037 -0.26487360
vn -0.38905918 -0.88524813 -0.25488958
vn -0.51053691 -0.82562985 -0.24018202
vn -0.62257487 -0.75070012 -0.22102006
vn -0.72309585 -0.66183441 -0.19775644
vn -0.81023055 -0.56066708 -0.17081825
vn -0.88235268 -0.44906243 -0.14070069
vn -0.93811068 -0.32907920 -0.10795939
vn 0.97997048 -0.19817332 -0.01962663
vn 0.94377508 -0.32840896 -0.03789669
vn 0.89004453 -0.45248805 -0.05545539
vn 0.81979651 -0.56811351 -0.07197723
vn 0.73435087 -0.67315116 -0.08715685
vn 0.63530469 -0.76566604 -0.10071472
vn 0.52450397 -0.84395596 -0.11240072
vn 0.40400594 -0.90658423 -0.12200096
vn 0.27604363 -0.95240291 -0.12933911
vn 0.14298576 -0.98057332 -0.13427968
vn 0.00728965 -0.99058103 -0.13673361
vn -0.12853781 -0.98224409 -0.13665496
vn -0.26198802 -0.95571653 -0.13404548
vn -0.39059637 -0.91148537 -0.12895309
vn -0.51198618 -0.85036161 -0.12147137
vn -0.62390942 -0.77346746 -0.11173689
vn -0.72429021 -0.68221553 -0.09992832
vn -0.81126282 -0.57828310 -0.08626294
vn -0.88320382 -0.46358504 -0.07099240
vn -0.93876471 -0.34023768 -0.05439802
vn -0.97689711 -0.21052051 -0.03678527
vn -0.97645258 -0.20293393 -0.07319955
vn -0.97570773 -0.19046946 -0.10823956
vn -0.97467658 -0.17335886 -0.14125250
vn -0.97337832 -0.15192072 -0.17162386
vn -0.97183714 -0.12655494 -0.19878739
vn -0.97008165 -0.09773352 -0.22223806
vn -0.96814461 -0.06599320 -0.24153865
vn -0.96606212 -0.03192539 -0.25632937
vn -0.96387299 0.00383464 -0.26633467
vn -0.96161797 0.04062136 -0.27136834
vn -0.95933903 0.07775000 -0.27133661
vn -0.95707871 0.11452746 -0.26624011
vn -0.95487908 0.15026916 -0.25617401
vn -0.95278103 0.18431090 -0.24132509
vn -0.95082381 0.21601695 -0.22197016
vn -0.94904376 0.24479707 -0.19846998
vn -0.94747401 0.27011479 -0.17126295
vn -0.94614389 0.29149881 -0.14085516
vn -0.94507817 0.30855084 -0.10781297
vn -0.94429663 0.32095325 -0.07275219
vn -0.94381392 0.32847490 -0.03632537
vn -0.94363902 0.33097548 0.00078859
vn -0.94377508 0.32840895 0.03789681
vn -0.94421970 0.32082254 0.07431051
vn -0.94496435 0.30835844 0.10935010
vn -0.94599554 0.29124777 0.14236286
vn -0.94729388 0.26980911 0.17273493
vn -0.94883496 0.24444411 0.19989819
vn -0.95059047 0.21562284 0.22334852
vn -0.95252757 0.18388193 0.24264928
vn -0.95461012 0.14981336 0.25744022
vn -0.95679911 0.11405434 0.26744544
vn -0.95905411 0.07726846 0.27247898
vn -0.96133313 0.04013869 0.27244723
vn -0.96359342 0.00336103 0.26735075
vn -0.96579299 -0.03238057 0.25728467
vn -0.96789107 -0.06642268 0.24243534
vn -0.96984834 -0.09812802 0.22308089
vn -0.97162836 -0.12690762 0.19958152
vn -0.97319813 -0.15222592 0.17237365
vn -0.97452825 -0.17361003 0.14196568
vn -0.97559399 -0.19066199 0.10892367
vn -0.97637550 -0.20306447 0.07386269
vn -0.97685826 -0.21058613 0.03743551
vn -0.97703322 -0.21308680 0.00032253
f 1//1 2//2 3//3
f 3//3 2//2 4//4
f 3//3 4//4 5//5
f 5//5 4//4 6//6
f 5//5 6//6 7//7
f 7//7 6//6 8//8
f 7//7 8//8 9//9
f 9//9 8//8 10//10
f 9//9 10//10 11//11
f 11//11 10//10 12//12
f 11//11 12//12 13//13
f 13//13 12//12 14//14
f 13//13 14//14 15//15
f 15//15 14//14 16//16
f 15//15 16//16 17//17
f 17//17 16//16 18//18
f 17//17 18//18 19//19
f 19//19 18//18 20//20
f 19//19 20//20 21//21
f 21//21 20//20 22//22
f 21//21 22//22 23//23
f 23//23 22//22 24//24
f 23//23 24//24 25//25
f 25//25 24//24 26//26
f 25//25 26//26 27//27
f 27//27 26//26 28//28
f 27//27 28//28 29//29
f 29//29 28//28 30//30
f 29//29 30//30 31//31
f 31//31 30//30 32//32
f 31//31 32//32 33//33
f 33//33 32//32 34//34
f 33//33 34//34 35//35
f 35//35 34//34 36//36
f 35//35 36//36 37//37
f 37//37 36//36 38//38
f 37//37 38//38 39//39
f 39//39 38//38 40//40
f 39//39 40//40 41//41
f 41//41 40//40 42//42
f 41//41 42//42 43//43
f 43//43 42//42 44//44
f 43//43 44//44 45//45
f 45//45 44//44 46//46
f 45//45 46//46 47//47
f 47//47 46//46 48//48
f 47//47 48//48 49//49
f 49//49 48//48 50//50
f 49//49 50//50 51//51
f 51//51 50//50 52//52
f 51//51 52//52 53//53
f 53//53 52//52 54//54
f 53//53 54//54 55//55
f 55//55 54//54 56//56
f 55//55 56//56 57//57
f 57//57 56//56 58//58
f 57//57 58//58 59//59
f 59//59 58//58 60//60
f 59//59 60//60 61//61
f 61//61 60//60 62//62
f 61//61 62//62 63//63
f 63//63 62//62 64//64
f 63//63 64//64 65//65
f 65//65 64//64 66//66
f 65//65 66//66 67//67
f 67//67 66//66 68//68
f 67//67 68//68 69//69
f 69//69 68//68 70//70
f 69//69 70//70 71//71
f 71//71 70//70 72//72
f 71//71 72//72 73//73
f 73//73 72//72 74//74
f 73//73 74//74 75//75
f 75//75 74//74 76//76
f 75//75 76//76 1//1
f 1//1 76//76 2//2
f 40//40 38//38 77//77
f 78//78 79//79 52//52
f 60//60 58//58 80//80
f 81//81 82//82 14//14
f 44//44 42//42 83//83
f 56//56 84//84 58//58
f 58//58 84//84 85//85
f 58//58 85//85 80//80
f 6//6 4//4 86//86
f 77//77 87//87 40//40
f 40//40 87//87 88//88
f 40//40 88//88 42//42
f 42//42 88//88 89//89
f 42//42 89//89 83//83
f 52//52 50//50 78//78
f 78//78 50//50 48//48
f 78//78 48//48 90//90
f 90//90 48//48 46//46
f 90//90 46//46 91//91
f 91//91 46//46 44//44
f 91//91 44//44 92//92
f 92//92 44//44 83//83
f 54//54 93//93 56//56
f 56//56 93//93 94//94
f 56//56 94//94 84//84
f 80//80 95//95 60//60
f 60//60 95//95 96//96
f 60//60 96//96 62//62
f 62//62 96//96 97//97
f 97//97 98//98 62//62
f 62//62 98//98 99//99
f 62//62 99//99 64//64
f 64//64 99//99 100//100
f 64//64 100//100 66//66
f 66//66 100//100 101//101
f 66//66 101//101 68//68
f 68//68 101//101 102//102
f 68//68 102//102 70//70
f 70//70 102//102 103//103
f 70//70 103//103 72//72
f 103//103 104//104 72//72
f 72//72 104//104 105//105
f 72//72 105//105 74//74
f 14//14 12//12 81//81
f 81//81 12//12 10//10
f 81//81 10//10 106//106
f 106//106 10//10 8//8
f 106//106 8//8 107//107
f 107//107 8//8 6//6
f 107//107 6//6 108//108
f 108//108 6//6 86//86
f 20//20 18//18 109//109
f 110//110 111//111 26//26
f 105//105 112//112 74//74
f 74//74 112//112 113//113
f 74//74 113//113 76//76
f 76//76 113//113 114//114
f 76//76 114//114 2//2
f 2//2 114//114 115//115
f 2//2 115//115 4//4
f 4//4 115//115 116//116
f 4//4 116//116 86//86
f 26//26 111//111 28//28
f 111//111 117//117 28//28
f 28//28 117//117 118//118
f 28//28 118//118 30//30
f 118//118 119//119 30//30
f 30//30 119//119 120//120
f 30//30 120//120 32//32
f 32//32 120//120 121//121
f 32//32 121//121 34//34
f 34//34 121//121 122//122
f 34//34 122//122 36//36
f 36//36 122//122 123//123
f 36//36 123//123 38//38
f 38//38 123//123 124//124
f 38//38 124//124 77//77
f 79//79 125//125 52//52
f 52//52 125//125 126//126
f 52//52 126//126 54//54
f 54//54 126//126 127//127
f 54//54 127//127 93//93
f 16//16 128//128 18//18
f 18//18 128//128 129//129
f 18//18 129//129 109//109
f 109//109 130//130 20//20
f 20//20 130//130 131//131
f 20//20 131//131 22//22
f 22//22 131//131 132//132
f 22//22 132//132 24//24
f 24//24 132//132 133//133
f 24//24 133//133 26//26
f 26//26 133//133 134//134
f 26//26 134//134 110//110
f 82//82 135//135 14//14
f 14//14 135//135 136//136
f 14//14 136//136 16//16
f 16//16 136//136 137//137
f 16//16 137//137 128//128
f 73//73 138//138 71//71
f 71//71 138//138 139//139
f 71//71 139//139 69//69
f 139//139 140//140 69//69
f 69//69 140//140 141//141
f 69//69 141//141 67//67
f 67//67 141//141 142//142
f 143//143 63//63 142//142
f 142//142 63//63 65//65
f 142//142 65//65 67//67
f 3//3 144//144 1//1
f 1//1 144//144 145//145
f 1//1 145//145 75//75
f 75//75 145//145 146//146
f 75//75 146//146 73//73
f 73//73 146//146 147//147
f 73//73 147//147 138//138
f 148//148 149//149 7//7
f 7//7 149//149 150//150
f 7//7 150//150 5//5
f 59//59 61//61 151//151
f 39//39 41//41 152//152
f 150//150 153//153 5//5
f 5//5 153//153 154//154
f 5//5 154//154 3//3
f 3//3 154//154 155//155
f 3//3 155//155 144//144
f 151//151 156//156 59//59
f 59//59 156//156 157//157
f 59//59 157//157 57//57
f 157//157 158//158 57//57
f 57//57 158//158 159//159
f 57//57 159//159 55//55
f 143//143 160//160 63//63
f 63//63 160//160 161//161
f 63//63 161//161 61//61
f 61//61 161//161 162//162
f 61//61 162//162 151//151
f 163//163 164//164 45//45
f 45//45 164//164 165//165
f 45//45 165//165 43//43
f 165//165 166//166 43//43
f 43//43 166//166 167//167
f 43//43 167//167 41//41
f 41//41 167//167 168//168
f 41//41 168//168 152//152
f 152//152 169//169 39//39
f 39//39 169//169 170//170
f 39//39 170//170 37//37
f 37//37 170//170 171//171
f 37//37 171//171 35//35
f 35//35 171//171 172//172
f 35//35 172//172 33//33
f 33//33 172//172 173//173
f 33//33 173//173 31//31
f 19//19 21//21 174//174
f 159//159 175//175 55//55
f 55//55 175//175 176//176
f 55//55 176//176 53//53
f 53//53 176//176 177//177
f 45//45 47//47 163//163
f 163//163 47//47 49//49
f 163//163 49//49 178//178
f 178//178 49//49 51//51
f 178//178 51//51 179//179
f 179//179 51//51 53//53
f 179//179 53//53 180//180
f 180//180 53//53 177//177
f 173//173 181//181 31//31
f 31//31 181//181 182//182
f 31//31 182//182 29//29
f 182//182 183//183 29//29
f 29//29 183//183 184//184
f 29//29 184//184 27//27
f 27//27 184//184 185//185
f 185//185 186//186 27//27
f 27//27 186//186 187//187
f 27//27 187//187 25//25
f 25//25 187//187 188//188
f 25//25 188//188 23//23
f 23//23 188//188 189//189
f 23//23 189//189 21//21
f 21//21 189//189 190//190
f 21//21 190//190 174//174
f 174//174 191//191 19//19
f 19//19 191//191 192//192
f 19//19 192//192 17//17
f 192//192 193//193 17//17
f 17//17 193//193 194//194
f 17//17 194//194 15//15
f 15//15 194//194 195//195
f 7//7 9//9 148//148
f 148//148 9//9 11//11
f 148//148 11//11 196//196
f 196//196 11//11 13//13
f 196//196 13//13 197//197
f 197//197 13//13 15//15
f 197//197 15//15 198//198
f 198//198 15//15 195//195
f 199//199 200//200 201//201
f 199//199 201//201 202//202
f 203//203 202//202 201//201
f 204//204 203//203 201//201
f 205//205 204//204 201//201
f 206//206 205//205 201//201
f 207//207 206//206 201//201
f 208//208 207//207 201//201
f 209//209 208//208 201//201
f 210//210 209//209 201//201
f 211//211 210//210 201//201
f 212//212 211//211 201//201
f 213//213 212//212 201//201
f 214//214 213//213 201//201
f 215//215 214//214 201//201
f 216//216 215//215 201//201
f 217//217 216//216 201//201
f 218//218 217//217 201//201
f 219//219 218//218 201//201
f 220//220 219//219 201//201
f 221//221 220//220 201//201
f 222//222 221//221 201//201
f 223//223 222//222 201//201
f 224//224 223//223 201//201
f 225//225 224//224 201//201
f 226//226 225//225 201//201
f 227//227 226//226 201//201
f 228//228 227//227 201//201
f 229//229 228//228 201//201
f 230//230 229//229 201//201
f 231//231 230//230 201//201
f 232//232 231//231 201//201
f 233//233 232//232 201//201
f 234//234 233//233 201//201
f 235//235 234//234 201//201
f 236//236 235//235 201//201
f 237//237 236//236 201//201
f 238//238 237//237 201//201
f 239//239 238//238 201//201
f 240//240 239//239 201//201
f 241//241 240//240 201//201
f 242//242 241//241 201//201
f 243//243 242//242 201//201
f 244//244 243//243 201//201
f 245//245 244//244 201//201
f 200//200 245//245 201//201
f 246//246 247//247 248//248
f 249//249 250//250 251//251
f 252//252 253//253 254//254
f 255//255 256//256 257//257
f 247//247 246//246 258//258
f 258//258 259//259 260//260
f 258//258 261//261 262//262
f 263//263 261//261 258//258
f 260//260 263//263 258//258
f 258//258 264//264 265//265
f 266//266 264//264 258//258
f 262//262 266//266 258//258
f 250//250 249//249 258//258
f 258//258 267//267 268//268
f 253//253 252//252 258//258
f 256//256 255//255 258//258
f 81//81 269//269 82//82
f 270//270 114//114 271//271
f 271//271 114//114 113//113
f 100//100 272//272 273//273
f 125//125 274//274 126//126
f 90//90 275//275 78//78
f 163//163 276//276 277//277
f 178//178 278//278 279//279
f 154//154 153//153 280//280
f 195//195 194//194 281//281
f 188//188 282//282 283//283
f 282//282 188//188 187//187
f 284//284 285//285 181//181
f 286//286 287//287 197//197
f 288//288 289//289 196//196
f 290//290 291//291 148//148
f 148//148 291//291 292//292
f 148//148 292//292 149//149
f 280//280 153//153 292//292
f 292//292 153//153 150//150
f 292//292 150//150 149//149
f 154//154 280//280 155//155
f 155//155 280//280 293//293
f 155//155 293//293 144//144
f 144//144 293//293 294//294
f 144//144 294//294 145//145
f 294//294 295//295 145//145
f 145//145 295//295 296//296
f 145//145 296//296 146//146
f 146//146 296//296 147//147
f 147//147 296//296 297//297
f 147//147 297//297 138//138
f 138//138 297//297 298//298
f 138//138 298//298 139//139
f 139//139 298//298 299//299
f 139//139 299//299 140//140
f 142//142 300//300 143//143
f 143//143 300//300 301//301
f 143//143 301//301 160//160
f 160//160 301//301 302//302
f 160//160 302//302 161//161
f 303//303 304//304 162//162
f 162//162 304//304 305//305
f 162//162 305//305 151//151
f 151//151 305//305 306//306
f 151//151 306//306 156//156
f 156//156 306//306 307//307
f 156//156 307//307 157//157
f 307//307 308//308 157//157
f 157//157 308//308 309//309
f 157//157 309//309 158//158
f 158//158 309//309 310//310
f 158//158 310//310 159//159
f 311//311 175//175 312//312
f 312//312 175//175 159//159
f 312//312 159//159 313//313
f 313//313 159//159 310//310
f 314//314 177//177 311//311
f 311//311 177//177 176//176
f 311//311 176//176 175//175
f 180//180 315//315 179//179
f 179//179 315//315 316//316
f 277//277 317//317 163//163
f 163//163 317//317 318//318
f 163//163 318//318 164//164
f 319//319 166//166 318//318
f 318//318 166//166 165//165
f 318//318 165//165 164//164
f 181//181 173//173 284//284
f 284//284 173//173 172//172
f 284//284 172//172 320//320
f 320//320 172//172 171//171
f 320//320 171//171 321//321
f 321//321 171//171 170//170
f 321//321 170//170 322//322
f 322//322 170//170 169//169
f 322//322 169//169 323//323
f 323//323 169//169 152//152
f 323//323 152//152 324//324
f 324//324 152//152 168//168
f 324//324 168//168 319//319
f 319//319 168//168 167//167
f 319//319 167//167 166//166
f 325//325 326//326 77//77
f 77//77 326//326 87//87
f 87//87 326//326 327//327
f 87//87 327//327 88//88
f 88//88 327//327 89//89
f 89//89 327//327 328//328
f 89//89 328//328 83//83
f 83//83 328//328 92//92
f 92//92 328//328 329//329
f 92//92 329//329 91//91
f 91//91 329//329 330//330
f 91//91 330//330 90//90
f 90//90 330//330 331//331
f 90//90 331//331 275//275
f 274//274 125//125 332//332
f 333//333 334//334 127//127
f 127//127 334//334 335//335
f 127//127 335//335 93//93
f 93//93 335//335 336//336
f 93//93 336//336 94//94
f 94//94 336//336 337//337
f 94//94 337//337 84//84
f 84//84 337//337 338//338
f 84//84 338//338 85//85
f 338//338 339//339 85//85
f 85//85 339//339 340//340
f 85//85 340//340 80//80
f 341//341 95//95 342//342
f 342//342 95//95 80//80
f 342//342 80//80 343//343
f 343//343 80//80 340//340
f 344//344 97//97 341//341
f 341//341 97//97 96//96
f 341//341 96//96 95//95
f 98//98 345//345 99//99
f 99//99 345//345 346//346
f 105//105 104//104 347//347
f 347//347 104//104 103//103
f 347//347 103//103 348//348
f 348//348 103//103 102//102
f 348//348 102//102 349//349
f 349//349 102//102 101//101
f 349//349 101//101 350//350
f 350//350 101//101 351//351
f 105//105 347//347 112//112
f 112//112 347//347 352//352
f 112//112 352//352 113//113
f 113//113 352//352 353//353
f 113//113 353//353 271//271
f 354//354 116//116 270//270
f 270//270 116//116 115//115
f 270//270 115//115 114//114
f 135//135 82//82 355//355
f 356//356 128//128 137//137
f 109//109 357//357 358//358
f 109//109 358//358 130//130
f 130//130 358//358 359//359
f 130//130 359//359 131//131
f 359//359 360//360 131//131
f 131//131 360//360 361//361
f 131//131 361//361 132//132
f 118//118 117//117 362//362
f 362//362 117//117 111//111
f 121//121 120//120 363//363
f 77//77 124//124 325//325
f 325//325 124//124 123//123
f 325//325 123//123 364//364
f 364//364 123//123 122//122
f 364//364 122//122 365//365
f 365//365 122//122 121//121
f 365//365 121//121 366//366
f 366//366 121//121 363//363
f 367//367 257//257 368//368
f 368//368 257//257 256//256
f 368//368 256//256 369//369
f 369//369 256//256 258//258
f 370//370 254//254 371//371
f 371//371 254//254 253//253
f 371//371 253//253 372//372
f 372//372 253//253 258//258
f 373//373 374//374 375//375
f 375//375 374//374 268//268
f 375//375 268//268 376//376
f 376//376 268//268 267//267
f 376//376 267//267 377//377
f 378//378 251//251 379//379
f 379//379 251//251 250//250
f 379//379 250//250 380//380
f 380//380 250//250 258//258
f 259//259 381//381 260//260
f 260//260 381//381 382//382
f 260//260 382//382 263//263
f 263//263 382//382 383//383
f 263//263 383//383 261//261
f 261//261 383//383 384//384
f 261//261 384//384 262//262
f 262//262 384//384 385//385
f 262//262 385//385 266//266
f 266//266 385//385 386//386
f 266//266 386//386 264//264
f 264//264 386//386 387//387
f 264//264 387//387 265//265
f 388//388 248//248 389//389
f 389//389 248//248 247//247
f 389//389 247//247 390//390
f 390//390 247//247 258//258
f 355//355 367//367 391//391
f 391//391 367//367 368//368
f 391//391 368//368 392//392
f 392//392 368//368 369//369
f 392//392 369//369 393//393
f 393//393 369//369 258//258
f 394//394 395//395 396//396
f 396//396 395//395 397//397
f 396//396 397//397 398//398
f 135//135 399//399 136//136
f 136//136 399//399 398//398
f 136//136 398//398 137//137
f 137//137 398//398 397//397
f 137//137 397//397 356//356
f 356//356 397//397 395//395
f 129//129 128//128 400//400
f 400//400 128//128 356//356
f 400//400 356//356 401//401
f 401//401 356//356 395//395
f 401//401 395//395 402//402
f 402//402 395//395 394//394
f 402//402 394//394 258//258
f 357//357 373//373 358//358
f 358//358 373//373 375//375
f 358//358 375//375 359//359
f 359//359 375//375 376//376
f 359//359 376//376 360//360
f 360//360 376//376 377//377
f 360//360 377//377 361//361
f 374//374 258//258 268//268
f 109//109 370//370 357//357
f 357//357 370//370 371//371
f 357//357 371//371 373//373
f 373//373 371//371 372//372
f 373//373 372//372 374//374
f 374//374 372//372 258//258
f 133//133 132//132 403//403
f 403//403 132//132 361//361
f 403//403 361//361 404//404
f 404//404 361//361 377//377
f 404//404 377//377 405//405
f 405//405 377//377 267//267
f 405//405 267//267 258//258
f 381//381 406//406 382//382
f 382//382 406//406 407//407
f 382//382 407//407 383//383
f 383//383 407//407 408//408
f 383//383 408//408 384//384
f 384//384 408//408 409//409
f 384//384 409//409 385//385
f 385//385 409//409 410//410
f 385//385 410//410 386//386
f 386//386 410//410 411//411
f 386//386 411//411 387//387
f 412//412 413//413 414//414
f 414//414 413//413 192//192
f 414//414 192//192 191//191
f 193//193 192//192 415//415
f 415//415 192//192 413//413
f 415//415 413//413 416//416
f 416//416 413//413 412//412
f 416//416 412//412 417//417
f 194//194 193//193 281//281
f 281//281 193//193 415//415
f 281//281 415//415 418//418
f 418//418 415//415 416//416
f 418//418 416//416 419//419
f 419//419 416//416 417//417
f 419//419 417//417 258//258
f 135//135 355//355 399//399
f 399//399 355//355 391//391
f 399//399 391//391 398//398
f 398//398 391//391 392//392
f 398//398 392//392 396//396
f 396//396 392//392 393//393
f 396//396 393//393 394//394
f 394//394 393//393 258//258
f 109//109 129//129 370//370
f 370//370 129//129 400//400
f 370//370 400//400 254//254
f 254//254 400//400 401//401
f 254//254 401//401 252//252
f 252//252 401//401 402//402
f 252//252 402//402 258//258
f 258//258 420//420 380//380
f 380//380 420//420 421//421
f 380//380 421//421 379//379
f 379//379 421//421 422//422
f 379//379 422//422 378//378
f 378//378 422//422 423//423
f 378//378 423//423 424//424
f 425//425 283//283 426//426
f 426//426 283//283 282//282
f 426//426 282//282 427//427
f 427//427 282//282 187//187
f 427//427 187//187 428//428
f 428//428 187//187 186//186
f 428//428 186//186 185//185
f 197//197 429//429 286//286
f 286//286 429//429 388//388
f 286//286 388//388 430//430
f 430//430 388//388 389//389
f 430//430 389//389 431//431
f 431//431 389//389 390//390
f 431//431 390//390 432//432
f 432//432 390//390 258//258
f 106//106 433//433 81//81
f 81//81 433//433 434//434
f 81//81 434//434 269//269
f 269//269 434//434 435//435
f 258//258 436//436 420//420
f 420//420 436//436 437//437
f 420//420 437//437 421//421
f 421//421 437//437 438//438
f 421//421 438//438 422//422
f 422//422 438//438 439//439
f 422//422 439//439 423//423
f 423//423 439//439 440//440
f 423//423 440//440 441//441
f 442//442 440//440 443//443
f 443//443 440//440 439//439
f 443//443 439//439 444//444
f 444//444 439//439 438//438
f 444//444 438//438 445//445
f 445//445 438//438 437//437
f 445//445 437//437 446//446
f 446//446 437//437 436//436
f 446//446 436//436 447//447
f 447//447 436//436 258//258
f 448//448 425//425 449//449
f 449//449 425//425 426//426
f 449//449 426//426 450//450
f 450//450 426//426 427//427
f 450//450 427//427 451//451
f 451//451 427//427 428//428
f 451//451 428//428 452//452
f 452//452 428//428 185//185
f 452//452 185//185 453//453
f 453//453 185//185 184//184
f 453//453 184//184 183//183
f 258//258 454//454 432//432
f 432//432 454//454 455//455
f 432//432 455//455 431//431
f 431//431 455//455 456//456
f 431//431 456//456 430//430
f 430//430 456//456 457//457
f 430//430 457//457 286//286
f 286//286 457//457 288//288
f 286//286 288//288 287//287
f 287//287 288//288 196//196
f 287//287 196//196 197//197
f 458//458 435//435 459//459
f 459//459 435//435 434//434
f 459//459 434//434 460//460
f 460//460 434//434 433//433
f 460//460 433//433 461//461
f 461//461 433//433 106//106
f 461//461 106//106 462//462
f 462//462 106//106 107//107
f 462//462 107//107 463//463
f 463//463 107//107 108//108
f 463//463 108//108 354//354
f 354//354 108//108 86//86
f 354//354 86//86 116//116
f 120//120 119//119 363//363
f 363//363 119//119 118//118
f 363//363 118//118 442//442
f 442//442 118//118 362//362
f 442//442 362//362 440//440
f 440//440 362//362 111//111
f 440//440 111//111 441//441
f 441//441 111//111 110//110
f 441//441 110//110 423//423
f 423//423 110//110 134//134
f 423//423 134//134 424//424
f 424//424 134//134 133//133
f 424//424 133//133 378//378
f 378//378 133//133 403//403
f 378//378 403//403 251//251
f 251//251 403//403 404//404
f 251//251 404//404 249//249
f 249//249 404//404 405//405
f 249//249 405//405 258//258
f 258//258 448//448 464//464
f 464//464 448//448 449//449
f 464//464 449//449 465//465
f 465//465 449//449 450//450
f 465//465 450//450 466//466
f 466//466 450//450 451//451
f 466//466 451//451 467//467
f 467//467 451//451 452//452
f 467//467 452//452 468//468
f 468//468 452//452 453//453
f 468//468 453//453 469//469
f 469//469 453//453 183//183
f 469//469 183//183 285//285
f 285//285 183//183 182//182
f 285//285 182//182 181//181
f 258//258 470//470 454//454
f 454//454 470//470 471//471
f 454//454 471//471 455//455
f 455//455 471//471 472//472
f 455//455 472//472 456//456
f 456//456 472//472 473//473
f 456//456 473//473 457//457
f 457//457 473//473 474//474
f 457//457 474//474 288//288
f 288//288 474//474 290//290
f 288//288 290//290 289//289
f 289//289 290//290 148//148
f 289//289 148//148 196//196
f 258//258 475//475 476//476
f 476//476 475//475 477//477
f 476//476 477//477 478//478
f 478//478 477//477 479//479
f 478//478 479//479 480//480
f 480//480 479//479 481//481
f 480//480 481//481 482//482
f 482//482 481//481 483//483
f 482//482 483//483 484//484
f 484//484 483//483 485//485
f 484//484 485//485 486//486
f 486//486 485//485 487//487
f 486//486 487//487 488//488
f 488//488 487//487 489//489
f 488//488 489//489 490//490
f 490//490 489//489 491//491
f 490//490 491//491 492//492
f 492//492 491//491 493//493
f 492//492 493//493 494//494
f 494//494 493//493 495//495
f 494//494 495//495 496//496
f 496//496 495//495 497//497
f 496//496 497//497 498//498
f 498//498 497//497 499//499
f 498//498 499//499 500//500
f 500//500 499//499 501//501
f 500//500 501//501 502//502
f 502//502 501//501 503//503
f 502//502 503//503 504//504
f 504//504 503//503 505//505
f 504//504 505//505 506//506
f 506//506 505//505 507//507
f 506//506 507//507 508//508
f 475//475 509//509 477//477
f 477//477 509//509 510//510
f 477//477 510//510 479//479
f 479//479 510//510 511//511
f 479//479 511//511 481//481
f 481//481 511//511 512//512
f 481//481 512//512 483//483
f 483//483 512//512 513//513
f 483//483 513//513 485//485
f 485//485 513//513 514//514
f 485//485 514//514 487//487
f 487//487 514//514 515//515
f 487//487 515//515 489//489
f 489//489 515//515 516//516
f 489//489 516//516 491//491
f 491//491 516//516 517//517
f 491//491 517//517 493//493
f 493//493 517//517 518//518
f 493//493 518//518 495//495
f 495//495 518//518 519//519
f 495//495 519//519 497//497
f 497//497 519//519 520//520
f 497//497 520//520 499//499
f 499//499 520//520 521//521
f 499//499 521//521 501//501
f 501//501 521//521 522//522
f 501//501 522//522 503//503
f 503//503 522//522 523//523
f 503//503 523//523 505//505
f 505//505 523//523 524//524
f 505//505 524//524 507//507
f 509//509 458//458 510//510
f 510//510 458//458 459//459
f 510//510 459//459 511//511
f 511//511 459//459 460//460
f 511//511 460//460 512//512
f 512//512 460//460 461//461
f 512//512 461//461 513//513
f 513//513 461//461 462//462
f 513//513 462//462 514//514
f 514//514 462//462 463//463
f 514//514 463//463 515//515
f 515//515 463//463 354//354
f 515//515 354//354 516//516
f 516//516 354//354 270//270
f 516//516 270//270 517//517
f 517//517 270//270 271//271
f 517//517 271//271 518//518
f 518//518 271//271 353//353
f 518//518 353//353 519//519
f 519//519 353//353 352//352
f 519//519 352//352 520//520
f 520//520 352//352 347//347
f 520//520 347//347 521//521
f 521//521 347//347 348//348
f 521//521 348//348 522//522
f 522//522 348//348 349//349
f 522//522 349//349 523//523
f 523//523 349//349 350//350
f 523//523 350//350 524//524
f 258//258 525//525 447//447
f 447//447 525//525 526//526
f 447//447 526//526 446//446
f 446//446 526//526 527//527
f 446//446 527//527 445//445
f 445//445 527//527 528//528
f 445//445 528//528 444//444
f 444//444 528//528 529//529
f 444//444 529//529 443//443
f 443//443 529//529 530//530
f 443//443 530//530 442//442
f 442//442 530//530 531//531
f 442//442 531//531 363//363
f 363//363 531//531 532//532
f 363//363 532//532 366//366
f 366//366 532//532 533//533
f 366//366 533//533 365//365
f 365//365 533//533 534//534
f 365//365 534//534 364//364
f 364//364 534//534 535//535
f 364//364 535//535 325//325
f 325//325 535//535 536//536
f 325//325 536//536 326//326
f 326//326 536//536 537//537
f 326//326 537//537 327//327
f 327//327 537//537 538//538
f 327//327 538//538 328//328
f 328//328 538//538 539//539
f 328//328 539//539 329//329
f 329//329 539//539 540//540
f 329//329 540//540 330//330
f 330//330 540//540 541//541
f 330//330 541//541 331//331
f 258//258 542//542 525//525
f 525//525 542//542 543//543
f 525//525 543//543 526//526
f 526//526 543//543 544//544
f 526//526 544//544 527//527
f 527//527 544//544 545//545
f 527//527 545//545 528//528
f 528//528 545//545 546//546
f 528//528 546//546 529//529
f 529//529 546//546 547//547
f 529//529 547//547 530//530
f 530//530 547//547 548//548
f 530//530 548//548 531//531
f 531//531 548//548 549//549
f 531//531 549//549 532//532
f 532//532 549//549 550//550
f 532//532 550//550 533//533
f 533//533 550//550 551//551
f 533//533 551//551 534//534
f 534//534 551//551 552//552
f 534//534 552//552 535//535
f 535//535 552//552 553//553
f 535//535 553//553 536//536
f 536//536 553//553 554//554
f 536//536 554//554 537//537
f 537//537 554//554 555//555
f 537//537 555//555 538//538
f 538//538 555//555 556//556
f 538//538 556//556 539//539
f 539//539 556//556 557//557
f 539//539 557//557 540//540
f 540//540 557//557 558//558
f 540//540 558//558 541//541
f 258//258 559//559 542//542
f 542//542 559//559 560//560
f 542//542 560//560 543//543
f 543//543 560//560 561//561
f 543//543 561//561 544//544
f 544//544 561//561 562//562
f 544//544 562//562 545//545
f 545//545 562//562 563//563
f 545//545 563//563 546//546
f 546//546 563//563 564//564
f 546//546 564//564 547//547
f 547//547 564//564 565//565
f 547//547 565//565 548//548
f 548//548 565//565 566//566
f 548//548 566//566 549//549
f 549//549 566//566 567//567
f 549//549 567//567 550//550
f 550//550 567//567 568//568
f 550//550 568//568 551//551
f 551//551 568//568 569//569
f 551//551 569//569 552//552
f 552//552 569//569 570//570
f 552//552 570//570 553//553
f 553//553 570//570 571//571
f 553//553 571//571 554//554
f 554//554 571//571 572//572
f 554//554 572//572 555//555
f 555//555 572//572 573//573
f 555//555 573//573 556//556
f 556//556 573//573 574//574
f 556//556 574//574 557//557
f 557//557 574//574 575//575
f 557//557 575//575 558//558
f 258//258 576//576 559//559
f 559//559 576//576 577//577
f 559//559 577//577 560//560
f 560//560 577//577 578//578
f 560//560 578//578 561//561
f 561//561 578//578 579//579
f 561//561 579//579 562//562
f 562//562 579//579 580//580
f 562//562 580//580 563//563
f 563//563 580//580 581//581
f 563//563 581//581 564//564
f 564//564 581//581 582//582
f 564//564 582//582 565//565
f 565//565 582//582 583//583
f 565//565 583//583 566//566
f 566//566 583//583 584//584
f 566//566 584//584 567//567
f 567//567 584//584 585//585
f 567//567 585//585 568//568
f 568//568 585//585 586//586
f 568//568 586//586 569//569
f 569//569 586//586 587//587
f 569//569 587//587 570//570
f 570//570 587//587 588//588
f 570//570 588//588 571//571
f 571//571 588//588 589//589
f 571//571 589//589 572//572
f 572//572 589//589 590//590
f 572//572 590//590 573//573
f 573//573 590//590 591//591
f 573//573 591//591 574//574
f 574//574 591//591 592//592
f 574//574 592//592 575//575
f 258//258 593//593 576//576
f 576//576 593//593 594//594
f 576//576 594//594 577//577
f 577//577 594//594 595//595
f 577//577 595//595 578//578
f 578//578 595//595 596//596
f 578//578 596//596 579//579
f 579//579 596//596 597//597
f 579//579 597//597 580//580
f 580//580 597//597 598//598
f 580//580 598//598 581//581
f 581//581 598//598 599//599
f 581//581 599//599 582//582
f 582//582 599//599 600//600
f 582//582 600//600 583//583
f 583//583 600//600 601//601
f 583//583 601//601 584//584
f 584//584 601//601 602//602
f 584//584 602//602 585//585
f 585//585 602//602 603//603
f 585//585 603//603 586//586
f 586//586 603//603 604//604
f 586//586 604//604 587//587
f 587//587 604//604 605//605
f 587//587 605//605 588//588
f 588//588 605//605 606//606
f 588//588 606//606 589//589
f 589//589 606//606 607//607
f 589//589 607//607 590//590
f 590//590 607//607 608//608
f 590//590 608//608 591//591
f 591//591 608//608 609//609
f 591//591 609//609 592//592
f 258//258 464//464 593//593
f 593//593 464//464 465//465
f 593//593 465//465 594//594
f 594//594 465//465 466//466
f 594//594 466//466 595//595
f 595//595 466//466 467//467
f 595//595 467//467 596//596
f 596//596 467//467 468//468
f 596//596 468//468 597//597
f 597//597 468//468 469//469
f 597//597 469//469 598//598
f 598//598 469//469 285//285
f 598//598 285//285 599//599
f 599//599 285//285 284//284
f 599//599 284//284 600//600
f 600//600 284//284 320//320
f 600//600 320//320 601//601
f 601//601 320//320 321//321
f 601//601 321//321 602//602
f 602//602 321//321 322//322
f 602//602 322//322 603//603
f 603//603 322//322 323//323
f 603//603 323//323 604//604
f 604//604 323//323 324//324
f 604//604 324//324 605//605
f 605//605 324//324 319//319
f 605//605 319//319 606//606
f 606//606 319//319 318//318
f 606//606 318//318 607//607
f 607//607 318//318 317//317
f 607//607 317//317 608//608
f 608//608 317//317 277//277
f 608//608 277//277 609//609
f 258//258 417//417 259//259
f 259//259 417//417 412//412
f 259//259 412//412 381//381
f 381//381 412//412 414//414
f 381//381 414//414 406//406
f 406//406 414//414 191//191
f 406//406 191//191 407//407
f 407//407 191//191 174//174
f 407//407 174//174 408//408
f 408//408 174//174 190//190
f 408//408 190//190 409//409
f 409//409 190//190 189//189
f 409//409 189//189 410//410
f 410//410 189//189 188//188
f 410//410 188//188 411//411
f 411//411 188//188 283//283
f 411//411 283//283 387//387
f 387//387 283//283 425//425
f 387//387 425//425 265//265
f 265//265 425//425 448//448
f 265//265 448//448 258//258
f 197//197 198//198 429//429
f 429//429 198//198 195//195
f 429//429 195//195 388//388
f 388//388 195//195 281//281
f 388//388 281//281 248//248
f 248//248 281//281 418//418
f 248//248 418//418 246//246
f 246//246 418//418 419//419
f 246//246 419//419 258//258
f 101//101 100//100 351//351
f 351//351 100//100 273//273
f 351//351 273//273 350//350
f 350//350 273//273 610//610
f 350//350 610//610 524//524
f 524//524 610//610 611//611
f 524//524 611//611 507//507
f 507//507 611//611 612//612
f 507//507 612//612 508//508
f 508//508 612//612 613//613
f 163//163 178//178 276//276
f 276//276 178//178 279//279
f 276//276 279//279 277//277
f 277//277 279//279 614//614
f 277//277 614//614 609//609
f 609//609 614//614 615//615
f 609//609 615//615 592//592
f 592//592 615//615 616//616
f 592//592 616//616 575//575
f 575//575 616//616 617//617
f 575//575 617//617 558//558
f 558//558 617//617 618//618
f 558//558 618//618 541//541
f 541//541 618//618 619//619
f 541//541 619//619 331//331
f 331//331 619//619 620//620
f 331//331 620//620 275//275
f 275//275 620//620 621//621
f 275//275 621//621 78//78
f 78//78 621//621 622//622
f 78//78 622//622 79//79
f 100//100 99//99 272//272
f 272//272 99//99 346//346
f 272//272 346//346 273//273
f 273//273 346//346 623//623
f 273//273 623//623 610//610
f 610//610 623//623 624//624
f 610//610 624//624 611//611
f 611//611 624//624 625//625
f 611//611 625//625 612//612
f 612//612 625//625 626//626
f 612//612 626//626 613//613
f 613//613 626//626 627//627
f 178//178 179//179 278//278
f 278//278 179//179 316//316
f 278//278 316//316 279//279
f 279//279 316//316 628//628
f 279//279 628//628 614//614
f 614//614 628//628 629//629
f 614//614 629//629 615//615
f 615//615 629//629 630//630
f 615//615 630//630 616//616
f 616//616 630//630 631//631
f 616//616 631//631 617//617
f 617//617 631//631 632//632
f 617//617 632//632 618//618
f 618//618 632//632 633//633
f 618//618 633//633 619//619
f 619//619 633//633 634//634
f 619//619 634//634 620//620
f 620//620 634//634 635//635
f 620//620 635//635 621//621
f 621//621 635//635 636//636
f 621//621 636//636 622//622
f 622//622 636//636 332//332
f 622//622 332//332 79//79
f 79//79 332//332 125//125
f 98//98 97//97 345//345
f 345//345 97//97 344//344
f 345//345 344//344 346//346
f 346//346 344//344 637//637
f 346//346 637//637 623//623
f 623//623 637//637 638//638
f 623//623 638//638 624//624
f 624//624 638//638 639//639
f 624//624 639//639 625//625
f 625//625 639//639 640//640
f 625//625 640//640 626//626
f 626//626 640//640 641//641
f 626//626 641//641 627//627
f 627//627 641//641 642//642
f 180//180 177//177 315//315
f 315//315 177//177 314//314
f 315//315 314//314 316//316
f 316//316 314//314 643//643
f 316//316 643//643 628//628
f 628//628 643//643 644//644
f 628//628 644//644 629//629
f 629//629 644//644 645//645
f 629//629 645//645 630//630
f 630//630 645//645 646//646
f 630//630 646//646 631//631
f 631//631 646//646 647//647
f 631//631 647//647 632//632
f 632//632 647//647 648//648
f 632//632 648//648 633//633
f 633//633 648//648 649//649
f 633//633 649//649 634//634
f 634//634 649//649 650//650
f 634//634 650//650 635//635
f 635//635 650//650 651//651
f 635//635 651//651 636//636
f 636//636 651//651 652//652
f 636//636 652//652 332//332
f 332//332 652//652 653//653
f 332//332 653//653 274//274
f 274//274 653//653 333//333
f 274//274 333//333 126//126
f 126//126 333//333 127//127
f 301//301 654//654 302//302
f 302//302 654//654 303//303
f 302//302 303//303 161//161
f 161//161 303//303 162//162
f 141//141 655//655 142//142
f 142//142 655//655 656//656
f 142//142 656//656 300//300
f 300//300 656//656 657//657
f 300//300 657//657 301//301
f 301//301 657//657 658//658
f 301//301 658//658 654//654
f 140//140 299//299 141//141
f 141//141 299//299 659//659
f 141//141 659//659 655//655
f 655//655 659//659 660//660
f 655//655 660//660 656//656
f 656//656 660//660 661//661
f 656//656 661//661 657//657
f 657//657 661//661 662//662
f 657//657 662//662 658//658
f 258//258 663//663 470//470
f 470//470 663//663 664//664
f 470//470 664//664 471//471
f 471//471 664//664 665//665
f 471//471 665//665 472//472
f 472//472 665//665 666//666
f 472//472 666//666 473//473
f 473//473 666//666 667//667
f 473//473 667//667 474//474
f 474//474 667//667 668//668
f 474//474 668//668 290//290
f 290//290 668//668 669//669
f 290//290 669//669 291//291
f 291//291 669//669 670//670
f 291//291 670//670 292//292
f 292//292 670//670 671//671
f 292//292 671//671 280//280
f 280//280 671//671 672//672
f 280//280 672//672 293//293
f 293//293 672//672 673//673
f 293//293 673//673 294//294
f 294//294 673//673 674//674
f 294//294 674//674 295//295
f 295//295 674//674 675//675
f 295//295 675//675 296//296
f 296//296 675//675 676//676
f 296//296 676//676 297//297
f 297//297 676//676 677//677
f 297//297 677//677 298//298
f 298//298 677//677 678//678
f 298//298 678//678 299//299
f 299//299 678//678 679//679
f 299//299 679//679 659//659
f 659//659 679//679 680//680
f 659//659 680//680 660//660
f 660//660 680//680 681//681
f 660//660 681//681 661//661
f 661//661 681//681 682//682
f 661//661 682//682 662//662
f 258//258 683//683 663//663
f 663//663 683//683 684//684
f 663//663 684//684 664//664
f 664//664 684//684 685//685
f 664//664 685//685 665//665
f 665//665 685//685 686//686
f 665//665 686//686 666//666
f 666//666 686//686 687//687
f 666//666 687//687 667//667
f 667//667 687//687 688//688
f 667//667 688//688 668//668
f 668//668 688//688 689//689
f 668//668 689//689 669//669
f 669//669 689//689 690//690
f 669//669 690//690 670//670
f 670//670 690//690 691//691
f 670//670 691//691 671//671
f 671//671 691//691 692//692
f 671//671 692//692 672//672
f 672//672 692//692 693//693
f 672//672 693//693 673//673
f 673//673 693//693 694//694
f 673//673 694//694 674//674
f 674//674 694//694 695//695
f 674//674 695//695 675//675
f 675//675 695//695 696//696
f 675//675 696//696 676//676
f 676//676 696//696 697//697
f 676//676 697//697 677//677
f 677//677 697//697 698//698
f 677//677 698//698 678//678
f 678//678 698//698 699//699
f 678//678 699//699 679//679
f 679//679 699//699 700//700
f 679//679 700//700 680//680
f 680//680 700//700 701//701
f 680//680 701//701 681//681
f 681//681 701//701 702//702
f 681//681 702//702 682//682
f 258//258 476//476 683//683
f 683//683 476//476 478//478
f 683//683 478//478 684//684
f 684//684 478//478 480//480
f 684//684 480//480 685//685
f 685//685 480//480 482//482
f 685//685 482//482 686//686
f 686//686 482//482 484//484
f 686//686 484//484 687//687
f 687//687 484//484 486//486
f 687//687 486//486 688//688
f 688//688 486//486 488//488
f 688//688 488//488 689//689
f 689//689 488//488 490//490
f 689//689 490//490 690//690
f 690//690 490//490 492//492
f 690//690 492//492 691//691
f 691//691 492//492 494//494
f 691//691 494//494 692//692
f 692//692 494//494 496//496
f 692//692 496//496 693//693
f 693//693 496//496 498//498
f 693//693 498//498 694//694
f 694//694 498//498 500//500
f 694//694 500//500 695//695
f 695//695 500//500 502//502
f 695//695 502//502 696//696
f 696//696 502//502 504//504
f 696//696 504//504 697//697
f 697//697 504//504 506//506
f 697//697 506//506 698//698
f 698//698 506//506 508//508
f 698//698 508//508 699//699
f 699//699 508//508 613//613
f 699//699 613//613 700//700
f 700//700 613//613 627//627
f 700//700 627//627 701//701
f 701//701 627//627 642//642
f 701//701 642//642 702//702
f 82//82 269//269 355//355
f 355//355 269//269 435//435
f 355//355 435//435 367//367
f 367//367 435//435 458//458
f 367//367 458//458 257//257
f 257//257 458//458 509//509
f 257//257 509//509 255//255
f 255//255 509//509 475//475
f 255//255 475//475 258//258
f 702//702 703//703 682//682
f 682//682 703//703 704//704
f 682//682 704//704 662//662
f 662//662 704//704 705//705
f 662//662 705//705 658//658
f 658//658 705//705 706//706
f 658//658 706//706 654//654
f 654//654 706//706 707//707
f 654//654 707//707 303//303
f 303//303 707//707 708//708
f 303//303 708//708 304//304
f 304//304 708//708 709//709
f 304//304 709//709 305//305
f 305//305 709//709 710//710
f 305//305 710//710 306//306
f 306//306 710//710 711//711
f 306//306 711//711 307//307
f 307//307 711//711 712//712
f 307//307 712//712 308//308
f 308//308 712//712 713//713
f 308//308 713//713 309//309
f 309//309 713//713 714//714
f 309//309 714//714 310//310
f 310//310 714//714 715//715
f 310//310 715//715 313//313
f 313//313 715//715 716//716
f 313//313 716//716 312//312
f 312//312 716//716 717//717
f 312//312 717//717 311//311
f 311//311 717//717 718//718
f 311//311 718//718 314//314
f 314//314 718//718 719//719
f 314//314 719//719 643//643
f 643//643 719//719 720//720
f 643//643 720//720 644//644
f 644//644 720//720 721//721
f 644//644 721//721 645//645
f 645//645 721//721 722//722
f 645//645 722//722 646//646
f 646//646 722//722 723//723
f 646//646 723//723 647//647
f 647//647 723//723 724//724
f 647//647 724//724 648//648
f 648//648 724//724 725//725
f 648//648 725//725 649//649
f 649//649 725//725 726//726
f 649//649 726//726 650//650
f 650//650 726//726 727//727
f 650//650 727//727 651//651
f 651//651 727//727 728//728
f 651//651 728//728 652//652
f 652//652 728//728 729//729
f 652//652 729//729 653//653
f 653//653 729//729 730//730
f 653//653 730//730 333//333
f 333//333 730//730 731//731
f 333//333 731//731 334//334
f 334//334 731//731 732//732
f 334//334 732//732 335//335
f 335//335 732//732 733//733
f 335//335 733//733 336//336
f 336//336 733//733 734//734
f 336//336 734//734 337//337
f 337//337 734//734 735//735
f 337//337 735//735 338//338
f 338//338 735//735 736//736
f 338//338 736//736 339//339
f 339//339 736//736 737//737
f 339//339 737//737 340//340
f 340//340 737//737 738//738
f 340//340 738//738 343//343
f 343//343 738//738 739//739
f 343//343 739//739 342//342
f 342//342 739//739 740//740
f 342//342 740//740 341//341
f 341//341 740//740 741//741
f 341//341 741//741 344//344
f 344//344 741//741 742//742
f 344//344 742//742 637//637
f 637//637 742//742 743//743
f 637//637 743//743 638//638
f 638//638 743//743 744//744
f 638//638 744//744 639//639
f 639//639 744//744 745//745
f 639//639 745//745 640//640
f 640//640 745//745 746//746
f 640//640 746//746 641//641
f 641//641 746//746 747//747
f 641//641 747//747 642//642
f 642//642 747//747 748//748
f 642//642 748//748 702//702
f 702//702 748//748 703//703
f 703//703 200//200 704//704
f 704//704 200//200 199//199
f 704//704 199//199 705//705
f 705//705 199//199 202//202
f 705//705 202//202 706//706
f 706//706 202//202 203//203
f 706//706 203//203 707//707
f 707//707 203//203 204//204
f 707//707 204//204 708//708
f 708//708 204//204 205//205
f 708//708 205//205 709//709
f 709//709 205//205 206//206
f 709//709 206//206 710//710
f 710//710 206//206 207//207
f 710//710 207//207 711//711
f 711//711 207//207 208//208
f 711//711 208//208 712//712
f 712//712 208//208 209//209
f 712//712 209//209 713//713
f 713//713 209//209 210//210
f 713//713 210//210 714//714
f 714//714 210//210 211//211
f 714//714 211//211 715//715
f 715//715 211//211 212//212
f 715//715 212//212 716//716
f 716//716 212//212 213//213
f 716//716 213//213 717//717
f 717//717 213//213 214//214
f 717//717 214//214 718//718
f 718//718 214//214 215//215
f 718//718 215//215 719//719
f 719//719 215//215 216//216
f 719//719 216//216 720//720
f 720//720 216//216 217//217
f 720//720 217//217 721//721
f 721//721 217//217 218//218
f 721//721 218//218 722//722
f 722//722 218//218 219//219
f 722//722 219//219 723//723
f 723//723 219//219 220//220
f 723//723 220//220 724//724
f 724//724 220//220 221//221
f 724//724 221//221 725//725
f 725//725 221//221 222//222
f 725//725 222//222 726//726
f 726//726 222//222 223//223
f 726//726 223//223 727//727
f 727//727 223//223 224//224
f 727//727 224//224 728//728
f 728//728 224//224 225//225
f 728//728 225//225 729//729
f 729//729 225//225 226//226
f 729//729 226//226 730//730
f 730//730 226//226 227//227
f 730//730 227//227 731//731
f 731//731 227//227 228//228
f 731//731 228//228 732//732
f 732//732 228//228 229//229
f 732//732 229//229 733//733
f 733//733 229//229 230//230
f 733//733 230//230 734//734
f 734//734 230//230 231//231
f 734//734 231//231 735//735
f 735//735 231//231 232//232
f 735//735 232//232 736//736
f 736//736 232//232 233//233
f 736//736 233//233 737//737
f 737//737 233//233 234//234
f 737//737 234//234 738//738
f 738//738 234//234 235//235
f 738//738 235//235 739//739
f 739//739 235//235 236//236
f 739//739 236//236 740//740
f 740//740 236//236 237//237
f 740//740 237//237 741//741
f 741//741 237//237 238//238
f 741//741 238//238 742//742
f 742//742 238//238 239//239
f 742//742 239//239 743//743
f 743//743 239//239 240//240
f 743//743 240//240 744//744
f 744//744 240//240 241//241
f 744//744 241//241 745//745
f 745//745 241//241 242//242
f 745//745 242//242 746//746
f 746//746 242//242 243//243
f 746//746 243//243 747//747
f 747//747 243//243 244//244
f 747//747 244//244 748//748
f 748//748 244//244 245//245
f 748//748 245//245 703//703
f 703//703 245//245 200//200

