# https://github.com/mikedh/trimesh

o waist_roll_link.STL
v -0.00620132 0.01974517 -0.00494269
v -0.01100131 0.01899986 -0.00499763
v -0.00620129 0.01825474 -0.00494271
v -0.01100129 0.01825465 -0.00494179
v -0.00620118 0.01683053 -0.00450342
v -0.01100118 0.01683044 -0.00450250
v -0.00620099 0.01559907 -0.00366385
v -0.01100099 0.01559898 -0.00366294
v -0.00620075 0.01466979 -0.00249861
v -0.01100075 0.01466970 -0.00249769
v -0.00620048 0.01412526 -0.00111122
v -0.01100048 0.01412517 -0.00111030
v -0.00620027 0.01399988 0.00000138
v -0.01100019 0.01401377 0.00037595
v -0.00620019 0.01401386 0.00037504
v -0.00619992 0.01434549 0.00182810
v -0.01099992 0.01434540 0.00182901
v -0.00619969 0.01509068 0.00311885
v -0.01099969 0.01509059 0.00311976
v -0.00619952 0.01618322 0.00413261
v -0.01099952 0.01618313 0.00413353
v -0.00619942 0.01752604 0.00477930
v -0.01099942 0.01752595 0.00478022
v -0.00619941 0.01899981 0.00500146
v -0.01099941 0.01899972 0.00500237
v -0.00619948 0.02047359 0.00477934
v -0.01099948 0.02047350 0.00478026
v -0.00619963 0.02181642 0.00413269
v -0.01099963 0.02181633 0.00413361
v -0.00619984 0.02290899 0.00311896
v -0.01099984 0.02290890 0.00311988
v -0.00620010 0.02365422 0.00182823
v -0.01100010 0.02365413 0.00182915
v -0.00620038 0.02398590 0.00037518
v -0.01100038 0.02398580 0.00037610
v -0.00620066 0.02387454 -0.00111108
v -0.01100066 0.02387445 -0.00111016
v -0.00620092 0.02333005 -0.00249848
v -0.01100092 0.02332995 -0.00249756
v -0.00620112 0.02240080 -0.00366375
v -0.01100112 0.02240071 -0.00366284
v -0.00620126 0.02116937 -0.00450335
v -0.01100126 0.02116928 -0.00450244
v -0.01100132 0.01974507 -0.00494177
v 0.01100155 0.01900006 0.00999818
v 0.00620155 0.01899997 0.00999910
v 0.01100189 0.00100006 0.00999792
v 0.00620174 0.00849997 0.00999894
v -0.00619846 0.01899974 0.01000146
v -0.01099845 0.01899965 0.01000237
v -0.00619826 0.00849974 0.01000130
v -0.01099811 0.00099965 0.01000211
v 0.00201108 0.00565346 0.00999970
v 0.00346189 0.00490174 0.00999941
v 0.00465610 0.00378647 0.00999917
v 0.00550513 0.00239036 0.00999899
v 0.00594600 0.00081697 0.00999888
v 0.00600190 -0.00000003 0.00999886
v 0.01079056 -0.00114593 0.00999793
v 0.00594604 -0.00081703 0.00999886
v 0.01016464 -0.00320947 0.00999802
v 0.00550522 -0.00239045 0.00999892
v 0.00914817 -0.00511124 0.00999818
v 0.00778021 -0.00677817 0.00999842
v 0.00465624 -0.00378659 0.00999906
v 0.00611333 -0.00814620 0.00999872
v 0.00346208 -0.00490190 0.00999927
v 0.00421160 -0.00916274 0.00999906
v 0.00201129 -0.00565367 0.00999953
v 0.00214808 -0.00978874 0.00999945
v 0.00041147 -0.00598615 0.00999983
v 0.00000209 -0.01000015 0.00999985
v -0.00214390 -0.00978882 0.01000027
v -0.00121872 -0.00587467 0.01000015
v -0.00420744 -0.00916290 0.01000067
v -0.00275838 -0.00532751 0.01000045
v -0.00610921 -0.00814643 0.01000104
v -0.00409333 -0.00438524 0.01000072
v -0.00777614 -0.00677847 0.01000138
v -0.00409350 0.00438479 0.01000084
v -0.00275859 0.00532711 0.01000060
v -0.00121894 0.00587434 0.01000032
v 0.00041125 0.00598587 0.01000001
v -0.00914416 -0.00511159 0.01000167
v -0.00512455 -0.00311775 0.01000093
v -0.01016071 -0.00320986 0.01000189
v -0.00577557 -0.00161904 0.01000108
v -0.01078671 -0.00114634 0.01000204
v -0.00599810 -0.00000026 0.01000114
v -0.00577563 0.00161853 0.01000112
v -0.00512467 0.00311726 0.01000102
v -0.01100226 0.01899994 -0.00999763
v -0.00620226 0.01900003 -0.00999854
v -0.01100192 0.00099994 -0.00999789
v -0.00620207 0.00850003 -0.00999869
v 0.00619774 0.01900026 -0.01000090
v 0.01099773 0.01900035 -0.01000182
v 0.00619793 0.00850026 -0.01000106
v 0.01099808 0.00100035 -0.01000208
v -0.00122275 0.00587463 -0.00999968
v -0.00276240 0.00532740 -0.00999940
v -0.00600190 0.00000003 -0.00999886
v -0.01079052 -0.00114605 -0.00999796
v -0.00577938 -0.00161874 -0.00999892
v -0.00409731 0.00438508 -0.00999916
v -0.00512848 0.00311755 -0.00999898
v -0.00577944 0.00161882 -0.00999888
v -0.00276219 -0.00532722 -0.00999955
v -0.00421125 -0.00916261 -0.00999933
v -0.00611302 -0.00814614 -0.00999895
v -0.00409714 -0.00438495 -0.00999928
v -0.00777995 -0.00677818 -0.00999862
v -0.00512836 -0.00311746 -0.00999907
v -0.00914797 -0.00511130 -0.00999833
v -0.01016452 -0.00320956 -0.00999811
v 0.00465229 0.00378676 -0.01000083
v 0.00345808 0.00490203 -0.01000059
v 0.00200727 0.00565375 -0.01000030
v 0.00040744 0.00598617 -0.00999999
v -0.00214771 -0.00978853 -0.00999973
v -0.00122253 -0.00587438 -0.00999985
v -0.00000172 -0.00999985 -0.01000015
v 0.00040766 -0.00598586 -0.01000017
v 0.00214427 -0.00978845 -0.01000055
v 0.00200748 -0.00565338 -0.01000047
v 0.00420779 -0.00916245 -0.01000093
v 0.00550132 0.00239066 -0.01000101
v 0.00594220 0.00081726 -0.01000112
v 0.00610952 -0.00814590 -0.01000128
v 0.00345827 -0.00490161 -0.01000073
v 0.00777640 -0.00677788 -0.01000158
v 0.00465243 -0.00378629 -0.01000094
v 0.00914436 -0.00511095 -0.01000182
v 0.00550141 -0.00239016 -0.01000108
v 0.01016083 -0.00320918 -0.01000198
v 0.00594223 -0.00081674 -0.01000114
v 0.01078676 -0.00114564 -0.01000207
v 0.00599810 0.00000026 -0.01000114
v -0.01100075 0.02894503 -0.00104277
v -0.01100113 0.02851040 -0.00308766
v -0.01100148 0.02766012 -0.00499750
v -0.01099854 0.02107877 0.00978388
v -0.01099870 0.02306702 0.00913789
v -0.01099893 0.02487753 0.00809263
v -0.01100178 0.02643134 -0.00668883
v -0.01100201 0.02487776 -0.00808771
v -0.01100218 0.02306729 -0.00913302
v -0.01100226 0.02107905 -0.00977907
v -0.01099923 0.02643114 0.00669379
v -0.01099957 0.02765997 0.00500250
v -0.01099995 0.02851031 0.00309268
v -0.01100035 0.02894500 0.00104780
v 0.01099874 0.02116969 -0.00450663
v 0.01099868 0.01974549 -0.00494596
v 0.01099774 0.02107947 -0.00978326
v 0.01099871 0.01825507 -0.00494598
v 0.01099882 0.01683086 -0.00450669
v 0.01099901 0.01559940 -0.00366713
v 0.01099925 0.01467012 -0.00250188
v 0.01099952 0.01412558 -0.00111449
v 0.01099981 0.01401418 0.00037176
v 0.01100008 0.01434581 0.00182482
v 0.01099782 0.02306771 -0.00913721
v 0.01099799 0.02487818 -0.00809190
v 0.01099888 0.02240112 -0.00366703
v 0.01099822 0.02643175 -0.00669302
v 0.01099908 0.02333037 -0.00250176
v 0.01099852 0.02766054 -0.00500169
v 0.01099934 0.02387486 -0.00111435
v 0.01100031 0.01509101 0.00311557
v 0.01100048 0.01618355 0.00412933
v 0.01099887 0.02851082 -0.00309185
v 0.01099925 0.02894544 -0.00104696
v 0.01099962 0.02398622 0.00037190
v 0.01099965 0.02894541 0.00104361
v 0.01099990 0.02365455 0.00182495
v 0.01100037 0.02181675 0.00412942
v 0.01100130 0.02306744 0.00913370
v 0.01100052 0.02047391 0.00477607
v 0.01100146 0.02107918 0.00977969
v 0.01100059 0.01900014 0.00499818
v 0.01100058 0.01752636 0.00477602
v 0.01100005 0.02851073 0.00308849
v 0.01100043 0.02766039 0.00499831
v 0.01100016 0.02290932 0.00311569
v 0.01100077 0.02643156 0.00668960
v 0.01100107 0.02487794 0.00808844
v 0.00619990 0.02365446 0.00182587
v 0.00619962 0.02398613 0.00037282
v 0.00619955 0.02400012 -0.00000083
v 0.00619934 0.02387477 -0.00111344
v 0.00619908 0.02333028 -0.00250084
v 0.00619888 0.02240103 -0.00366611
v 0.00619874 0.02116960 -0.00450572
v 0.00619868 0.01974540 -0.00494505
v 0.00619871 0.01825498 -0.00494507
v 0.00619882 0.01683076 -0.00450578
v 0.00619901 0.01559931 -0.00366621
v 0.00619925 0.01467003 -0.00250097
v 0.00619952 0.01412549 -0.00111358
v 0.00619981 0.01401409 0.00037267
v 0.00620008 0.01434572 0.00182573
v 0.00620031 0.01509092 0.00311649
v 0.00620048 0.01618346 0.00413025
v 0.00620058 0.01752627 0.00477694
v 0.00620059 0.01900004 0.00499910
v 0.00620052 0.02047382 0.00477698
v 0.00620037 0.02181666 0.00413033
v 0.00620016 0.02290923 0.00311660
v -0.00620075 0.02894512 -0.00104368
v -0.00620035 0.02894508 0.00104689
v -0.00620226 0.02107914 -0.00977999
v -0.00620218 0.02306738 -0.00913394
v -0.00620201 0.02487785 -0.00808863
v -0.00620178 0.02643143 -0.00668974
v -0.00620148 0.02766021 -0.00499842
v -0.00620113 0.02851049 -0.00308857
v -0.00619870 0.02306711 0.00913697
v -0.00619854 0.02107886 0.00978296
v -0.00619995 0.02851040 0.00309177
v -0.00619957 0.02766006 0.00500158
v -0.00619923 0.02643123 0.00669287
v -0.00619893 0.02487762 0.00809171
v 0.00620146 0.02107909 0.00978060
v 0.00620130 0.02306735 0.00913461
v 0.00620107 0.02487785 0.00808935
v 0.00619774 0.02107938 -0.00978235
v 0.00619782 0.02306762 -0.00913630
v 0.00619799 0.02487809 -0.00809099
v 0.00620077 0.02643147 0.00669051
v 0.00620043 0.02766030 0.00499922
v 0.00620005 0.02851064 0.00308940
v 0.00619965 0.02894532 0.00104453
v 0.00619925 0.02894535 -0.00104604
v 0.00619887 0.02851073 -0.00309094
v 0.00619852 0.02766044 -0.00500078
v 0.00619823 0.02643166 -0.00669210
f 1 2 3
f 3 2 4
f 3 4 5
f 5 4 6
f 5 6 7
f 7 6 8
f 7 8 9
f 9 8 10
f 9 10 11
f 11 10 12
f 11 12 13
f 13 12 14
f 13 14 15
f 15 14 16
f 16 14 17
f 16 17 18
f 18 17 19
f 18 19 20
f 20 19 21
f 20 21 22
f 22 21 23
f 22 23 24
f 24 23 25
f 24 25 26
f 26 25 27
f 26 27 28
f 28 27 29
f 28 29 30
f 30 29 31
f 30 31 32
f 32 31 33
f 32 33 34
f 34 33 35
f 34 35 36
f 36 35 37
f 36 37 38
f 38 37 39
f 38 39 40
f 40 39 41
f 40 41 42
f 42 41 43
f 42 43 1
f 1 43 44
f 1 44 2
f 45 46 47
f 47 46 48
f 49 50 51
f 51 50 52
f 53 54 48
f 48 54 55
f 48 55 47
f 47 55 56
f 56 57 47
f 47 57 58
f 47 58 59
f 59 58 60
f 59 60 61
f 61 60 62
f 61 62 63
f 63 62 64
f 64 62 65
f 64 65 66
f 66 65 67
f 66 67 68
f 68 67 69
f 68 69 70
f 70 69 71
f 70 71 72
f 72 71 73
f 73 71 74
f 73 74 75
f 75 74 76
f 75 76 77
f 77 76 78
f 77 78 79
f 80 81 51
f 51 81 82
f 51 82 48
f 48 82 83
f 48 83 53
f 79 78 84
f 84 78 85
f 84 85 86
f 86 85 87
f 86 87 88
f 88 87 89
f 88 89 52
f 52 89 90
f 52 90 51
f 51 90 91
f 51 91 80
f 92 93 94
f 94 93 95
f 96 97 98
f 98 97 99
f 100 101 95
f 94 102 103
f 103 102 104
f 101 105 95
f 95 105 106
f 95 106 94
f 94 106 107
f 94 107 102
f 108 109 110
f 108 110 111
f 111 110 112
f 111 112 113
f 113 112 114
f 113 114 104
f 104 114 115
f 104 115 103
f 116 117 98
f 98 117 118
f 98 118 95
f 95 118 119
f 95 119 100
f 109 108 120
f 120 108 121
f 120 121 122
f 122 121 123
f 122 123 124
f 124 123 125
f 124 125 126
f 116 98 127
f 127 98 99
f 127 99 128
f 126 125 129
f 129 125 130
f 129 130 131
f 131 130 132
f 131 132 133
f 133 132 134
f 133 134 135
f 135 134 136
f 135 136 137
f 137 136 99
f 99 136 138
f 99 138 128
f 27 25 50
f 50 25 23
f 50 23 52
f 52 23 21
f 52 21 19
f 35 139 37
f 37 139 140
f 37 140 39
f 39 140 141
f 39 141 41
f 19 17 52
f 52 17 14
f 52 14 94
f 94 14 12
f 94 12 10
f 10 8 94
f 94 8 6
f 94 6 92
f 50 142 27
f 27 142 143
f 27 143 29
f 29 143 144
f 29 144 31
f 141 145 41
f 41 145 146
f 41 146 43
f 43 146 147
f 43 147 44
f 44 147 148
f 44 148 2
f 2 148 92
f 2 92 4
f 4 92 6
f 144 149 31
f 31 149 150
f 31 150 33
f 33 150 151
f 33 151 35
f 35 151 152
f 35 152 139
f 153 154 155
f 155 154 97
f 97 154 156
f 97 156 99
f 99 156 157
f 99 157 158
f 158 159 99
f 99 159 160
f 99 160 47
f 47 160 161
f 47 161 162
f 155 163 153
f 153 163 164
f 153 164 165
f 165 164 166
f 165 166 167
f 167 166 168
f 167 168 169
f 162 170 47
f 47 170 171
f 47 171 45
f 168 172 169
f 169 172 173
f 169 173 174
f 174 173 175
f 174 175 176
f 177 178 179
f 179 178 180
f 179 180 181
f 181 180 45
f 181 45 182
f 182 45 171
f 175 183 176
f 176 183 184
f 176 184 185
f 185 184 186
f 185 186 177
f 177 186 187
f 177 187 178
f 89 102 90
f 90 102 107
f 90 107 91
f 91 107 106
f 91 106 80
f 80 106 105
f 80 105 81
f 81 105 101
f 81 101 82
f 82 101 100
f 82 100 83
f 83 100 119
f 83 119 53
f 53 119 118
f 53 118 54
f 54 118 117
f 54 117 55
f 55 117 116
f 55 116 56
f 56 116 127
f 56 127 57
f 57 127 128
f 57 128 58
f 58 128 138
f 58 138 60
f 60 138 136
f 60 136 62
f 62 136 134
f 62 134 65
f 65 134 132
f 65 132 67
f 67 132 130
f 67 130 69
f 69 130 125
f 69 125 71
f 71 125 123
f 71 123 74
f 74 123 121
f 74 121 76
f 76 121 108
f 76 108 78
f 78 108 111
f 78 111 85
f 85 111 113
f 85 113 87
f 87 113 104
f 87 104 89
f 89 104 102
f 188 189 174
f 174 189 190
f 174 190 169
f 169 190 191
f 169 191 167
f 167 191 192
f 167 192 165
f 165 192 193
f 165 193 153
f 153 193 194
f 153 194 154
f 154 194 195
f 154 195 156
f 156 195 196
f 156 196 157
f 157 196 197
f 157 197 158
f 158 197 198
f 158 198 159
f 159 198 199
f 159 199 160
f 160 199 200
f 160 200 161
f 161 200 201
f 161 201 162
f 162 201 202
f 162 202 170
f 170 202 203
f 170 203 171
f 171 203 204
f 171 204 182
f 182 204 205
f 182 205 181
f 181 205 206
f 181 206 179
f 179 206 207
f 179 207 177
f 177 207 208
f 177 208 185
f 185 208 209
f 185 209 176
f 176 209 188
f 176 188 174
f 7 9 95
f 36 210 34
f 34 210 211
f 34 211 32
f 42 1 212
f 212 1 93
f 93 1 3
f 93 3 95
f 95 3 5
f 95 5 7
f 9 11 95
f 95 11 13
f 95 13 51
f 51 13 15
f 51 15 16
f 16 18 51
f 51 18 20
f 51 20 49
f 212 213 42
f 42 213 214
f 42 214 40
f 40 214 215
f 40 215 38
f 38 215 216
f 38 216 36
f 36 216 217
f 36 217 210
f 28 218 26
f 26 218 219
f 26 219 24
f 24 219 49
f 24 49 22
f 22 49 20
f 211 220 32
f 32 220 221
f 32 221 30
f 30 221 222
f 30 222 28
f 28 222 223
f 28 223 218
f 203 202 48
f 48 202 201
f 48 201 98
f 98 201 200
f 98 200 199
f 46 224 207
f 207 224 225
f 207 225 208
f 208 225 226
f 208 226 209
f 207 206 46
f 46 206 205
f 46 205 48
f 48 205 204
f 48 204 203
f 199 198 98
f 98 198 197
f 98 197 96
f 96 197 196
f 96 196 227
f 227 196 195
f 227 195 228
f 228 195 194
f 228 194 229
f 229 194 193
f 226 230 209
f 209 230 231
f 209 231 188
f 188 231 232
f 188 232 189
f 189 232 233
f 189 233 190
f 190 233 234
f 190 234 191
f 191 234 235
f 191 235 192
f 192 235 236
f 192 236 193
f 193 236 237
f 193 237 229
f 98 95 48
f 48 95 51
f 72 122 124
f 72 124 70
f 70 124 126
f 70 126 68
f 68 126 129
f 68 129 66
f 66 129 131
f 66 131 64
f 64 131 133
f 64 133 63
f 63 133 135
f 63 135 61
f 61 135 137
f 61 137 59
f 59 137 99
f 59 99 47
f 52 94 103
f 52 103 88
f 88 103 115
f 88 115 86
f 86 115 114
f 86 114 84
f 84 114 112
f 84 112 79
f 79 112 110
f 79 110 77
f 77 110 109
f 77 109 75
f 75 109 120
f 75 120 73
f 73 120 122
f 73 122 72
f 93 92 148
f 93 148 212
f 212 148 147
f 212 147 213
f 213 147 146
f 213 146 214
f 214 146 145
f 214 145 215
f 215 145 141
f 215 141 216
f 216 141 140
f 216 140 217
f 217 140 139
f 217 139 210
f 210 139 152
f 210 152 211
f 211 152 151
f 211 151 220
f 220 151 150
f 220 150 221
f 221 150 149
f 221 149 222
f 222 149 144
f 222 144 223
f 223 144 143
f 223 143 218
f 218 143 142
f 218 142 219
f 219 142 50
f 219 50 49
f 97 96 227
f 97 227 155
f 155 227 228
f 155 228 163
f 163 228 229
f 163 229 164
f 164 229 237
f 164 237 166
f 166 237 236
f 166 236 168
f 168 236 235
f 168 235 172
f 172 235 234
f 172 234 173
f 173 234 233
f 173 233 175
f 175 233 232
f 175 232 183
f 183 232 231
f 183 231 184
f 184 231 230
f 184 230 186
f 186 230 226
f 186 226 187
f 187 226 225
f 187 225 178
f 178 225 224
f 178 224 180
f 180 224 46
f 180 46 45

